/* XPM */
static char *result[] = {
/* columns rows colors chars-per-pixel */
"32 32 154 2 ",
"   c #463D35",
".  c #4E3F35",
"X  c #4E3D39",
"o  c #3F403E",
"O  c #45423A",
"+  c #4B443D",
"@  c #53443B",
"#  c #574B3F",
"$  c #413F41",
"%  c #3E4444",
"&  c #3E4949",
"*  c #454444",
"=  c #4B4544",
"-  c #444947",
";  c #4B4A45",
":  c #46474A",
">  c #494649",
",  c #45494A",
"<  c #4B4B4B",
"1  c #544543",
"2  c #554A44",
"3  c #5B4D42",
"4  c #524B4A",
"5  c #594F49",
"6  c #4E504F",
"7  c #52514E",
"8  c #5C524C",
"9  c #4E4F50",
"0  c #514F53",
"q  c #4F5251",
"w  c #4D5658",
"e  c #4D585B",
"r  c #545454",
"t  c #5A5655",
"y  c #575957",
"u  c #555659",
"i  c #55585A",
"p  c #5C5C5C",
"a  c #615246",
"s  c #6A5343",
"d  c #69564D",
"f  c #6D594C",
"g  c #715744",
"h  c #7A5A45",
"j  c #715A48",
"k  c #605653",
"l  c #635A57",
"z  c #6D5A52",
"x  c #625F5E",
"c  c #7A5F50",
"v  c #5F605C",
"b  c #7C614F",
"n  c #61615E",
"m  c #7C6453",
"M  c #7B665C",
"N  c #7B6C5E",
"B  c #5D5E62",
"V  c #615C60",
"C  c #5E6363",
"Z  c #646464",
"A  c #696664",
"S  c #676A66",
"D  c #646569",
"F  c #69676A",
"G  c #65696B",
"H  c #696968",
"J  c #646771",
"K  c #616A70",
"L  c #966442",
"P  c #996642",
"I  c #9B6945",
"U  c #9A6748",
"Y  c #9F6D4A",
"T  c #816355",
"R  c #886A55",
"E  c #8D6F5C",
"W  c #916F59",
"Q  c #9E775E",
"!  c #98795F",
"~  c #A06B47",
"^  c #A2704D",
"/  c #AC7D5D",
"(  c #857163",
")  c #937562",
"_  c #9D7A63",
"`  c #907668",
"'  c #947969",
"]  c #9D7E69",
"[  c #A27F64",
"{  c #A57C69",
"}  c #AA7E6D",
"|  c #A47E72",
" . c #9B8172",
".. c #A68165",
"X. c #AB8264",
"o. c #AA876F",
"O. c #B2876E",
"+. c #BB8B6C",
"@. c #A98771",
"#. c #AA8A72",
"$. c #B58E73",
"%. c #BB8E71",
"&. c #BB9076",
"*. c #BC947A",
"=. c #C38E6A",
"-. c #C5926E",
";. c #C99571",
":. c #CB9976",
">. c #C19C7F",
",. c #CD9C7A",
"<. c #D29C77",
"1. c #D49F7C",
"2. c #CDA07D",
"3. c #D4A37E",
"4. c #D9A47E",
"5. c #BEA48F",
"6. c #CB9F80",
"7. c #C6A184",
"8. c #CDA381",
"9. c #C7A68F",
"0. c #CCA78C",
"q. c #CCA88D",
"w. c #D2A384",
"e. c #DBA682",
"r. c #DCAA85",
"t. c #D6AB89",
"y. c #DDAD8B",
"u. c #DEB18E",
"i. c #D5AF90",
"p. c #D7B196",
"a. c #DEB192",
"s. c #E2AB84",
"d. c #E2AF8C",
"f. c #E4B185",
"g. c #E4B18D",
"h. c #E4B493",
"j. c #E8B390",
"k. c #E6B897",
"l. c #EBBA95",
"z. c #EEBE9C",
"x. c #F3BE97",
"c. c #F4BE9A",
"v. c #EEC09C",
"b. c #F5C297",
"n. c #F8C097",
"m. c #F4C19D",
"M. c #FBC59C",
"N. c #F5C4A2",
"B. c #FAC6A3",
"V. c #FDCAA6",
"C. c #F5C9AA",
"Z. c #FECDAA",
"A. c #FAD0A8",
"S. c #FED1B0",
/* pixels */
"< r r r Z p < < - * r r r Z n n Z i , , : i r r 8 ( $.+.+.O.R r ",
"r r y r r * < y * * r r r p Z Z l r w * : < t 0 =  .p.r.y.w.{ 2 ",
"< * < < * < r r r < * < < < r r < < 0 * O   2 = X @.i.g.l.3._ 3 ",
"r * < < < r r r r * * * * < ; < r ; % * ; ( ` ` ' *.d.n.b.2.] 4 ",
"y r p r < r r r < * * * < r r p H n < * 5 5.i.u.t.u.n.M.g.*.M 7 ",
"r p H p < < y r C ; * < y r p D A A V * 3 7.r.s.f.M.B.h.*.T 8 V ",
"y Z Z H i - r Z Z * < y 0 p D D A A t * 3 7.s.d.N.C.k.$.m 5 Z V ",
"7 r Z D i 9 Z Z Z , y 7 y Z Z D D l 5 a j 2.f.N.V.h.*.m 8 Z D p ",
"y 7 y Z i < C C C : > y 4 y D J p z 9.0.q.g.m.B.g.&.m 5 D D p ; ",
"+ 8 q r r = 4 4 1 1 1 4 4 ; i D k b t.d.a.N.B.j.*.m @ 0 Z p : < ",
"; ; - * = . s ] } } { | | f @ + m 6.e.s.N.B.h.%.m + : > < > > < ",
"- 6 <   f _ X.3.<.1.e.w.w.O.Q _ o.t.g.B.B.h.%.b 2 $ r B r 9 i ; ",
"e y + f #.2.4.f.x.x.n.m.j.w.8.w.t.y.N.C.d.*.c 1 $ r V Z V B 0 r ",
"w - f #.0.g.x.m.V.V.V.V.N.u.t.r.d.N.C.k.$.m + r 4 y F D V r t 0 ",
"; O R >.j.m.A.Z.Z.Z.V.V.V.m.v.c.N.B.k.0.#.2 r r > 0 B B r 8 0 * ",
"* g X.3.l.A.Z.A.Z.V.V.Z.Z.Z.A.Z.Z.m.4.*.N = w * * $ r 9 ; 7 * * ",
"$ ) 3.a.v.Z.V.Z.Z.A.Z.Z.Z.Z.V.Z.Z.N.w...+ 7 7 < 7 < * * * < : r ",
"= ) :.z.S.B.n.B.B.N.N.V.Z.Z.V.V.Z.N.4...# v Z Z p r - < r r r r ",
": E :.z.C.x.3.,.:.,.y.m.V.Z.Z.Z.Z.N.4...# p S H r y r < r r r r ",
": W ,.z.z.r.=.Y P ^ ;.r.N.Z.Z.Z.A.N.4...# Z Z H v r * * r t 7 Z ",
"4 ) ,.k.v.-.~ L P P Y ,.m.Z.Z.V.S.m.e...# p Z Z r r r < r q p H ",
": W ,.d.h.-.P P U U I ,.m.Z.V.V.Z.z.e.[ # p Z < y r * * r r < Z ",
"$ ( 6.r.r.-.U L I L U ,.N.Z.V.B.N.d.w.] 2 < < * < * ; : * , * < ",
"y 8 ! <.s.4.+.U I ~ -.4.m.V.Z.V.c.w...d x l : = r r < r < r * * ",
", = R ,.e.s.e.=.;.;.e.z.B.V.V.c.d.w.' 2 V 0 < r r r t y B Z r < ",
"& O a [ w.e.s.d.y.z.z.B.A.v.k.d.6.@.z = 0 : * < * * r p H p 7 < ",
"% o O # ] ,.<.e.y.k.z.z.c.a.w.,.o.j r 0 > : * 9 < % r Z D n r * ",
"9 y < O a T _ ,.<.,.,.,.,.,./ R c k V u r * r r r < r Z Z Z r r ",
"v S < , ; + a E W W W W W W h # t D C 0 t ; r 9 r < < B A Z q r ",
"n S q r i w r 0 2 4 4 = = = r D K K Z p ; * < y r * < r v Z y 9 ",
"S H r * 9 y q B Z Z p < = r < r Z G p r x < r r y r 9 r 0 y r y ",
"p Z y * * q r r C p < < p r < * r y < B Z < < r r * = r r 9 y < "
};
