/* XPM */
static char *result[] = {
/* columns rows colors chars-per-pixel */
"69 69 222 2 ",
"   c #2B2B2B",
".  c #3F362F",
"X  c #333333",
"o  c #3C3C3C",
"O  c #3E3736",
"+  c #48382D",
"@  c #453C34",
"#  c #493D33",
"$  c #443E3B",
"%  c #473C39",
"&  c #533F32",
"*  c #3D423F",
"=  c #4F4337",
"-  c #44423C",
";  c #4B433C",
":  c #4A463B",
">  c #53453B",
",  c #54493C",
"<  c #5A4639",
"1  c #634B3D",
"2  c #664B3A",
"3  c #69513E",
"4  c #734E33",
"5  c #3E3D42",
"6  c #443F42",
"7  c #3E4243",
"8  c #3B4647",
"9  c #444444",
"0  c #4B4443",
"q  c #464945",
"w  c #4B4945",
"e  c #454649",
"r  c #49464A",
"t  c #454A4A",
"y  c #4B4B4B",
"u  c #534642",
"i  c #5A4543",
"p  c #544B44",
"a  c #5B4C43",
"s  c #534D4B",
"d  c #5A4C49",
"f  c #4D534F",
"g  c #54514D",
"h  c #5C524D",
"j  c #5B5245",
"k  c #4C4D51",
"l  c #454F51",
"z  c #524E51",
"x  c #584F50",
"c  c #4E5254",
"v  c #4D5659",
"b  c #545354",
"n  c #5A5554",
"m  c #5B5956",
"M  c #555659",
"N  c #5A575A",
"B  c #555A5C",
"V  c #5B5B5B",
"C  c #555A57",
"Z  c #634E42",
"A  c #655245",
"S  c #695345",
"D  c #64544B",
"F  c #6B5649",
"G  c #6C594C",
"H  c #6B5849",
"J  c #725B4C",
"K  c #775A47",
"L  c #635A55",
"P  c #615D5B",
"I  c #6B5C55",
"U  c #735E50",
"Y  c #5A605C",
"T  c #78614E",
"R  c #61625E",
"E  c #6D6258",
"W  c #7B6353",
"Q  c #75635A",
"!  c #796459",
"~  c #545D61",
"^  c #5C5D61",
"/  c #615E62",
"(  c #5E6163",
")  c #5E6568",
"_  c #5F6A70",
"`  c #636364",
"'  c #696563",
"]  c #666864",
"[  c #6A6A66",
"{  c #646569",
"}  c #696669",
"|  c #646A6D",
" . c #6A696A",
".. c #656972",
"X. c #7D6F64",
"o. c #925F3D",
"O. c #8F5D3A",
"+. c #94613E",
"@. c #845D47",
"#. c #83624C",
"$. c #966442",
"%. c #996643",
"&. c #9B6946",
"*. c #9D6C4A",
"=. c #93644A",
"-. c #826552",
";. c #846956",
":. c #846A5A",
">. c #8A6D5A",
",. c #876759",
"<. c #946E57",
"1. c #88705D",
"2. c #95725C",
"3. c #9E7258",
"4. c #A16D48",
"5. c #A2704D",
"6. c #A47452",
"7. c #A97857",
"8. c #B27F5C",
"9. c #B17B56",
"0. c #A06F51",
"q. c #836B63",
"w. c #8A7363",
"e. c #867566",
"r. c #9C7B64",
"t. c #957A6A",
"y. c #9D7E6A",
"u. c #947764",
"i. c #9A7F70",
"p. c #A27E65",
"a. c #A27F69",
"s. c #AA7F61",
"d. c #B5835E",
"f. c #A58265",
"g. c #A4836C",
"h. c #AB856B",
"j. c #AD8A6E",
"k. c #A98064",
"l. c #B48A6D",
"z. c #B98C6C",
"x. c #B78566",
"c. c #AB8A73",
"v. c #AA8877",
"b. c #B48C75",
"n. c #B78C77",
"m. c #B39077",
"M. c #BD9273",
"N. c #B4927C",
"B. c #BC957A",
"V. c #BB987D",
"C. c #B69175",
"Z. c #968170",
"A. c #C18D6A",
"S. c #C5926D",
"D. c #C29474",
"F. c #C99573",
"G. c #CB9976",
"H. c #C2957B",
"J. c #C49A7C",
"K. c #CD9C7A",
"L. c #CA9878",
"P. c #D19E7B",
"I. c #D39B76",
"U. c #CAA07E",
"Y. c #D4A27C",
"T. c #DBA47E",
"R. c #DEA97F",
"E. c #E1A77F",
"W. c #BC9C85",
"Q. c #AC9484",
"!. c #BEA38E",
"~. c #B8A392",
"^. c #C49D83",
"/. c #C99D81",
"(. c #C6A185",
"). c #CEA385",
"_. c #CAA58B",
"`. c #D4A483",
"'. c #DBA683",
"]. c #D6A986",
"[. c #DBAA85",
"{. c #D5AB8C",
"}. c #DCAC8A",
"|. c #D6A688",
" X c #DEB08D",
".X c #CBAB94",
"XX c #D5AE91",
"oX c #DCB293",
"OX c #D7B49A",
"+X c #E2AC84",
"@X c #E2AE8B",
"#X c #E3A983",
"$X c #E3B18C",
"%X c #EAB48E",
"&X c #E8B488",
"*X c #E4B492",
"=X c #EBB693",
"-X c #EBBA95",
";X c #ECBD9A",
":X c #E7B998",
">X c #F2BC94",
",X c #F2BE9B",
"<X c #F8BC97",
"1X c #D7B8A1",
"2X c #EABDA0",
"3X c #EFC19F",
"4X c #F4C196",
"5X c #F3C19D",
"6X c #FBC49C",
"7X c #FCC99E",
"8X c #EEC1A2",
"9X c #F4C4A3",
"0X c #FBC6A3",
"qX c #F6C9A6",
"wX c #FDCAA5",
"eX c #F7C9AA",
"rX c #FECCAA",
"tX c #F4C7A8",
"yX c #FFD0AD",
"uX c #FDD1A6",
"iX c #FFD1B0",
"pX c #FCCFB0",
/* pixels */
"y z b N b b b n b V ` ^ V b b b 0 e q o 9 b b z b b b V ` ] ` V P P R P V k e e k c l e e c b b g c m m d I w.t.3.7.0.*.0.0.3.<.-.G s M e ",
"q q y V V y t b ^ ] ] ` b q 9 q y y 9 9 0 b V V q y b ` ` ` ^ V P '  .[ ^ C l t 7 7 e r b V N b b C R m d ! v..X^.).`.`.`.|.^.N.r.W h b 6 ",
"t y b b C b s b n V P b 9 6 r z k t 9 q t k n V t b M V ` ` ` ` P [ [ V M M c l 9 5 o 9 k b b b M b b s 6 U Q.1XOX X X$X*XoX|.^.h.:.d y 5 ",
"b ` V y y ^ ` M t y y 9 o 9 b ] b q 6 0 q q y b P b b b m `  . .` [ ' s t M ^ V k 5 5 9 q p s m V z r 0 6 U Q..XXX|.Y.`.[.|.).H.l.-.u 0 O ",
"s V b q 9 V V z r q - 9 9 y b V V y q t 9 $ 9 z ` b y e y N / ` R ` V 0 9 b ` ^ l r 9 q - : p L N z 6 6 6 q.W.OXXX].R.E.$X}.Y.U.h.#., 0 O ",
"q t 9 9 9 t q 9 9 5 o t C V M y V b b y e 9 q y y t 0 9 q t y s q g y 9 6 t k y 7 7 9 6 @ . + = 6 % % % % @.Q.1X].&X&X4X4X$XY.J.h.#.a d $ ",
"q 9 9 9 0 q 9 9 o 9 e b V V b b V V M y q 9 q 9 o 7 9 q r t q 9 $ 9 0 q 9 9 9 o 9 9 9 - ; p , , Z i Z Z 2 ,.n.|.R.[.>X6X4X[.U.M.j.-.a g ; ",
"z b y 9 9 b b r q y b b b g b b k n b e 9 9 q o 9 $ 9 q y s t 9 y y b n g t q 9 r q - w I e.Z.Z.i.t.i.t.r.a.|.}.&X>X7X7X6X&XY.U.c.! , s $ ",
"V V N y y V V V 9 b V V y t b ` V y 9 9 9 9 6 7 z 9 o t V ` b r c V  . .` n y t e 9 $ : X.~.1X.XOXXX.X.X{.{.}.#X>X6XwX7X>X&X`.B.v.U z r   ",
"b b b b V ` V b 9 t b M m b b b b b y q 9 9 9 9 9 q y b b b b b C /  . .' m g y t q $ ; X.!.OX_.{.{.[.}.`.].&X=X6X7X0X<X%X}.H.a.w.L x z X ",
"b y y V ] ] V b q q 0 y V V b y b V V y q q 9 9 o y V V s y b V ` {  . .' R V b t e $ u e.!.OX].R.{. X[.'.}.>X6X7X7X6X@X|./.a.,.D x M ~ o ",
"b b b `  .} ` b s e 9 e b V n y M P R k 9 9 9 r q b V V y y M ` | ] ] [ ' ' ` ` t 0 - , 1.(.*X[.R.R.[.}.&X-XwXrX7X4X%X'.^.a.,.J p z / ^ 5 ",
"b V R ` ] ] ` ` V b 9 9 y b n C ` ` ` b 6 o q y M b b y k V ` { } { ` R ' [ [ ` t 0 $ , >.(. X[. XR.R.&X;X0XwXwX5X}.`.^.a.-.Z D n P } ^ 5 ",
"b V ` ] ` ` { } ] N t 9 q k V ] ] { V y o 9 r b R b t y V ` ] ` { { { ' ' ' R N t e $ > >.(.$XR.R. X X3X0XpXeX9X:X`.m.h.w.Z i x ` { } N 5 ",
"b b N ( ] / ]  .} V k q y b / ] ] } P y q y b C n b b m P ] } ] ) { {  .Q P n t e q $ > >.U.$XR. X%X3X3XpXeX2XoX{.B.r.-.G j n N } { } N o ",
"b y y V { ` ` [ } V z y M ^ ` { ] { Y t t V P V t b V ` { ] ] { ) |  . .` n u : ; ; # < >.J.&XT.+X:XuXyXpX2X*X{.^.c.;.1 u L { { ] / } N o ",
"g b b g Y ] | ` ` M e l ~ ..| ^ ) ] Y q * q C C z x N x V ' [ ] ..../ ^ n P ! Q :.W T >.g.K.&X=X-X5XwXwX9X;X].B.g.:.G h n / ..} { / b y 5 ",
"m m g f g Y ` { | B e e ~ | ..{ | | ( c 8 w g b N x x z m ] [ { ......M d Q N.(.!.V.W.W.).{.&X=XwXwX0X4X%X[.D.h.;.A d L ^ / | | ] V s y o ",
"m g g f g b V ` { v e e z ^ ^ N ( ( C y 9 6 t y / N z 6 z ^ ( ~ / ..{ z % :.W.1XoXoXOXOXOXoX,X0XuXwX4X$X`.M.p.>.1 = s P } } } { V b 0 t O ",
"p 0 s m m f c ^ ` M r r z z s r q q w $ O $ % 0 N x 6 6 r M V ( ....} d & U V. X X{.{.{.oX-X,XrX0X4X*X].J.g.;.S > ; b }  .} / V b q 9 y o ",
": : p m C w q b ( m y 9 0 w p d i i i i i 6 Z Z 6 6 d 6 0 0 b V ../ L D S 2.K. X$X[.{.$X2XrXrX<X>X%X|.H.c.>.D = $ 9 x { { V P b r o 9 b 0 ",
"s : w g g 9 * t s q - @ + = F ! ,.,.,.,.q.,.,.q.,.q.q.q.d % % p d 6 d U u.N.`.}.R.R.@X,XpXpXrX,X-X'.M.f.W D u - 6 6 y M x x z y 9 o q N y ",
"g 0 ; q q - $ 9 @ ; > & & 1 ;.y.n.n.x.n.n.8.a.a.v.Q.v.i.W < < < , + Z t.W.).[.T.E.#X>X0XpX,X,X*X'.M.r.-.A : $ e r 9 r z e 9 r y w 9 t b e ",
"q - q q t q - - : d I J K #.p.H.L.n.L.L.L.L./././.^.H.b.r.@.3 K W 3 K m.{.}.}.#X%X<X0XwX,X,X*X@XM.f.>.G u o 5 t N l z b r 5 9 r b t q y 9 ",
"q 8 q C Y f - + + A u.g.f.s.z.Y.#X#X'.I.T.T.I.P.P.'.@X|.M.f.p.f.g.r.f.V.{. X}. X4X0XwX0X<X;X|.H.f.W 1 i w 5 5 r N ~ / } N 9 r ^ { b 9 y O ",
"l l v V g w : , A ;.c.V.M.S.P.[.#X#X#X#X@X&X&X%X%X@X}.`.K.M.M.z.C.M.D.U.].}.*X-X9XrXwX,X*X}.H.a.>.D > $ 0 r r z / / { ' / b c M V b t y X ",
"v B Y v q : , H u.j.V.].'.T.R.R.&X-X<X<X4X4X6X0X,X,X@X}.].`.{.Y.U.].[.].{. X3X9XeXeX5X$X|./.p.-.Z u % $ 0 k N V / ' { / / { ^ c y V b b o ",
"~ ~ B y - : H W V.V.).[.@X&X+X+X4X9XwXrXqXwXwXrXpX,X=X@X X X X].T. X$X X X3XeXuXtXtX*XU.n.j.<.S % r s 9 9 z / } } } } { { / ^ c t b b M 9 ",
"v v t q ; G e.g._.).].[.%X-X>X-X3XqXyXyXuXwXwXrXpXpX,X;X X|.{.].|.'.@X$X-XrXyXtX3XOX].M.p.>.G > $ z V k 0 y /  .} } { { / M x b b V g z o ",
"v 8 - @ A e.N.(.{.{.}.%X5XwXwXrX9XuXyXiXrXwXwXwX,XrXrX,X*X{.]. X'.@X@X=X9XyXeX8XoX XJ.h.;.Z % $ r ^ / b 0 r N { | / { { N s s n V V q q X ",
"l t - : A u.V.(.{. X-X5XwXyXiXiXqXwXrXrXwXwXwXwX,XrXrX0X,X-X-X-X2X=X;X,XwXwX2X:X X).J.j.-., 6 l M ~ M k w r z M / { ^ N b n d h m c 9 9   ",
"c q @ + 2 <.j.U. X-X5X0XwXrXeXqXuXrXwXwXwXrXwXrXpXrXrXwXwX0X7XqXrX0X0XrXrX,X:XoX X(.(.N.w., y / ^ c e 9 r r l y ^ { ^ y s N I s 0 e $ t X ",
"y $ < S #.7.F.U.}.:X9XrXrXrXrXpXrXrXrXwXrXwXwXwXwXrXrXuXrXuXrXrXpXrXeXrXrX,X@X`.U.U.c.Z.L : q Y b y q 9 5 o q y b M b y s V m n 9 $ o y o ",
"6 % A <.k.A.Y.Y.[.:X9XwXrXwXwXrXyXrXrXrXwXrXeXrXrXrXrXrXrXrXrXrXrXrXrXpXrX,X@XP.U.l.1.m f - * f t - o 5 9 $ 9 q y z t o 9 y y 9 9 9 6 b o ",
"5 6 U g.D.`.@X}. X:XwXrXrXwXwXrXrXrXrXrXrXrXwXwXrXrXrXrXrXrXrXrXrXrXrXrXrX4X@XY.D.f.3 = - w q q e 9 9 q t q 9 9 r q 9 o 9 y t o 9 t t b o ",
"9 $ G f.L.`.$X*X;X8XrXwXwXwXwXrXrXrXrXpXrXrXyXyXrXyXrXrXrXrXrXrXrXrXrXrXrX4X+XY.F.h.H = : Y Y g V n b b b c 9 9 9 9 9 o q C n t q y z V 9 ",
"r 6 F p.M.K.$X:XeXyXyXrXwX6XrXrXwXwXwXrXrXrXrXrXyXrXrXrXrXwXwXrXrXrXeXiXeX5X@XY.D.j.T = s R ] R ] { ` ` V V y 0 9 9 q e z V V b r b b V q ",
"k 0 J a.D.Y.@X:XiXiXyX0X,X>X,X,X9X9X,X9X,X,X,X5XrXrXrXrXwXrXwXrXrXrXrXrXrX,X+XY.z.f.T = p Y ` ` ` { ] P V M b c r q r g b b b b b b g C 9 ",
"k u J a.D.K. X-XrXyXrX5X=X+X+X[.@X}.}.}.[.@X*X*XrX0XwXwXrXwXrXrXrXrXrXrXrX5X&XY.z.f.T = f Y ` ] P ] ` N b b V m y q y V V y y b V b y N 9 ",
"k 6 S a.M.G.@X3XtXeXqX5X@X`.I.I.G.G.F.G.P.`.}.*X0XrXrXwXwXrXrXrXwXrXrXeXrX5X+XY.D.f.K , g R ]  .]  .{ b t s M V b r y ` V y y V P b t b 9 ",
"r 6 F a.D.K.@X,XeX3X*X$X$X`.A.7.6.5.5.5.7.A.`.$X@X;X0XrXrXrXwXrXuXrXrXiXyX5X$XY.D.f.K = g ` R ` }  .] / V N b y 9 9 7 o y ` N y y y R P 9 ",
"r 6 G a.M.K.$X,XyX8X$X[.T.S.8.4.%.$.%.&.6.d.G.'.}.=X0XrXrXwXwXrXrXrXrXyXrX,X+XY.D.f.H = g R ] [ ` ] { ` V V b t 9 9 0 t b V V C y b ] { y ",
"k 0 G a.M.K.$X;XyX9X$XG.A.9.5.4.o.+.o.+.&.6.x.A.'.*X9XrXrXrXrXrXrXrXrXrXwX;X+XY.z.f.H = g ` ` [ ` ] ] V b b b b q t b b b y y V M V { } y ",
"z u J a.M.P.@X:XqX8X}.F.9.4.+.+.$.%.$.+.$.$.*.8.`.@X9XwXrXrXrXrXwXrXrXrXwX4X+XY.F.f.T = g Y ` [ { ] ` m y y b R s y b V m y y b R `  .] t ",
"k u U p.M.P.@X*X;X:XoXF.9.+.+.+.&.*.&.$.&.+.&.7.P.@X5XwXrXwX0XrXwXrXiXiXrX;X@XY.D.f.T = g Y [ ] { ^ V b b b b N y e y b V b b b N V  .] t ",
"r w G a.D.P.@X}.*X*X@XG.9.%.+.$.+.*.+.&.*.+.&.d.`.@X9XwXpXwXrXrX0XrXrXyXwX;X@XY.M.f.T = g R [  .L b t b ` V b q 9 - 9 e b V b b y c ] } t ",
"6 0 J p.M.Y.}.[.{.}.[.F.9.%.+.$.+.&.+.$.*.+.+.d.Y.$X9XrXrXrXrXrXwXwXrXeX;X*X+XR.S.f.T = w b Y Y b q 9 y N m t o 9 7 9 9 y b b y 9 0 N V 9 ",
"5 6 I y.B.|.}.'.'.+X[.S.9.4.$.&.+.&.+.+.*.O.O.d.`.$X9XyXiXrXwXwXwXwX9X,X:X$X[.{.J.g.J : : y g g y 9 9 0 t t 0 e q 0 0 9 q r t q q q b b X ",
"5 r I e.c.J.].R.Y.&X#XG.8.*.=.@.%.*.*.+.o.4.7.d.Y.*X9XrXuXwXrXiX<XrX,X=X'.'.}._.v.t.U 6 6 r z r 9 7 6 9 q e q 9 y y q 9 9 q e 9 $ 9 9 9 X ",
"c N L I ;.h.G.Y.R.R.#XP.G.z.3.=.o.+.+.+.%.7.A.G.T.&X0XwXrXwXwXrXrXpXpX=X'.`./.a.,.I I / P N n 6 9 6 9 t s c t 9 z n y 9 9 z b 0 9 9 9 9 o ",
"~ V s > Z 2.M.G.+X#X#X#X#X`.z.3.4.4.4.4.6.A.I.+X[.%X,X0XwXwXwXwX0XrX<X,X#X`.v.<.Z 6 D } } / N r 9 q y b V V z q b V V q t ^ ^ b e 9 9 y o ",
"l c w % < 2.M.K.[.E.E.R.@X@XL.8.d.d.d.x.A.F.E.&X=X>X6XwXwXwXrXrX<X<X=X#X}.).n.t.S i x } / N z z r y b m m V b b b C N b n ] ] V z q q y o ",
"8 t q : A w.n./.`.#X#X#X'.#X'.F.Y.Y.P.Y.Y.T.@X$X0X0XwXrXrXwXwXwX,X=X#X'.|.^.Q.t.F i x / ^ r r r y b V b y y b ` s c b V ] ' { P V y r g 6 ",
"8 8 q - d W y.M./.|.+X#X'.#X#X#X+X}.$X*X:X*X:X:XrXrXiXuX9X9X,X5X>X@X'.|.^.n.u.U d 6 z ^ c t 6 6 t z b s 9 q k ` b z N ] | { P ` V b t y o ",
"l 8 7 - : a U >.n.J.'.'.R.E.#X@X[.}.*X;X9X;X8XqXrXrXiXeX;XoX X X@X}.`.J.n.u.U Z 6 6 k M t e r 9 0 t y t 6 7 q c C C N ] } ] ^ V y y 9 q o ",
"8 8 o - @ # < K a.b.J.`.'.E.E.R.{.].oX;X9X9XwXrXtXeXrX8X*X|.`.`.}.'./.n.i.! Z 6 6 6 k 6 5 6 r e 9 9 0 t 9 9 9 $ N { { ` ` ] V b o 9 9 9 X ",
"7 7 o * * : , , F u.V.U.D.S.I.+X}.}.$X*X*X*X:X:X;X;X;X*X*X$X|.P.D./.V.>.Z Z L n M b l 6 e e 9 5 6 b V z 9 o 9 q V ` } ] / ` ` / V y q t X ",
"q w q q q : : : , J u.j.l.M.K.'.'.'.}.'.[.}.}.}.'.'.'.`.`.Y.G.z.j.m.g.! Z h P P ` ^ z l e 6 9 e t V Y b q 5 6 q V ` ] { { ] ] ` ` b t 0 X ",
"y b Y m f q * - : j Q W #.<.h.J.K.K.K.I.K.G.G.L.K.G.F.G.K.G.8.=.#.-.U D j m R ` V M M V k 6 e c m b n V b t 0 t m ` ] ] { } ` P M V C s o ",
"b V R ` Y q 7 - @ : j , & 2 >.c.M.M.z.z.z.z.x.x.z.z.z.M.D.z.*.4 < < a D P ` ( ` t y n R M e y ^ V k q b V N k 0 V ` ] } ] ] V M 0 b ^ V q ",
"Y R [ [ V q q f q q : % # Z U w.u.2.2.2.2.2.2.2.<.2.2.2.2.<.K 2 < ; s Y  .| { ( b y s m b q y M V s y b n b t y z V { ] } | ` n y b b N 9 ",
"R R [ [ Y y t b V b q t n P P D a Z 1 Z 3 Z Z Z Z A S 1 1 Z F G P P Y ) ....| {  .m p w w 9 9 e y b V C y 9 q t 9 y n R ]  .] V ` b y q X ",
"] R R [ Y y t b ` V c v B V c y 0 0 0 0 6 u 6 0 % 0 6 % $ p n n } | | _ _ ....{ [ P g u 0 9 9 q k V ^ n t 9 9 q q y b b / ] } / ` b y t X ",
"[ ] [ [ V y q k b b M v k k v ~ ^ V N N N N M M e e 6 q k N N l B { | _ _ _ { ( y h m g w 0 y y b b b f z b y o b b c b N ` ] V b b b C 9 ",
"] R [ [ ( y 9 9 $ k ^ V y r b ` ` ` ^ ` ] ` ^ V y 9 9 t V ` b e y N { ` { | { R t q m ` m q t V / y t n ` P b q N R n e y V R b t b ` V q ",
"R ]  . .V f 9 o q y b V V C n b ^ ` ]  . .V b y 9 e y b b b y t q b ` { { ] V b n V ` ] V t 0 b b b b M b t e q t b b b b b b y b b b k O ",
"Y Y R R m z 9 o 6 5 q f M V k t N ( ] { ` n y q 6 y V V b q 0 t 6 9 y C V b y t m N / R b y 9 q y b V C y 0 9 r q r b V V y y b ` b y 0 X ",
"b R  .[ ( Y n y q q r y b b b b b b N n b y t t y V ` ` V b t 0 y q t s n b y y V { } ] ^ b s y q b V s t t r q r q y V b 9 q N V y q y o ",
"9 k b s y t 9 o X X X X o 5 9 - o o - o o X X X - e b b y 6 o X X X X o 7 o o X t s b b q 5 o X   o 7 o X O X X X   o 9 o X X q e X X X   "
};
