/* XPM */
static char *e39c000fe86140aea17be0f8e1d09dc0vFLsM9qWE6uJbCud[] = {
/* columns rows colors chars-per-pixel */
"69 69 167 2 ",
"   c gray16",
".  c gray20",
"X  c #353535",
"o  c gray21",
"O  c #373737",
"+  c gray22",
"@  c #393939",
"#  c #3A3A3A",
"$  c gray23",
"%  c #3C3C3C",
"&  c gray24",
"*  c #3E3E3E",
"=  c #3F3F3F",
"-  c gray25",
";  c #414141",
":  c gray26",
">  c #434343",
",  c #444444",
"<  c gray27",
"1  c #464646",
"2  c gray28",
"3  c #484848",
"4  c #494949",
"5  c gray29",
"6  c #4B4B4B",
"7  c #4C4C4C",
"8  c gray30",
"9  c #4E4E4E",
"0  c gray31",
"q  c #505050",
"w  c #515151",
"e  c gray32",
"r  c #535353",
"t  c gray33",
"y  c #555555",
"u  c #565656",
"i  c gray34",
"p  c #585858",
"a  c gray35",
"s  c #5A5A5A",
"d  c #5B5B5B",
"f  c gray36",
"g  c #5D5D5D",
"h  c gray37",
"j  c #5F5F5F",
"k  c #606060",
"l  c gray38",
"z  c #626262",
"x  c gray39",
"c  c #646464",
"v  c #656565",
"b  c gray40",
"n  c #676767",
"m  c #686868",
"M  c DimGray",
"N  c #6A6A6A",
"B  c gray42",
"V  c #6C6C6C",
"C  c #6D6D6D",
"Z  c gray43",
"A  c #6F6F6F",
"S  c gray44",
"D  c #717171",
"F  c #727272",
"G  c gray45",
"H  c #747474",
"J  c gray46",
"K  c #767676",
"L  c #777777",
"P  c gray47",
"I  c #797979",
"U  c gray48",
"Y  c #7B7B7B",
"T  c #7C7C7C",
"R  c gray49",
"E  c #7E7E7E",
"W  c gray50",
"Q  c #808080",
"!  c #818181",
"~  c gray51",
"^  c #838383",
"/  c #848484",
"(  c gray52",
")  c #868686",
"_  c gray53",
"`  c #888888",
"'  c #898989",
"]  c gray54",
"[  c #8B8B8B",
"{  c gray55",
"}  c #8D8D8D",
"|  c #8E8E8E",
" . c gray56",
".. c #909090",
"X. c gray57",
"o. c #929292",
"O. c #939393",
"+. c gray58",
"@. c #959595",
"#. c gray59",
"$. c #979797",
"%. c #989898",
"&. c gray60",
"*. c #9A9A9A",
"=. c #9B9B9B",
"-. c gray61",
";. c #9D9D9D",
":. c gray62",
">. c #9F9F9F",
",. c #A0A0A0",
"<. c gray63",
"1. c #A2A2A2",
"2. c gray64",
"3. c #A4A4A4",
"4. c #A5A5A5",
"5. c gray65",
"6. c #A7A7A7",
"7. c gray66",
"8. c #A9A9A9",
"9. c #AAAAAA",
"0. c gray67",
"q. c #ACACAC",
"w. c gray68",
"e. c #AEAEAE",
"r. c #AFAFAF",
"t. c gray69",
"y. c #B1B1B1",
"u. c #B2B2B2",
"i. c gray70",
"p. c #B4B4B4",
"a. c gray71",
"s. c #B6B6B6",
"d. c #B7B7B7",
"f. c gray72",
"g. c #B9B9B9",
"h. c gray73",
"j. c #BBBBBB",
"k. c #BCBCBC",
"l. c gray74",
"z. c gray",
"x. c gray75",
"c. c #C0C0C0",
"v. c #C1C1C1",
"b. c gray76",
"n. c #C3C3C3",
"m. c gray77",
"M. c #C5C5C5",
"N. c #C6C6C6",
"B. c gray78",
"V. c #C8C8C8",
"C. c gray79",
"Z. c #CACACA",
"A. c #CBCBCB",
"S. c gray80",
"D. c #CDCDCD",
"F. c #CECECE",
"G. c gray81",
"H. c #D0D0D0",
"J. c gray82",
"K. c #D2D2D2",
"L. c LightGray",
"P. c gray83",
"I. c #D5D5D5",
"U. c gray84",
"Y. c #D7D7D7",
"T. c #D8D8D8",
"R. c gainsboro",
/* pixels */
"7 q y p y y y y y g k k p y q y 1 1 : * 1 q y q y y y g c c g y g k k k y 7 1 : q y 7 1 6 p p 7 y y y q q y p g g g g p q 7 y g c g q 7 : ",
"1 1 7 p p 7 6 q g c c k y 6 1 1 6 6 1 : 6 y p p 6 7 y g k c k k g k c k p q 1 : : 1 1 : 6 p y 7 6 q p y 6 6 y k m c k k p 7 7 y k p q q : ",
"6 7 q y y q q q y p g y 1 : 1 7 q 6 1 1 6 7 y p 7 q y y p p p g g g g g p q 7 1 * : 1 1 7 p y 6 1 q g y 6 1 q k g y y y q 6 1 6 q 7 6 7 * ",
"q k g 6 7 g k y 6 7 7 1 * : y k y 6 : 1 1 1 6 y k p q 7 7 7 6 6 1 1 1 1 1 1 : : * : 1 : 1 7 6 * : 1 1 1 : : 1 6 7 1 1 6 1 : : 1 6 : : 6 $ ",
"q g p 1 1 p g q 1 1 : : 1 7 y p p 7 6 1 1 * : 7 k p 7 : : : 1 1 6 6 1 1 1 1 1 6 6 7 6 6 6 7 6 1 7 1 1 1 6 7 6 1 q 6 1 6 7 6 6 q 7 : : 6 * ",
"1 6 1 : 1 6 6 : : * : 6 p g y 6 g p q 7 1 : 1 6 7 6 1 : * : q p g g g g p y y p p p y y y p p p g p y y p g p y q 7 q y p p g k p 7 6 q : ",
"1 1 : : 1 1 1 : * : 1 q g g y 7 y p y 7 1 1 1 1 : : 1 1 1 7 p c k Z L L S Z Z S Z Z Z Z Z Z Z S S Z Z Z S S Z Z m Z S L S c c m c q 6 q : ",
"q q 7 : 1 q q 6 1 7 y y y q q q 7 y q 6 : 1 1 : : 1 6 6 7 y p g P ` %.<.-.%.%.-.-.-.-.-.-.%.%.-.-.%.%.-.-.-.%.%.%.-.-.%.` S c c m q 1 6 * ",
"p g p 7 7 p g p : q g p 7 6 q k q q 6 * * : 1 : : 1 : 1 g c k c R 0.D.L.m.m.A.m.m.m.m.m.m.m.m.m.m.m.m.m.m.m.m.m.m.m.D.A.3.P m k c y 1 1 o ",
"y y q q p k g y : 6 q y y q y y q q q 1 : 1 1 : * 1 : 1 p c L ( -.j.L.L.D.A.D.D.L.L.L.L.L.L.L.L.L.L.L.L.L.L.L.L.D.A.D.D.j.-.` L c y 1 1 o ",
"q 7 7 p c m g q 1 1 1 q p g y 7 q p p 7 1 1 1 1 * 1 1 1 y m ` 0.n.A.L.L.D.D.D.L.D.D.D.D.D.D.D.D.D.D.D.D.D.D.D.D.L.A.D.D.A.m.0.( m y 6 1 o ",
"q q y k m m k p q 1 : 6 y p y 7 p g g q 1 1 6 6 6 7 6 1 q m ..l.P.A.m.A.D.A.A.D.D.D.D.D.D.D.D.D.D.D.D.D.D.D.D.D.A.A.A.A.D.P.j. .m y 6 1 o ",
"q p k c c c c k g q 1 : 6 q y p k c k q : : 6 7 g y 6 1 q m +.n.T.A.n.A.D.A.A.A.A.A.A.A.A.A.A.A.A.A.A.A.A.A.A.A.m.A.D.A.A.L.l. .c y 1 1 o ",
"y g c c k c c m c p 6 : 1 7 p k c m k 7 : : 6 7 k y 1 1 y m ..j.P.A.m.D.L.L.D.D.A.A.A.A.A.A.A.A.A.A.A.A.A.A.A.A.A.L.P.D.A.L.l...c y 1 1 o ",
"y y p k c k c m m g 7 6 6 y k c c m k 7 : : 1 6 q 7 1 1 y c  .l.L.D.A.D.L.L.D.D.L.L.L.L.L.L.L.L.L.L.L.L.L.L.L.L.D.L.L.A.A.L.l...c y 1 1 o ",
"y 6 7 g m c k m c p 7 7 y g c c c m k q 1 : 1 : : 1 : 6 y c  .n.A.D.A.A.A.A.A.A.D.D.D.D.D.D.D.D.D.D.D.D.D.D.D.D.D.A.A.m.A.L.j. .c y 1 1 o ",
"7 q q q p k c m m p 1 6 p m m c c m c 7 * * : 1 7 6 7 y g m ! +.3.3.3.3.3.3.3.3.3.3.3.3.3.3.3.3.3.3.3.3.3.3.3.3.<.0.0.3.0.0.%.! c y 1 : . ",
"p y q 7 q p c m c y 6 7 p c m k c c g 7 : : 1 6 g p g g g g m P S S S S S S S S Z S S S S S S S S S S S S S S S L L L L L P L Z c y 1 1 o ",
"y y y q q y g c k y 7 6 y g c c c k p 6 1 6 q q k m L R P S L R L L L L L L L L S S L L L L L L L L L L L L L L P S S L S c k k c y 6 6 * ",
": 6 q p p q y g c p 6 : 1 q g c g y 7 1 1 q p g p L %.r.u.0.0.0.r.r.r.r.r.r.r.r.r.r.r.r.r.r.r.r.r.r.r.r.r.r.r.r.r.0.r.u.%.S k c c q 6 q : ",
"$ : 7 p y 6 6 7 g p 7 : * 1 q g q 6 : : 1 y k Z m ` u.D.L.L.D.D.A.A.A.A.A.A.A.A.A.A.A.A.A.A.A.A.A.A.A.A.A.A.A.A.L.A.L.L.u.P k c c q 6 q 1 ",
"1 1 6 q 7 : : 6 q y y 7 6 1 6 7 6 1 : : 1 q m R +.0.n.D.D.D.D.D.D.D.D.D.D.D.D.D.D.D.D.D.D.D.D.D.A.A.A.A.A.A.A.A.D.A.D.D.r.L g c c q 6 q 1 ",
"q 1 1 7 6 : : 6 6 q y p q 7 6 6 6 6 1 1 1 q Z ` j.m.A.m.n.m.A.A.D.D.D.D.D.D.D.D.D.D.D.D.D.D.D.D.D.D.D.D.D.D.D.D.A.m.D.D.r.P c m c q 1 q 1 ",
"7 1 1 7 7 1 1 7 6 q p p y q 7 7 7 7 7 6 1 7 Z  .n.D.L.A.A.A.D.D.A.A.A.A.A.A.A.A.A.A.A.A.A.A.A.A.A.A.A.A.A.A.A.A.A.A.P.P.u.R c c c 7 1 q 1 ",
"1 * 6 k k 6 : 7 k y 1 1 y k c c g m y 1 6 q m ..j.D.L.A.m.D.L.A.A.A.A.A.A.A.A.A.A.A.A.A.A.A.A.A.A.A.A.A.A.A.A.A.m.D.P.L.r.R c m c y 1 1 o ",
"6 7 y y y y q q p q 7 q g k g p g c y 6 7 q c +.l.D.P.D.A.D.L.A.D.D.D.D.D.D.D.D.D.D.D.D.D.D.D.D.D.D.D.D.D.D.D.D.D.A.D.D.r.R k k m y 1 1 o ",
"7 g g 7 7 g k y 6 7 y k c k p 7 6 q 6 1 6 6 k ..n.D.P.D.A.L.L.D.D.D.D.D.D.D.D.D.D.D.D.D.D.D.D.D.D.D.D.D.D.D.D.D.P.A.A.D.u.R k k m y 6 1 o ",
"q g g 7 7 g g q 6 q g c c g q 6 * 1 1 1 7 7 c ` p.l.n.l.j.l.l.l.l.l.l.j.l.l.l.l.l.l.l.l.l.l.l.l.l.l.l.l.l.l.l.l.n.j.l.n.0.P k c m y 6 1 o ",
"y y y p y y q 7 y g c c p 7 1 1 6 q y y p p c P `  ... .`  . . . . . . . . . . . . . . . . . . . . . . . . . . . . .+.+.( Z k c c y 1 1 o ",
"q 6 7 p g 7 6 7 g c m k 7 : : : y g c m m m m Z m Z Z Z Z Z Z Z Z Z Z Z Z Z Z Z Z Z Z Z Z Z Z Z Z Z Z Z Z Z Z Z m Z Z c c Z m c c y 1 1 o ",
"6 1 1 q y q q q y g c g 7 : 1 q p k S ( .... . . . .` ` ` ` ` ` ` ` ` ` ` ` ` ` ` ` ` ` ` ` ` ` ` ` ` ` ` ` ` ` ` ` L p m  ...L c y 1 1 o ",
"1 1 1 1 7 p p y : q g g 7 6 q k g k R 3.l.n.n.m.m.n.n.n.n.n.n.n.n.n.n.n.n.n.n.n.n.n.n.n.n.n.n.n.n.n.n.n.n.n.n.n.m.l.+.m ! p.p.` c y 1 1 o ",
"* 1 1 * 1 y p q 1 7 y y 6 1 y m m P  .r.D.P.D.D.L.D.D.D.L.L.L.L.L.L.D.D.D.L.L.L.L.L.L.L.D.L.L.L.L.L.L.L.L.L.L.L.P.A.%.Z P 3.0.` c q 1 6 * ",
": 6 1 : : 7 7 1 : 1 7 7 1 : q c ` 3.j.A.L.L.A.A.D.A.A.A.D.D.D.D.D.D.D.D.D.D.D.D.D.D.D.D.A.A.D.D.L.L.L.L.L.L.L.L.P.n.%.S m L R L c q 6 7 : ",
"* 1 6 : : 6 6 : : : 1 1 : 1 q k  .p.L.D.D.A.m.D.D.D.A.A.D.D.D.D.D.D.D.D.D.D.D.D.D.D.D.D.A.A.A.A.m.m.m.m.A.A.A.A.P.n.%.S k m S m c y 6 q : ",
"6 7 7 1 : 1 : * 1 : : 1 1 6 y c ( j.P.D.A.D.D.L.A.A.A.A.A.A.A.A.A.A.A.A.A.A.A.A.A.A.A.A.A.A.A.A.A.A.A.A.A.A.A.A.D.m.%.m S %.-.R c y 6 7 * ",
"p p y 7 1 1 : * 1 : : : 1 6 y c ` j.L.A.m.A.A.A.A.A.A.A.A.A.A.A.A.A.A.A.A.A.A.A.A.A.A.A.A.A.A.A.A.A.A.A.A.A.A.A.A.m.%.c P p.l...m q 1 6 $ ",
"y y q q q y q 7 : * * : : 1 q k ..j.L.D.D.L.L.D.P.P.P.P.P.P.P.P.P.P.P.P.L.L.P.P.P.P.P.L.P.P.P.P.D.D.D.D.D.D.D.D.P.D.<.Z Z ..%.! c q : 6 $ ",
"7 7 7 p k c g y : : : 1 1 1 q k +.j.L.D.L.L.L.P.A.A.A.A.A.A.A.A.A.A.A.A.A.A.A.A.A.A.A.A.A.A.A.A.D.D.D.D.D.D.D.D.L.m.<.S c S L m c q 1 7 * ",
"y q y g m c y 6 1 1 6 7 6 6 y c P <.p.p.r.0.0.u.u.u.u.u.u.u.u.u.u.u.u.u.u.u.u.u.u.u.u.u.u.u.u.u.u.u.u.u.u.u.u.u.p.r...Z c P R S k q 6 q 1 ",
"y p g c c y 1 1 * 7 g g p p g g P P P P P R R R R R R R R R R R R R R R R R R R R R R R R R R R ! P L R R R R ( ( ! Z k L <.r. .c q 7 7 1 ",
"g k k k k 7 : 1 1 q k m S L L S S S S S S S L L S S S S S S S S S S S S S S S S S S S S S S S S L Z Z S S Z c c m m m S ` r.u. .k q 7 7 1 ",
"k m m k g 6 : 7 y p k S  .3.3.%.<.<.<.<.<.<.<.<.<.<.<.<.<.<.<.<.<.<.<.<.<.<.<.<.<.<.<.<.<.<.<.<.<.-.-.3.-.` S k g k ! <.<.%.` L k q 7 q 1 ",
"g m m c g 7 1 y c k c R 3.A.D.n.A.A.A.A.A.A.A.A.A.A.A.A.A.A.A.A.A.A.A.A.A.A.A.A.A.A.A.A.A.A.A.A.A.A.D.L.m.0.! c m m +.n.r.R m c k 7 7 q 6 ",
"p c m m g 7 6 y m S ( -.j.L.P.L.D.D.D.D.D.D.D.D.D.D.D.D.D.D.D.D.D.D.D.D.D.D.D.D.D.D.D.D.D.D.D.D.D.D.L.L.A.p.%.R S c ! <.-.+. .L k 7 6 7 1 ",
"p c m c p 6 : q k ( r.n.A.A.A.A.D.D.D.D.D.D.D.D.D.D.D.D.D.D.D.D.D.D.D.D.D.D.D.D.D.D.D.D.D.D.D.D.L.D.D.A.D.D.n.p.R c k Z ( j.l.` k 7 6 7 : ",
"q p p p q 1 : q k  .l.L.D.A.m.A.D.D.D.A.A.A.A.A.A.A.A.A.A.A.A.A.A.A.A.A.A.A.A.A.A.A.A.A.A.A.A.A.A.A.A.m.A.L.D.m. .Z Z R  .0.0.R c 7 6 6 : ",
"1 7 7 7 6 : 1 y c  .l.L.D.D.D.D.L.L.L.D.D.D.D.D.D.D.D.D.D.D.D.D.D.D.D.D.D.D.D.D.D.D.D.D.D.D.D.D.A.D.L.D.D.D.m.j. .m ` j.0.( P Z c q 6 1 * ",
"1 : : : : : 1 q g ` j.D.A.m.m.A.A.A.A.A.A.A.A.A.A.A.A.A.A.A.A.A.A.A.A.A.A.A.A.A.A.A.A.A.A.A.A.A.D.D.A.m.D.D.m.j.( Z  .l.r.! Z m k q 1 1 o ",
"1 : : 1 1 : 6 y k  .j.L.L.L.L.L.L.L.L.L.L.L.L.L.L.L.L.L.L.L.L.L.L.L.L.L.L.L.L.L.L.L.L.L.L.L.L.L.L.L.D.D.L.P.D.n.( Z Z ! +.0.<.R c y 1 1 o ",
"6 : : 7 7 6 6 y Z  .u.m.A.A.A.m.m.m.m.m.m.m.m.m.m.m.m.m.m.m.m.m.m.m.m.m.m.m.m.m.m.m.m.m.m.m.m.m.m.m.m.m.A.D.A.l.` Z p k ( p.j. .c y 1 1 o ",
"1 : 1 q y q q p c P  .%.-.%.+.+.%.%.%.%.%.%.%.%.%.%.%.%.%.%.%.%.%.%.%.%.%.%.%.%.%.%.%.%.%.%.%.%.%.%.%.%.-.<.<.%.P m L  .%.%...! c y 6 6 $ ",
"1 1 6 p g k k c k c Z S S Z Z Z S S Z Z S S S S S S S S S S S S S S S S Z Z Z Z S S S S S S S S Z S S Z m Z S Z m Z +.l.u.! m Z k q 6 7 * ",
"1 7 y g Z R ( ( ! R R ! ! R R ! R R R R R R R R R R R R R R R R R R R R R R R R R R R R R R R R R ! ! S k g k c S ! -.r.<.` P L g q 6 7 * ",
"q g k k P -.u.u.p.r.r.u.u.r.u.p.u.u.u.u.u.u.u.u.u.u.u.u.u.u.u.u.u.u.u.u.u.u.u.u.u.u.u.u.u.u.u.u.u.j.u...S c m S ..3.-.! ( 0.3.! k q 1 6 $ ",
"p c m c ! p.P.P.L.D.D.L.L.A.D.L.L.L.L.L.L.L.L.L.L.L.L.L.D.L.L.L.L.L.L.L.L.L.L.L.L.L.L.L.L.L.L.L.L.P.A.3.P c m S <.l.<.Z R l.j.( c q 1 1 o ",
"q c R %.u.m.D.D.D.D.D.D.D.D.D.D.D.D.D.D.D.D.D.D.D.D.D.D.D.D.D.D.D.D.D.D.D.D.D.D.D.D.D.D.D.D.D.D.L.L.m.l.u. .S m R  .-.<.-...! L c y 1 1 $ ",
"p m ` p.A.A.m.A.D.D.D.D.D.D.D.D.D.D.D.D.D.D.D.D.D.D.D.D.D.D.D.D.D.D.D.D.D.D.D.D.D.D.D.D.D.D.D.D.A.A.m.A.m.3.R m k L -.j.r.! m m c y 1 6 $ ",
"p k  .m.R.L.m.D.A.A.A.A.A.A.A.A.D.D.D.D.D.D.D.D.D.D.D.D.D.D.D.D.D.D.D.D.D.D.D.D.D.D.D.D.D.D.D.D.D.L.D.P.P.u.! Z R  .-.<.-.+.( P k q 1 6 $ ",
"q g ` l.P.D.A.D.A.A.A.A.A.A.A.A.A.A.A.A.A.A.A.A.A.A.A.A.A.A.A.A.A.A.A.A.A.A.A.A.A.A.A.A.A.A.A.A.D.D.D.L.D.0.R Z r.j.-.Z R p.l. .c y 6 6 $ ",
"y c ! -.p.m.A.D.D.D.D.D.D.D.D.D.D.D.D.D.D.D.D.D.D.D.D.D.D.D.D.D.D.D.D.D.D.D.D.D.D.D.D.D.D.D.D.D.m.A.A.D.D.0.R m -.r.%.L ( u.r.! m p 6 1 $ ",
"p c S L  .p.L.P.P.P.P.P.P.P.P.P.L.L.L.L.L.L.L.L.L.L.L.L.L.L.L.L.L.L.L.L.L.L.L.L.L.L.L.L.L.L.L.L.L.L.L.P.L.r.R c Z R %.p.u...L Z c y 1 1 o ",
"y k k g L -.l.n.l.l.l.l.l.l.l.l.j.j.j.j.j.j.j.j.j.j.j.j.j.j.j.j.j.j.j.j.j.j.j.j.j.j.j.j.j.j.j.j.l.n.l.n.l.-.L c g c ..l.r.P g k g 7 1 1 o ",
"y k m c Z ( .. ................. . . . . . . . . . . . . . . . . . . . . . . . ... .............`  . .....R m m g m R ( ! S k y y 6 : 1 o ",
"y k m c k c c c c c c c c c k k k c c c c c c k c c c c c c c m c c c c c c c c m c c c c c c m c c m c c c c c m k k c m c g y 1 1 1 1 o ",
"1 q y y q q y q y y q q y y y y y y y q q y y q 7 7 7 7 7 7 7 7 y y y y y y y y 7 7 7 7 7 7 7 7 y y y y y y y y y y q q y y q 6 1 1 1 1 $ ",
": 6 7 6 6 7 6 1 1 1 1 1 1 1 6 6 6 6 1 1 1 1 6 6 6 6 6 6 6 6 1 1 1 1 1 1 1 1 1 1 1 6 6 6 6 6 6 1 1 1 6 6 6 6 1 1 6 6 1 1 1 1 1 1 1 1 1 1 o ",
"6 q q q q y q 6 1 1 1 : 1 6 6 7 6 6 1 1 1 1 6 6 7 7 q q q 7 6 6 1 1 1 1 1 1 1 1 7 7 7 q q 7 7 7 1 1 1 1 1 1 1 1 6 6 6 1 1 1 1 6 1 1 1 1 $ ",
"* : 1 : : 1 1 * $ o o o o $ * * * $ o o o o $ * 1 1 6 6 6 1 : * o o o o o o o o : 1 1 1 1 1 1 : o o o o $ $ $ $ $ $ $ $ o o $ $ o $ o $   "
};
