/* XPM */
static char *result[] = {
/* columns rows colors chars-per-pixel */
"32 32 103 2 ",
"   c #434343",
".  c gray27",
"X  c #464646",
"o  c #494949",
"O  c #4B4B4B",
"+  c #4C4C4C",
"@  c gray30",
"#  c #4E4E4E",
"$  c gray31",
"%  c #505050",
"&  c #515151",
"*  c gray32",
"=  c #535353",
"-  c gray33",
";  c #555555",
":  c #565656",
">  c gray34",
",  c #585858",
"<  c gray35",
"1  c #5A5A5A",
"2  c #5B5B5B",
"3  c gray36",
"4  c #5D5D5D",
"5  c gray37",
"6  c #5F5F5F",
"7  c #606060",
"8  c gray38",
"9  c #626262",
"0  c gray39",
"q  c #646464",
"w  c #656565",
"e  c gray40",
"r  c #676767",
"t  c #686868",
"y  c DimGray",
"u  c #6A6A6A",
"i  c gray42",
"p  c #6C6C6C",
"a  c gray43",
"s  c #717171",
"d  c #727272",
"f  c gray45",
"g  c #747474",
"h  c gray46",
"j  c #767676",
"k  c #777777",
"l  c gray47",
"z  c #7B7B7B",
"x  c #7C7C7C",
"c  c gray49",
"v  c #7E7E7E",
"b  c gray50",
"n  c #808080",
"m  c #838383",
"M  c #868686",
"N  c gray53",
"B  c #888888",
"V  c #898989",
"C  c gray54",
"Z  c #8B8B8B",
"A  c gray55",
"S  c #8D8D8D",
"D  c #8E8E8E",
"F  c gray56",
"G  c #909090",
"H  c #989898",
"J  c gray60",
"K  c #9F9F9F",
"L  c #A0A0A0",
"P  c gray63",
"I  c #A2A2A2",
"U  c gray64",
"Y  c #A4A4A4",
"T  c #A5A5A5",
"R  c gray65",
"E  c #A7A7A7",
"W  c gray66",
"Q  c #A9A9A9",
"!  c #AAAAAA",
"~  c gray67",
"^  c #ACACAC",
"/  c gray68",
"(  c #AEAEAE",
")  c gray72",
"_  c #B9B9B9",
"`  c gray73",
"'  c #BBBBBB",
"]  c gray",
"[  c gray76",
"{  c gray77",
"}  c #C6C6C6",
"|  c gray78",
" . c #C8C8C8",
".. c gray79",
"X. c #CACACA",
"o. c #CBCBCB",
"O. c gray80",
"+. c #CDCDCD",
"@. c #CECECE",
"#. c gray81",
"$. c #D0D0D0",
"%. c gray82",
"&. c #D2D2D2",
/* pixels */
"X - 2 2 1 2 2 4 1 3 3 3 1 2 < 3 4 2 4 4 4 3 4 5 7 5 5 3 4 : X $ ",
"* 0 t r w r y r q q e e u w e y r i e w e r e w w e q w e 0 - O ",
"4 p e 4 2 5 = 9 : q > 6 ; 6 , 3 5 - 7 , 9 = 0 t e B T Y S e 6 + ",
"2 t 3 = * = = - * - = = - = = ; * - = % : $ - 0 N ) #.&.~ t 6 + ",
"5 e 3 * ; ; ; ; ; * ; ; ; - ; = = ; : q ; 6 - 8 / @.O.@.W r 6 @ ",
"5 e 6 = ; : * , & > = : = ; ; * : : q u m M i r ~ #.o.@.W r 6 @ ",
"3 y < > ; = 1 # 3 % < & > ; ; ; & 4 i N [ { j w ~ #.o.@.W r 6 @ ",
"4 r 9 ; ; > # 1 + 7 + 1 $ 3 ; : 2 $ c { +.| j t ( @.O.#.Q r 6 + ",
"< e - = ; & 3 @ 3 O 3 # 1 w u i p w z ..O.} k w ^ @.@.$.! r 5 O ",
"2 w 0 ; * , % 4 @ 3 $ < q r H  .K 0 z ..O.} k w ^ @.@.$.! r 5 O ",
"2 t ; = ; * < % 6 @ 6 % 7 J { O.~ q x ..O.} k w ^ @.@.$.! r 5 O ",
"1 e 6 = * , & 5 r 0 r 8 9 R O.#.E q z  .O.} k w ^ @.@.$.! r 5 O ",
"1 i : ; ; $ 5 w a W R g r R +.@.W 0 x | O.| l w ^ @.@.$.! r 5 O ",
"5 r 7 = ; - - p R +.} v r E +.@.W 0 x | O.| l w ^ @.@.$.! r 5 O ",
"5 y 1 * = % > f } X...b w T O.@.W 0 x | O.| l w ^ @.@.$.! r 5 O ",
"4 r 2 < 2 = w h | O...c e W @.@.W 0 x } +.| k w ^ @.@.$.! r 5 O ",
"3 w 0 g G n 0 h | O...c e W @.@.W 0 x } +.| k w ^ @.@.$.! r 5 O ",
"2 r f E $.E w j | O...c e W @.@.W 0 x } +.| k w ^ @.@.$.! r 5 O ",
"5 9 L ..+.! e g | O...c e W @.@.W 0 x } +.| k w ^ @.@.$.! r 5 O ",
"4 q I $.$.Q r h | O...c e W @.@.W 0 x } +.| k e / +.+.$.! r 5 O ",
"4 q I $.$.Q r h | O...c e W @.@.W 0 x } +.| k e / +.+.$.! r 5 O ",
"4 q I $.$.Q r h | O...c e W @.@.W 0 x } +.| k e / +.+.$.! r 5 O ",
"4 q I #.#.! r g | O...c e W @.@.W 0 x } +.| k e / +.+.$.! r 5 O ",
"4 q I #.#.! r g | O...c e W @.@.W 0 x } +.| k e / +.+.$.! r 5 O ",
"4 q I #.#.! r g | O...c e W @.@.W 0 x } +.| k e / +.+.$.! r 5 O ",
"4 q I #.#.! r g | O...c e W @.@.W 0 x } +.| k e / +.+.$.! r 5 O ",
"5 e Y $.#.^ e h ..O.X.b e Q $.@.! 8 c | +.} j w / #.o.$.! e 6 + ",
"4 q B _ ] A r s L  .Y d 9 Z ` %.~ q g U +. .j r A ' $.' C y 5 @ ",
"4 9 e B D 9 e q u P s w e 0 V ~ F 0 w p K T d q 8 Z / Z 7 e 8 @ ",
": 0 t r r y r e w e r e q e r r t e y e r e 0 r 0 y 9 y r w > o ",
". = 7 5 5 5 5 5 6 5 6 5 5 5 5 5 5 5 5 4 5 5 5 5 5 5 6 5 8 ,   $ ",
"$ O + + O O O O O O O O O O O O O O O O O O O O O O + @ @ o $ 7 "
};
