/* XPM */
static char *result[] = {
/* columns rows colors chars-per-pixel */
"32 32 44 1 ",
"  c gray25",
". c #414141",
"X c gray26",
"o c #434343",
"O c #444444",
"+ c gray27",
"@ c #464646",
"# c gray28",
"$ c #484848",
"% c #494949",
"& c gray29",
"* c #4B4B4B",
"= c #4C4C4C",
"- c gray30",
"; c #4E4E4E",
": c gray31",
"> c #505050",
", c #515151",
"< c gray32",
"1 c #535353",
"2 c gray33",
"3 c #555555",
"4 c #565656",
"5 c gray34",
"6 c #585858",
"7 c gray35",
"8 c #5A5A5A",
"9 c #5B5B5B",
"0 c gray36",
"q c #5D5D5D",
"w c gray37",
"e c #5F5F5F",
"r c #606060",
"t c gray38",
"y c #626262",
"u c gray39",
"i c #646464",
"p c #656565",
"a c gray40",
"s c #676767",
"d c #686868",
"f c DimGray",
"g c #6A6A6A",
"h c gray42",
/* pixels */
"&411rw;=#+4>4irei4#&@9,4<2yt43w1",
"1143<$#5@@:52wsaq12oO:4>1ufsu4<1",
"=#=%.%44<$+:$&11&$<O$2<23<>>,-O1",
">#=**3131+OX.;%$4;.++1%>=X=-$>X#",
"41w2&315:@OO-316ge;OO;+O+-3<8r1<",
"1wd9&&52r%+*5>0apdw&>5>%*537dsdy",
"5yid8@3iy@*7:qapadw&4>7-132esase",
">5ud7-ppy&6>6pddpi8@=6:O#1<6ayp7",
"824a4;ii8%#5,6uia9o%q-0-331rap0#",
"+5,26O;q&#O$8;4s6O@*uu-O&<15p8##",
"--+#<2$&#7*5-o#%#o&qsse=@@@+@#O&",
"@2::41we6;5;%.>>&0yayi,@O@,r4*5%",
"2253;rsuaq:@O251rspps:7&X<tsy5,2",
"142>wsups14$+=315ddp<6<6-5fpw14,",
"$*229apdu$:4*o-327r4623<$=9q16>@",
"++;=$4543#;<&.o-=&:#<+2$@o:-*<o#",
"%$XXoX+*o>4$ =%X.+%o:=<:<%XX@=+>",
"72=>%@16,t,+*53&+151sfpdw3%$25:3",
">0ay3,4:aap=313;=6<qppad13<-6,51",
"qdf615>whpa=#64%@-81uaadw3@@,6>y",
"udiy2;8>uir&5,5u5#*rdapi121>3:wa",
"7u1%$O-eiw;+$4uiu5+*eit;52Oo<4;t",
"%&+<1O#&%*@+8-6ds0++*=*X$###@#+*",
"4:464wt8@@%5>4tif5*800&@1>-<&2@o",
"=512ufat+$236,qae%%ip>#<3335ei2&",
"o;32>>,>O$:14@%1*X#1,O@;@$49se1#",
"@ :;.&:o42+>&X;*@3<;o+X>%o3ait>+",
";4%X%562su5%.-337di52O153%2apu42",
"ef:&124adau-*746ipw>3$4,5=;rdr,6",
"ps,,4>wppap%313tsai9=@&8,%%<rp6:",
"yd:.;3:eadw%%4:;tu8>w&5>5-;3,6>6",
"9p3#@:5<w9=*82@#,4:tt-#4;@+<4-4&"
};
