/* XPM */
static char *result[] = {
/* columns rows colors chars-per-pixel */
"69 69 62 1 ",
"  c gray18",
". c #343434",
"X c #353535",
"o c gray21",
"O c #373737",
"+ c gray22",
"@ c #393939",
"# c #3A3A3A",
"$ c gray23",
"% c #3C3C3C",
"& c gray24",
"* c #3E3E3E",
"= c #3F3F3F",
"- c gray25",
"; c #414141",
": c gray26",
"> c #434343",
", c #444444",
"< c gray27",
"1 c #464646",
"2 c gray28",
"3 c #484848",
"4 c #494949",
"5 c gray29",
"6 c #4B4B4B",
"7 c #4C4C4C",
"8 c gray30",
"9 c #4E4E4E",
"0 c gray31",
"q c #505050",
"w c #515151",
"e c gray32",
"r c #535353",
"t c gray33",
"y c #555555",
"u c #565656",
"i c gray34",
"p c #585858",
"a c gray35",
"s c #5A5A5A",
"d c #5B5B5B",
"f c gray36",
"g c #5D5D5D",
"h c gray37",
"j c #5F5F5F",
"k c #606060",
"l c gray38",
"z c #626262",
"x c gray39",
"c c #646464",
"v c #656565",
"b c gray40",
"n c #676767",
"m c #686868",
"M c DimGray",
"N c #6A6A6A",
"B c gray42",
"V c #6C6C6C",
"C c #6D6D6D",
"Z c gray43",
"A c #6F6F6F",
"S c gray44",
/* pixels */
"7qypityiyfzlattu13,*,wyqretdxbxhukcjpw3=8w6>5dgw0rytwwyavzljiquzxjaeq",
"1<8da84qjcnkr3,<75<>4raa28ikcckgkmNcfiq3,<>,whd8qidy88pxcljhi9qpjt9q9",
"47wuuwqwifgr1;3qq4,<50uf6qihzccxcmnguye9:-=,9uyqyuyequlBMbvcjieruw996",
"ekg67hxi476>&>tve2;,<<7uhiqwaxMNvbkt0rpa61>>,3qia038sbmbVNMNmzst5ad08",
"qgp,<sjw3<:;,7ydp922,-<0ky528ijzlla85efk73<<25wpiq6qfzjahgghjgu9:yftw",
"<31><53>>==4ify6gie82><664211470806;=20w>:>3raiqwuspe7795654695>-,9yr",
"1,:>11,;=-1wfhu9psu81<11*-,232<,=13>-::==:>1rhp36yfu4-;1131;:33>;*,08",
"qr8;,wr538ryrwet0ut4:,,-:-;2805,<qpue92=>42-3iy148q93:;:qr0218w9;,12,",
"agp78sha>ehs83rlg8-->:-;q>%1ali3<pNBzi5-<:;>,>,1222343<>fky19xz04;,8+",
"uywwakgy>5ruyrtuie61<1,:>27eyyrwwjMMxgt7><>;2q9,:>,,,30ttyw0pczpt9qr*",
"r99abngr1,2qsfy7rsp9122,%7ffq5egjbMvccka:43>8fi1:>>;>6px96qfvcxckkks<",
"ewulNMkpq2;3ydy8ikkw,>121efa97icbmnxbNnk<699rsi973<17tsgw9ibBvcBnNmd1",
"rslvbbczgw<:4ripkclq-*<7ayq9walbvnvxnVmj56eaiqwapq50pfy8aajMBbbBnVmp>",
"tfcvxxbMbs5:<0dxbnh8-;5wly57acnvxbbcnNbg940dp69gde7wdge1fgznmnbnbMvi:",
"ttalczvNmf926ulbbmh5,9uuireilnmvxnmvvmvg922wurrpq736wytwtufxnnvxnnxa,",
"r58hmczmnd97yjcvxMh54sla3wgcbvvnvMNvcbvk71-1thsw,<,><8pl67tkmnxlMbxg3",
"eeryslnMCi,2dBBznvg0<2ef90rszmMMBbzxvxse7<<qiyry7>-19qta6tjbbxllzlu11",
"gsyweaxNbu37gNmzcldq316qku80scbczxcnvg9>=4ufr50dzw18aaw6agzvnnnnzd0>>",
"aputetgbxi54tkvvxfr6<:,3fiw0rakccbnvhr1*@6jcp69aze3qffe5pshxbbxkgw1::",
"<6ydartdvs5:,qhnly3>:;>3<egsq8pcZBvd0311-5pcvgt06,>6etus0rdvNnhyw<;33",
"*,wdp749ja9>=<egy5,351,2:wgs820dmcs9>=>427uxVBg0>:>113rl59ukbxdr<&;qq",
"538r9:;3qtyq3,383:2tp9<<puw62147ew82-*;,6ykbMMxsu932,>5t,,158097;&,rr",
"r5496;;53wsaw5353,5afq58ki6>;>13<11<,136ulmnvbvlje212<<2:>>>;;>,2>100",
"w21qq1<84essr99wr56yu90atr9<==1821,<40ysxmMccMnku4=>33,>6qtt052294244",
"1=6zk3:0ba76izbvxxi33ujg<44>&;0fh2-elkjnnblgcNh5221<,,<2dfvNp;<sxr26%",
"38tuyreeuw9thbbzccjuettw,,,15quayweszcccxvnnlayy04:->379hlbvgrwtst86%",
"8gg77fky16tjnmvlvbncfr611::5ufar9azzcMmxzcBVf58gp9:*>8udxnnzzxd07yuw>",
"ejg99fhr3wgbMnczcmMcft823,,6ysuq9pkcmVNcnvvlu70ast6<10gmnMnccxs02ydi4",
"ttupitq9ugvmbxcbxMbaeyue,,137qtiyqehmMnnVbaqeai9uapq48hZmbbbkuettiyw:",
"w47sf049gxmnxlcmcMl92wsd><1,,4tgp96ulccnmlr4ekd5eadt55pnczxza99iki5,o",
"5<2wueqeigcbvxvnmMj7>5taq94,:<9yyyrwyhzzapytypuetyr8230ijlhieruui0<:.",
"<2119pdi7ykbmbbbBmh0,>7tla91>><20hkq7szh6qdzp70giq3,<244dzd89hjt1<<4$",
"->>:5uat-4tfjhhjkka6>,48yt7;=<,*8iy1,edp33wsr17ga043<;,6rr069uay::<2<",
"253,<54>,148007457514epa795;-,<;;801:33-1,303%-85>;,<:>2993->76>:>264",
",34,:>:-,>:::::>;--<qsfa<,:;<53>%,1;-,:%,->53=;54<,573>:<3:#=53%:17q9",
"4772:-:>;>,:-,8tq1,9iu93,=%>qu0<>:=*:6er<>4yayyadpiaae3;-,;*3uy4>7req",
"spt91;>11<,,18ihf97ajt1:,;:7ist96,*:6rsk57ucNmvcMmbxja01:,<3effy<rpe0",
"siyyrqeir5>,8yuriwtlbfe0>20iitya0<:7ytryeikNZBvznMbhapyq424wuyty7upw9",
"q8wfzlzbhe24rpe5walbnbks>6ify7ehr1<rft88ahcmmbxzvmciqripq38ss86uiyre0",
"q9tzNbzzli0qpsr6evAMvMvs28pft50fa3<yhiqefkcvcvbnMVbt59pfr30lj66ghe9rw",
"tgxxbMcd,wfs05eghMBzlncp4<,6ydpe=,<>4ugf2qfcnnbbbNnkgft4:,-*9lh85wsle",
"ilMNNMli4rfsw9yhkBZbvNva3<<9agpq253>1wdg8tgxvbnMznnlfae4><15wipu7yjna",
"gvNBNmxfsittipyrdvNnbNvs<5wuiutripe3,4wuifzcccbnlnngrwry440it70aufxNd",
"zvnbccvvny14pjt1thcxcvju:qgdq6efbvhe3,14glnMnvccbnxi77ikq8edi66ykzcnp",
"kxbbzfsdd9:,qpy8dlvclhu8>7ttqedcmncge3>>rscNBMnbbkptrtia736tpyeesjxna",
"pgvmkw43122<>4ykvnmchu7<<>,6ujcbczxche3<:7pznnnnhe6tjhq<:;:4tfae5tjMs",
"qrsgy2:1465,=>whfggsy92:,149tsjxnzznvp5,%,0ussdft2>9si4=;:;>7yt8:6ujw",
"65783:3rgr2-;168456873<,-0gs83ekSncmbi2=;<6887799,-152<2232,,33<>38w>",
">33;=1qyfu95431,1::11:,4;ejd72txmcvMcy64<<13442<;;;>121,862:,22><1,;;",
"que34ufpiuisfggd92><1,17utwqrpglvcnNxt54urrudsr7::,6ww5:qy0>,we3<>:>>",
"pga0eklu0ygxbnnni6>,347wxi56uzvxxvMmhq44xlkcmcp8<16tfsq1egp25hke4:;22",
"qyiyyiyeigvMmnbns7;>59rpsitwralbvnmlt413zvmmcs0238rpapytesawivbft2,77",
"<3efi65ecmBBmbbmi4->6wif4yjs85yzvbzy4>,2sxMvi5,>5epy87uzqqyhvbczh0399",
";,0sp88usdfdssdgw1-,60ts2thp4:5yggi5;;,1tfzf9>;,4eu9::wle0uvBcjlfw466",
";146edsr432356657<>2548ryut9<:<5807>-,2<80083,,<1684;;3wppgvMchsq61<<",
"-3:@4vc72<,134<;4<<43<17xa8,:>,<-<,-:34,3:&*>21>>,11<>:;gcvzxbjr>,>--",
"2<;-,59q-*-3et7>=axgp7-:984,;1qpa,&0hsyipr6,,1,--edq>:24dcMbxcclg42<o",
"345532223>,0gjr<5jbkht44232,>3eag94yzxzczde5<;:<7pki3;,4aznvxbbxke9>.",
"6wipq<-=,4wpdsyepbMvcjyw2:=>8tytiuihnBMbsipp8;<espppt733sxmvcbcjyus8*",
"rsxxi1-:%9hf04tzxMNbnbhu8:$<pla77ilcnNvd36iku16hlw5yha92azmmnvju2exf8",
"flMNf5184eau99snmmmbnMxu744qshpwwhbxzbxsw7qat24idq8yse640sxnMMky8qfi3",
"ccMBh75tlu78pxvzmvbbcmcy>0dftqtdknmljvnvBa764>>2eigs9>,6,0akmVbgkrq1O",
"ncbMg63elu78pzczbxnnxmvy-8sde8rdzbnvcbnnmgw51,><0aji6<1328rikmnlle01O",
"mzcmg4<89rie70fMvzmMxmby<38eyutepfcBVnzj9yar5358eut0wuq>qeewpzxhr8uu2",
"klnMg4=:>rjd73ubxcbnnckg2>,9sgt56axzzbvh14uza25sg93rgi6>pgt<4sgw2tdd8",
"lvBMf6;-;19rteq0hxMVnht9;17wrq63:9skljpwrujca31qpyyit81>8tittpy9rutw:",
"scBbdw4>1<3qadt8ygcvge51,9iar61<:<9pdy84dlbca7127ust5<>>,4tga96qae54#",
"9gblsuq32115qtuywpfse7680ijls03,923euw9qszblp04<,eaw333<<,qhi<2ap036%",
"7dcjit91*&*:2788>486>&%*0ijls03,=+@>3>=:pjcjy81:X>5:#@#OOo:q4O@55;#% "
};
