/* XPM */
static char *result[] = {
/* columns rows colors chars-per-pixel */
"64 64 213 2 ",
"   c #3E3E3E",
".  c #733E1A",
"X  c #6F3D1B",
"o  c #74421E",
"O  c #584437",
"+  c #4F4238",
"@  c #764421",
"#  c #7A4723",
"$  c #7C4926",
"%  c #7E4C29",
"&  c #73472B",
"*  c #654A37",
"=  c #734D33",
"-  c #3F3F40",
";  c #444444",
":  c #46464A",
">  c #4B4B4B",
",  c #4D4743",
"<  c #524D49",
"1  c #58504A",
"2  c #4D4D53",
"3  c #4E4E5B",
"4  c #545454",
"5  c #5C5652",
"6  c #53535A",
"7  c #5B5B5B",
"8  c #585858",
"9  c #615146",
"0  c #675D56",
"q  c #795D4D",
"w  c #726259",
"e  c #555562",
"r  c #5C5C67",
"t  c #605960",
"y  c #646464",
"u  c #696969",
"i  c #696566",
"p  c #6B6B72",
"a  c #64647A",
"s  c #686879",
"d  c #7B6B67",
"f  c #814E2B",
"g  c #814D26",
"h  c #83512E",
"j  c #88522C",
"k  c #855431",
"l  c #895633",
"z  c #8B5936",
"x  c #8D5C39",
"c  c #875A39",
"v  c #915E3C",
"b  c #925B32",
"n  c #93613E",
"m  c #8D5F40",
"M  c #8B644A",
"N  c #956442",
"B  c #986643",
"V  c #9B6946",
"C  c #9D6D4B",
"Z  c #95684B",
"A  c #9C6F51",
"S  c #936E54",
"D  c #97725A",
"F  c #856653",
"G  c #A06C48",
"H  c #A6724D",
"J  c #AD7A56",
"K  c #A77857",
"L  c #B17D58",
"P  c #967A79",
"I  c #9E7B62",
"U  c #A37B68",
"Y  c #B5815D",
"T  c #B98662",
"R  c #BC8965",
"E  c #BC8C6A",
"W  c #B68461",
"Q  c #B28D75",
"!  c #BC9275",
"~  c #BC957B",
"^  c #AB8672",
"/  c #C28E6A",
"(  c #C28D66",
")  c #C5926E",
"_  c #CA9673",
"`  c #CC9976",
"'  c #CD9C79",
"]  c #C49675",
"[  c #D09E7B",
"{  c #D4A17D",
"}  c #DEA67F",
"|  c #6E6E84",
" . c #6D6D89",
".. c #676784",
"X. c #74738A",
"o. c #757595",
"O. c #7C7C9C",
"+. c #787896",
"@. c #6F708B",
"#. c #7C7CA4",
"$. c #927B84",
"%. c #7F80A2",
"&. c #9E8384",
"*. c #9E868C",
"=. c #9B8998",
"-. c #A28789",
";. c #BE9C84",
":. c #B99C8B",
">. c #AE9692",
",. c #BFA89A",
"<. c #8484AA",
"1. c #8E86AC",
"2. c #9C91A9",
"3. c #8484B5",
"4. c #8B8AB4",
"5. c #8686BA",
"6. c #8B8ABC",
"7. c #8887B5",
"8. c #9292BC",
"9. c #9D9DBD",
"0. c #9996B7",
"q. c #948EB1",
"w. c #A69DB7",
"e. c #A394AB",
"r. c #A2A1BF",
"t. c #AAAABF",
"y. c #A8A1B0",
"u. c #B4AAB2",
"i. c #C49E82",
"p. c #D6A481",
"a. c #D9A784",
"s. c #DCA986",
"d. c #DEAC89",
"f. c #C0A58F",
"g. c #E2AE8B",
"h. c #E3B08C",
"j. c #ECBA96",
"k. c #EDBC99",
"l. c #E8B593",
"z. c #F2BE9A",
"x. c #C5B3A6",
"c. c #C8B5A7",
"v. c #C7BFB9",
"b. c #C8BDB6",
"n. c #F2C19E",
"m. c #F8C09A",
"M. c #C9C1BA",
"N. c #F9C7A4",
"B. c #FBC9A6",
"V. c #FECCAA",
"C. c #F5C3A0",
"Z. c #FFD3B1",
"A. c #8E8EC1",
"S. c #908FC3",
"D. c #9292C3",
"F. c #9696C9",
"G. c #9B9BCD",
"H. c #9A9AC6",
"J. c #9D9ED1",
"K. c #8F90C0",
"L. c #A19FD3",
"P. c #A89FC3",
"I. c #9EA1D6",
"U. c #A3A3C2",
"Y. c #ACACC2",
"T. c #A8A9CB",
"R. c #B1B2C4",
"E. c #BEBDC6",
"W. c #B8B8C9",
"Q. c #A2A2D5",
"!. c #A8A5D1",
"~. c #A5A5DA",
"^. c #AAAADC",
"/. c #A9A8D8",
"(. c #B5B6CB",
"). c #ADAEE1",
"_. c #AEB1E6",
"`. c #B2B2E4",
"'. c #BBBBED",
"]. c #B6B6E8",
"[. c #BEBEF2",
"{. c #C1BFC4",
"}. c #C0BFF2",
"|. c #BEC0C8",
" X c #BFC0ED",
".X c #C4C4CA",
"XX c #CDCCCC",
"oX c #CBC8C8",
"OX c #D3CFCC",
"+X c #D7D2CC",
"@X c #CECFDD",
"#X c #CBCDD4",
"$X c #D0CFD0",
"%X c #CED0DE",
"&X c #D2D2D2",
"*X c #D7D8D9",
"=X c #EBDED4",
"-X c #E2E0DE",
";X c #CDD0E0",
":X c #C3C3F5",
">X c #CDCEF6",
",X c #C6C6F8",
"<X c #CDCDFD",
"1X c #CFD0F7",
"2X c #D2D2FC",
"3X c #C4C4E1",
"4X c #ECECEB",
"5X c #E8E8E6",
"6X c #F7F7F6",
"7X c #FEFFFE",
"8X c #F8F8F7",
"9X c #EEEFF1",
"0X c None",
/* pixels */
"0X0X0X0X0X0X0X0X0X0X0X0X0X0X0X0X0X0X0X0X0X0X0X0X0X0X0X0X0X0X0X0X0X0X0X0X0X0X0X0X0X0X0X0X0X0X0X0X0X0X0X0X0X0X0X0X0X0X0X0X0X0X0X0X",
"0X0X0X0X0X0X0X0X0X0X0X0X0X0X0X0X0X0X0X0X0X0X0X0X0X0X0X0X0X0X0X0X0X0X0X0X0X0X0X0X0X0X0X0X0X0X0X0X0X0X0X0X0X0X0X0X0X0X0X0X0X0X0X0X",
"0X0X4 4 8 7 7 8 7 7 y u u t 4 8 4 > : - > > * z c c v N V N x c c x c % & % c z & , 8 y 8 4 8 8 8 4 8 y u u y t 8 7 y u y 7 7 0X",
"0X0X> ; > 7 8 > 4 4 7 i y 4 > > > > : ; , < * z v v v n N n v j % k x j $ % z z # O 5 8 4 > 8 8 4 > 4 r y y y 8 4 > 7 t 8 4 8 0X",
"0X0X> > 2 8 8 4 > 4 7 y 8 ; ; ; 4 > ; ; * & = c N V V N B V V x % j x c h j v l j j O 4 4 4 8 8 < 4 7 y u y y y 8 4 4 8 > > 4 0X",
"0X0X4 8 7 > > 7 t 4 > > ;   ; 7 t > ; + * o # z N V B N B B B n v l % j x l % % z b * > 8 8 > > 4 t u u u u u u y 7 4 > 8 8 8 0X",
"0X0X4 8 8 ; : 8 7 > ;   ; ; > 7 7 4 < 9 @ o % l v n N n v n n n v h @ % z c h k x z & < 8 4 > > 8 y 7 8 7 7 7 7 7 8 > ; 4 7 7 0X",
"0X0X> ; , ; ; > ; ;     > 8 7 4 4 7 9 = # h v h h z N l % x N x % # @ @ % j x c % $ $ O > 4 8 8 4 > > > > > > ; > > ; ; ; > 8 0X",
"0X0X> > : - + > ; ; ; > 4 8 7 4 4 8 * g $ l x % # h z % $ % x % # # % % % h x k @ @ % = , > 8 8 > ; ; ; > > > ; ; > : ;   ; 4 0X",
"0X0X8 8 4 : : 8 8 > > 4 8 > > 4 7 4 O j z j % @ @ $ % & @ $ % # @ % x n v l % % @ h z x + : > > : ; + ; 4 8 > ; 4 8 4 ;   ; > 0X",
"0X0X8 8 8 4 4 7 7 > > 4 8 4 4 4 7 4 = H G k o o o @ @ @ @ @ o @ @ % x v v c % # o g z z + - ; ; ; : > > 4 8 4 > 7 y 8 > > > 4 0X",
"0X0X4 4 4 4 y y 7 > ; > > 8 8 4 4 5 D { R n o o o o @ @ @ @ @ @ # # % % % l x k # o % h + - + ; ; : 8 7 4 > 4 7 i y y 7 t 7 7 0X",
"0X0X8 4 4 7 u u 7 4 > ; > 4 8 > 4 0 Q n.p.J l l l % o @ @ @ @ o @ @ @ o @ % z z l % # g O > > ; : 4 8 7 4 > 7 u y u y u u y y 0X",
"0X0X8 8 y u u u y y 4 > ; > 8 8 7 w Q V.n.} E E Y v o o @ o o o o o @ o @ @ % z G N g g O 4 > > 4 7 8 > 8 7 y u u y u u p y y 0X",
"0X0X8 8 7 y y y u u t > ; ; 4 7 u i Q n.d.{ ' a.p.Y z % # % k k % % # @ % # % v H C k o O 4 > > 8 7 8 > 8 t y y u y y u u y 7 0X",
"0X0X4 4 4 y y y y u y 4 > > 7 y y 0 ^ ) B n C ' k.l.] N # n Y E T C % % c v z z z z z j & < > ; > > 4 8 4 4 7 y u y y u y y y 0X",
"0X0X8 > 4 7 y y u u t > > 8 u y y i Y K % % n ' B.Z.n.T v Y a.g.a.J % % n N n z h j n C q > ; ; ; : 4 7 > > 7 u y y y y y 7 7 0X",
"0X0X7 8 4 4 8 7 u u 7 > > 7 u u y 0 S _ ] ` [ l.V.Z.B.g.[ d.k.j.s.J # o % h % l V G G q 5 4 ; ; 4 4 4 4 8 7 y u y y y y 7 > > 0X",
"0X0Xy 7 8 4 > 8 y u 7 > > 7 y y y 0 M g.B.V.B.V.V.V.V.V.V.V.V.n.d.W l @ @ # % n J T F > 8 y > > 8 7 4 ; 8 7 y y u y y 7 4 > ; 0X",
"0X0X> > 4 8 8 8 8 y 7 > ; ; 8 y y 5 M } n.n.n.N.V.V.V.V.Z.V.V.N.n.p.T n % z J J H D 0 > 4 > > ; 4 8 8 4 4 8 7 y u y 8 4 ; ; > 0X",
"0X0X+ ; > 7 8 > > 8 7 4 ;   > 4 7 4 * T { { a.j.B.V.V.V.V.V.B.V.N.n.g.Y h n ] Y M 0 y t > ; ; ; ; > 4 7 2 > 7 y y y 4 ;   ; 4 0X",
"0X0X: > > 4 > ; ; > 4 8 4 ; ; > > ; ; 0 S H Y { j.B.V.V.V.V.V.V.V.V.n.E % h V G c 0 u y 8 4 > > ; ; : 4 : ; > > > > > ;   > 4 0X",
"0X0X8 > > > >   ; ; 4 8 8 4 > > > ; ; 4 1 M K E p.k.N.B.B.B.B.B.N.V.C.E h o % l Z d u y y 7 > ; ; > ; ; ; ; ; ; ; ; ; ; ; > 4 0X",
"0X0X> > ; 4 4 ; > > 4 4 4 4 4 8 8 8 4 4 7 &.*.^ R { j.k.k.k.k.k.n.l.d.T b % h M -.e.| y 8 > ; ; ; ; ; + > 8 7 8 > ; > 4 > > > 0X",
"0X0X> : > 7 7 > > 8 8 4 > 7 y y y y y 4 +.Q.U.&.A E p.a.p.p.p.p.{ ] R K A Z M ^ w.~.<. ...2 : ; ; ; ; > 8 y u y 4 > 4 7 4 > > 0X",
"0X0X> 4 8 4 4 8 7 4 > > 8 y u y y y y u 4._./.2.P U Y Y Y Y Y Y Y J H U *.*.P 1.!.I.K.5.A.X.6 - - ; 4 8 y u y y 7 8 4 4 4 4 4 0X",
"0X0X4 7 y > > 7 8 > > 8 y u u y y i a <.G.).I.F.1.P A A A A A A A C A &.U.F.7.8.Q.J.D.6.A.D.<.3 ; > 7 y y u y y y 7 > > 4 8 7 0X",
"0X0X4 8 8 8 8 8 4 4 8 y u y y y y r <.Q.F.F.F.G.H.2.=.-.*.*.*.*.*.-.*.e.~.).G.F.F.J.~.^.^.I.D.<.8 > 7 u u y y y 7 8 8 4 8 8 8 0X",
"0X0X4 > > 8 7 > > 4 y i u y 7 r s %.Q.G.6.6.8.G./.!.!.!.!.!.!.!.!.!.!.~././.~.G.K.G.'.<X,X].F.D.@.: 2 y y y y 7 4 2 4 7 4 > > 0X",
"0X0X> > ; 4 4 4 4 4 7 i u y 7 r D.J.G.J.~./.!.J.G.G.J.~.).).).).).).^.^.^.~.G.D.6.G.:X2X2X[.I.D.#.2 : 8 t y 7 8 4 8 8 4 > ; > 0X",
"0X0X; ; ; ; 4 8 8 4 > 8 y u 7 r <.6.D.`.,X<X:XQ.6.5.A.G.~.^.^.).^.^.^.^./.J.A.6.6.J.:X<X<X:X_.I. .; - 2 4 7 8 > 8 0 8 > ; ; > 0X",
"0X0X: ; ; ; > 4 4 ; ; > 4 8 4 6 7.D.J.'.<X2X:X~.5.3.5.S.G.G.G.F.G.G.G.G.G.D.5.5.6.D.~.].,X<X X].a - - > 4 4 > : 4 4 > ; ; ; > 0X",
"0X0X> ; > ; ; ; ; - ; ; : : ; : 7.J.).[.<X<X:XQ.6.7.6.7.6.6.6.6.6.6.6.6.6.6.5.5.6.6.6.Q.:X<X<X[...; ; ; ; > ;   ; ;     ; > 4 0X",
"0X0X> : > ;   ; - ; ; ; - - - 2 7.Q.).:X<X<X:X~.6.8.9.r.9.9.r.9.9.9.9.9.9.w.U.H.6.4.0./.:X>X:X'.| > ; - ; ;     > > ; ; > > 4 0X",
"0X0X8 4 4 > ; ; ; ; : ; ; ; : 4 4.Q.).:X<X<X:XQ.8.t..X.X.X.X.X.X.X.X.X.X.XoX.XY.8.9.R.@X>X:X].^.| 4 > ; ; ; ; > 8 7 4 > 4 4 4 0X",
"0X0Xy 8 4 4 > > 4 4 > ; ; > 2 3 4.J.).:X<X2X:XQ.8.Y.XX*X-X-X-X-X5X*X-X5X-X*XXXR.8.9.|.%X>X:X`.~.@.4 4 2 ; ; > 4 4 8 4 4 4 4 8 0X",
"0X0X8 4 4 7 7 y y y 8 ; : 8 4 2 4.I.).:X<X<X,XQ.8.Y.OX5X6X6X6X6X8X8X6X8X6X5X&XR.8.9.|.@X1X:X`.~.+.2 4 8 > > 4 8 4 > 4 8 4 4 4 0X",
"0X0X4 4 4 y u u y 7 8 4 4 8 > 2 4.J.).:X<X<X:XQ.6.t.XX5X7X7X7X7X7X7X7X7X7X4X&XR.8.9.E.%X<X:X`.~.+.2 2 8 > > 4 8 4 4 8 8 4 4 8 0X",
"0X0X4 8 y y u u 7 > > 7 8 4 : 3 4.Q.).:X<X2X:XQ.8.t.XX4X7X7X7X7X7X7X7X7X7X4X&XR.8.9.E.@X>X:X`.~.+.4 2 4 ; ; ; > 4 7 4 > 4 7 i 0X",
"0X0X7 y u u u u y 8 > 7 8 8 > 6 4.J.).:X<X<X:XQ.6.t.XX4X8X7X7X7X7X7X7X7X7X4X&XR.8.9.E.@X>X:X`.~.+.3 > > ; > ; > 4 8 4 4 8 y p 0X",
"0X0Xy y u u u y y y 8 > 4 8 4 2 4.J.`.:X>X<X:XQ.8.t.XX5X8X7X7X7X7X7X7X7X7X4XOXR.8.9.E.@X>X:X`.~.o.: 2 7 > > 4 8 4 > 4 7 y y u 0X",
"0X0Xu y y y y y 7 y 4 > ; 4 4 2 6.Q.).:X<X<X:XQ.8.t.#X4X7X7X7X7X7X7X7X7X7X9X&XR.8.9.E.@X1X:X].~.+.2 4 7 4 > 4 8 4 4 4 8 y y p 0X",
"0X0Xy 7 y u 7 4 > > > > ; : : 6 <.~.`.:X<X<X:XQ.8.Y.#X4X7X7X7X7X7X7X7X7X7X9X&XR.D.9.E.%X>X:X`.Q.<.e 2 : ; ; ; 4 4 8 4 4 8 y u 0X",
"0X0X4 4 7 t 4 ; ; ; > ; + - : 8 u %.`.].,X<X:XQ.6.y.v.+X=X=X=X=X=X=X=X=X=X+Xb.y.2.w.{.%X<X X^.J.6.r 2 -   + ; : 4 4 > ; < 7 u 0X",
"0X0X> > > > ; ; > 8 8 > ; ; ; ; > 2 4.`.].:X:X~.4.=.] ] i.i.i.i.i.i.i.i.i.] ~ Q Q :.v.;X>X'.G.A.3.3 : : ; ; ; ; ; > ; ; > > 4 0X",
"0X0X> > > ; ; > 4 8 8 4 > > > : > ; e 6.).[.:X~.1.-.R / ) ) ) ) ) ) _ ) ) ] _ / R ;.v.;X<X].G.#.a 2 : ; > > ; ; ; > ; ; ; ; ; 0X",
"0X0X8 8 8 > > 7 7 8 4 8 7 t y y 8 > : r F.[.,X~.4.&.E { k.k.k.k.k.k.k.k.k.k.k.s.) ;.b.;X1X].J. .7 8 > ; 4 8 > ; > 8 > ; ; ; ; 0X",
"0X0X7 8 7 4 4 7 7 4 4 t u u i u y 4 ; ; a /.:XI.1.-.E g.B.B.n.N.V.B.C.C.V.V.C.s.! ;.b.@X1X XG.a 7 7 8 > 4 7 8 > 8 i 7 > ; ; > 0X",
"0X0X> > 4 7 8 > 4 8 y u u u u u y 4 - ; > s 8.F.<.&.E l.B.l.{ l.B.k.{ h.B.z.{ ) E ;.M.%X>X[.J.r 8 4 8 8 4 4 8 7 y y y 8 > ; 4 0X",
"0X0X; ; > 7 8 > > 7 y y y t 7 y 8 > - ; > 4 o.F.q.-.E s.l.{ R { k.p.R ' j.d.E Y T ;.b.%X<X[.F.e > - 4 7 8 > 7 u u y y 7 4 > > 0X",
"0X0X; ; > > 4 8 8 > > > > > 4 > 4 > - ; : 6 %.T.u.:.R ] ` ) T ! ` ) T / ` ) T Y W ;.M.%X>X[.7.e - ; : 4 8 8 7 u y t 7 4 > ; > 0X",
"0X0X; ; ;   > t 7 > ; ; ; : : + ; ; > > > 6 <.T.|.f.! ! ! ! ! ! ! ! ! ! ! ! ! ! ! ,.M.%X>X XO.6 ; ; - ; 8 y y y y y 8 > ; ; ; 0X",
"0X0X> ; ;   ; 4 4 : - ; : 4 4 :   > 7 7 8 2 e X.0.u.x.x.x.x.c.c.x.x.x.x.x.x.x.c.x.b.oX$X%X3X| 6 > - - > 8 u u y y i y 4 > ; > 0X",
"0X0X> > > > > ; ; ; ; ; 4 7 7 4 ; 8 u u 7 8 > - | R.XXXXoX.X.X.X.XoXoXXXXXXXXXoXoXoX.X.X#XW.s 0 4 > - > 8 y u y y y i 7 8 > > 0X",
"0X0X4 4 7 7 > ;     ; 4 7 4 4 4 8 y u u y y 8 > X.R.#X$XXXW.U.U.U.R.XX&X$X$X$X$X$X|.t.U.U.H. .4 8 4 > > 8 y u y y y 7 4 8 7 8 0X",
"0X0X7 7 y u 7 ; ; + > 7 8 4 > 7 u y u u y y 7 4 +.R..XXX.XU.6.5.6.U..XoX.XoX.X.X.XR.8.6.5.A.#.: 8 8 > > 4 y y u u y 8 > 4 7 y 0X",
"0X0Xy y u u 8 > > 4 8 4 > 4 7 y i u y u y u t 4  .H.U.r.r.8.3.3.3.8.U.U.U.U.U.r.r.0.6.3.3.5.A.a 8 > ; > > 4 t u u y 7 8 8 4 4 0X",
"0X0Xu u u u 8 > > 7 7 2 > 7 y y y y y u y u y 2 | D.D.D.S.S.A.A.K.6.5.5.6.6.6.8.A.A.A.A.A.A.S.7.y ; ; : > > 8 t u u y t 4 > > 0X",
"0X0Xu y y y 7 > : 4 4 4 4 > 4 y u y i u y r 7 6 @.J.^.).).^.).).).J.6.3.3.A.D.J.~.).).).).^.L.J.@.2 > : > 4 4 4 7 y y 4 4 4 8 0X",
"0X0Xu y y u 7 ; - ; > 8 8 > > 8 y y u p X.#.+.+.3.).:X,X:X,X:X>X:X^.6.3.6.D.~.`.[.,X>X,X,X[.`.Q.7.e > ; 4 7 > > 8 7 4 > 4 7 t 0X",
"0X0Xu y u u 8 > ; ; ; > 4 8 4 > 4 y u p <.F.G.G.G.).'.'.'.'.'.[.'.~.6.3.5.F.~.`.'.'.'.[.'.'.`.Q.H.a : - > 4 8 4 8 4 4 4 8 4 4 0X",
"0X0X7 7 u u 7 4 ; ; ; > > 8 8 4 4 8 r u <.J.~.^.~.~././.^.^.^.^./.G.6.6.A.F.Q.^./.^.^.^.^.^./.J.G...3 : ; > 8 7 4 ; 4 8 > > > 0X",
"0X0X8 7 u u t 8 4 > > > > 7 7 7 4 8 y p <.J.~./.~.~.~.~.~.Q.Q.~.Q.G.D.A.K.F.~.~.~.~.~.~.Q.~.~.Q.J...3 : ; > 8 y > > 7 7 4 > 4 0X",
"0X0X0X0X0X0X0X0X0X0X0X0X0X0X0X0X0X0X0X0X0X0X0X0X0X0X0X0X0X0X0X0X0X0X0X0X0X0X0X0X0X0X0X0X0X0X0X0X0X0X0X0X0X0X0X0X0X0X0X0X0X0X0X0X"
};
