/* XPM */
static char *result[] = {
/* columns rows colors chars-per-pixel */
"69 69 223 2 ",
"   c #3F3F3F",
".  c #493D36",
"X  c #75421D",
"o  c #7A451D",
"O  c #5E422D",
"+  c #4D423A",
"@  c #584638",
"#  c #764523",
"$  c #7A4623",
"%  c #7C4926",
"&  c #754A2C",
"*  c #7D4C29",
"=  c #754828",
"-  c #664A37",
";  c #714E36",
":  c #7E5233",
">  c #7C533C",
",  c #73573E",
"<  c #444444",
"1  c #4B4643",
"2  c #4C4C4C",
"3  c #494848",
"4  c #534B44",
"5  c #524E4B",
"6  c #594E47",
"7  c #5C514B",
"8  c #54514F",
"9  c #4D4E54",
"0  c #494956",
"q  c #545354",
"w  c #5B5855",
"e  c #54545B",
"r  c #585758",
"t  c #5B5B5C",
"y  c #5A5655",
"u  c #4F5055",
"i  c #675344",
"p  c #7D5441",
"a  c #7B5949",
"s  c #645954",
"d  c #614D41",
"f  c #66615E",
"g  c #786456",
"h  c #7B604D",
"j  c #5C5C63",
"k  c #5A5A67",
"l  c #53536B",
"z  c #636364",
"x  c #646469",
"c  c #6A6A6A",
"v  c #6B6764",
"b  c #726B63",
"n  c #7C7268",
"m  c #626274",
"M  c #6A6A7B",
"N  c #686878",
"B  c #727273",
"V  c #79777A",
"C  c #756E7C",
"Z  c #814E2C",
"A  c #83512E",
"S  c #8C552E",
"D  c #865431",
"F  c #895633",
"G  c #8B5936",
"H  c #845739",
"J  c #8E5C3A",
"K  c #845839",
"L  c #915E3C",
"P  c #955E36",
"I  c #92603D",
"U  c #845C46",
"Y  c #956543",
"T  c #856859",
"R  c #836B67",
"E  c #89756C",
"W  c #887673",
"Q  c #937E77",
"!  c #96805D",
"~  c #A9836A",
"^  c #BD8D6B",
"/  c #BF916F",
"(  c #BF9372",
")  c #BA967D",
"_  c #AD8E73",
"`  c #C4926D",
"'  c #C69775",
"]  c #D19E79",
"[  c #D3A17C",
"{  c #6E6E8A",
"}  c #696982",
"|  c #73738D",
" . c #777684",
".. c #747492",
"X. c #7A7A95",
"o. c #7B7A9B",
"O. c #787797",
"+. c #616198",
"@. c #7E7EA3",
"#. c #857D96",
"$. c #8A7A89",
"%. c #807FB3",
"&. c #7F8097",
"*. c #7F80B5",
"=. c #868589",
"-. c #83839B",
";. c #948599",
":. c #948294",
">. c #939395",
",. c #90888E",
"<. c #AD978A",
"1. c #8685A7",
"2. c #8484B5",
"3. c #8A8AB5",
"4. c #8686B9",
"5. c #8887BA",
"6. c #8B8BBC",
"7. c #8788BA",
"8. c #918FBD",
"9. c #9493BC",
"0. c #9B9ABD",
"q. c #9795B7",
"w. c #978FA7",
"e. c #A8A6A9",
"r. c #AEABBA",
"t. c #B4B3B7",
"y. c #B4AFB0",
"u. c #CB9D81",
"i. c #D8A885",
"p. c #CFAD96",
"a. c #E5B18C",
"s. c #EEBC99",
"d. c #E9B693",
"f. c #F1BF9B",
"g. c #C9B6A9",
"h. c #D3B5A0",
"j. c #F4C19E",
"k. c #FAC29A",
"l. c #DBC4B3",
"z. c #FECDAA",
"x. c #F8C6A2",
"c. c #FFD1AE",
"v. c #8E8EC1",
"b. c #8F8FC9",
"n. c #908FC1",
"m. c #8F90C2",
"M. c #9393C5",
"N. c #9B9AC4",
"B. c #9696C9",
"V. c #9897C9",
"C. c #9798CC",
"Z. c #9B9BCD",
"A. c #9898C3",
"S. c #9E9ED1",
"D. c #A09FC9",
"F. c #A09FD1",
"G. c #A4A4C3",
"H. c #ACACC3",
"J. c #A4A4CC",
"K. c #AAA9C8",
"L. c #B4B4C5",
"P. c #BABAC5",
"I. c #B4B4CA",
"U. c #BCBCCA",
"Y. c #B8B7C8",
"T. c #A3A3D5",
"R. c #ACABD4",
"E. c #A6A6D9",
"W. c #A8A7D9",
"Q. c #A7A8DA",
"!. c #AAAADC",
"~. c #B3B2DC",
"^. c #BBBBD5",
"/. c #B0AFD2",
"(. c #ADADE1",
"). c #B3B3E4",
"_. c #B6B6E9",
"`. c #BABAEC",
"'. c #BABAE6",
"]. c #BEBEF1",
"[. c #AFB0E1",
"{. c #C0BFF2",
"}. c #C3C3C5",
"|. c #C3C3CC",
" X c #CBCACD",
".X c #C9C4C2",
"XX c #D5CCC6",
"oX c #CECED2",
"OX c #C7C6DB",
"+X c #D4D4D4",
"@X c #DBDBDB",
"#X c #D4D3D9",
"$X c #DCD0C7",
"%X c #E0E0DE",
"&X c #CBCBEB",
"*X c #C6C6E8",
"=X c #D6D6EC",
"-X c #D6D6E7",
";X c #C3C3F5",
":X c #CBCBF5",
">X c #C6C6F8",
",X c #C8C7FA",
"<X c #CCCCFE",
"1X c #C7C8FB",
"2X c #CFD0FF",
"3X c #D4D4FE",
"4X c #DBDBFE",
"5X c #D9DAF5",
"6X c #D0CFFF",
"7X c #E3E3E3",
"8X c #EDEDEC",
"9X c #E9E9E6",
"0X c #F0F0EF",
"qX c #E4E5FD",
"wX c #EDEDFC",
"eX c #E8E9F6",
"rX c #F4F4F3",
"tX c #FAF7F3",
"yX c #F4F4FC",
"uX c #FFFFFF",
"iX c #F8F9F7",
"pX c #EFF0FA",
"aX c #E4D7CE",
/* pixels */
"uXuXuXuXuXuXuXuXuXuXuXuXuXuXuXuXuXuXuXuXuXuXuXuXuXuXuXuXuXuXuXuXuXuXuXuXuXuXuXuXuXuXuXuXuXuXuXuXuXuXuXuXuXuXuXuXuXuXuXuXuXuXuXuXuXuXuXuXuX",
"uXuXuXuXuXuXuXuXuXuXuXuXuXuXuXuXuXiXuXuXuXuXuXuXuXuXuXuXuXuXuXuXuXuXuXuXuXuXuXuXuXuXuXuXuXuXuXuXuXuXuXuXuXiXuXuXuXuXuXuXuXuXuXuXuXuXuXuXuX",
"uXuXz r t z z z t z z z c c z t j t q q 2 2 r 8 H & & : K H H H K H H H K : & = : : : @ w c z t t t z t t z z c c c c z t z c c z j c uXuX",
"uXuX3 3 2 r w q 8 u r z z z r 2 2 2 2 3 < + 8 7 H $ $ F G A % F J F Z A G D $ $ F F A O 4 t r 8 q r r q 2 q j z z z f q 8 q j z r q 8 uXuX",
"uXuXq 3 2 r t q 2 2 r z z r 3 < 3 2 2 3 3 @ , U F * * G G A % H L F % Z L G Z Z G L A * & i q 8 q r r 2 2 r z c z z z t q 2 w r 2 2 t uXuX",
"uXuXr r r 8 2 w j r 2 q q <   < w t 2 < < @ $ * F G G A Z F F D Z D G F A A F G A A F F S @ 2 w r 2 2 q t c c c c c z z t r q q r q j uXuX",
"uXuXt r j 2 < q f w 3 <     < 2 t t 2 < < @ = $ * J J * * G L D $ A L G % Z J J * $ H J I O 8 t r 2 3 q z z j f z z z z z r 3 2 r r t uXuX",
"uXuXr 2 2 3 < 2 2 3 < <   3 q r q q t 8 2 + * D F F A F H A A F F F Z D F F A H F F F A S , 7 8 q q r r q q 2 8 2 2 2 2 q 2 <   2 r z uXuX",
"uXuX8 < < < < < < <   < < q t t q 2 t 5 @ O A I J $ * G J A # F I F # Z I J * Z G I A % A Y I @ 2 t t q < < < 3 3 3   < 3 3       2 t uXuX",
"uXiXt q 2 < < 2 u 2 3 2 q q q q q q r - A F D S F F A F F A F F F D A F A F A A A G F A F F Z O 2 2 q 2 <   < 2 r 2 < 3 2 q 2     < r uXuX",
"uXuXz t t 2 2 q t q 2 2 t t 2 2 r r r @ F I G % * J J * $ G I A $ A I G * Z J J * $ F L F $ # O < 3 < 3 < < < q t q 3 q j t 2 3 < 3 q uXuX",
"uXuXz q q q t t z q < 2 q q q q r r r @ Z G F A A G F A A G F F Z A G F A A F F A A F G F A * O < < < < 2 2 q q r q 2 t z z q q 2 8 f uXuX",
"uXuXt 9 2 q z c z q 3 < 3 8 t t 8 2 e - $ $ A L G * A G J A $ F I H % A J G % * G J A * A I F - < <   < 3 q t r 3 8 t z z z z z z j c uXuX",
"uXuXt q q z c c z r q 3 < 3 q r 8 q t i % * A G G * A G G A * F J F * A G G Z A G J A Z F G F - 2 3 < 2 q t t q 2 r c c c c c z c z c uXuX",
"uXuXj w t z z z z z t q <   2 q r t z i F J F * A G G A * G J A % A L G * A G J A * F J F * $ ; q 8 2 q t t 2 q t z c c z c c c c z z uXuX",
"uXuXt w z z z z z c c t 2 < 3 q z c c - F I F % A J G * * G J D * A L G * A G G Z % F J A * o & 5 2 2 q t q 2 q t z f c z c z z c t z uXuX",
"uXuXj 8 8 t z z z c c t 2 2 8 t z z c s & * K G G Z A G G A * F J D * D G G D Z G G F * D J A A @ < 2 3 2 q r q q q z z z z z c z z c uXuX",
"uXuXj 2 2 w z z z c c r 3 2 t z c z z f - & * I G * * G L Z $ F Y F % D J G * * G J A $ A J a @ 2 < < < 2 q t u 3 t z c z z z z z r z uXuX",
"uXuXz r q q r t z c c r < 2 z B c z z z w ; X * A G H A A S F D Z D F F D D F G D A H F F , w w q < < 2 r q u u q z z z c z z z t 2 q uXuX",
"uXuXc r w q q q t c z q 3 2 j z z z z t 8 4 ; = Z J L * % G I F $ Z L F * * J J * % F Y ; 4 2 z z 2 < t t q 2 u z t z c z z z t q < 2 uXuX",
"uXuXr 9 e k r e e z x r 2 3 2 r z z t q 3 < @ a # * H F F D A D D A A D D F F D H F D Y i e 8 e q < 2 u t r u u e j x c c j t u 3 < 9 uXuX",
"uXuX2 < M &.....| ..O.O...{ ..k t j r 3 < < < @ # # * J L Z % D Y H % Z L L $ * G L A Y b z q u   < < 3 m &.&.......&.&.&.&.&.m < 3 w uXuX",
"uXuX2 < 3.T.B.S.T.T.T.T.T.S.Z.-.e q < < 2 q u   * * A F F A A F G F Z D F F Z D F F o D Q C } #.t 2 <   &.T.Q.T.T.T.T.S.C.b.M.!.C 3 t uXuX",
"uXuXj m C.!.Q._.;X;X;X;X;X_.!.W.3.m 0 3 q r q + D J G Z * G L D % A L G * Z G L Z # X = E J.(.W.N.+.l k M.`.;X;X;X;X;X`.Q.S.Q.(.1.2 r uXuX",
"uXuXZ.!.!.)._.;X<X2X<X3X4X5X&X'.Q.N.T.3.e w q 3 T J A $ # A G D Z D G F Z Z F S $ # > T $.%.C.(.(.J.K.(._.;X<X2X<X3X4X4X&X'.~.!.B.m j uXuX",
"uXuXT.Q.(.`.>X,X<X<X<X4XwXyXyXqX:X`.[.!...0 u M ,.K o X X # Z F L D Z Z L G Z $ X & W q.8.%.n.T.(.`.;X>X1X<X<X<X2X4XyXyXpX5X'.Q.W.T.9.uXuX",
"uXuXJ.[._.;X3X<X<X1X<X4XwXuXuXyX4X1X`.!.S.2.1.F.q.b > U U * $ Z G Z X Z J L U p H T 1.E.F.A.A.F.(.>X2X<X<X<X,X1X2X4XpXyXuXpX&X[.T.Q.T.uXuX",
"uXuXR.`.>X<X<X<X<X<X<X<X3XqXuXyX4X1X`.Q.B.v.S.!.D.#.$.w.#.U X X % $ X X o U $.w.#.#.q.!.!.T.B.n.F.;X2X<X<X<X<X<X1X2X4XqXiXyX5X`.T.v.6.uXuX",
"uXuXR.`.,X<X<X<X<X<X2X<X<X3XqXeX3X;X[.T.M.7.M.F.Z.n.B.E.N.W p > U U H U > E 0.W.C.m.Z.T.T.T.V.8.Z.).>X1X<X<X<X<X<X<X1X4XwXwX2X_.Z.v.3.uXuX",
"uXuXZ.(.`.>X<X<X2X<X<X<X<X:X*X*X`.[.F.M.6.7.3.M.B.S.T.!.W.q.;.:.$.;.#.#.:.w.T.W.T.S.B.M.M.M.C.Z.S.Z.!.{.2X2X2X2X2X2X2X3X4X5X~.S.S.S.B.uXuX",
"uXuX8.Z.!.`.,X<X,X1X1X,X<X].[.Q.!.E.B.7.3.7.7.4.n.F.W.!.!.!.W.W.!.!.W.W.!.!.!.!.Q.T.B.6.3.v.B.T.Z.v.B.).;X>X;X;X;X;X;X;X1X'.C.8.Z.Q.T.uXuX",
"uXuX3.M.Z.).`.`.`.`.`.`.`.).(.Q.!.R.M.7.7.7.4.4.6.M.Z.T.!.!.(.(.(.(.(.(.W.).`.'.T.C.B.C.Z.C.C.C.V.C.Z.T.E.E.E.E.E.E.E.E.E.F.S.C.C.D.0.uXuX",
"uXuX4.6.m.F.!.!.!.!.!.!.!.!.!.Q.!.T.B.6.7.7.6.3.6.3.M.Z.!.!.!.!.!.!.!.W.!.(.{.{.Z.6.V.Q.!.Q.V.6.M.T.T.M.6.6.6.6.6.6.v.6.6.n.S.(.3.e q uXuX",
"uXuXx { 7.M.Z.T.!.!.!.!.!.!.!.Q.T.B.v.7.6.M.B.B.v.3.6.T.!.(.!.!.!.)._.{.{.{.{.).B.6.T._._.!.T.V.B.Z.Z.A.M.M.B.M.M.M.M.B.B.M.C.!.1.< r uXuX",
"uXuXq 9 @.b.6.S.Q.!.!.!.!.(.!.T.M.6.7.3.V.T.Q.T.S.v.M.F.!.!.!.!.!.`.{.<X,X{.).F.v.v.(.>X`.!.Q.Q.S.n.n.Z.Q.Q.W.W.Q.Q.Q.Q.W.F.M.N.N 2 w uXuX",
"uXuX8 9 1.C.4.m.S.F.S.Z.S.S.S.Z.6.5.6.B.T.!.)._.(.T.Z.Z.Z.T.Z.S.F.F._._._.!.F.F.Z.E._.,X;X_.).!.T.B.B.Z.S.S.S.F.S.S.S.S.S.Z.J. .2 q t uXuX",
"uXuXt z w.R.7.7.6.6.v.6.6.6.6.6.3.6.V.T.T.Q._.;X;X;X).Z.6.6.v.6.6.n.M.M.M.n.6.M.(.;X,X,X,X,X`.(.Q.T.F.M.6.6.n.n.v.v.6.v.v.N.r.r q q t uXuX",
"uXuXc c e.^.q.0.0.0.0.0.0.0.0.9.5.6.S.!.).).`.,X<X3X{.Q.Z.V.B.v.5.2.5.6.A.V.V.F.].<X3X4X3X<X{.[.Q.T.F.N.0.0.0.0.9.0.0.9.0.K.=.9 r q j uXuX",
"uXuXz z e.#XP.P.P.P.Y.Y.P.P.P.L.J.M.Z.!.`.;X,X<X<X<X<X].`.{._.F.3.2.5.V.).{.{.{.;X<XqXwXqX3X].[.T.M.A.H.U.P.P.P.P.P.P.P.U.oXc q q q t uXuX",
"uXuXt t e.%X+X@X+X+X+X+X+X+X+Xr.-.1.Z.Q._.;X<X<X<X<X<X<X<X3X;XQ.6.2.5.F.{.6X6X,X3X3XwXuXeX>X_.Q.V.6.9.L. X+X+X+X+X+X+X+X@X%X,.r q q t uXuX",
"uXuXt z t.rX9X0X0X0X8X0X0X9X XB r B G.S.S.).].<X<X2X<X<X3X2X,XQ.6.2.5.F.;X6X6X3XqXpXuXyXqX'.T.M.6.*.9.P.+X7X0X0X0X0X0X0X8X8X Xr 8 t z uXuX",
"uXuXz c t.uXiXuXuXiXuXuXiX8X Xc w j =.1.Z.T.).;X,X<X<X<X<X<X;XT.6.2.5.Z.`.<X<X3XqXuXuXpX&X!.Z.A.N.B.G.U.+X9XiXiXuXuXiXuXuXuX+Xr t z B uXuX",
"uXuXc B t.uXuXuXuXuXuXtX9X9X#Xc q r z B K.Z.S.).;X,X<X2X<X;X_.Z.3.2.5.V.[.{.,X3X4XqX5X&XR.Z.R.I.Y.I.r.U.+X@X7XpXuXuXuXuXuXuX+Xt j z B uXuX",
"uXuXc c t.iXrXtXtXtXtX9X}.>.V r 2 2 r c L.V.m.Q.).;X,X1X{.).Q.B.v.5.6.B.T.).{.,X,X;X_.W.B.v.^.>.B V B z ,.+X+X%X0XiXtXtXtXtXoXz f z B uXuX",
"uXuXc B y.aXl.l.l.l.l.$X=.2 2 r q r t &.~.V.M.C.Z.Q.!.!.E.Z.M.B.B.B.B.B.B.Z.T.!.!.W.S.B.v.2./.C z t q q w >.oXl.l.l.l.l.l.XXl.j j z B uXuX",
"uXuXz z e.h.^ ` ( / ( g.V < < 2 w z V 9.F.T.Z.6.6.6.v.v.6.6.8.Z.Q.W.W.S.n.6.v.6.v.6.6.6.5.4.n.| e 2 2 t z t >.l.) ( ( ( ^ p.t.e r z B uXuX",
"uXuXt t <.a.] ] ] ` ` u.<.5   < r z -.M.E.).!.V.6.7.7.6.M.Z.T.(._.`.`.!.V.M.M.v.3.4.6.M.M.M.b.%.x < 3 q q 2 W i.' ' ' [ ] i.p.3 2 r c uXuX",
"uXuXq 2 ~ s.j.j.j.d.i.' ' E z x k M M.Q._.;X`.!.Z.6.6.C.Q.`.;X;X>X,X,X`.!.T.Q.S.M.6.C.T.Q.T.S.2. .<   3 < 4 n [ [ a.j.x.x.j.' + 3 3 r uXuX",
"uXuXq 7 ~ f.z.c.z.j.s.[ ^ <.y.r.0.6.S.'.:X4X:X[.F.6.M.E.`.>X<X2X<X2X<X;X'.).[.T.M.6.F._._.).E.C.N.q < 3 2 < h [ d.k.z.c.c.j.` + < < 2 uXuX",
"uXuXz s ~ k.z.c.z.z.x.i.` <.r.~.E.!._.;XqXiX=X[.C.8.B._.1X<X<X<X<X<X<X<X1X`.[.T.8.M.Q.;X1X;X_.Q.Q.| < q q 8 g a.j.c.z.z.z.j.' 4   < 2 uXuX",
"uXuXj w f _ j.z.k.x.j.j._ R #.M.S.[.].<XqXyX5X'.T.6.B.).1X1X<X2X2X<X2X1X1X`.[.T.M.6.E.`.;X;X_.Q.S.7.u t t q g j.j.j.j.j.k.j.<.4 < 3 q uXuX",
"uXuXq 2 q w i g g T u._ B c c | S.).{.<X4X4X3X>X[.M.8.Q.`.;X2X2X<X2X2X;X`.[.[.E.M.7.M.S.Q.).E.B.M.m.k q q q w n ) [ ] u.[ h.W 8 3 3 r uXuX",
"uXuX8 < 3 r w 2 3 q v z z z z t m E.].;X1X1X;X{.[.N.M.C.Q._.{.;X;X;X{._.Q.T.E.F.A.9.6.9.N.T.C.6.M.&.j 2 < 2 z w s g _ ! s b f t 2 2 r uXuX",
"uXuX2 < 3 2 r e q r 2 2 5 2 9 9 2 { _.`._._.[.T.T.K.r.M.M.C.F.S.S.Z.Z.C.M.M.m.B.G.L.L.H.G.B.6.m.&.z 2 <   3 q r w w n b f j t q 3 3 q uXuX",
"uXuX2 < 3   < t z 8 3 < < < 3 3 < < { Q.!.E.C.M.G.|.|.G.9.M.8.M.Z.F.F.A.8.6.6.0.}. X X XG.6.*.S.&.9 3 < < < < q f z z z z t q < < < 2 uXuX",
"uXuXq < <     8 t 2 <   + 3 q 2 3   2 3.S.M.M.r.|.@X7X-X^.I.H.I.&X=X=XOXH.H.H.U.#X9X@X XG.v.7.b.&.j u 2 <   < q z c z z z z t 2 < < q uXuX",
"uXuXq 3 3 3 2 < < 3 <   3 q j t 2 < 8 k 2.8.G.}.@X0XuXiXrX#X+X@X>.f t >.+X X|.oX9XpX7X XK.M.o.0 2 t t 2 <   < q f z c z z c z t 2 2 q uXuX",
"uXiXr 2 q r u <   + < 3 u q t t q u j z &./.L. X@XiXuXuXiX@X@X7Xz q r c +X XL.P.OX#XoX XU.0.u q t t t q 2 2 3 q z c z z z z t q r q t uXuX",
"uXuXz q z z t 2 <     2 t t 2 2 t z x c B }.}. X@XiXuXuXiX@X+X7Xq 2 t c oX|.0.8.8.N.L.oXoXc 2 z t 2 2 t t q 2 q z z c c z t q 2 r z z uXuX",
"uXuXc t z c z 2 < 2 9 q t q 2 q s c c c z e.P.L.U.-X=X=X-XoX+XoXc q j =.oXU.A.*.*.7.0.P.}.j 2 r t 2 q t q 2 3 2 q z z c c z q 2 r t z uXuX",
"uXuXc z c c z 8 2 q j r 2 8 t z j j m k M 1.9.9.9.A.N.N.D.P. XL.9.q.q.H.}.P.0.7.*.7.6.9.C.&.e u e k t q 3 < 3 3 2 r t c c z z t r 2 q uXuX",
"uXuXB c z z z 2 3 q t q 2 2 q z j o.T.S.C.v.B.B.B.M.B.B.G.^.}.N.m.b.M.G.U.^.J.B.C.C.B.B.C.C.C.m.C.C.&.2 3 3 < 3 2 q w z c z z t 2 2 r uXuX",
"uXuXB z z c z 8 < < 2 q t q 2 u k o.C.T.(.`.`.`._._.*X-X=XOXR.N.7.*.*.M.R.~.'._._.'._._.`.`._.Q.M.m.*.M q q < 2 q q 2 q t z q 2 r r z uXuX",
"uXuXc j z c z 2     < 2 t q 9 &.3.n.F.!._.>X1X>X1X<X4XqXeX&XQ.M.7.7.6.B.F._.;X2X2X2X1X>X1X1X`.[.S.m.C.3.t 2 < q t q 2 2 t t 2 q r r z uXuX",
"uXuXc z c c z 8 < < < 3 2 q u 3.S.F.(.(.(._._._.].,X3X4X4X{.T.V.6.2.6.M.T.).>X3X3X<X;X_._.'.).!.W.T.S.o.2 < < 3 2 w r r q 8 8 e q 2 r uXuX",
"uXuXr r z z t q 2 < < < 3 2 u 9.S.Q.E.T.Q.Q.Q.Q.[.].;X;X].).Q.A.X.N m 1.T.[.`.;X;X].).Q.Q.Q.Q.Q.Q.Q.Q.} < < < < < q t r 3 2 q q 2 2 3 uXuX",
"uXuXz z B c c z t r q q q w e 3.Z.Z.S.S.Z.J.Z.Z.T.!._.).).T.J.1.N j e  .N.T.~._._.).Q.S.Z.Z.Z.Z.Z.T.T.m q q e 9 q r z z q r z z r r z uXuX",
"uXuXuXuXuXuXuXuXuXuXuXuXuXuXuXuXuXuXuXuXuXuXuXuXuXuXuXuXuXuXuXuXuXuXuXuXuXuXuXuXuXuXuXuXuXuXuXuXuXuXuXuXuXuXuXuXuXuXuXuXuXuXuXuXuXuXuXuXuX",
"uXuXuXuXuXuXuXuXuXuXuXuXuXuXuXuXuXuXuXuXuXuXuXuXuXuXuXuXuXuXuXuXuXuXuXuXuXuXuXuXuXuXuXuXuXuXuXuXuXuXuXuXuXuXuXuXuXuXuXuXuXuXuXuXuXuXuXuXuX"
};
