/* XPM */
static char *result[] = {
/* columns rows colors chars-per-pixel */
"64 64 227 2 ",
"   c #3F3F3F",
".  c #713E1B",
"X  c #6F3C19",
"o  c #77431E",
"O  c #5A4333",
"+  c #764522",
"@  c #794623",
"#  c #7C4926",
"$  c #7D4C29",
"%  c #744B2D",
"&  c #674C3A",
"*  c #775137",
"=  c #444444",
"-  c #4A4644",
";  c #4C4C4C",
":  c #494747",
">  c #514D4C",
",  c #5D4E43",
"<  c #54514F",
"1  c #4E4E54",
"2  c #545454",
"3  c #5B5754",
"4  c #5B5856",
"5  c #55555A",
"6  c #5B5B5B",
"7  c #4F5051",
"8  c #685447",
"9  c #775B48",
"0  c #605E5D",
"q  c #695D55",
"w  c #614E42",
"e  c #79675B",
"r  c #6D6158",
"t  c #5C5D62",
"y  c #5D5D6C",
"u  c #5E5E70",
"i  c #646464",
"p  c #6A6665",
"a  c #65656A",
"s  c #69696A",
"d  c #696866",
"f  c #736B66",
"g  c #6B6B7C",
"h  c #686876",
"j  c #747374",
"k  c #7A787A",
"l  c #74716D",
"z  c #814F2C",
"x  c #834C25",
"c  c #83512E",
"v  c #89522C",
"b  c #865432",
"n  c #895633",
"m  c #8B5936",
"M  c #8D5B39",
"N  c #915E3B",
"B  c #905B36",
"V  c #93613E",
"C  c #9C683F",
"Z  c #966441",
"A  c #996643",
"S  c #9B6946",
"D  c #9B6C4C",
"F  c #856A58",
"G  c #9B6F52",
"H  c #916F5D",
"J  c #906C53",
"K  c #A16E4B",
"L  c #A7754E",
"P  c #A57451",
"I  c #AB7A57",
"U  c #B07D58",
"Y  c #8B7567",
"T  c #997C69",
"R  c #8E7670",
"E  c #A17D67",
"W  c #845D43",
"Q  c #B5825D",
"!  c #988479",
"~  c #9F816C",
"^  c #A7846B",
"/  c #B68461",
"(  c #B88763",
")  c #BB8965",
"_  c #BC8C6A",
"`  c #BD9478",
"'  c #AD8B74",
"]  c #C18F6A",
"[  c #C4926E",
"{  c #C59471",
"}  c #C99673",
"|  c #CC9A76",
" . c #CE9C79",
".. c #C59C7E",
"X. c #D29D78",
"o. c #D7A37D",
"O. c #6C6C86",
"+. c #73748D",
"@. c #797887",
"#. c #757595",
"$. c #7B7B9C",
"%. c #797998",
"&. c #7C7DA2",
"*. c #907C83",
"=. c #807FB6",
"-. c #868688",
";. c #9C858C",
":. c #9D8787",
">. c #868597",
",. c #939399",
"<. c #968B96",
"1. c #A7938E",
"2. c #B9A495",
"3. c #8585A9",
"4. c #9897A1",
"5. c #8484B4",
"6. c #8C8BB4",
"7. c #8686B9",
"8. c #8B8BBD",
"9. c #8888BC",
"0. c #9394BD",
"q. c #9C9CBD",
"w. c #9493B1",
"e. c #958EAF",
"r. c #A29BBA",
"t. c #A194A9",
"y. c #A6A6A8",
"u. c #A1A1BD",
"i. c #A7A6B7",
"p. c #B6B6B9",
"a. c #BCB3AC",
"s. c #C29E84",
"d. c #D5A481",
"f. c #D9A683",
"g. c #DBA985",
"h. c #DDAC89",
"j. c #D7AA8C",
"k. c #C6A993",
"l. c #D3AD91",
"z. c #C7A185",
"x. c #E1AE8A",
"c. c #E3B18E",
"v. c #E6B491",
"b. c #E9B693",
"n. c #EBB996",
"m. c #EEBC99",
"M. c #E6BC9E",
"N. c #F1BF9B",
"B. c #F4BB93",
"V. c #CDB8A9",
"C. c #F8C39E",
"Z. c #F6C4A1",
"A. c #FAC9A5",
"S. c #FECDAA",
"D. c #F9C7A4",
"F. c #FFD0AE",
"G. c #FFD3B1",
"H. c #DACABF",
"J. c #8E8EC1",
"K. c #8F90C2",
"L. c #9393C4",
"P. c #9B9BC4",
"I. c #9696C9",
"U. c #9897CA",
"Y. c #9B9BCD",
"T. c #9798C9",
"R. c #9E9ED1",
"E. c #918FC0",
"W. c #A09FD1",
"Q. c #A39FC5",
"!. c #9FA0CC",
"~. c #A4A4C4",
"^. c #ACACC3",
"/. c #A4A3CB",
"(. c #A9A9CB",
"). c #B4B4C5",
"_. c #BCBCCC",
"`. c #B6B6C9",
"'. c #A3A3D5",
"]. c #A8A5D2",
"[. c #A6A6D9",
"{. c #AAAADC",
"}. c #A8A8D8",
"|. c #B7B7D7",
" X c #ADADE2",
".X c #A6A7E2",
"XX c #B3B3E5",
"oX c #B5B5E9",
"OX c #BBBBED",
"+X c #B9BAE6",
"@X c #BEBEF1",
"#X c #B0B0E5",
"$X c #C3C3C5",
"%X c #C4C4CA",
"&X c #CCCCCD",
"*X c #CBC7C5",
"=X c #D2CCC6",
"-X c #C8C8D6",
";X c #DBDCDB",
":X c #D4D5D7",
">X c #D0D0CF",
",X c #E8DACE",
"<X c #E9DBD1",
"1X c #E0E0DE",
"2X c #F0E6DE",
"3X c #C7C7EA",
"4X c #DEDEE2",
"5X c #C3C3F5",
"6X c #C6C6F9",
"7X c #CCCCFD",
"8X c #C9C9F7",
"9X c #D3D3FE",
"0X c #DCDCFD",
"qX c #DFDEF2",
"wX c #D0D0FC",
"eX c #EBEBEC",
"rX c #E4E4E5",
"tX c #E3E3FD",
"yX c #EDECFC",
"uX c #E5E5F6",
"iX c #F5F5F5",
"pX c #F2F2FC",
"aX c #FDFDFD",
"sX c #F7F8F7",
"dX c #F0F1EF",
"fX c #DFE1E0",
"gX c None",
/* pixels */
"gXgXgXgXgXgXgXgXgXgXgXgXgXgXgXgXgXgXgXgXgXgXgXgXgXgXgXgXgXgXgXgXgXgXgXgXgXgXgXgXgXgXgXgXgXgXgXgXgXgXgXgXgXgXgXgXgXgXgXgXgXgXgXgX",
"gXgXgXgXgXgXgXgXgXgXgXgXgXgXgXgXgXgXgXgXgXgXgXgXgXgXgXgXgXgXgXgXgXgXgXgXgXgXgXgXgXgXgXgXgXgXgXgXgXgXgXgXgXgXgXgXgXgXgXgXgXgXgXgX",
"gXgX2 2 4 6 6 2 6 6 i d d 0 2 6 1 ; ; = : 2 3 & M M M Z S Z M m m m m * $ % n b $ 9 q 0 3 2 6 6 6 2 2 i s s a 6 4 6 i s i 6 6 gX",
"gXgX: : ; 6 6 7 7 2 0 i i 2 ; ; ; ; =   = 7 , * V N M V A V N b $ b M b @ $ m b $ c 9 q 2 ; 3 5 2 ; 2 6 i i 0 6 7 7 6 0 2 2 2 gX",
"gXgX; ; 7 2 2 2 7 2 6 0 2 :   ; 7 ; = = O O % B Z S S S Z S S M $ b m n z b m m z o v w 7 2 3 2 ; 2 6 d s a i i 2 2 2 2 2 2 2 gX",
"gXgX2 4 6 7 7 6 6 7 7 7 =   = 6 6 ; = O O # # b Z S A A A Z A A N n z c M m $ $ m z n 8 2 2 1 ; 2 i d d d d s a i 6 2 7 2 2 2 gX",
"gXgX2 5 2 : : 5 6 ; =     : 7 2 6 2 : : O % $ b M V A V M V A V N c + $ m m z b m b c 9 4 3 ; > 2 0 i 6 6 6 6 6 0 5 ; = 3 2 6 gX",
"gXgX: : : = = : :       ; 6 6 7 2 6 7 - O b N b c m V m $ n Z M # + + @ $ b m m b @ @ b & > 5 6 2 ; : : ; ; : : ; ; =   = 7 6 gX",
"gXgX7 ; = = = ; :   = ; 7 4 4 7 7 4 O % % m M $ + $ m b $ c m m m c + + . $ m n $ + $ @ . 9 4 3 ; =   = : ; : = : ; :     = 7 gX",
"gXgX6 2 2 = ; 2 2 7 ; 4 5 7 ; 5 5 2 & m N b $ + + o @ b M b $ A ) P # X + @ $ @ + $ m z x 9 < ; : = = = 2 6 ; : 2 2 2     : 7 gX",
"gXgX6 6 2 2 2 t 6 7 : 2 4 7 7 2 6 3 O n N c o # c b m M M m m U o.[ Z $ + + $ @ + # M c v 9 - = : : ; 7 2 6 7 7 0 i 6 7 ; 7 2 gX",
"gXgX2 2 7 2 i i 6 ; = : 7 4 6 2 7 3 & x % + @ M P / ) S c Z (  .f.d.[ G $ @ b n @ o $ + x 8 = =   : 2 6 2 ; 7 6 i i i 6 6 6 0 gX",
"gXgX6 2 2 6 s d 6 2 : = : 2 6 7 7 6 & o + # m K _ o.f.Q N U h.v.c.c.h.[ Z n m m b $ @ . @ 9 : = : 7 6 6 7 7 6 s s i a d s i i gX",
"gXgX6 2 i d s d i i 2 : = : 2 5 6 i 8 o + M P _  .h.h. .[ d.m.D.Z.b.c.f.{ P b b A Z $ X @ 9 7 ; 2 6 5 7 2 6 i s s a d d s d i gX",
"gXgX4 5 i i i i s s 6 7 = : 2 0 i d & o $ K _ d.h.d.| {  .h.D.F.S.v. .} } Q N Z U U M . @ F 2 ; 2 6 2 ; 4 i i i i d a d d 0 6 gX",
"gXgX2 2 2 6 d i i s i 2 : ; 6 i d d & $ N / d.b.v.[ S m Z { Z.G.S.d.D m V K / [  .] G x # 9 < - ; 2 2 2 7 2 6 i s i i d d i i gX",
"gXgX2 7 7 6 i i d s t ; : 6 d d i i 9 Z D ( j.m.N.] M $ n ) Z.G.A.o.V $ z D  .h.g.{ P V 9 ; =   = ; 7 0 7 7 6 a i i i i i 6 6 gX",
"gXgX6 4 6 5 6 y s h i 1 1 y s p i l 1.^ Z I  .b.D.c. .} | c.A.F.S.n. ._ Q [ d.g. .Q K / r 5 : = ; 6 5 2 5 t a a a a a i 6 7 ; gX",
"gXgXi t #.&.#.#.&.&.&.%.#.&.%.i i i 3 ; w K ) g.Z.S.S.S.S.S.S.S.S.S.S.N.c.g.g. .) U _ f t 0 1 : 5 g &.#.#.$.$.$.%.$.&.h 2 : = gX",
"gXgX2 y L..XR. X#XXXoXoX#X{.}.O.d t 2 = - W I } b.A.F.S.S.S.S.S.S.S.F.D.c.h.g.| Q T q ; 2 2 : : t 3.oXoXoXoXXXXX{.R.'.T.+.: : gX",
"gXgX+.3.{.+X+X8XwX7X7X7X6XoX}.8.#.O.h 5 > * S ) f.n.D.S.S.S.S.S.S.S.D.m.h.f.f.[ Q F p i g O.h O.%.'.6X7X7X7X7X8XoX{.}.#XR.u 5 gX",
"gXgX.X XoX3XqXyXyX9XwXwX7X5XOXoX#X[.I.$.O.e C U } f.n.D.S.S.S.S.S.D.m.v.c.f. .Q I e 6 ,.|.'..XoX@X5X8X7XwX7X7X7XOX{.{.{.[.L.w.gX",
"gXgX}. X3XyXaXaXyX9X7X7X7X7X7X7X6XoX[.I.5.R D I ( } d.b.C.D.A.A.A.N.h.f.o. .) I I Y j ).5X X5X7X7X7X7X7X7X7X7X6XOX{. X{.}.{.oXgX",
"gXgX}.XXwXpXaXyX0XwX7X7X7X7XwX9X7X@X{.I.7.e.;.E L U Q { d.c.n.N.n.h.| [ Q U L E ;.t.u.`.|.XX6X9X7X7X7X7X7X7X7X7X5X@X@XOX{.Y.T.gX",
"gXgX}.OX9XpXpX0X7X7X7X7X7X7X7X6X@XoX[.K.8.Y./.;.G S G I ( } X.f.d. ._ U G G D T q.W.Y.I.W.{.OX6X7X7X7X7X7X7X7X7X7X7X7X5X'.L.8.gX",
"gXgXY.'.+X0XtX9X7X7XwXwXwXwX6XXX'.R.U.U.Y.[.{.t.*.*.;.T L I U ) Q U L E :.;.R e./.[.8.7.L.Y.'.{.5XwXwXwXwXwXwX9X7X7XoX[.Y.Y.[.gX",
"gXgXI.L.Y.OX7X8X6X6X6X6X6X7XOXW.8.8.J.Y.[.}.'.0.6.U./.;.H K G K G D D ! r.Y.8.L./.R.8.9.7.8.8.U.oX6X6X6X6X6X6X6X8X5X[.L.Y.'.!.gX",
"gXgXT.T.Y.[.[.{.{.{.{.{.}.{.[.R.I.T.U.U.U.U.U.Y.Y.[.{.r.;.;.;.;.;.;.;.t.}.[.R.Y.Y.L.8.8.I.Y.U.Y.'.}.[.{.{.[.[.}.{.[.Y.Y.'.+.a gX",
"gXgX[.'.'.L.8.8.J.J.J.8.8.J.K.R.[.{.'.L.7.8.8.Y.[.{.{.}.W.].].].].].].}.{.}.}.R.0.9.7.J.W.}.}.'.I.8.J.8.J.8.J.J.J.J.Y.[..XO.: gX",
"gXgX+.6.'.L.I.I.I.I.I.I.I.I.I.U.Y.Y.Y.T.I.U.L.I.W.{.OXXX X{.{..X{.{. X{.{.}.Y.I.8.7.7.8.I.Y.T.Y.I.I.I.I.I.I.I.L.I.I.I.[./.h 5 gX",
"gXgX; y L.[.}.[.[.}.}.[.}.}.W.L.7.7.8.Y.{.{.[.I.E.{.5XOX{.}.}.}.{.{.{.{.}.W.J.7.7.7.9.9.7.8.9.8.Y.[.}.}.[.[.[.}.[.'.T.3.a ; ; gX",
"gXgX: 5 6.{.T.R.Y.Y.R.Y.Y.Y.Y.U.I.L.I.'.{.XXXXY.8.W.OX@XOXOXOXXX{.{.{.{.{.R.8.7.L.L.I.L.I.L.I.T.T.R.T.R.Y.Y.R.R.T.Y./.h = : ; gX",
"gXgX7 i i./.7.8.8.8.8.6.9.8.K.Y.[.}.}.{. XOX5X[.8.I.{.OX6X7X7XOX X{.{.{.{.W.8.8.'.[.[.}.}.}.}.'.K.8.9.8.9.8.8.9.9.0.^.s : : 7 gX",
"gXgX; i p.`.q.q.u.q.u.u.u.u.P.!.W.}.{.XXoX5X6XoX'.Y.Y.[.{.XXXX{.W.!.W.Y.Y.Y.W.}.XXoX X{. X}.[.!.!.u.u.u.u.u.u.u.u.u._.k 7 7 4 gX",
"gXgX6 h p.:X%X%X%X$X%X%X%X%X`.q.J.Y. XOX7X7X7X6X@X[.8.8.J.J.J.J.8.8.8.8.8.W.oX6X6X@XXX{.}.'.K.0.).%X%X$X%X%X%X%X%X$X>Xk 2 2 5 gX",
"gXgXi j $XeX;XfXfXfX1X1X1X:X%Xq.8.U.{.5X9X9X0X9X7XXX'.Y.Y.L.9.5.7.8.Y.W.R.{.6XwX7X5XOXXX#X'.J.8.).>X>X&X>X>X;XrXrXfX;Xk 5 2 4 gX",
"gXgX6 s *XaXiXiXsXsXsXsXdX;X%XP.K.Y. X@X9XtXpXtX7X6X5X5XOX[.8.7.7.Y.oX5X5X6X7X7X7X7X8X@X#X'.K.P.`.>X&X&X&X>XrXsXsXdXrX-.2 7 2 gX",
"gXgX4 s &XaXaXaXaXaXaXiXrX;X%Xp.Q.Y.W.#X3XuXaXpX0X9X7XwX7X X8.5.8.'.6X9X7X7X7X7X7X8X6XoX'.!.!.^.$X&X>X*X$XV.H.,X<X,X=Xk 2 2 6 gX",
"gXgX6 j *XaXsXaXaXaXsXfX:X;Xy.l g >.8.'.+XqXaXaXpXtXwX7X7X{.J.5.7.'.5X7X7X7X7X7X7X6XoX'.T.w.@.k ,.y.$X*Xk._ ......l.1.0 7 6 s gX",
"gXgXi j *XrX,X,X,X,X,X>X>Xp.i 2 6 l w.[.'.3XuXyXyX0X7X7X@X[.8.5.7.Y.OX7X7X7X7X7X8XoX[.'.w.@.i i 0 i -.=X2.Q Q Q Q | ! 6 2 i l gX",
"gXgXd j a.V...z.z.z.k.H.a.l 6 7 > i -.>.=.[.+X8X9X9X7X5XXXY.8.5.7.I.{.OX8X7X7X5XoX[.I./.>.i a i 7 ; i a.k.( Q / Q _ 2.-.i i l gX",
"gXgXp l 2.j.} | [ [ ` V.:.2 6 7 2 6 i t h I.'.{.oXoXoX{.R.P.L.J.I.I.Y.{.#XOXOX#X'.P.U.~.k d 0 6 7 7 2 ! l.{ { {  . .l.1.s s l gX",
"gXgX0 p ` N.B.n.c.o.} o.! ; 7 5 6 i a h O.J.0.J.I.I.I.J.8.I.'.'.W.P.8.8.P.I.T.L.J.L.'.W.%.i 7 1 6 0 < F g.o.x.Z.Z.C.o.! d i s gX",
"gXgX4 q ` C.F.F.D.C.f.| F = = 4 6 i #.J.J.J.L.7.9.8.8.J.J.W.#XXXXX{.Y.I.8.9.7.9.J.T.{.[.L.6.1 : 5 6 < 9 x.n.Z.S.G.A.o.Y < 6 s gX",
"gXgX1 8 _ C.F.G.F.S.c.X.F = = : 1 y &.R.'.'.Y.I.8.L.W.W.'.#X5X8X6X5XOXXX'.L.8.8.T. XOXXXI.T.u = : : = F C.C.S.S.G.D.o.^ 3 ; 1 gX",
"gXgX; r l.S.n.m.N.B.n.Z.R 2 ; 1 g 5.J.'.XXXX{.Y.8.I.}. X#X@X6X7X7X7X7X6XoX'.8.J.'.oXwX3XR.K.&.1 = ; ; e C.C.n.C.Z.n.b.k.4 O : gX",
"gXgX4 0 j ^ X.o.| | M.V.f 0 i t &.R.'.XX5X6XOX[.J.I.}.oX5X8X7X7X7X7X7X7X8X#XL.J.W.@XuXqX|.Y.I.O.2 4 > < ! _ o. .| x.2.r = = : gX",
"gXgX4 6 6 3 Y ^ ~ Y R k d d i t #..XXX5X7X9X6X[.J.L.{.@X7X7X7X7X7X7X7X7X8XXXL.J.}.3XyXuXXXT.L.$.a 6 4 > < e ~ Y ~ ! p ; = = 7 gX",
"gXgX; ; 2 2 6 4 q 0 i s s d i i 3.5X5X6X7XwX8X[.8.L.{.@X7XwX7XwX7XwX7X6XoX'.J.I.oX7X0X3X/.8.8.%.6 7 6 6 2 6 0 0 d s i 6 ; = 7 gX",
"gXgX= : ; 6 2 ; 7 6 i i i 6 @.P.[.OX6X6X6X6XOX].L.P.'.XX@X@X@X@X@X@X@XoX[.Y.L.!.XX5X8XoXY.9.J.%.7   7 6 2 ; 6 i d i i 6 ; ; 2 gX",
"gXgX= = : 7 2 2 2 7 7 ; ; ; 4.].L.}.OXoXXX}.W.(.^.!.L.T.Y.R.R.'.'.Y.Y.I.L.P.^.^.!.[.#X#X[.L.I.+.;   : 2 2 4 6 s d 0 6 2 ; = ; gX",
"gXgX= = =   7 i 6 : =   = = ; 1 &.[.'.'.'.L.0.`.&X).q.0.0.P.!.P.P.P.0.0.P.).-X_.u.L.R.[.[.!.{.>.7 = = = 6 a i i i i 4 ; = = : gX",
"gXgX: :     = 7 7 ;     = 2 2 = @.q.7.J.L.~.`.:XeX:X).).p.,.j 5 t i.`._.:X4XeX4X_.i.P.J.L.}.3X-.;     : 6 s d i i i 6 2 ; = ; gX",
"gXgX; : ; ; : = = = = = 1 6 6 7 = t e.P.L.^.&XrXeX;X-X&Xi.t 2 4 : -.;X;XiXaXaXdX:X`.q.8.6.~.k 6 7 = = : 6 i s i i s i i 2 ; ; gX",
"gXgX2 2 6 6 2 =     : 2 6 2 2 2 6 t i.`.p._.&X%X|.(.(.-X4.2 2 2 6 ,.rX;XsXaXaXiX;X$X_._.,.h 2 2 6 7 ; : 2 i s i i i 6 7 4 6 6 gX",
"gXgX6 6 i d 5 : = = ; 6 6 7 7 6 d s -.-.y.%X$Xu.8.5.7._.y.6 ; < i -.;X;XeXpXpXrX>X$X-XeXk 4 ; 1 6 6 7 ; 2 i i s s i 2 ; 2 0 i gX",
"gXgXi i s s 6 : ; 2 2 2 7 2 6 0 t t 4 t >.^.Q.0.J.&.9.).y.i 5 6 i -.;X%X|.|.|.).^.r.(.|.g 2 ; 2 2 ; = : ; 2 i d s i 0 5 2 2 2 gX",
"gXgXs a a d 6 ; ; 6 0 7 ; 6 i 0 h %.+.%.3.J.J.J.J.J.J.^.%X-.6 t j :X:X`.q.L.J.8.8.L.J.L.$.O.O.>.d : = : : ; 2 0 s s i 0 2 ; ; gX",
"gXgXs i i d 6 ; : 7 2 2 7 7 2 t #.Y.Y.}. X X X X.X.X{.|.3X~.a t >.3X_._.-X+X{.{..X{.{.[.!.I.9.Y.#.7 ; : 7 7 7 2 0 i 0 2 7 2 6 gX",
"gXgXd i i s 6 :   = ; 2 5 = h &.6.'. XOX5X6X5X6X7X7X8XOX{.Y.3.&.6.Y.{.3XuXtX9X6X6X6X6X@XXX'.L.J.3.5 7 = 2 6 7 ; 5 6 5 ; 4 6 0 gX",
"gXgXs i s s 6 :     : 7 2 ; %.R.Y.[.{.XXOX@X@X6X7X9XwX@X{.Y.L.7.J.J.'.3XtXtX9X7X5XOXOXoX#X}.'.I.K.y = = ; 2 2 2 2 2 2 2 5 2 2 gX",
"gXgX6 6 d i 6 7 ; = = : 7 ; $.[.[.[.{.{.{.{.{.OX5X6X6XoX{.P.&.3.3.Y.[.XX5X7X8XOX X[.{.[.[.[.[.R.W.O.= = = ; 2 0 7 ; 2 2 7 ; 7 gX",
"gXgX4 6 s d 6 6 7 ; : : 7 7 $.[.[.[.[.[.[.'.}.XXOX5X@XXX X3.g g +.q.{.#XoX5X@XoX{.[.[.'.'.[.[.'.'.O.; ; : ; 5 0 2 ; 6 6 < 7 < gX",
"gXgXgXgXgXgXgXgXgXgXgXgXgXgXgXgXgXgXgXgXgXgXgXgXgXgXgXgXgXgXgXgXgXgXgXgXgXgXgXgXgXgXgXgXgXgXgXgXgXgXgXgXgXgXgXgXgXgXgXgXgXgXgXgX"
};
