/* XPM */
static char *result[] = {
/* columns rows colors chars-per-pixel */
"64 64 198 2 ",
"   c #76421E",
".  c #7E461D",
"X  c #764523",
"o  c #794624",
"O  c #7B4926",
"+  c #7D4C29",
"@  c #774A29",
"#  c #774E32",
"$  c #7B5137",
"%  c #7C553F",
"&  c #7E5B49",
"*  c #4F4F68",
"=  c #814A23",
"-  c #814E2B",
";  c #83512E",
":  c #8A532B",
">  c #865431",
",  c #895634",
"<  c #8B5936",
"1  c #8E5C39",
"2  c #845538",
"3  c #905F3C",
"4  c #905431",
"5  c #92603E",
"6  c #865C48",
"7  c #956748",
"8  c #876655",
"9  c #97725E",
"0  c #986F52",
"q  c #A57B5F",
"w  c #876B6A",
"e  c #886968",
"r  c #846865",
"t  c #8A7375",
"y  c #8B7779",
"u  c #8C736C",
"i  c #B07E63",
"p  c #B98A69",
"a  c #B78F73",
"s  c #BB8D70",
"d  c #B59076",
"f  c #C18F6A",
"g  c #C08D67",
"h  c #C3916D",
"j  c #C19373",
"k  c #C99877",
"l  c #D3A17E",
"z  c #6B6A87",
"x  c #747496",
"c  c #7A7A9E",
"v  c #77779F",
"b  c #7C7CA2",
"n  c #7C7CA7",
"m  c #8C7B86",
"M  c #877E97",
"N  c #86869C",
"B  c #8A8596",
"V  c #959495",
"C  c #9E9C9A",
"Z  c #978C92",
"A  c #B0A59E",
"S  c #8483AC",
"D  c #8484A6",
"F  c #9391AC",
"G  c #8585B6",
"H  c #8686B9",
"J  c #8788B9",
"K  c #8B8BBC",
"L  c #8989B2",
"P  c #908EBC",
"I  c #8F90BB",
"U  c #9493BD",
"Y  c #9B9BBE",
"T  c #9895B7",
"R  c #A19FBF",
"E  c #A497A0",
"W  c #A8A7AC",
"Q  c #B3ABA9",
"!  c #ABA9BB",
"~  c #B4B3B4",
"^  c #BAB8BA",
"/  c #C59F81",
"(  c #C9A58B",
")  c #C7A68D",
"_  c #DAA885",
"`  c #C7AB98",
"'  c #DBB295",
"]  c #D1AD96",
"[  c #E1AF8B",
"{  c #E6B28D",
"}  c #EBB28A",
"|  c #E4B493",
" . c #E9B693",
".. c #E8B999",
"X. c #F1BE9C",
"o. c #CAB4A6",
"O. c #CBBFB9",
"+. c #F4C29F",
"@. c #DCC0AD",
"#. c #CEC5BF",
"$. c #D6C5B9",
"%. c #F4C2A0",
"&. c #FCCAA7",
"*. c #FECDAA",
"=. c #F9C7A3",
"-. c #FED0AD",
";. c #8E8EC1",
":. c #908FC2",
">. c #8F90C1",
",. c #9393C5",
"<. c #9B9BC3",
"1. c #9696C9",
"2. c #9897CA",
"3. c #9798CA",
"4. c #9B9BCC",
"5. c #9996C4",
"6. c #9E9ED1",
"7. c #A29CC3",
"8. c #A09FD2",
"9. c #9FA0C7",
"0. c #9FA0D2",
"q. c #A4A4C1",
"w. c #AAAAC2",
"e. c #A3A3CC",
"r. c #ABAACC",
"t. c #A8A6C7",
"y. c #B4B4C6",
"u. c #BABAC5",
"i. c #B3B3CB",
"p. c #BCBCCA",
"a. c #A3A3D4",
"s. c #ACACD3",
"d. c #A6A6D9",
"f. c #A8A7D9",
"g. c #ABABDC",
"h. c #A8A7D0",
"j. c #B5B4D4",
"k. c #BBBAD6",
"l. c #B3B2DC",
"z. c #B9B9DE",
"x. c #ADAEE1",
"c. c #B0AFE2",
"v. c #AFB0E1",
"b. c #B3B2E4",
"n. c #BEBEE7",
"m. c #B6B7E9",
"M. c #B8B7EA",
"N. c #B7B8EB",
"B. c #BABAEC",
"V. c #BEBEF1",
"C. c #C3BFC9",
"Z. c #C0BFEE",
"A. c #C3C3C5",
"S. c #C3C3CA",
"D. c #C9C9CC",
"F. c #C8C5C7",
"G. c #D6D1CE",
"H. c #C5C5D3",
"J. c #CBCBD2",
"K. c #CECEDB",
"L. c #C8C6DC",
"P. c #D3D3D4",
"I. c #D5D5DB",
"U. c #DCDCDC",
"Y. c #DAD8D5",
"T. c #E5DED8",
"R. c #E4E0DD",
"E. c #EEE4DB",
"W. c #F0E5DB",
"Q. c #C2C2EA",
"!. c #C8C8E4",
"~. c #DFDFE0",
"^. c #D5D5E9",
"/. c #C2C2F4",
"(. c #CACBF4",
"). c #C6C6F9",
"_. c #C8C7F9",
"`. c #CCCCFD",
"'. c #D0CFFF",
"]. c #CFD0FC",
"[. c #D3D3F3",
"{. c #D9D9F1",
"}. c #D2D2FE",
"|. c #DDDDFD",
" X c #E0DFE1",
".X c #E2E2E2",
"XX c #E4E4EC",
"oX c #EBEBEA",
"OX c #EAE5E2",
"+X c #E2E2F7",
"@X c #E5E4FC",
"#X c #EAEAFC",
"$X c #EAEBF8",
"%X c #F3F4F4",
"&X c #F5F5FC",
"*X c #F7F9FE",
"=X c #FCFCFC",
"-X c None",
/* pixels */
"-X-X-X-X-X-X-X-X-X-X-X-X-X-X-X-X-X-X-X-X-X> + o + > > > > > , , > , > O o + ; - - -X-X-X-X-X-X-X-X-X-X-X-X-X-X-X-X-X-X-X-X-X-X-X",
"-X-X-X-X-X-X-X-X-X-X-X-X-X-X-X-X-X-X-X-X-X1 + o > 1 , o - 3 3 + o , 3 ; o ; 3 1 o o -X-X-X-X-X-X-X-X-X-X-X-X-X-X-X-X-X-X-X-X-X-X",
"-X-X-X-X-X-X-X-X-X-X-X-X-X-X-X-X-X-X-Xo > , > > 2 , , ; ; < , ; ; , , > ; > , , ; + = -X-X-X-X-X-X-X-X-X-X-X-X-X-X-X-X-X-X-X-X-X",
"-X-X-X-X-X-X-X-X-X-X-X-X-X-X-X-X-X-X-XX X o , 5 , o ; 3 < + + 1 3 ; o , 5 , O - 1 1 : -X-X-X-X-X-X-X-X-X-X-X-X-X-X-X-X-X-X-X-X-X",
"-X-X-X-X-X-X-X-X-X-X-X-X-X-X-X-X-X-X-XO O - , 1 , + ; 1 , ; + , 1 ; - , 1 , ; ; < , 4 -X-X-X-X-X-X-X-X-X-X-X-X-X-X-X-X-X-X-X-X-X",
"-X-X-X-X-X-X-X-X-X-X-X-X-X-X-X-X-X-X-XO , 5 ; O ; 3 , O - < 1 + + , 1 > + ; 5 , + + < 7 -X-X-X-X-X-X-X-X-X-X-X-X-X-X-X-X-X-X-X-X",
"-X-X-X-X-X-X-X-X-X-X-X-X-X-X-X-X-XO - + < 1 ; O ; 1 , + - 1 1 ; + , 1 ; + ; 1 , + ; 1 < : -X-X-X-X-X-X-X-X-X-X-X-X-X-X-X-X-X-X-X",
"-X-X-X-X-X-X-X-X-X-X-X-X-X-X-X-X-X+ , 3 ; + , 1 , + ; 1 , - - , 1 ; - , 1 , + ; < 1 ; o o -X-X-X-X-X-X-X-X-X-X-X-X-X-X-X-X-X-X-X",
"-X-X-X-X-X-X-X-X-X-X-X-X-X-X-X-X-XO 1 3 ; o , 5 > O ; 3 1 - O < 5 ; + , 1 > + ; 1 1 ;   X -X-X-X-X-X-X-X-X-X-X-X-X-X-X-X-X-X-X-X",
"-X-X-X-X-X-X-X-X-X-X-X-X-X-X-X-X-Xo + ; , < ; ; > 1 > - - < , - ; ; < ; ; ; , , ; ; , , + -X-X-X-X-X-X-X-X-X-X-X-X-X-X-X-X-X-X-X",
"-X-X-X-X-X-X-X-X-X-X-X-X-X-X-X-X-XX o o < 5 ; O > 3 < O + 1 7 - + , 5 ; O ; 5 1 + + 1 3 - -X-X-X-X-X-X-X-X-X-X-X-X-X-X-X-X-X-X-X",
"-X-X-X-X-X-X-X-X-X-X-X-X-X-X-X-X-Xo > , > > , , > > > > > ; > > , ; ; , , > ; ; > > > ; = -X-X-X-X-X-X-X-X-X-X-X-X-X-X-X-X-X-X-X",
"-X-X-X-X-X-X-X-X-X-X-X-X-X-X-X-X-X+ 3 3 - O , 3 > O - 3 1 O O 1 5 ; O , 5 , o ; 1 1 -   . -X-X-X-X-X-X-X-X-X-X-X-X-X-X-X-X-X-X-X",
"-X-X-X-X-X-X-X-X-X-X-X-X-X-X-X-X-X+ > , ; > , , > ; > < > ; > > , ; ; , , > > > > > ; ; . # -X-X-X-X-X-X-X-X-X-X-X-X-X-X-X-X-X-X",
"-X-X-X-X-X-X-X-X-X-X-X-X-X-X-X-X-X-XX - 1 3 - O > 3 , O - 3 3 + + , 5 ; O ; 5 1 + o 1 5 : $ -X-X-X-X-X-X-X-X-X-X-X-X-X-X-X-X-X-X",
"-X-X-X-X-X-X-X-X-X-X-X-X-X-X-X-X-X-X-   > 1 > - > < , - ; > 1 ; ; > 1 ; ; > , , ; ; , 6 -X-X-X-X-X-X-X-X-X-X-X-X-X-X-X-X-X-X-X-X",
"-X-X-X-X-X-X-X-X-X-X-X-X-X-X-X-X-X-X-X  X O , 3 > O ; 3 1 O O 1 3 - + > 3 > + - 1 1 4 -X-X-X-X-X-X-X-X-X-X-X-X-X-X-X-X-X-X-X-X-X",
"-X-X-X-X-X-X-X-X-X-X-X-X-X-X-X-X-X-X-X-X2 o ; 3 ; - > 3 1 - - > 1 ; + > 3 > - - 5 7 -X-X-X-X-X-X-X-X-X-X-X-X-X-X-X-X-X-X-X-X-X-X",
"-X-X-X-X-X-X-X-X-X-X-X-X-X-X-X-X-X-X-X-X-X@ o + > 3 > - - 1 1 - + , 1 > + > 3 , ; 0 -X-X-X-X-X-X-X-X-X-X-X-X-X-X-X-X-X-X-X-X-X-X",
"-Xz 6.;.;.,.,.,.,.,.,.>.U -X-X-X-X-X-X-X-X@   o > 3 , O - 1 1 - O < 3 > o > 3 > O 9 -X-X-X-X-X-X-X-X,.1.,.,.,.,.,.,.>.;.5.t.-X-X",
"-Xx x.4.d.b.m.m.b.m.v.g.a.<.-X-X-X-X-X-X-X@ : , > - > < < - ; > 1 > - > 1 > - O   6 E s.a.0.-X-X-Xc d.b.m.m.b.m.b.d.4.4.a.d.-X-X",
"5.a.x.g.m./.`.`.`.'.`.Z.l.d.K G K -X-X-X-X$ 1 3 > o - 3 1 - O 1 3 - O , 3 > o o + & B 1.a.g.4.F 5.a.B._.`.`.`.'.`.Z.g.g.g.d.v -X",
"d.g.b.B./.`.`.`.'.|.#X+X{.Q.b.g.d.5.-X-X-Xy 8 ; o   o - ; > > > > , , > - - X & y B S J 6.g.x.b.B.B./._.`.`.'.@X#X+X{.!.g.a.a.I ",
"g.g.m.`._.`.`._.}.#X*X=X*X#X`.V.g.g.K x L <.y @ o @ X o - 3 3 - o < 3 > @ o o 8 T 0.;.;.4.g.B._.`.`.`._.`.`.}.#X=X=X*X[.l.d.g.g.",
"b.B./.`.'.`.`._.'.|.#X*X=X#X'./.v.a.;.;.a.d.B r w t 8 @   - - X   = 2 8 t w r m 4.g.0.1.5.4.m.`.'.`.`.`.`.`.}.|.#X&X=X+XZ.g.4.4.",
"B./.`.`.`.`.`.`.`.`.'.#X*X#X'.V.v.0.K ;.8.d.,.S 5.4.m $ X X O o o X + m 7.5.L P a.g.g.a.,.;.v._.`._.`.`.`.`.`.`.}.#X=X@X(.x.:.;.",
"g.V./.`.`.'.`.`.`.`.`.[.{.[./.v.6.1.K J 1.4.1.1.8.g.T t r e w w e r w F d.d.2.1.4.6.6.4.5.1.a.v.V.`.'.`.`.`.`.`.`.@X@X[.m.d.2.,.",
"6.g.B.`.'.`.`._.`.`.`.Q.l.b.g.a.>.K H K J ;.4.d.g.f.f.q.7.7.7.7.7.7.7.d.g.f.d.6.>.J K K 6.a.3.,.g._.`.`.`.`.`.`.`.}.}.b.,.2.a.8.",
",.4.g.V././././././.V.b.x.d.g.4.K H J J H J 5.8.d.d.g.x.x.x.x.x.x.x.x.b.b.g.a.4.,.>.,.,.4.6.5.U 0.b.B.m.m.B.m.m.m.m.m.a.,.,.8.c.",
"K ,.6.x.b.b.b.v.v.b.v.g.g.g.g.6.;.H J J J J J ,.4.d.g.g.g.d.g.g.g.f.g.B./.g.,.,.4.a.a.0.,.;.4.a.4.3.1.1.,.,.5.,.1.1.,.6.a.4.K D ",
"K K >.6.a.d.g.g.g.g.g.g.g.d.a.4.K H K K ;.;.J J 1.d.g.g.g.g.g.g.x.x.b.B./.g.K ,.g.b.g.d.,.;.4.a.4.K K K K K K K K K K 1.d.g.z -X",
"-Xc ;.>.4.d.g.g.g.g.g.g.d.6.1.;.J ;.4.6.6.4.,.J 2.g.g.g.g.g.x.B./.)./.B.m.8.J 2.B.B.v.d.a.6.1.,.1.0.0.0.0.0.6.0.a.0.0.5.1.j.-X-X",
"-Xz 4.G K 0.d.d.d.d.f.f.d.4.J J J ,.a.g.v.x.4.,.4.a.d.d.d.d.g.B.).)./.b.d.4.,.8./._.m.g.x.d.4.K 1.a.d.g.d.d.d.d.d.d.g.3.U T -X-X",
"-XB j.J J ,.,.,.,.,.,.,.,.;.J ;.4.0.g.g.m.B.m.v.0.5.,.,.,.5.1.6.a.8.6.1.,.6.x.B.)._./.B.b.g.a.4.3.,.,.,.1.1.5.1.1.,.,.t.y.-X-X-X",
"-XV L.U K K K K K K K K K J J ,.a.g.g.v.V.`.`._.x.,.;.;.K K J K K K ;.K K d./.`.`.`.}./.b.d.f.d.4.U K K K I I K K K U w.-X-X-X-X",
"-XV I.w.w.w.w.w.! w.w.w.w.Y H :.a.b.B.V._.`.`.`.B.g.g.g.0.K G J K 6.f.g.g.M.`.}.@X@X}._.N.g.a.1.<.w.w.w.w.! w.w.w.q.i.u.-X-X-X-X",
"-XV ~.D.D.D.D.D.D.D.D.D.F.p.0.1.a.b./._.`.`.`.`._._.`._.m.,.G G ,.g./.`.`.`.`.|.&X&X}./.m.f.5.K q.S.D.D.D.D.D.D.D.D.G.D.-X-X-X-X",
"-XV OXU.R.R..X.X.X.X.XY.D.B -Xt.a.a.b./.`.`.`.`.'.`.'.'.m.1.G G U m.`.`.`.}.|.#X*X&X[.m.d.2.;.K q.S.P.U..X.XR.R..X.XR.U.W -X-X-X",
"-XV %X%X=X*X%X*X*X=X%X.X^ -X-X-Xe.,.a.b./.`.`.`.`.`.`.`.B.5.G G ;.b.`.`.`.|.&X=X=X#XQ.d.,.K J K w.S.U.%X*X*X%X*X&X&X&X%X~ -X-X-X",
"-XV %X&X=X=X=X=X=X&XoXU.F.-X-X-X-Xt.0.a.b.V.`.`.'.`.`./.c.5.H H K g.V.`.`.|.&X#X#X^.s.8.a.r.s.r.p.D.U.oX%X=X=X=X=X=X=X&X~ -X-X-X",
"-XV %X=X=X=X=X=X*X.XU.U.W -X-X-X-X! s.;.a.b./._.`.`./.m.a.>.J H K 8.b.Z._.}.}.`.n.s.1.0.H.S.H.C.u.^ P.P.R.&X=X=X=X=X=X%X~ -X-X-X",
"-XV OXR.W.W.W.W.T.Y.C -X-X-X-X-X-Xp.h.K 4.a.b.B.V.B.b.a.4.,.K ;.,.4.8.x.B.V.B.b.a.4.J 5.!.-X-X-X-X-X~ Y.G.T.W.W.W.W.E.OX~ -X-X-X",
"-XV G.] ( ( ( ( ] O.-X-X-X-X-X-XD s.a.4.,.>.,.4.4.3.,.;.,.4.0.6.6.,.:.5.4.2.4.1.,.K J K a.-X-X-X-X-X-Xu.F.` ( ( ( ( ) $.~ -X-X-X",
"-XZ @.j g f h p j o.-X-X-X-X-X-XI 5.g.g.1.K J J J K K ;.3.g.b.b.g.4.K K K J G H K K P K ;.b -X-X-X-X-X-Xo.k p h h h s ' A -X-X-X",
"-X9 ' { }  .{ l k / ) -X-X-X-X4.4.a.m.B.g.4.K J I 4.a.x.m.V.V./.B.g.4.6.4.5.K ;.4.4.6.4.1.x -X-X-X-X-X-X/ k l _  . .{ ' d -X-X-X",
"-X8 } =.-.-.+. ._ f j o.W ! L ,.d.m.`.`.m.d.5.K 1.g.B.`.`.`.'.'._.M.x.g.g.4.K ,.d.x.g.d.1.K -X-X-X-X-X-Xh _  .+.*.-.&.{ 9 -X-X-X",
"-X8 } +.*.*.&.+.{ k s Q L.z.6.d.m.(.@X+XB.d.,.K 6.m./.`.`.`.`.`.`.).B.b.g.2.K 1.b./.V.B.d.a.r.-X-X-X-X-Xl { X.&.*.*.=.{ q -X-X-X",
"-X8 _ +.*.&.*.*.X._ s Z U 1.d.b./.|.&X%XQ.d.,.;.g._.`.`.`.`.`.`.`._.).M.g.4.K 4.B._._./.b.a.6.z -X-X-X-Xk X.&.*.&.&.=. .p -X-X-X",
"-X-X-Xp } { [ [ ..] -X-XS 1.d.N.).}.#X@X(.m.4.;.0.B./.`.`.`.'.`.`./.B.b.g.4.J ,.a.b.B.m.d.4.,.S -X-X-X-X] ..[ { _ {  ...-X-X-X-X",
"-X-X-X-X-X-X-X9 / -X-X-X-Xb d.N.).`.`.`.`.V.a.K 3.g.B./.`.`.`.`._.m.x.g.f.4.I K I 5.a.d.5.J 1.n -X-X-X-X-X-Xh j a s d ` -X-X-X-X",
"-X-X-X-X-X-X-X-X-X-X-X-X-X-Xx c.V.V.V.B.m.b.e.q.<.4.a.v.b.b.b.b.v.a.6.4.9.4.9.R <.<.4.4.;.K U -X-X-X-X-X-X-X-X-X-X-X-X-X-X-X-X-X",
"-X-X-X-X-X-X-X-X-X-X-X-X-X-X-XK x.v.v.g.4.5.w.p.w.K ;.,.>.,.>.,.>.>.;.K K q.u.A.S.y.5.;.G 6.-X-X-X-X-X-X-X-X-X-X-X-X-X-X-X-X-X-X",
"-X-X-X-X-X-X-X-X-X-X-X-X-X-X-X-XL g.6.4.5.7.S.P.H.r.<.Y 5.r.z.z.j.9.Y 5.Y y.I.Y.G.u.<.G ;.6.-X-X-X-X-X-X-X-X-X-X-X-X-X-X-X-X-X-X",
"-X-X-X-X-X-X-X-X-X-X-X-X-X-X-X-X-X1.;.U w.S.U.%X$XXXI.p.D.^.K.K.K.J.p.u.p.I.%XoXP.u.U ;.G S -X-X-X-X-X-X-X-X-X-X-X-X-X-X-X-X-X-X",
"-X-X-X-X-X-X-X-X-X-X-X-X-X-X-X-X-X-X,.Y u.P.oX=X=X=X%XP..XD.-X-X-XD.P.S.S.P.XXXXP.A.t.I -X-X-X-X-X-X-X-X-X-X-X-X-X-X-X-X-X-X-X-X",
"-X-X-X-X-X-X-X-X-X-X-X-X-X-X-X-X-X-XH.u.F.J.oX*X=X=XoXP.U.U.-X-X-XA.P.y.q.q.r.j.S.J.p.-X-X-X-X-X-X-X-X-X-X-X-X-X-X-X-X-X-X-X-X-X",
"-X-X-X-X-X-X-X-X-X-X-X-X-X-X-X-X-X-X-XD.S.D..X&X&X&X.XP..XS.-X-X-XA.P.q.K G G 5.u.I.~ -X-X-X-X-X-X-X-X-X-X-X-X-X-X-X-X-X-X-X-X-X",
"-X-X-X-X-X-X-X-X-X-X-X-X-X-X-X-X-X-X-Xq.q.q.i.j.k.k.k.D.J.w.N D F A.D.w.J H G I Y t.R -X-X-X-X-X-X-X-X-X-X-X-X-X-X-X-X-X-X-X-X-X",
"-X-X-X-X-X-X-X-X-X-X-X-X-X-X-X6.1.1.H ;.K J K K K K q.S.u.5.6.6.0.y.S.w.K J K K K K :.K G ,.1.K -X-X-X-X-X-X-X-X-X-X-X-X-X-X-X-X",
"-X-X-X-X-X-X-X-X-X-X-X-X-X-X* ;.1.6.d.d.g.d.d.d.j.k.H.k.w.K n G J t.k.j.g.g.d.g.d.d.f.g.d.5.;.:.D -X-X-X-X-X-X-X-X-X-X-X-X-X-X-X",
"-X-X-X-X-X-X-X-X-X-X-X-X-Xn n 1.a.x.Z._.).)./.`.|.#X{.z.6.;.H H K 4.v.B./._._.).).).)./.b.a.,.;.1.x -X-X-X-X-X-X-X-X-X-X-X-X-X-X",
"-X-X-X-X-X-X-X-X-X-X-X-Xc 1.2.6.d.x.B.Z.V./.).}.|.#X[.l.6.K H ;.>.4.g.V.`.'.'.`./.V.V.B.b.g.6.1.:.b -X-X-X-X-X-X-X-X-X-X-X-X-X-X",
"-X-X-X-X-X-X-X-X-X-X-X-Xb 1.a.f.g.x.g.x.x.b.V._.'.}./.b.6.1.H S K 0.x.B.`.`.`./.b.x.x.x.g.g.g.a.4.-X-X-X-X-X-X-X-X-X-X-X-X-X-X-X",
"-X-X-X-X-X-X-X-X-X-X-X-Xb 6.a.a.a.a.a.a.a.a.b.m.m.m.b.d.d.F -X-X-Xe.a.v.B.V.B.v.d.0.8.a.a.a.a.a.4.-X-X-X-X-X-X-X-X-X-X-X-X-X-X-X"
};
