/* XPM */
static char *result[] = {
/* columns rows colors chars-per-pixel */
"64 64 183 2 ",
"   c #713F1C",
".  c #74421F",
"X  c #764421",
"o  c #794623",
"O  c #7B4926",
"+  c #7E4C29",
"@  c #7A5239",
"#  c #595872",
"$  c #746A75",
"%  c #804F2C",
"&  c #804824",
"*  c #83512E",
"=  c #865431",
"-  c #895734",
";  c #8B5936",
":  c #8E5C39",
">  c #905E3B",
",  c #93613E",
"<  c #99653F",
"1  c #8E5F42",
"2  c #966542",
"3  c #986643",
"4  c #9C6945",
"5  c #9C6B4A",
"6  c #906449",
"7  c #9B725D",
"8  c #976B51",
"9  c #A16F4C",
"0  c #A2704D",
"q  c #A9754E",
"w  c #A67451",
"e  c #AB7956",
"r  c #AD7B5A",
"t  c #A87653",
"y  c #B17E59",
"u  c #9C7668",
"i  c #9D7E7C",
"p  c #997B7B",
"a  c #A37C65",
"s  c #B4825E",
"d  c #AC8368",
"f  c #B48362",
"g  c #B98662",
"h  c #BC8A66",
"j  c #BE8C68",
"k  c #AE8670",
"l  c #B58B71",
"z  c #BC9072",
"x  c #BD987F",
"c  c #BE977D",
"v  c #C28F6C",
"b  c #C4916E",
"n  c #C79572",
"m  c #CB9975",
"M  c #CF9C79",
"N  c #C89673",
"B  c #D09D7B",
"V  c #D2A17E",
"C  c #706F92",
"Z  c #7B7B98",
"A  c #76759A",
"S  c #7B7CA6",
"D  c #8F7C8C",
"F  c #927C87",
"G  c #9A828C",
"H  c #97869A",
"J  c #9C8898",
"K  c #A78882",
"L  c #AD918C",
"P  c #BE9980",
"I  c #B99A88",
"U  c #A28F9D",
"Y  c #AA979E",
"T  c #BEA08B",
"R  c #8282AD",
"E  c #8787A5",
"W  c #8383B4",
"Q  c #8C8AB6",
"!  c #8686B9",
"~  c #8B8BBC",
"^  c #8888B7",
"/  c #938EB3",
"(  c #8F90BF",
")  c #9593B4",
"_  c #9191BC",
"`  c #9C9CBE",
"'  c #9C94B8",
"]  c #988DA7",
"[  c #A39BB9",
"{  c #A595AB",
"}  c #BEAFAB",
"|  c #BFB2AC",
" . c #A5A2BB",
".. c #BAB4B9",
"X. c #C2A28C",
"o. c #D6A582",
"O. c #D9A683",
"+. c #DAA986",
"@. c #DFAD8A",
"#. c #CDAD94",
"$. c #C6A691",
"%. c #E1AF8C",
"&. c #E2B08D",
"*. c #E6B491",
"=. c #E8B694",
"-. c #EBB996",
";. c #EDBC99",
":. c #F2BF9C",
">. c #C4B0A1",
",. c #C9B7AB",
"<. c #C7BBB3",
"1. c #C9BDB3",
"2. c #F3C19E",
"3. c #F5C3A0",
"4. c #F9C7A4",
"5. c #FBC8A6",
"6. c #FECCA9",
"7. c #FFD1AE",
"8. c #8F8FC1",
"9. c #908FC3",
"0. c #8F90C2",
"q. c #9292C4",
"w. c #9D9EC1",
"e. c #9596C9",
"r. c #9798CC",
"t. c #9B9BCD",
"y. c #9798C4",
"u. c #9D9DD1",
"i. c #9FA0C3",
"p. c #9FA0D1",
"a. c #A5A2C4",
"s. c #AEAEC2",
"d. c #A8A3CA",
"f. c #B0AFC2",
"g. c #AFB0C5",
"h. c #B2B2C5",
"j. c #BEBEC7",
"k. c #BDBEC9",
"l. c #B5B6CB",
"z. c #A2A2D5",
"x. c #A8A5D1",
"c. c #A5A6DA",
"v. c #AAAADC",
"b. c #A7A8DA",
"n. c #B3B3DE",
"m. c #AEAEE0",
"M. c #B0AFE1",
"N. c #AFB0E3",
"B. c #B2B2E4",
"V. c #B5B5E9",
"C. c #BBBBED",
"Z. c #B9BAE5",
"A. c #BFBFF1",
"S. c #C0BFF3",
"D. c #BFC1CB",
"F. c #C4C4CA",
"G. c #C8C7CA",
"H. c #CCCCCD",
"J. c #CEC5C1",
"K. c #D1CCC7",
"L. c #CDCDD1",
"P. c #CDCDDF",
"I. c #D0CFD6",
"U. c #D6D6D5",
"Y. c #D9D9D7",
"T. c #D9DAD9",
"R. c #E2E0DE",
"E. c #E9E1DD",
"W. c #CDCDE4",
"Q. c #CECEED",
"!. c #C3C3F5",
"~. c #C7C6F8",
"^. c #CCCCFD",
"/. c #D1D1FF",
"(. c #E7E7E6",
"). c #E8E8E7",
"_. c #EEEDED",
"`. c #F4ECE6",
"'. c #F3EEEA",
"]. c #F1F0EF",
"[. c #F2F2F2",
"{. c #FEFEFE",
"}. c None",
/* pixels */
"}.}.}.}.}.}.}.}.}.}.}.}.}.}.}.}.}.}.}.}.}.}.}.% = % o o + - = * = = > 2 , : * = = O }.}.}.}.}.}.}.}.}.}.}.}.}.}.}.}.}.}.}.}.}.}.",
"}.}.}.}.}.}.}.}.}.}.}.}.}.}.}.}.}.}.}.}.}.}.}.+ > : % O ; , = o * > 2 3 2 2 2 2 , * o }.}.}.}.}.}.}.}.}.}.}.}.}.}.}.}.}.}.}.}.}.",
"}.}.}.}.}.}.}.}.}.}.}.}.}.}.}.}.}.}.}.}.}.O * * - - * * - ; = * : 2 2 3 3 4 2 4 , * . o }.}.}.}.}.}.}.}.}.}.}.}.}.}.}.}.}.}.}.}.",
"}.}.}.}.}.}.}.}.}.}.}.}.}.}.}.}.}.}.}.}.}.* > ; + % > > % O = , 2 2 2 3 3 2 2 4 , * o . }.}.}.}.}.}.}.}.}.}.}.}.}.}.}.}.}.}.}.}.",
"}.}.}.}.}.}.}.}.}.}.}.}.}.}.}.}.}.}.}.}.}.+ : - % % ; ; + . % : , 2 > : > 2 2 > ; = * O O }.}.}.}.}.}.}.}.}.}.}.}.}.}.}.}.}.}.}.",
"}.}.}.}.}.}.}.}.}.}.}.}.}.}.}.}.}.}.}.}.X X O % > : % X X . o O - , : % * , , = O - : * o = }.}.}.}.}.}.}.}.}.}.}.}.}.}.}.}.}.}.",
"}.}.}.}.}.}.}.}.}.}.}.}.}.}.}.}.}.}.O O O o X + : : % + + O o X % : = o O ; : O X = > = + & }.}.}.}.}.}.}.}.}.}.}.}.}.}.}.}.}.}.",
"}.}.}.}.}.}.}.}.}.}.}.}.}.}.}.}.}.}.o * : = O X O % ; > > : % X X O O X o O O O X O + = ; + }.}.}.}.}.}.}.}.}.}.}.}.}.}.}.}.}.}.",
"}.}.}.}.}.}.}.}.}.}.}.}.}.}.}.}.}.}.o = , = X X o % ; 2 2 > % X X . X X X X . X X . X ; 9 , }.}.}.}.}.}.}.}.}.}.}.}.}.}.}.}.}.}.",
"}.}.}.}.}.}.}.}.}.}.}.}.}.}.}.}.}.}.X O * O X O = - * % % % O X X . X X X X X . .   X 3 v j }.}.}.}.}.}.}.}.}.}.}.}.}.}.}.}.}.}.",
"}.}.}.}.}.}.}.}.}.}.}.}.}.}.}.}.}.}.X X X X O * > : & X . X X X X X X X X X X + + O @ r +.%.}.}.}.}.}.}.}.}.}.}.}.}.}.}.}.}.}.}.",
"}.}.}.}.}.}.}.}.}.}.}.}.}.}.}.}.}.}.X X X = 2 , - % O   . . .   . X X X X . + 3 e r s V ;.=.}.}.}.}.}.}.}.}.}.}.}.}.}.}.}.}.}.}.",
"}.}.}.}.}.}.}.}.}.}.}.}.}.}.}.}.}.}.X X X > e 9 % o o X X X o O O O o X X o ; f O.V V &.3.2.}.}.}.}.}.}.}.}.}.}.}.}.}.}.}.}.}.}.",
"}.}.}.}.}.}.}.}.}.}.}.}.}.}.}.}.}.}.o O % : 3 2 - = = % O X ; 9 w 9 : O * 9 j +.*.m s s v V }.}.}.}.}.}.}.}.}.}.}.}.}.}.}.}.}.}.",
"}.}.}.}.}.}.}.}.}.}.}.}.}.}.}.}.}.}.}.; > : % % > 2 2 > % O w B o.M r % , o.3.5.-.s * + % q m }.}.}.}.}.}.}.}.}.}.}.}.}.}.}.}.}.",
"}.}.}.}.}.}.}.}.}.}.}.}.}.}.}.}.}.}.}.}.9 2 ; - ; ; : - O O e +.*.*.m t g -.7.6.2.m 0 4 4 y b X.}.}.}.}.}.}.}.}.}.}.}.}.}.}.}.}.",
"}.}.}.}.}.}.}.}.}.}.}.}.}.}.}.}.}.}.}.}.}.w r 5 % X O O   o t +.-.3.2.-.;.5.6.6.6.:.=.;.-.m e d }.}.}.}.}.}.}.}.}.}.}.}.}.}.}.}.",
"}.}.}.}.}.}.}.}.}.}.}.}.}.}.}.}.}.}.}.}.}.}.r t > = O o = > h %.2.6.6.6.7.6.6.6.6.5.5.6.5.V 9 7 }.}.}.}.}.}.}.}.}.}.}.}.}.}.}.}.",
"}.}.}.}.}.}.}.}.}.}.}.}.}.}.}.}.}.}.}.}.}.}.@ 5 v f ; % w m %.3.5.5.6.6.6.6.6.6.5.:.*.=.=.n 4 a }.}.}.}.}.}.}.}.}.}.}.}.}.}.}.}.",
"}.}.}.}.}.}.}.}.}.}.}.}.}.}.}.}.}.}.}.}.}.}.}.2 v g - % h =.3.6.6.6.6.6.6.6.6.4.:.@.M m m z d }.}.}.}.}.}.}.}.}.}.}.}.}.}.}.}.}.",
"}.}.}.}.}.}.}.}.}.}.}.}.}.}.}.}.}.}.}.}.}.}.}.: < ; X - n 4.5.6.6.6.6.6.6.6.5.;.%.b e 9 4 d }.}.}.}.}.}.}.}.}.}.}.}.}.}.}.}.}.}.",
"}.}.}.}.}.}.}.}.}.}.}.}.}.}.}.}.}.}.}.}.}.}.}.1 % .   ; m 4.5.5.5.5.5.5.5.5.2.%.m d 8 - @ }.}.}.}.}.}.}.}.}.}.}.}.}.}.}.}.}.}.}.",
"}.}.}.}.}.}.}.}.}.}.}.}.}.}.}.}.}.}.}.}.}.}.$ i 6 = = > g +.%.-.-.-.-.-.-.;.%.v a k J F }.}.}.}.}.}.}.}.}.}.}.}.}.}.}.}.}.}.}.}.",
"}.}.}.}.}.}.}.}.}.}.}.}.}.}.}.}.}.}.A A A Z _ { u 3 4 8 y g m o.O.O.O.O.O.+.B y a U x.z.Q }.}.}.}.}.}.}.}.}.}.}.}.}.}.}.}.}.}.}.",
"}.}.}.}.}.}.}.}.}.}.}.}.}.}.}.}.}.}.~ ~ ! r.b.[ F p G G a q y s g g g g g g f u F ' b.z.c.E }.}.}.}.}.}.}.}.}.}.}.}.}.}.}.}.}.}.",
"}.}.}.}.}.}.}.}.}.}.}.}.}.}.}.}.A C ! ~ ~ y.c.z.Q / p.[ i 4 3 9 5 8 5 5 5 5 u D Q t.b.b.b.z.A }.}.}.}.}.}.}.}.}.}.}.}.}.}.}.}.}.",
"}.}.}.}.}.}.}.}.}.}.}.}.}.}.}.}.q.u.u.z.z.z.t.r.e.t.b.x.U i p p i i i p i i F ) e.t.t.t.t.r.z.}.}.}.}.}.}.}.}.}.}.}.}.}.}.}.}.}.",
"}.}.}.}.}.}.}.}.}.}.}.}.}.}.}.# 8.m.!.!.!.v.q.q.z.b.b.b.x.d.d.d.d.d.a.d.d.d.d.x.c.e.~ ~ ~ y.z.m.}.}.}.}.}.}.}.}.}.}.}.}.}.}.}.}.",
"}.}.}.}.}.}.}.}.}.}.}.}.}.}.q.r.r.V.^./.^.B.8.~ t.z.c.b.v.m.m.m.m.m.m.m.v.c.z.z.z.t.t.r.t.t.z.e.e.Z }.}.}.}.}.}.}.}.}.}.}.}.}.}.",
"}.}.}.}.}.}.}.}.}.}.}.}.}.}.~ u.c.A.^.^.^.B.8.~ ~ q.z.v.b.v.v.v.v.v.v.m.z.q.9.9.y.b.C.!.C.b.q.~ 8.) }.}.}.}.}.}.}.}.}.}.}.}.}.}.",
"}.}.}.}.}.}.}.}.}.}.}.}.}.}.~ v.V.!.^.~.A.b.~ ! ! 8.r.z.z.z.z.z.z.z.c.z.t.~ W ! 8.B.^././.V.q.~ ~ Z }.}.}.}.}.}.}.}.}.}.}.}.}.}.",
"}.}.}.}.}.}.}.}.}.}.}.}.}.}.q.V.!.^.^.M.t.q.~ ! ! ~ 8.9.9.9.9.9.9.8.9.9.~ ! ! ! q.v.^.^.^.C.c.r.q.}.}.}.}.}.}.}.}.}.}.}.}.}.}.}.",
"}.}.}.}.}.}.}.}.}.}.}.}.}.}.9.V.^.^.~.v.( ^ ~ Q ( ( ( ( ( ( _ ~ ~ ~ _ ~ _ _ ~ ~ 8.N.^.^.^.C.B.z.q.}.}.}.}.}.}.}.}.}.}.}.}.}.}.}.",
"}.}.}.}.}.}.}.}.}.}.}.}.}.}.8.m.C.~.^.Z.g.w.~ _  .s.s.s...s.s.s.g.g.f.h.s.f.s._ 0.m.^.^.^.!.v.z.q.}.}.}.}.}.}.}.}.}.}.}.}.}.}.}.",
"}.}.}.}.}.}.}.}.}.}.}.}.}.}.~ z.M.A.^.W.H.s./ ` D.H.L.H.H.L.G.H.L.H.H.H.H.H.j.` 8.m.^./.^.A.v.p.q.}.}.}.}.}.}.}.}.}.}.}.}.}.}.}.",
"}.}.}.}.}.}.}.}.}.}.}.}.}.}.8.z.M.A.^.W.H.s.( ` j.U.R.(.(.(.(.(.).).).).R.U.j.` 0.m.^.^.^.A.B.p.q.}.}.}.}.}.}.}.}.}.}.}.}.}.}.}.",
"}.}.}.}.}.}.}.}.}.}.}.}.}.}.8.z.M.A.^.W.H.s.( ` j.U.].{.{.{.{.{.[.{.{.{._.Y.j.` 8.m.^.^.^.C.M.p.Q }.}.}.}.}.}.}.}.}.}.}.}.}.}.}.",
"}.}.}.}.}.}.}.}.}.}.}.}.}.}.~ z.v.A.^.W.H.s.( ` j.T.].{.{.{.{.{.{.{.{.{.[.U.j.` 8.m.~.^.^.A.M.z.R }.}.}.}.}.}.}.}.}.}.}.}.}.}.}.",
"}.}.}.}.}.}.}.}.}.}.}.}.}.}.~ z.M.A.^.W.G.g.( ` j.T.].{.{.{.{.{.{.{.{.{.].U.j.` 0.m.^./.^.A.M.z.R }.}.}.}.}.}.}.}.}.}.}.}.}.}.}.",
"}.}.}.}.}.}.}.}.}.}.}.}.}.}.~ z.M.A.^.W.G...( ` k.T.[.{.{.{.{.{.{.{.{.{.[.Y.j.` ( N.^.^.^.A.v.z.W }.}.}.}.}.}.}.}.}.}.}.}.}.}.}.",
"}.}.}.}.}.}.}.}.}.}.}.}.}.}.~ c.M.A.^.W.H.s.( ` k.T.[.{.{.{.{.{.{.{.{.{.].T.j.` 0.m.^.^.^.C.N.z.R }.}.}.}.}.}.}.}.}.}.}.}.}.}.}.",
"}.}.}.}.}.}.}.}.}.}.}.}.}.}.~ z.m.A.^.W.H...( ` k.T.[.{.{.{.{.{.{.{.{.{.].U.j.` 0.m.^.^.^.A.m.z.W }.}.}.}.}.}.}.}.}.}.}.}.}.}.}.",
"}.}.}.}.}.}.}.}.}.}.}.}.}.}.~ z.N.S.^.W.H.s.( ` F.T.[.{.{.{.{.{.{.{.{.{.[.T.D.` 0.m.^.^.^.!.N.z.R }.}.}.}.}.}.}.}.}.}.}.}.}.}.}.",
"}.}.}.}.}.}.}.}.}.}.}.}.}.}.~ z.b.C.^.W.G...) ) ..K.E.`.`.`.`.`.`.`.`.`.E.K...` 0.m.~.^.!.C.v.m.E }.}.}.}.}.}.}.}.}.}.}.}.}.}.}.",
"}.}.}.}.}.}.}.}.}.}.}.}.}.}.W q.t.V.^.W.H.| L k P I $.#.#.#.#.#.#.#.#.#.$.X.I ] 0.N.~.!.V.m.r.x.}.}.}.}.}.}.}.}.}.}.}.}.}.}.}.}.",
"}.}.}.}.}.}.}.}.}.}.}.}.}.}.~ ~ ( B.^.W.H.>.z h h h h j h h h h h h h h h g k H 0.N.~.C.b.z.}.}.}.}.}.}.}.}.}.}.}.}.}.}.}.}.}.}.",
"}.}.}.}.}.}.}.}.}.}.}.}.}.}.l.p.( B.^.W.H.>.z z +.@.@.@.&.&.@.@.&.%.@.%.o.v k H q.B.^.m.m.E }.}.}.}.}.}.}.}.}.}.}.}.}.}.}.}.}.}.",
"}.}.}.}.}.}.}.}.}.}.}.}.}.}.}.}.0.V.^.W.H.>.z m ;.5.5.5.5.5.5.5.5.5.5.6.-.m k H 0.N.!.m.u.}.}.}.}.}.}.}.}.}.}.}.}.}.}.}.}.}.}.}.",
"}.}.}.}.}.}.}.}.}.}.}.}.}.}.}.}.q.B.^.W.H.>.z b O.*.6.6.=.%.:.6.2.%.-.5.;.m k H ~ t.v.Z. .}.}.}.}.}.}.}.}.}.}.}.}.}.}.}.}.}.}.}.",
"}.}.}.}.}.}.}.}.}.}.}.}.}.}.}.}.r.V.^.W.H.>.l g h B :.2.o.v @.4.%.n o.3.-.m k H ~ 8.e.}.}.}.}.}.}.}.}.}.}.}.}.}.}.}.}.}.}.}.}.}.",
"}.}.}.}.}.}.}.}.}.}.}.}.}.}.}.}.q.B.^.W.H.>.l s s v O.%.m g B %.M h n @.+.b l Y w.( R }.}.}.}.}.}.}.}.}.}.}.}.}.}.}.}.}.}.}.}.}.",
"}.}.}.}.}.}.}.}.}.}.}.}.}.}.}.}.q.B.^.W.H.>.z g g h v b h g h v j h h b v h z | k.w.}.}.}.}.}.}.}.}.}.}.}.}.}.}.}.}.}.}.}.}.}.}.",
"}.}.}.}.}.}.}.}.}.}.}.}.}.}.}.}.q.n.Q.W.G.,.X.c x x N I P P P P x P P x x c T | l.a.}.}.}.}.}.}.}.}.}.}.}.}.}.}.}.}.}.}.}.}.}.}.",
"}.}.}.}.}.}.}.}.}.}.}.}.}.}.}.}.q.l.U.L.H.J.1.<.<.<.1.1.<.<.<.<.1.1.1.1.<.1.|  .y.~ }.}.}.}.}.}.}.}.}.}.}.}.}.}.}.}.}.}.}.}.}.}.",
"}.}.}.}.}.}.}.}.}.}.}.}.}.}.}.}.q.s.F.D.F.F.H.H.H.H.H.H.H.H.G.F.D.D.F.H.H.H.D.w.~ }.}.}.}.}.}.}.}.}.}.}.}.}.}.}.}.}.}.}.}.}.}.}.",
"}.}.}.}.}.}.}.}.}.}.}.}.}.}.}.}.~ _ ` ` ` h.G.H.H.H.H.L.H.H.h.i.w.w.g.F.H.H.F.a.R }.}.}.}.}.}.}.}.}.}.}.}.}.}.}.}.}.}.}.}.}.}.}.",
"}.}.}.}.}.}.}.}.}.}.}.}.}.}.}.}.8.! ! ! ! y.D.G.F.G.F.F.G.D.a.! W ! w.k.F.F.D.w.R }.}.}.}.}.}.}.}.}.}.}.}.}.}.}.}.}.}.}.}.}.}.}.",
"}.}.}.}.}.}.}.}.}.}.}.}.}.}.}.}.~ ! ! ! ! _ w.a. .i.a.a.a. ._ ! ! ! ( w.a.a. ._ R }.}.}.}.}.}.}.}.}.}.}.}.}.}.}.}.}.}.}.}.}.}.}.",
"}.}.}.}.}.}.}.}.}.}.}.}.}.}.q.q.^ ~ ~ ~ ~ ~ ~ ~ ~ ^ ! ! ^ ~ ~ ~ ~ ~ ~ ~ ~ 8.~ 8.( }.}.}.}.}.}.}.}.}.}.}.}.}.}.}.}.}.}.}.}.}.}.}.",
"}.}.}.}.}.}.}.}.}.}.}.}.}.}.! r.t.z.v.v.b.v.c.u.r.0.~ ! ! ~ r.b.v.v.c.v.c.v.p.0.0.' }.}.}.}.}.}.}.}.}.}.}.}.}.}.}.}.}.}.}.}.}.}.",
"}.}.}.}.}.}.}.}.}.}.}.}.}.}.~ z.v.C.~.!.~.!.~.A.N.p.0.^ ! 8.c.!.~.!.~.~.!.~.C.t.~ 8.W S }.}.}.}.}.}.}.}.}.}.}.}.}.}.}.}.}.}.}.}.",
"}.}.}.}.}.}.}.}.}.}.}.}.}.}.~ b.m.V.!.A.S.A.A.V.m.p.0.^ ! ~ c.A.!.A.A.A.A.S.C.z.y.q.y.8.}.}.}.}.}.}.}.}.}.}.}.}.}.}.}.}.}.}.}.}.",
"}.}.}.}.}.}.}.}.}.}.}.}.}.}.~ z.m.m.m.m.N.m.N.m.m.p.0.^ ! ~ u.m.m.m.N.m.N.N.v.c.z.c.c.r.^ }.}.}.}.}.}.}.}.}.}.}.}.}.}.}.}.}.}.}.",
"}.}.}.}.}.}.}.}.}.}.}.}.}.}.8.u.z.z.z.z.z.p.p.z.p.u.8.8.~ 8.e.z.c.z.p.c.p.p.z.p.z.c.z.q.0.}.}.}.}.}.}.}.}.}.}.}.}.}.}.}.}.}.}.}."
};
