/* XPM */
static char *result[] = {
/* columns rows colors chars-per-pixel */
"32 32 128 2 ",
"   c #5F3A1F",
".  c #6C4022",
"X  c #754727",
"o  c #794723",
"O  c #7A4926",
"+  c #7E4C2A",
"@  c #7C5236",
"#  c #7C5239",
"$  c #814F2C",
"%  c #83512E",
"&  c #865431",
"*  c #895634",
"=  c #8B5936",
"-  c #8C5A39",
";  c #905F3D",
":  c #835E4B",
">  c #815E50",
",  c #8D6040",
"<  c #86614F",
"1  c #96775F",
"2  c #A88369",
"3  c #A48574",
"4  c #B4947D",
"5  c #C5997A",
"6  c #CC9E7C",
"7  c #D3A17E",
"8  c #787287",
"9  c #7A7985",
"0  c #737393",
"q  c #74749B",
"w  c #7A7B9D",
"e  c #7C7CA4",
"r  c #6F6FC3",
"t  c #887E96",
"y  c #8A819C",
"u  c #958295",
"i  c #93849C",
"p  c #93939C",
"a  c #B19387",
"s  c #BA9E8B",
"d  c #8181A6",
"f  c #8B8AA3",
"g  c #8383AB",
"h  c #958CA6",
"j  c #9991AC",
"k  c #8686B5",
"l  c #8787B9",
"z  c #8788BA",
"x  c #8B8BBC",
"c  c #9B95B3",
"v  c #9594BC",
"b  c #9C9BBE",
"n  c #ACA9B7",
"m  c #A1A0BB",
"M  c gray69",
"N  c #B4B4BE",
"B  c #D09F80",
"V  c #DDAA87",
"C  c #D1AA8F",
"Z  c #DEAB88",
"A  c #CCAC94",
"S  c #C8AD9B",
"D  c #E3B18F",
"F  c #E7B694",
"G  c #EBB995",
"H  c #F1BE99",
"J  c #CAB1A0",
"K  c #D0B4A0",
"L  c #F3C29F",
"P  c #FBC9A6",
"I  c #FFCDAA",
"U  c #8F8FC1",
"Y  c #908FC1",
"T  c #8F90C1",
"R  c #9393C5",
"E  c #9B9BC5",
"W  c #9696C9",
"Q  c #9897CA",
"!  c #9B9BCC",
"~  c #9D9ED0",
"^  c #A3A3C5",
"/  c #ACABC4",
"(  c #A2A1CA",
")  c #ACABCC",
"_  c #B5B5C6",
"`  c #B6B5CC",
"'  c #B7B8CF",
"]  c #BBBACB",
"[  c #A3A3D5",
"{  c #A6A6D8",
"}  c #AAAADC",
"|  c #BBBBD3",
" . c #AEAEE1",
".. c #B0AFE1",
"X. c #B2B2E4",
"o. c #B6B6E8",
"O. c #BABAEC",
"+. c #BEBEF0",
"@. c #C7C7CD",
"#. c #C9C9CC",
"$. c #CFCFD4",
"%. c #C4C4DC",
"&. c #CDCCDF",
"*. c #D5D5D6",
"=. c #DCDBDC",
"-. c #E2E0DF",
";. c #C6C5E9",
":. c #D0D0E0",
">. c #D7D7E8",
",. c #C3C3F4",
"<. c #CCCCF4",
"1. c #C6C6F9",
"2. c #CBCBFD",
"3. c #DDDDF3",
"4. c #D3D3FE",
"5. c #DADAFD",
"6. c #E4E4E3",
"7. c #E8E5E3",
"8. c #E8E8E9",
"9. c #F1EEEC",
"0. c #F7F2ED",
"q. c #E9E9F7",
"w. c #E6E6FD",
"e. c #ECECF9",
"r. c #F5F6F5",
"t. c #F1F2FC",
"y. c #FBFCFC",
"u. c None",
/* pixels */
"u.u.u.u.u.u.u.u.u.u.u.O & % & * & & o * . u.u.u.u.u.u.u.u.u.u.u.",
"u.u.u.u.u.u.u.u.u.u.$ * % * & & & & = % &   u.u.u.u.u.u.u.u.u.u.",
"u.u.u.u.u.u.u.u.u.u.& & & & & & & & & & & @ u.u.u.u.u.u.u.u.u.u.",
"u.u.u.u.u.u.u.u.u.& & & & & & & & * & & & & O u.u.u.u.u.u.u.u.u.",
"u.u.u.u.u.u.u.u.u.* & * & & & & & & & % * % O u.u.u.u.u.u.u.u.u.",
"u.u.u.u.u.u.u.u.u.+ = % * % & * & * % = % * O u.u.u.u.u.u.u.u.u.",
"u.u.u.u.u.u.u.u.u.- $ = $ * & & = % = % = + X u.u.u.u.u.u.u.u.u.",
"u.u.u.u.u.u.u.u.u.O - + * & & & % = + - + - u.u.u.u.u.u.u.u.u.u.",
"u.u.u.u.u.u.u.u.u.u.+ = $ * & & * % - + ; u.u.u.u.u.u.u.u.u.u.u.",
"u.R x x x x u.u.u.u.u.o = & & * % * % - , u.u.u.u.x x x x x u.u.",
"0 } X.,.,.O.[ q u.u.u.= $ * & & * % = O # c [ r 0 X.,.,.O.[ { u.",
"{ O.2.2.5.t.3.O.[ u.8 : o X & * % * + # h x [ O.1.2.2.5.e.3.} [ ",
"O.2.2.2.4.w.t.1.} U [ t i > o O o < i y { [ R +.2.2.2.4.q.t.O.R ",
"} 1.2.2.2.2.;.X.R x R ! { c u u u j { ! R R ! ~ ,.2.2.2.4.<.[ ! ",
"R } O.O.O.X.} [ x l l R [  . . .} ..X.E W ! W Q [ { { { { [ Q E ",
"e R [ } } } } Q x R R x ~  .{  .O.O...R o.} ! ! Q R W R W W [ u.",
"u.R R ~ ~ ~ Q x W { X.{ ~ ! ~ { o.} ~ { 1.o.} ! ! ~ ! ( ~ ! f u.",
"u.' b b b b v x } o.1.2.} ! R l T ! { 2.5.2...[ E E b b b / u.u.",
"u.=.*.*.*.*.N v { +.2.2.2.2.{ k ~ 2.2.5.r.<.[ R _ $.*.*.*.=.u.u.",
"u.r.y.y.y.8.u.u.v { ,.2.2.2.[ l ~ 1.5.t.q...E E ] 6.y.y.y.r.u.u.",
"u.9.0.0.7.M u.u.u.! [ ,.,.o.W x W X.,.,.{ R n u.u.#.-.r.0.9.u.u.",
"u.K 5 5 S u.u.u.v [ R U U U ! } ! T R R x x e u.u.u.S 5 5 A u.u.",
"u.F L D 6 s u.R { ,.[ x ! o.,.1.O.[ ~ x [ [ x u.u.u.6 Z P G u.u.",
"u.G I P Z a ) [ <.e.X.R X.2.2.2.2.O.[ R +.,.{ w u.u.V P P H u.u.",
"u.u.1 2 4 u.e X.2.5.,.E { ,.2.2.,.o.[ x [ } R x u.u.3 7 V C u.u.",
"u.u.u.u.u.u.u.w o.o.[ ) E ! [ [ ! R E / / R R u.u.u.u.u.u.u.u.u.",
"u.u.u.u.u.u.u.u.g Q ^ =.:.` ' %.| / ] -.#.x x u.u.u.u.u.u.u.u.u.",
"u.u.u.u.u.u.u.u.u./ #.r.y.6.=.u.u.@.] &.#.m u.u.u.u.u.u.u.u.u.u.",
"u.u.u.u.u.u.u.u.u.` _ :.>.*.@.u.p ] l x ` 9 u.u.u.u.u.u.u.u.u.u.",
"u.u.u.u.u.u.u.q Q Q ! Q ( ' ^ U ^ ' ! Q Q ! W U u.u.u.u.u.u.u.u.",
"u.u.u.u.u.u.d R } +.,.2.w.;.R x R X.2.2.,.,.} W k u.u.u.u.u.u.u.",
"u.u.u.u.u.u.x [ { { } O.,.X.! d v ..1.O.} } { { 0 u.u.u.u.u.u.u."
};
