/* XPM */
static char *result[] = {
/* columns rows colors chars-per-pixel */
"64 64 215 2 ",
"   c #6F3B16",
".  c #723E19",
"X  c #75421E",
"o  c #7B441F",
"O  c #5F4939",
"+  c #764421",
"@  c #794623",
"#  c #7B4926",
"$  c #7D4C29",
"%  c #5A5251",
"&  c #7C5B45",
"*  c #796A5C",
"=  c #575769",
"-  c #4F4F67",
";  c #7D7674",
":  c #804E2B",
">  c #83512E",
",  c #865431",
"<  c #895734",
"1  c #8B5936",
"2  c #8D5C39",
"3  c #915E3B",
"4  c #93613E",
"5  c #825E46",
"6  c #966441",
"7  c #996644",
"8  c #9A6945",
"9  c #9C6C4B",
"0  c #91684C",
"q  c #896A53",
"w  c #9C6F51",
"e  c #9A7258",
"r  c #8E6B52",
"t  c #A16F4C",
"y  c #A06A43",
"u  c #A3714E",
"i  c #AA764E",
"p  c #A57553",
"a  c #AC7956",
"s  c #AD7D5A",
"d  c #A67758",
"f  c #B07E5B",
"g  c #887368",
"h  c #9B7E7C",
"j  c #997C75",
"k  c #967A70",
"l  c #A17D67",
"z  c #B4825E",
"x  c #AA826A",
"c  c #B68562",
"v  c #B98763",
"b  c #BA8966",
"n  c #BC8B69",
"m  c #B5896C",
"M  c #BC9476",
"N  c #B28C72",
"B  c #C18F6C",
"V  c #C08A65",
"C  c #C4926E",
"Z  c #C59472",
"A  c #C99773",
"S  c #CB9A76",
"D  c #CE9C79",
"F  c #C3987A",
"G  c #D39E7B",
"H  c #D4A17E",
"J  c #D9A27C",
"K  c #696885",
"L  c #767799",
"P  c #777591",
"I  c #7A7AA4",
"U  c #7E7EAA",
"Y  c #7575A1",
"T  c #927D81",
"R  c #817FAC",
"E  c #7F80AB",
"W  c #9C8788",
"Q  c #949495",
"!  c #979698",
"~  c #8B8592",
"^  c #B79583",
"/  c #A28D97",
"(  c #B09E93",
")  c #8282AD",
"_  c #8C89AE",
"`  c #978EA5",
"'  c #8585B4",
"]  c #8B8AB4",
"[  c #8686B9",
"{  c #8C8CBC",
"}  c #8888B9",
"|  c #9392BD",
" . c #9B9BBD",
".. c #9A9AB4",
"X. c #A29AAD",
"o. c #A398B7",
"O. c #A9A9AB",
"+. c #A6A5BB",
"@. c #B3B4BC",
"#. c #C59E81",
"$. c #C8A286",
"%. c #D6A481",
"&. c #D8A683",
"*. c #DBA986",
"=. c #DDAC89",
"-. c #D4A98A",
";. c #C5AA98",
":. c #DCAF92",
">. c #E3AC84",
",. c #E1AF8C",
"<. c #E4B18E",
"1. c #EBB58D",
"2. c #E5B492",
"3. c #EBB996",
"4. c #EEBC99",
"5. c #E9B793",
"6. c #F1BE9B",
"7. c #C8B5A8",
"8. c #CBBCB2",
"9. c #D3BCB6",
"0. c #E3BEA1",
"q. c #F2C09D",
"w. c #D9C8BB",
"e. c #DEC0AC",
"r. c #F6C4A1",
"t. c #F9C7A4",
"y. c #FAC9A6",
"u. c #FECDAA",
"i. c #FFD0AD",
"p. c #E5CEBC",
"a. c #F8D2B4",
"s. c #E8C6AB",
"d. c #8F8FC1",
"f. c #908FC3",
"g. c #9292C4",
"h. c #9997C4",
"j. c #9B9BC3",
"k. c #9696C9",
"l. c #9B9ACC",
"z. c #9897CA",
"x. c #9E9ED1",
"c. c #9F9FDB",
"v. c #8F90C2",
"b. c #A29FCA",
"n. c #A09FD1",
"m. c #9FA0C9",
"M. c #A4A2C3",
"N. c #ACACC4",
"B. c #A5A4CB",
"V. c #A8A1C9",
"C. c #ABABCE",
"Z. c #A8A4C4",
"A. c #B0AFC2",
"S. c #B2B2C4",
"D. c #BCBCC6",
"F. c #BDBDCA",
"G. c #B4B4CE",
"H. c #A3A3D5",
"J. c #ADACD3",
"K. c #A6A6D9",
"L. c #A8A7D9",
"P. c #A7A8DA",
"I. c #ABABDC",
"U. c #A8A7D4",
"Y. c #B3B4D4",
"T. c #BBBBD4",
"R. c #B9B8DA",
"E. c #B0AFDB",
"W. c #ADAEE1",
"Q. c #B2B2E4",
"!. c #BBBBE4",
"~. c #B6B6E9",
"^. c #BBBBED",
"/. c #B8B7EC",
"(. c #BEBEF1",
"). c #B0B0E3",
"_. c #C3C3CB",
"`. c #CCCCCD",
"'. c #C4C2C3",
"]. c #D8CDC5",
"[. c #CCCCD2",
"{. c #C6C5D6",
"}. c #D3D3D4",
"|. c #D5D5DB",
" X c #DBDBDC",
".X c #D8D8D6",
"XX c #D1CFD3",
"oX c #E8DACF",
"OX c #E4D8CE",
"+X c #C8C8EA",
"@X c #DADAE4",
"#X c #C3C3F4",
"$X c #C6C6F8",
"%X c #CCCCFD",
"&X c #C9C9F5",
"*X c #CFD0FF",
"=X c #DDDDF5",
"-X c #D3D3FE",
";X c #DCDCFD",
":X c #D4D4F3",
">X c #E0DFFB",
",X c #E4E4E4",
"<X c #E6E6EA",
"1X c #EBEBEC",
"2X c #E8E8E7",
"3X c #F2F2EF",
"4X c #E2E2FD",
"5X c #ECECFC",
"6X c #E7E8F8",
"7X c #F3F4F4",
"8X c #F4F4FB",
"9X c #FDFDFD",
"0X c #F7F8F7",
"qX c #EFF0F7",
"wX c None",
/* pixels */
"wXwXwXwXwXwXwXwXwXwXwXwXwXwXwXwXwXwXwXwXwXwX: , , , 1 4 4 1 , , < , , : + $ , : + 2 wXwXwXwXwXwXwXwXwXwXwXwXwXwXwXwXwXwXwXwXwXwX",
"wXwXwXwXwXwXwXwXwXwXwXwXwXwXwXwXwXwXwXwXwXwX1 4 4 7 8 8 6 6 3 : # 1 3 : # : 3 1 # + > 5 wXwXwXwXwXwXwXwXwXwXwXwXwXwXwXwXwXwXwXwX",
"wXwXwXwXwXwXwXwXwXwXwXwXwXwXwXwXwXwXwXwX@ # 1 7 7 7 7 7 6 7 6 < : < < , > , < < > # . 0 wXwXwXwXwXwXwXwXwXwXwXwXwXwXwXwXwXwXwXwX",
"wXwXwXwXwXwXwXwXwXwXwXwXwXwXwXwXwXwXwX+ @ + < 7 7 7 7 7 8 7 6 6 3 > # < 6 < # : 2 2 # 0 wXwXwXwXwXwXwXwXwXwXwXwXwXwXwXwXwXwXwXwX",
"wXwXwXwXwXwXwXwXwXwXwXwXwXwXwXwXwXwXwX+ : : , 2 3 7 3 3 3 4 6 3 < $ + : 1 , : , 1 < @ 6 wXwXwXwXwXwXwXwXwXwXwXwXwXwXwXwXwXwXwXwX",
"wXwXwXwXwXwXwXwXwXwXwXwXwXwXwXwXwXwXwX@ < 3 , $ 1 4 2 $ : 3 4 : + + + @ # , 3 1 : @ + $ , wXwXwXwXwXwXwXwXwXwXwXwXwXwXwXwXwXwXwX",
"wXwXwXwXwXwXwXwXwXwXwXwXwXwXwXwXwX@ # : 2 2 : + : 2 < $ : 2 3 1 , $ + + + : 2 < @ + $ @   2 wXwXwXwXwXwXwXwXwXwXwXwXwXwXwXwXwXwX",
"wXwXwXwXwXwXwXwXwXwXwXwXwXwXwXwXwX$ < 3 > # + X o @ : 2 2 : : f v 3 + . + @ $ @ + $ < 2 X 6 wXwXwXwXwXwXwXwXwXwXwXwXwXwXwXwXwXwX",
"wXwXwXwXwXwXwXwXwXwXwXwXwXwXwXwXwX: 2 3 $ X # $ $ > 1 4 2 , 4 Z %.p , @ + + @ + + # 2 3 + 6 wXwXwXwXwXwXwXwXwXwXwXwXwXwXwXwXwXwX",
"wXwXwXwXwXwXwXwXwXwXwXwXwXwXwXwXwX@ : $ + + 2 t a z t , 1 a b H &.A f 3 + $ < , @ + $ $ . 6 wXwXwXwXwXwXwXwXwXwXwXwXwXwXwXwXwXwX",
"wXwXwXwXwXwXwXwXwXwXwXwXwXwXwXwXwX+ + + + > t b D &.c , 6 S <.=.=.,.%.a , , 6 1 $ @ + +   3 wXwXwXwXwXwXwXwXwXwXwXwXwXwXwXwXwXwX",
"wXwXwXwXwXwXwXwXwXwXwXwXwXwXwXwXwX+ + @ 3 t c S &.=.D z n =.q.4.3.2.=.Z s 7 < < 6 4 $ +   5 wXwXwXwXwXwXwXwXwXwXwXwXwXwXwXwXwXwX",
"wXwXwXwXwXwXwXwXwXwXwXwXwXwXwXwXwX+ + : u b S &.*.&.%.H =.q.u.u.t.2.%.%.S a , 1 a a < +   3 wXwXwXwXwXwXwXwXwXwXwXwXwXwXwXwXwXwX",
"wXwXwXwXwXwXwXwXwXwXwXwXwXwXwXwXwX@ $ 2 z D ,.2.S z a a C 4.i.u.r.S a a a a u s C n 6 :   3 g wXwXwXwXwXwXwXwXwXwXwXwXwXwXwXwXwX",
"wXwXwXwXwXwXwXwXwXwXwXwXwXwXwXwXwX$ 1 t n =.4.q.B < # $ p <.i.u.3.s : $ : u Z &.&.Z p 3 @ wXwXwXwXwXwXwXwXwXwXwXwXwXwXwXwXwXwXwX",
"wXwXwXwXwXwXwXwXwXwXwXwXwXwXwXwXwXx 9 t n &.4.t.H u 9 9 b 3.i.u.r.C 9 7 6 c %.=.H Z p 9 e wXwXwXwXwXwXwXwXwXwXwXwXwXwXwXwXwXwXwX",
"wXwXwXwXwXwXwXwXwXwXwXwXwXwXwXwXwXs.wX6 z Z 2.t.r.3.3.3.4.t.u.u.y.q.2.&.D H &.H C z 8 x wXwXwXwXwXwXwXwXwXwXwXwXwXwXwXwXwXwXwXwX",
"wXK c.v.g.z.z.l.l.l.l.g.z. .wXwXwXwXwX& u z &.q.u.u.u.i.i.u.u.u.u.i.u.4.,.=.*.D v z C ^ wXwXwXwXwXwXg.x.l.l.l.l.k.g.d.k.] wXwXwX",
"wXL W.x.K.~.^.^.^.^.^.I.K.h.wXwXwXwXwXO 5 p A <.6.u.u.u.u.u.u.u.u.i.y.4.=.*.*.Z a n wXwXwXwXwXwXwXL I.^.(.^.^.^.^.I.H.H.K.I.wXwX",
"g.W.Q.Q.#X-X-X-X*X*X%X#XQ.H.d.' ' P = % 5 y b H 5.r.y.u.u.u.u.u.u.y.r.3.=.&.&.C p x wXwX..) ' { g.W.(.$X*X%X*X*X%X/.I.I.I.H.{ wX",
"P.I.!.=X6XqX5X-X%X%X%X$X#X^./.Q.K.h.) K 0 4 z C &.<.6.u.u.u.u.u.u.6.2.<.=.%.Z z u l wX! :XK.W./.(.#X$X%X%X%X%X*X%X~.I.I.P.H.K.K.",
"P.I.:X8X9X9X8X-X%X%X%X%X%X%X%X#XW.H.f.) k w d v Z H <.6.t.t.t.t.r.<.&.&.H Z v s d x ; S.+XI.(.%X%X%X%X%X%X%X%X%X$X^.).I.W.I.K.K.",
"I.(.;X9X9X5X;X*X%X%X%X%X%X%X%X#XQ.H.f._ ` / l p i f B G =.2.3.4.2.&.C n z a i l W X.N.Y.Y.W.^.%X%X%X%X%X%X%X%X*X%X#X^.(.(.W.l.g.",
"K.#X;X8X5X-X%X%X%X%X%X%X%X%X$X(.W.x.{ { H.Z.W 9 0 9 d c B %.&.&.H A z d w 8 8 h o.H.z.g.l.I./.$X%X%X%X%X%X%X%X%X%X%X%X%X$XI.g.d.",
"x.W.#X=X4X*X%X%X%X%X%X%X%X^.I.H.x.k.k.l.K.K.` T h W j d a f V v c a d j W h j ~ B.H.d.[ g.l.H.I./.%X%X%X%X%X%X%X%X%X%X^.I.H.z.z.",
"z.d.H.$X%X%X%X%X%X%X%X%X%XW.h.{ [ g.H.K.I.H.| ] g.b./ e y y 9 9 9 8 w W b.b.} f.H.H.d.[ [ { { d.I.#X%X%X%X%X%X%X%X$X&XI.g.k.H.I.",
"k.g.n.I.Q.Q.Q.).Q.Q.Q.).W.H.h.g.g.k.l.l.x.l.l.z.c.I.o.W j h h h x h W X.L.c.z.z.l.z.{ { d.k.g.g.l.I.Q.Q.W.Q.Q.Q.).).).H.k.z.K.wX",
"x.H.n.g.d.d.g.g.d.g.f.f.v.z.H.K.K.x.f.{ { { l.H.L.I.J.b.b.b.b.b.H.M.b.U.I.L.K.n.d.{ [ { l.K.K.K.l.h.f.d.g.v.d.g.f.f.g.l.H.H.{ wX",
"] I.k.v.v.d.d.d.{ g.d.d.g.h.x.H.H.l.g.d.v.g.z.H.I.Q.Q.W.W.W.W.W.W.W.I.I.I.K.H.k.{ ' [ { k.H.H.x.l.v.d.v.d.d.d.d.d.d.g.z.x.I.C.wX",
"wXh.k.B.H.H.K.H.H.H.H.H.H.z.d.{ { g.H.H.H.H.g.g.I.(.^.I.K.K.I.L.I.I.I.I.L.n.f.{ { } [ } { d.{ { k.H.H.H.H.H.H.H.H.H.H.k.k.Z.wXwX",
"wXK I.H.K.K.H.K.H.H.K.K.H.z.d.d.{ h.H.I.).I.k.{ U.#X(.Q.W.).W.W.I.I.I.I.K.l.} ] { d.d.d.{ { { d.h.H.K.H.K.K.K.K.H.H.H.l.| wXwXwX",
"wX~ R.g.v.d.v.d.f.g.d.d.d.z.x.x.n.H.H.W.^.^.x.{ z.).^.#X#X#X(.Q.I.I.I.I.I.l.} { l.x.x.x.x.x.H.x.z.g.g.v.d.d.d.d.v.g.h.C.+.wXwXwX",
"wXQ {.| ] { ] | | ] | | | k.H.P.I.I.I.Q.#X#XP.h.k.H.Q.(.#X$X(.).H.H.K.K.H.l.g.z.I.W.I.I.I.I.K.K.l.g.] | { | { | ] | | N.}.wXwXwX",
"wXQ |.@.S.S.S.@.N.N.@.S.A.M.k.l.K.Q.^.#X%X%X^.I.H.g.k.x.x.H.x.z.k.h.g.g.g.x.I.~.^./.W.J.I.I.x.k.M.N.S.S.N.@.S.A.A.A.S.D. XwXwXwX",
"wX! ,X`.[.XXXX`.`.XX`.`._.A.{ v.H.Q.#X%X%X%X%X%XI.g.{ { { { } } { { { { { H.#X%X%X#XQ.I.I.P.k.{ +._.`.`.`.`.`.`.`.`.`.`. XwXwXwX",
"wX! 1X,X2X2X,X,X2X2X,X X`.N.{ d.K.Q.$X-X4X4X-X%X^.I.U.I.x.v.[ [ { l.I.I.W./.%X%X%X%X#X~.Q.P.h.[ M._.`.`.`.`.}.,X1X2X1X X,XwXwXwX",
"wXQ 7X7X9X9X9X9X9X9X0X,X`.N.g.h.H.Q.#X-X5X8X4X%X%X%X$X$XQ.g.} ' g.W.$X%X%X%X%X%X%X%X%X$X~.K.z.| Z._.`.`.`.`.].1X9X9X0X,X XwXwXwX",
"wX! 7X0X9X9X9X9X9X3X<X.X`._.T.E.l.H.Q.&X5X9X8X>X-X*X%X%X/.k.[ [ | ).%X%X%X%X%X%X%X%X#XQ.H.x.J.T.{.`.}.`.w.7.7.w.p.w.p.].wXwXwXwX",
"wX! 7X0X9X9X9X9X0X,XXX}.XXwXwX~ ) k.H.!.6X9X9X8X6X%X%X%X/.k.' [ d.).%X%X%X%X%X%X%X$X~.P.g.g.wXwXwXO.'.XX@.M M F M M D ;.wXwXwXwX",
"wX! 2XOXoXoXoXOXOXXX`.}.@.wXwXwXwXU.B.H.+X6X5X5X;X%X%X$XW.h.[ [ { I.(.%X%X%X%X$X$X/.K.n.U.wXwXwXwXwXwX`.8.M z z z z n ;.wXwXwXwX",
"wX! ].$.F $.F $.$.8..XQ wXwXwXwXwX@._ f.I.!.&X-X-X%X#XQ.K.d.' [ { H.Q.(.%X%X%X#X~.K.g.j.G.wXwXwXwXwXwXO.w.M c b b b n ;.@.wXwXwX",
"wXW e.F C A C b n ;.].wXwXwXwXwXwXwXwXU l.H.Q./.^.(.W.H.l.g.d.v.g.z.H.W.^.^.^.Q.K.l.v.U.+.wXwXwXwXwXwXwX;.#.B C A A A ;.8.wXwXwX",
"wXg 2.2.3.3.1.H D F ;.wXwXwXwXwXwXwXwXU d.v.h.z.l.k.g.d.g.l.H.x.x.g.| v.k.l.z.k.g.g.l.W.] wXwXwXwXwXwXwX$.H &.<.3.3.3.-.^ wXwXwX",
"wXq >.t.i.u.y.3.*.C A wXwXwXwXwXwXd.g.d.{ { } [ [ { { { k.K.Q.W.I.x.v.{ { } [ } { g.K.P.g.l.wXwXwXwXwXwXZ &.5.q.i.i.y.>.n wXwXwX",
"wXq >.t.i.i.u.t.3.A C wXwXwXwXwXwXv.z.x.x.l.v.{ v.x.l.l.H.~.#X#X(./.Q.P.l.g.} { z.K.Q.~.z.{ h.wXwXwXwXwXA 5.r.y.i.i.y.>.m wXwXwX",
"wXq 1.4.u.y.y.u.6.G &.wXwXwXwXY ) g.K.I.I.I.h.{ h.I.I.W.~.$X%X*X%X*X%X^.I.l.{ g.H.Q.$X&XH.{ d.wXwXwXwXwX&.6.t.t.y.y.q.&.$.wXwXwX",
"wXW a.-.J H H H :.p.( wXwXwXK k.x.H.~.(.(./.x.{ g.P.Q./.#X%X%X%X%X%X%X$X(.U.{ g.H.Q.=X>XR.k.d.{ wXwXwXwXwX:.H H &.H J s.;.wXwXwX",
"wXwXwXwXJ F Z b $.9.wXwXwXwXwXk.H.).#X%X%X#Xx.{ h.I.~.$X%X%X%X%X%X%X%X*X%XW.v.v.H.+X6XqX+XH.g.g.wXwXwXwXwXwXS C M C $.7.wXwXwXwX",
"wXwXwXwX* g wXwXwXwXwXwXwXwX= P.~.(.$X%X*X$XH.{ k.P./.%X*X%X%X%X%X%X%X$X^.K.d.h.I.&X4X=XR.k.{ v.wXwXwXwXwXwXwXwXwXwXwXwXwXwXwXwX",
"wXwXwXwXwXwXwXwXwXwXwXwXwXwX| Q.#X%X%X%X%X#XH.{ h.H.~.%X%X%X%X%X%X%X%X^.W.l.{ l.^.%X*X$XH.{ [ v.wXwXwXwXwXwXwXwXwXwXwXwXwXwXwXwX",
"wXwXwXwXwXwXwXwXwXwXwXwXP !.H.P.^.#X(.(.~.).C. .j.x.K.).~.).).).Q.Q.).H.l.l.j.B.I.~.(./.H.v.{ k.wXwXwXwXwXwXwXwXwXwXwXwXwXwXwXwX",
"wXwXwXwXwXwXwXwXwXwXwXwXwXR.) k.I.).).I.l.h.N.D.Z.| v.v.v.k.z.k.k.g.v.d.| M.D.S.z.k.P.I.P.H.v.z.wXwXwXwXwXwXwXwXwXwXwXwXwXwXwXwX",
"wXwXwXwXwXwXwXwXwXwXwXwXwXwX= Y.U.l.x.x.h.j.F..XF.M. . .j.J.Y.+.C.M.h.m.C.T..X_.+.| l.H.H.x.B.!.wXwXwXwXwXwXwXwXwXwXwXwXwXwXwXwX",
"wXwXwXwXwXwXwXwXwXwXwXwXwXwXwXN.] { d.| N._.@X7X X_.D._.D.wXwXwXwX_._.XX<X1X7X,X_.S.h.{ [ k.:X|.wXwXwXwXwXwXwXwXwXwXwXwXwXwXwXwX",
"wXwXwXwXwXwXwXwXwXwXwXwXwXwXwXwXwXz.|  .D.`.,X<X@X_.`.D.wXwXwXwXwX`.|.<X9X9X9X3X.XD.M.| j.M.X.wXwXwXwXwXwXwXwXwXwXwXwXwXwXwXwXwX",
"wXwXwXwXwXwXwXwXwXwXwXwXwXwXwXwXwX@XF.D._.`.F.C.B. .S.[.wXwXwXwXwX,X}.<X9X9X9X3X.X_.D.[.F.wXwXwXwXwXwXwXwXwXwXwXwXwXwXwXwXwXwXwX",
"wXwXwXwXwXwXwXwXwXwXwXwXwXwXwXwXwXwXwX@.`.D.j.' [ }  . XwXwXwXwXwX`.}.,XqX8X8X2XXX'._.@X.XwXwXwXwXwXwXwXwXwXwXwXwXwXwXwXwXwXwXwX",
"wXwXwXwXwXwXwXwXwXwXwXwXwXwXwXwXwXwXwX..Z.M.| [ [ } M._.wXwXwXwXwX`.}._.R.Y.R.G.M.m.+.Y.+.wXwXwXwXwXwXwXwXwXwXwXwXwXwXwXwXwXwXwX",
"wXwXwXwXwXwXwXwXwXwXwXwXwXwXwX' E U Y { { { { d.{ { m._..XwXwXwXXX<X_.Z.| { { } d.{ { d.' Y U E N.wXwXwXwXwXwXwXwXwXwXwXwXwXwXwX",
"wXwXwXwXwXwXwXwXwXwXwXwXwXwX- v.k.x.H.P.P.P.K.P.P.P.J.R.{.` wXwX+X{.T._.T.E.P.H.K.K.H.H.x.x.{ { B.wXwXwXwXwXwXwXwXwXwXwXwXwXwXwX",
"wXwXwXwXwXwXwXwXwXwXwXwXwXU U g.H.).(.$X$X$X$X$X$X$X^.W.H.z.) } h.n.I.@XqX4X%X$X$X$X$X(.Q.H.k.{ g.P wXwXwXwXwXwXwXwXwXwXwXwXwXwX",
"wXwXwXwXwXwXwXwXwXwXwXwXwXl.k.x.P.).^.#X(.#X$X*X*X*X(.W.x.{ { { } l.I.&X5X4X-X$X#X(.(.(.Q.I.x.k.d.{ wXwXwXwXwXwXwXwXwXwXwXwXwXwX",
"wXwXwXwXwXwXwXwXwXwXwXwXwXc.H.I.P.W.I.I.W.Q.(.%X*X*X(.W.H.l.{ d.g.l.I.#X*X*X%X$X~.I.W.I.I.I.I.K.z.z.wXwXwXwXwXwXwXwXwXwXwXwXwXwX",
"wXwXwXwXwXwXwXwXwXwXwXwXwXx.x.H.H.H.H.H.H.K.)./.^.^.Q.U.H.wXwXwX..U.H.W.^.^.^.Q.K.H.x.H.H.H.H.H.z.l.wXwXwXwXwXwXwXwXwXwXwXwXwXwX"
};
