/* XPM */
static char *_0cd89016a824368d588c68d8fe032fa8PFWis5wPnvCbWGO[] = {
/* columns rows colors chars-per-pixel */
"72 72 209 2 ",
"   c None",
".  c #75421D",
"X  c #7A441D",
"o  c #6A452D",
"O  c #764422",
"+  c #794623",
"@  c #7B4926",
"#  c #7D4C2A",
"$  c #76472A",
"%  c #7B5035",
"&  c #7D543D",
"*  c #784D32",
"=  c #7C5945",
"-  c #7F614C",
";  c #64637D",
":  c #80471E",
">  c #814923",
",  c #814F2C",
"<  c #83512E",
"1  c #865431",
"2  c #895634",
"3  c #8B5936",
"4  c #8E5C39",
"5  c #85583B",
"6  c #915F3C",
"7  c #92613E",
"8  c #855D47",
"9  c #976340",
"0  c #856658",
"q  c #9B765D",
"w  c #886B64",
"e  c #8B6E71",
"r  c #8A7074",
"t  c #877A7D",
"y  c #977F7C",
"u  c #A27F70",
"i  c #9C8373",
"p  c #AD866C",
"a  c #BC8B68",
"s  c #AD8871",
"d  c #BE9272",
"f  c #BE9070",
"g  c #C5936E",
"h  c #C49472",
"j  c #CA9672",
"k  c #CA9C7A",
"l  c #CA9671",
"z  c #D8A27C",
"x  c #666683",
"c  c #6D6C85",
"v  c #72718E",
"b  c #737395",
"n  c #76759D",
"m  c #7B7B9A",
"M  c #7B7BA3",
"N  c #7D7DA9",
"B  c #8D7D85",
"V  c #867A8D",
"C  c #837680",
"Z  c #8D7D93",
"A  c #888788",
"S  c #89898A",
"D  c #858587",
"F  c #928193",
"G  c #998996",
"H  c #958F93",
"J  c #B09383",
"K  c #ABA09B",
"L  c #8382A3",
"P  c #8383AD",
"I  c #8C8AAF",
"U  c #8A86A5",
"Y  c #928DA7",
"T  c #9B98AB",
"R  c #8485B6",
"E  c #8B8AB6",
"W  c #8686B9",
"Q  c #8788B9",
"!  c #8B8BBC",
"~  c #8987B7",
"^  c #918FBB",
"/  c #9C9BB7",
"(  c #9292BC",
")  c #9D9CBE",
"_  c #9894B5",
"`  c #ACACB5",
"'  c #B9B8BA",
"]  c #AEA7B1",
"[  c #C49F83",
"{  c #C89F81",
"}  c #C4A28A",
"|  c #D4A482",
" . c #DAAA88",
".. c #CDAD97",
"X. c #DCB497",
"o. c #CDB19F",
"O. c #E3AC85",
"+. c #E6B491",
"@. c #E8B693",
"#. c #EDBA96",
"$. c #EEBC99",
"%. c #F1BE9B",
"&. c #E2B08E",
"*. c #DBBEA9",
"=. c #C7B8AF",
"-. c #E6BEA1",
";. c #F3C09C",
":. c #FAC39C",
">. c #DEC9B9",
",. c #D7C8BE",
"<. c #CEC5BF",
"1. c #FFCDAA",
"2. c #F7C6A4",
"3. c #FFD0AD",
"4. c #8E8EC1",
"5. c #908FC1",
"6. c #8F90C5",
"7. c #9191C3",
"8. c #9292C4",
"9. c #9B9BC3",
"0. c #9696C9",
"q. c #9897C9",
"w. c #9B9BCC",
"e. c #9798CC",
"r. c #9E9ED1",
"t. c #A39DC5",
"y. c #A09ECC",
"u. c #A09FD1",
"i. c #9EA0D3",
"p. c #9FA0C8",
"a. c #A4A3C2",
"s. c #ADADC3",
"d. c #A4A3CD",
"f. c #ACABCD",
"g. c #B0AFC3",
"h. c #B2B2C4",
"j. c #BCBBC5",
"k. c #B4B4CC",
"l. c #BDBCCC",
"z. c #B8B6CF",
"x. c #A2A2D4",
"c. c #ABABD4",
"v. c #A6A6D8",
"b. c #A6A6D9",
"n. c #A8A7D9",
"m. c #A7A8D9",
"M. c #AAAADC",
"N. c #B4B4D1",
"B. c #BEBDD3",
"V. c #B7B7DC",
"C. c #ADAEE1",
"Z. c #A7A8E0",
"A. c #B0B0E1",
"S. c #B3B3E5",
"D. c #B6B6E9",
"F. c #B8B7E9",
"G. c #BBBAEC",
"H. c #B9BAE6",
"J. c #BEBEF1",
"K. c #B0B0E2",
"L. c #C0BFF2",
"P. c #C2C1C4",
"I. c #C3C3CA",
"U. c #CACACC",
"Y. c #C9C7C8",
"T. c #DACDC5",
"R. c #D5D1CC",
"E. c #CCCCD3",
"W. c #C5C5DC",
"Q. c #CCCBDB",
"!. c #C7C5D5",
"~. c #D4D4D4",
"^. c #D6D6DC",
"/. c #DBDBDC",
"(. c #D8D8D6",
"). c #D0CFD5",
"_. c #E2DEDB",
"`. c #E0E0DE",
"'. c #C4C4E3",
"]. c #CACAE6",
"[. c #C2C2EC",
"{. c #CCCCED",
"}. c #DCDCE2",
"|. c #D7D6EC",
" X c #C3C2F4",
".X c #CDCDF4",
"XX c #C7C6F9",
"oX c #C9C9FB",
"OX c #CCCCFD",
"+X c #C8C8F9",
"@X c #D0CFFF",
"#X c #D4D4F4",
"$X c #DBDBF3",
"%X c #D4D4FE",
"&X c #DCDCFE",
"*X c #E2E2E2",
"=X c #EBEBEC",
"-X c #E6E6E8",
";X c #F1EFED",
":X c #E4E4FC",
">X c #ECECFC",
",X c #E6E6F6",
"<X c #F5F5F5",
"1X c #FAF7F4",
"2X c #FCF8F5",
"3X c #F3F3FC",
"4X c #FDFDFE",
"5X c #F8F8FA",
"6X c #F0F1F4",
/* pixels */
"                                                , O + , 1 1 1 1 1 2 1 1 1 2 < @ O @ < < +                                                       ",
"                                              6 2 + @ 2 6 2 @ # 4 7 1 + , 4 6 , + , 6 4 # + o                                                   ",
"                                          @ 1 4 2 , , 2 3 1 # < 3 4 1 # , 3 4 1 , 1 3 3 < @ + >                                                 ",
"                                          O O @ 1 4 4 < # 1 4 3 , # 1 6 3 # # 2 4 2 # # 3 4 < @                                                 ",
"                                          O O + , 6 4 < @ 1 7 4 # + 1 7 3 # @ 2 7 2 @ # 3 7 2 ,                                                 ",
"                                          + , 2 2 < < 1 2 1 < < 1 2 1 < < 2 2 1 < 1 2 2 1 < 1 3                                                 ",
"                                          @ 3 7 3 @ @ 3 7 2 + # 4 7 < O , 6 7 < + < 7 6 , O 1 7 9 <                                             ",
"                                      + , < 2 3 1 < < 1 3 2 < < 3 3 1 , < 3 3 1 , 1 3 3 < , 1 4 < >                                             ",
"                                      # 3 6 < @ < 4 4 , @ 1 4 4 # @ 1 6 3 # # 2 7 2 # # 3 6 2 # O O                                             ",
"                                      # 3 6 < @ < 4 4 < # 1 4 4 , @ 1 6 3 # # 2 4 2 # # 3 6 2 # + O                                             ",
"                                      + # , 2 3 2 < < 2 3 1 < < 2 3 1 , < 2 3 1 , < 2 2 1 , 1 3 1 @                                             ",
"                                      O O @ 2 7 3 @ # 3 6 2 @ # 4 7 1 @ # 4 6 < @ < 4 4 , @ < 7 4 #                                             ",
"                                      @ , 1 1 2 1 1 1 2 2 1 1 < 1 2 1 1 1 2 1 1 < 1 1 1 1 < 1 2 < >                                             ",
"                                      # 4 7 , @ < 4 4 < @ 1 7 4 # @ 1 7 3 # @ 2 7 2 @ # 3 7 1 @ O X                                             ",
"                                      # 3 4 < # < 4 4 < # 1 4 3 , # 1 4 3 , # 2 4 2 # , 3 4 1 # @ X o                                           ",
"                                      + @ , 2 4 2 , , 2 4 2 , , 3 4 1 # < 3 3 1 # 1 4 3 < # < 4 2 : %                                           ",
"                                        + + 3 7 2 @ @ 3 7 2 + # 4 7 1 O , 6 6 < @ 1 6 6 , + < 7 4 1                                             ",
"                                        5 . # 1 1 1 1 1 1 1 1 1 1 1 1 1 1 1 1 1 1 1 1 1 1 1 1 2                                                 ",
"                                            O O < 7 6 , @ 1 6 4 # + 1 7 3 @ @ 2 7 2 @ # 4 7 2                                                   ",
"                                            8 + # 3 3 < # 1 4 3 < # 1 4 2 , # 2 4 2 , , 2 9 8                                                   ",
"                                              # O @ , 3 6 1 @ , 3 4 1 @ , 4 4 < # < 4 4 , 7                                                     ",
"    r.! ! 5.7.7.7.7.7.7.4.q.v                   O O # 3 7 2 @ # 4 7 1 + , 4 6 < + < 6 4 @ 2 J                 R 8.7.7.7.7.7.7.4.4.! ! 9.        ",
"  x Z.w.w.v.A.A.A.A.A.C.v.r.w.U                 @ 1 2 1 < 1 2 3 < < 1 3 2 < < 1 3 2 < # X $ y ] d.w.q.        ( C.C.A.A.A.A.C.v.w.w.w.v.a.      ",
"I 9.M.v.M.G.+XoXoXoXOX+XG.M.v.8.M M M           < 6 4 , @ < 7 4 # + 1 7 4 # @ 3 7 2 @ O . + w ^ r.v.m.8.P N ( M.G.+XOXoXoXoX+XG.M.v.M.n.x.      ",
"x.M.M.S.F. XOXOXOXOX&X&X#X{.H.M.x.r.r.m         0 4 < @ O # 2 2 1 , 1 3 1 < < 2 2 , + # 8 w V R 6.x.M.v.v.M.F.G. XOXOXOX%X&X&X#X{.'.S.n.x.!     ",
"v.m.S.J.+XoXOXOXOX%X:X5X3X3X,X.XJ.S.v.v.m     Y B & . . . O + , 4 6 1 @ , 4 6 < + . . & B 9.7.~ 4.x.M.F.G. XXX+XoXOXOXOX%X>X5X3X3X$XH.v.v.C.v.  ",
"M.C.F.+XOXOXOXOXOX%X:X3X4X4X3X&XOXG.M.x.8.W q.v.Y 0 % & = * + @ 3 6 , O # 4 6 5 = & % 0 Y M.i.7.7.w.v.G.OXOXOXOXOXOXOXOX%X:X3X4X4X>X[.M.M.x.r.M ",
"S.J.XXoXOXOXOXOXOXOX%X&X>X4X3X&XoXG.M.r.4.4.x.M.( V t F F w # . @ , + . + @ 5 e F Z C V 8.M.v.x.w.8.q.S.OXOXOXOXOXOXOXOXOX%X:X>X4X3X#XJ.v.8.8.n ",
"F.XXOXOXOXOXOXOXOXOXOXOX:X3X>X%X+XF.M.w.! ! w.v.w.! ! i.d.B & $ # # # # # $ = F x.r.! ! w.v.v.M.x.4.4.M. XOXOXOXOXOXOXOXOXOXOX:X5X>X%XJ.v.! ! n ",
"M.G. XoXOXOXOXOXOXOXOXOX#X#X#X XF.M.w.8.! Q 8.q.q.e.r.v.M._ t e r r r r r e B / M.v.r.e.w.q.q.w.q.q.q.x.M.F.+XOXOXOXOXOXOXOXOX&X:X$XG.M.x.q.8.n ",
"w.M.F.XXOXOXOXOXOXOXOXOX[.S.V.C.M.w.! Q Q Q Q ! 8.x.v.M.M.x.d.t.t.t.t.t.t.t.d.x.c.M.v.x.8.! Q ! 7.r.v.q.7.x.J.OXOXOXOXOXOXOXOXOX%X[.u.7.w.x.r.M ",
"8.w.M.G.XX X X X X XXX XF.M.v.M.v.q.Q W Q Q W Q 7.w.v.v.M.M.Z.C.C.C.C.C.C.C.C.A.A.M.v.w.8.4.4.4.8.w.r.q.4.w.K.G.F.F.F.F.F.F.F.G.G.C.q.7.q.x.M.I ",
"4.4.w.M.S.S.S.S.S.S.S.S.C.M.M.M.M.q.! W W W W Q ! ! 8.r.M.M.M.M.M.M.M.M.M.M.M.G. XC.q.8.w.r.x.x.w.8.7.q.r.r.w.q.q.q.q.q.q.q.q.q.q.w.x.r.q.q./   ",
"Q 4.4.x.v.v.M.M.M.M.M.M.M.M.M.m.x.q.! W Q ! ! ! Q W ! w.M.M.M.M.M.M.M.M.M.M.A. X+XC.4.! x.M.M.M.x.7.! w.v.w.4.Q Q Q Q Q Q Q Q Q Q 7.x.v.x.      ",
"  P 4.8.w.x.M.M.M.M.M.M.M.M.v.w.q.7.Q ! 8.q.q.q.8.Q ! w.M.M.M.M.M.M.S.G.G.G.G.G.F.x.! 7.M.G.S.M.x.w.q.q.q.q.q.q.q.q.q.q.q.q.q.q.q.q.q.x.N.      ",
"  ; 8.Q ! w.M.M.M.M.M.M.M.M.x.7.Q W W 7.x.M.M.M.w.! ! w.M.M.M.M.M.C.G.oXOXOXXXF.M.w.Q 8.S.oXG.M.v.M.v.q.! 8.x.M.M.M.M.M.M.M.M.M.M.x.4.w./       ",
"  c d.Q Q 8.r.x.x.x.x.x.x.x.q.! W ! 7.w.v.M.A.S.M.x.w.w.r.x.x.x.r.x.M.F.F.F.S.M.r.w.w.v.G.OX XS.A.M.M.w.8.8.w.x.x.x.x.x.x.x.x.x.x.y.p.T         ",
"  D B.( W ! 4.4.4.4.4.4.4.4.! Q Q 8.x.v.v.M.G. X X XS.w.! ! ! ! 4.4.7.8.8.8.7.! 4.r.S. X+XOX+XXXG.A.M.v.x.w.7.4.4.4.4.4.4.4.4.4.4.9.B.          ",
"  S Q.9.^ ( ^ ( ( ( ( ( ( ( ! Q ! q.M.M.M.A. XOXOXOX Xv.8.7.7.4.Q W W W Q 4.7.4.8.M. XOX%X%X%XOX XS.M.v.v.w.( ^ ( ( ( ( ( ( ( ( ^ s.`           ",
"  A ^.h.s.s.s.s.g.g.g.h.s.s.a.( W q.M.S.F. X+XOXOXOX+XF.A.A.A.v.7.W W W 8.v.A.A.A.G.+X%X:X>X&XOX XS.M.r.q.9.s.h.s.s.s.g.s.s.s.s.s.!.H           ",
"  A /.U.U.U.U.U.U.U.U.U.U.Y.l.c.q.q.v.S. XOXOXOXOXOXOXOXoXOXOXF.q.W W W w.G.OXoXoXOXOX&X>X5X:XOX XS.v.q.Q ) j.U.U.U.U.U.U.U.U.U.U.(.K           ",
"  A -X(.*X*X*X*X*X*X*X`.(.(.`   Y c.w.x.F. X+XOXOXOXOXOXOXOXOXG.w.W W W w.J.%XOXOX%X&X:X3X4X,X XS.v.q.4.W ) j.R.(.*X*X*X*X`.*X*X*X_.U.          ",
"  A =X=X<X<X<X<X<X<X5X<X=XY.      #Xq.8.v.S. XOXOXOXOXOXOXOXOXG.w.W W W w.J.OXOXOX&X3X5X4X5X$XS.x.8.Q W W ) j.(.-X<X5X<X<X<X<X<X<X=X=X          ",
"  A =X<X4X4X4X4X4X4X5X<X*XU.        U x.w.v.S. XoXOXOXOXOXOX+XS.q.W W W w.F.+XOXOX&X3X3X3X,X].M.w.d.d.d.x.k.I.(.-X<X5X4X4X4X4X4X4X<X=X          ",
"  A =X<X4X4X4X4X4X5X-X}.(.P.          z.c.8.v.S.J.oXOXOXOX XF.M.8.W W W 8.M.F. XOX%X&X&X{.'.c.q.d.B.l.l.j.j.P.~.(./.=X5X4X4X4X4X4X<X=X          ",
"  A =X=X2X1X1X1X2X;X/.U.~.`           l.c.! w.v.S. X+X+XXXF.M.r.8.Q ! ! 8.u.M.G.XX+X+X XA.v.q.Q c.Q.          ' (.U./.;X2X1X1X1X2X=X=X          ",
"  A _.,.>.>.>.>.>.T.T.              T '.d.q.q.q.x.M.C.C.M.x.w.q.q.q.q.q.q.q.w.v.M.C.M.v.r.q.4.W 9.B.            ' (.<.,.>.>.>.>.>.,._.          ",
"  S T.[ d d d h d } =.              I w.x.x.8.! ! ! 4.4.! ! Q 7.w.v.v.v.w.4.! ! ! 4.4.! ! ! Q Q ! 4.              P.=.J d h d d d } R.          ",
"  t *.{ g g j g a h o.              ( q.M.A.r.5.Q W W Q ! 7.q.r.M.S.S.S.M.q.! 4.4.Q W W ! 4.4.7.! 4.n             H X.h g g g j g { *.          ",
"  0  .X.$.$.$.&.| k k }           x.x.M.G.J.C.x.8.! ! 8.u.M.F.G.J. X X XF.v.r.x.u.q.! ! q.r.r.x.q.0.v             i | k | &.$.$.$.X. .          ",
"  = O.$.3.1.1.%.@.| g f o.` ` _ Q w.M.F.OXOXF.M.w.! ! r.C.G.OXOXOXOXOXOX XS.M.M.M.w.! 7.x.M.C.M.x.8.(             q z  .+.2.1.1.3.#.z           ",
"  - O.$.1.1.1.2.;.+.j a K !.'.c.r.M.F..X:X:X[.M.w.! 7.M.G.XXOXOXOXOXOXOX+X XF.A.M.w.! 7.M.G.J.G.S.x.x.c.          q z +.;.2.1.1.1.#.z           ",
"  = z :.1.1.1.1.1.#.z f G _ 8.x.M.F.+X&X3X<X].M.w.! 8.S.oXOXOXOXOXOXOXOXOXOX XF.M.w.! 8.S.oXOXoXL.A.x.r.b         q  .%.1.1.1.1.1.@.O.          ",
"      s :.:.:.;.#.$.X.i   L 6.x.M.G.OX%X>X>X.XS.x.4.7.M. X+XOXOXOXOXOXOXoX XG.S.M.w.! 7.v.F.G. XF.M.w.q.R           2.%.@.@.@.@.@.$...          ",
"                p {         8.w.C.G.OX%X%X%XOXXXC.4.! x.S.J.OXOXOXOXOXOXXXF.C.C.M.w.! Q 4.q.x.C.M.q.! 4.N             s j j j j j -.H           ",
"                              m C.F. X+X+X X X XC.9.( w.v.S.G. X X X X XF.M.x.x.x.w.( ( ( ( 9.x.w.! Q x.E                 p k u                 ",
"                                P C.S.F.F.S.M.x.d.s.s.9.8.w.r.x.x.x.x.x.w.q.8.8.8.9.s.h.h.s.a.8.7.Q q.L                                         ",
"                                  L C.M.M.v.q.! a.I.I.a.! Q ! ! ! ! ! ( ! ! ! Q ! a.I.U.U.I.s.! W W x.                                          ",
"                                    E Z.w.q.9.a.l.(./.W.N.f.a.a.k.].].].V.a.a.a.a.l./.`.~.U.s.! R 4.i.T                                         ",
"                                      7.4.( s.l.^.=X<X6X=X}.I.E.}.I.I.I.E.E.I.I.I.^.<X;X/.U.s.! 4.N b                                           ",
"                                        9.9.h.U.*X5X4X4X4X=X~.-X/.        -XU.I.I.).-X-X^.U.h.a.I                                               ",
"                                        !.j.I.U.*X5X4X4X4X=X~./.1X        -XI.s.a.a.f.N.I.U.U.h.                                                ",
"                                          U.I.U./.<X5X5X5X*XU.}.*X        -XI.a.Q W W ( h.U./.S                                                 ",
"                                          s.s.s.k.W.W.W.W.E.U.E.l.      T ~.I.a.Q W W ! 9.s.k.Y                                                 ",
"                                P 4.Q W W ! Q ! ! ! ! ! ( s.I.j.a.x.v.x.f.P.I.a.Q W W W Q Q ~ 8.M b ! 4.                                        ",
"                                N 8.7.8.q.q.q.q.q.q.q.w.d.k.l.h.( R R R ( k.B.f.q.q.q.q.q.q.q.q.r.r.4.! 8.U                                     ",
"                                N q.r.M.S.G.G.G.G.G.[.|.}.].V.d.8.W W W 8.c.V.H.F.G.F.F.G.G.G.G.S.M.w.7.! r.v                                   ",
"                            R W 7.w.v.S. XOXoXoXOXOX%X>X3X$XV.r.8.W W Q 8.x.C.J.OXOXOXOXoXoXoXoX XS.v.q.! ! 8.                                  ",
"                          x q.w.w.v.M.K.S.G.G.G. XOX%X&X&X{.A.r.4.W ! 4.8.x.A. XOX%XOXOX XF.F.G.S.C.M.x.w.q.I                                   ",
"                            8.r.n.M.M.M.M.M.M.M.F.XXOXOXOXJ.C.r.w.~ P N 8.v.M.G.oXOXOXXXS.M.M.M.M.M.M.M.v.x.b                                   ",
"                          x 8.w.x.x.x.x.x.r.r.r.n.A.S.F.S.M.x.v.Y         w.v.C.F.F.F.S.v.r.r.r.i.x.x.x.x.x.c                                   ",
"                            M n M M M M M M M M M N N N N N M I           ; P M N N N N M M M N M M M M M N                                     "
};
