/* XPM */
static char *result[] = {
/* columns rows colors chars-per-pixel */
"64 64 198 2 ",
"   c #76421E",
".  c #7E461D",
"X  c #764523",
"o  c #794624",
"O  c #7B4926",
"+  c #7D4C29",
"@  c #774A29",
"#  c #774E32",
"$  c #7B5137",
"%  c #7C553F",
"&  c #7E5B49",
"*  c #4F4F68",
"=  c #814A23",
"-  c #814E2B",
";  c #83512E",
":  c #8A532B",
">  c #865431",
",  c #895634",
"<  c #8B5936",
"1  c #8E5C39",
"2  c #845538",
"3  c #905F3C",
"4  c #905431",
"5  c #92603E",
"6  c #865C48",
"7  c #956748",
"8  c #876655",
"9  c #97725E",
"0  c #986F52",
"q  c #A57B5F",
"w  c #876B6A",
"e  c #886968",
"r  c #846865",
"t  c #8A7375",
"y  c #8B7779",
"u  c #8C736C",
"i  c #B07E63",
"p  c #B98A69",
"a  c #B78F73",
"s  c #BB8D70",
"d  c #B59076",
"f  c #C18F6A",
"g  c #C08D67",
"h  c #C3916D",
"j  c #C19373",
"k  c #C99877",
"l  c #D3A17E",
"z  c #6B6A87",
"x  c #747496",
"c  c #7A7A9E",
"v  c #77779F",
"b  c #7C7CA2",
"n  c #7C7CA7",
"m  c #8C7B86",
"M  c #877E97",
"N  c #86869C",
"B  c #8A8596",
"V  c #959495",
"C  c #9E9D9A",
"Z  c #978C92",
"A  c #B0A59E",
"S  c #8483AC",
"D  c #8484A6",
"F  c #9391AC",
"G  c #8585B6",
"H  c #8686B9",
"J  c #8788B9",
"K  c #8B8BBC",
"L  c #8989B2",
"P  c #908EBC",
"I  c #8F90BB",
"U  c #9493BD",
"Y  c #9B9BBE",
"T  c #9895B7",
"R  c #A19FBF",
"E  c #A497A0",
"W  c #A8A7AC",
"Q  c #B3ABA9",
"!  c #ABA9BB",
"~  c #B4B3B4",
"^  c #BAB8BA",
"/  c #C59F81",
"(  c #C9A58B",
")  c #C7A68D",
"_  c #DAA885",
"`  c #C7AB98",
"'  c #DBB295",
"]  c #D1AD96",
"[  c #E1AF8B",
"{  c #E6B28D",
"}  c #EBB28A",
"|  c #E4B493",
" . c #E9B693",
".. c #E8B999",
"X. c #F1BE9C",
"o. c #CAB4A5",
"O. c #CBBFB9",
"+. c #F4C29F",
"@. c #DCC0AD",
"#. c #CEC5BF",
"$. c #D6C5B9",
"%. c #F4C2A0",
"&. c #FCCAA7",
"*. c #FECDAA",
"=. c #F9C7A3",
"-. c #FED0AD",
";. c #8E8EC1",
":. c #908FC2",
">. c #8F90C1",
",. c #9393C5",
"<. c #9B9BC3",
"1. c #9696C9",
"2. c #9897CA",
"3. c #9798CA",
"4. c #9B9BCC",
"5. c #9996C4",
"6. c #9E9ED1",
"7. c #A29CC3",
"8. c #A09FD2",
"9. c #9FA0C7",
"0. c #9FA0D2",
"q. c #A4A4C1",
"w. c #AAAAC2",
"e. c #A3A3CC",
"r. c #ABAACC",
"t. c #A8A6C7",
"y. c #B4B4C6",
"u. c #BABAC5",
"i. c #B3B3CB",
"p. c #BCBCCA",
"a. c #A3A3D4",
"s. c #ACACD3",
"d. c #A6A6D9",
"f. c #A8A7D9",
"g. c #ABABDC",
"h. c #A8A7D0",
"j. c #B5B4D4",
"k. c #BBBAD6",
"l. c #B3B2DC",
"z. c #B9B9DE",
"x. c #ADAEE1",
"c. c #B0AFE2",
"v. c #AFB0E1",
"b. c #B3B2E4",
"n. c #BEBEE7",
"m. c #B6B7E9",
"M. c #B8B7EA",
"N. c #B7B8EB",
"B. c #BABAEC",
"V. c #BEBEF1",
"C. c #C3BFC9",
"Z. c #C0BFEE",
"A. c #C3C3C5",
"S. c #C3C3CA",
"D. c #C9C9CC",
"F. c #C8C5C7",
"G. c #D6D1CE",
"H. c #C5C5D3",
"J. c #CBCBD2",
"K. c #CECEDB",
"L. c #C8C6DC",
"P. c #D3D3D4",
"I. c #D5D5DB",
"U. c #DCDCDC",
"Y. c #DAD8D5",
"T. c #E5DED8",
"R. c #E4E0DD",
"E. c #EEE4DB",
"W. c #F0E5DB",
"Q. c #C2C2EA",
"!. c #C8C8E4",
"~. c #DFDFE0",
"^. c #D5D5E9",
"/. c #C2C2F4",
"(. c #CACBF4",
"). c #C6C6F9",
"_. c #C8C7F9",
"`. c #CCCCFD",
"'. c #D0CFFF",
"]. c #CFD0FC",
"[. c #D3D3F3",
"{. c #D9D9F1",
"}. c #D2D2FE",
"|. c #DDDDFD",
" X c #E0DFE1",
".X c #E2E2E2",
"XX c #E4E4EC",
"oX c #EBEBEA",
"OX c #EAE5E2",
"+X c #E2E2F7",
"@X c #E5E4FC",
"#X c #EAEAFC",
"$X c #EAEBF8",
"%X c #F3F4F4",
"&X c #F5F5FC",
"*X c #F7F9FE",
"=X c #FCFCFC",
"-X c None",
/* pixels */
"-X-X-X-X-X-X-X-X-X-X-X-X-X-X-X-X-X-X-X-X-X2 O X + > , > > > , , > > > + X + > - = -X-X-X-X-X-X-X-X-X-X-X-X-X-X-X-X-X-X-X-X-X-X-X",
"-X-X-X-X-X-X-X-X-X-X-X-X-X-X-X-X-X-X-X-X-X5 ; o ; 3 , o + 3 3 - o , 3 ; o - 3 < O o -X-X-X-X-X-X-X-X-X-X-X-X-X-X-X-X-X-X-X-X-X-X",
"-X-X-X-X-X-X-X-X-X-X-X-X-X-X-X-X-X-X-Xo ; < , ; , , , - ; < < ; ; > < , > > , , ; O = -X-X-X-X-X-X-X-X-X-X-X-X-X-X-X-X-X-X-X-X-X",
"-X-X-X-X-X-X-X-X-X-X-X-X-X-X-X-X-X-X-Xo X o > 5 , o ; 3 1 + O 1 3 ; o , 5 > O - 3 < : -X-X-X-X-X-X-X-X-X-X-X-X-X-X-X-X-X-X-X-X-X",
"-X-X-X-X-X-X-X-X-X-X-X-X-X-X-X-X-X-X-Xo O - , < , + ; 1 2 ; + , < , + , 1 > - ; < < 4 -X-X-X-X-X-X-X-X-X-X-X-X-X-X-X-X-X-X-X-X-X",
"-X-X-X-X-X-X-X-X-X-X-X-X-X-X-X-X-X-X-Xo , 3 > O > 1 < o = < 1 + O > 1 , + > 3 < O + 1 7 -X-X-X-X-X-X-X-X-X-X-X-X-X-X-X-X-X-X-X-X",
"-X-X-X-X-X-X-X-X-X-X-X-X-X-X-X-X-XO = - < 1 > + ; 1 , + ; 1 1 ; + , 3 ; O ; 3 < + ; 1 < : -X-X-X-X-X-X-X-X-X-X-X-X-X-X-X-X-X-X-X",
"-X-X-X-X-X-X-X-X-X-X-X-X-X-X-X-X-X+ < 1 ; - > 1 , + ; 1 < + + < 3 ; - > 3 > + ; < 1 ; o o -X-X-X-X-X-X-X-X-X-X-X-X-X-X-X-X-X-X-X",
"-X-X-X-X-X-X-X-X-X-X-X-X-X-X-X-X-X+ < 3 ; O , 5 > + > 1 1 + + < 5 ; O > 3 , O + 3 1 + o X -X-X-X-X-X-X-X-X-X-X-X-X-X-X-X-X-X-X-X",
"-X-X-X-X-X-X-X-X-X-X-X-X-X-X-X-X-Xo + ; > < ; ; > < , ; - , , ; - > < > + ; < , ; ; < < + -X-X-X-X-X-X-X-X-X-X-X-X-X-X-X-X-X-X-X",
"-X-X-X-X-X-X-X-X-X-X-X-X-X-X-X-X-Xo X O < 5 ; O > 3 , o - 1 3 - O < 5 ; o ; 1 < + O < 3 - -X-X-X-X-X-X-X-X-X-X-X-X-X-X-X-X-X-X-X",
"-X-X-X-X-X-X-X-X-X-X-X-X-X-X-X-X-Xo ; , > > > < > ; > , > > > > , > ; > , , > , , , > ; = -X-X-X-X-X-X-X-X-X-X-X-X-X-X-X-X-X-X-X",
"-X-X-X-X-X-X-X-X-X-X-X-X-X-X-X-X-X+ 3 3 - O < 3 > o ; 5 < + + 1 5 ; o , 5 , o ; 1 1 - X . -X-X-X-X-X-X-X-X-X-X-X-X-X-X-X-X-X-X-X",
"-X-X-X-X-X-X-X-X-X-X-X-X-X-X-X-X-X+ > , ; > > > > ; > , > > > > , , ; , , , ; > > , ; - . # -X-X-X-X-X-X-X-X-X-X-X-X-X-X-X-X-X-X",
"-X-X-X-X-X-X-X-X-X-X-X-X-X-X-X-X-X-X  - 1 3 ; O > 3 < O + 3 3 + o , 5 ; o ; 3 < @ o 1 5 : $ -X-X-X-X-X-X-X-X-X-X-X-X-X-X-X-X-X-X",
"-X-X-X-X-X-X-X-X-X-X-X-X-X-X-X-X-X-X- X > < > - > < > - ; , 1 - ; , < , ; , < < ; - < 6 -X-X-X-X-X-X-X-X-X-X-X-X-X-X-X-X-X-X-X-X",
"-X-X-X-X-X-X-X-X-X-X-X-X-X-X-X-X-X-X-X  X O , 3 > O - 3 < - + 1 3 ; + , 3 , + - 1 1 4 -X-X-X-X-X-X-X-X-X-X-X-X-X-X-X-X-X-X-X-X-X",
"-X-X-X-X-X-X-X-X-X-X-X-X-X-X-X-X-X-X-X-X2 o ; 3 > - > 1 < - - , 1 - + > 3 > - - 3 7 -X-X-X-X-X-X-X-X-X-X-X-X-X-X-X-X-X-X-X-X-X-X",
"-X-X-X-X-X-X-X-X-X-X-X-X-X-X-X-X-X-X-X-X-X@ o + > 3 , - - < < - + , 1 > + ; 3 , ; 0 -X-X-X-X-X-X-X-X-X-X-X-X-X-X-X-X-X-X-X-X-X-X",
"-Xz 6.;.;.,.,.,.,.,.,.,.U -X-X-X-X-X-X-X-X@   o > 3 , O - 3 3 + + , 3 > o > 3 > = 9 -X-X-X-X-X-X-X-X,.1.,.,.,.,.,.,.>.;.1.t.-X-X",
"-Xx x.4.d.b.m.m.m.b.b.d.a.<.-X-X-X-X-X-X-X@ : , , - ; < < - - , < > - , 3 , - O   & E s.a.a.-X-X-Xb d.b.m.m.m.b.b.d.4.4.a.h.-X-X",
"5.a.x.g.m./.`.`.`.'.`.Q.l.d.K L K -X-X-X-X$ 1 3 ; o - 3 1 + + < 3 - O > 3 > o X + & M 3.f.g.4.F U a.B./.`.`.`.}.`.n.l.g.g.d.v -X",
"d.g.b.B./.`.`.`.}.|.#X+X{.Q.b.g.d.5.-X-X-Xy 8 ; o   o - > , , > > > , > - O X & y B S K 4.g.g.b.B.B./.`.`.`.}.@X#X+X{.Q.g.a.a.I ",
"g.g.m.`._.`.`._.}.@X=X=X*X@X`.V.x.f.K x L <.y @ o @ o X + 3 3 - o < 5 > @ o o 8 T a.>.K 4.g.B.).`.`.`.`._._.}.#X*X=X*X[.l.d.g.g.",
"b.B./.`.'.`.`.`.'.|.@X*X=X#X}./.v.a.:.;.d.d.B r w t 8 @   - - X   = , 8 t w r m 4.g.0.3.1.4.m.`.}.`.`.`.`._.}.|.#X*X=X+XZ.x.4.2.",
"B./.`.`.`.`.`.`.`.`.}.#X*X@X'.V.v.0.;.K 8.a.,.S ,.7.m $ X X O o o X $ y 7.5.L P a.g.g.a.,.K v._.`.`._.`.`.`.`.`.}.#X*X$X(.c.:.;.",
"g.V./.`.`.`.`.`.'.`.`.[.{.[.V.v.0.1.K J 1.4.2.2.8.g.T t r e w w w r w F f.d.2.2.4.4.6.4.1.1.a.b.V._.`.`.`.`.`.`.'.|.#X[.b.d.2.,.",
"6.g.B.`.'.`.`.`.`.'._.Q.b.l.v.a.>.K J J J ;.4.a.g.f.d.e.7.7.7.7.7.7.7.d.g.d.d.6.,.K J K 4.d.2.,.g._.}.`.`.`.`.(.`.}.'.b.1.2.a.8.",
",.4.g.V././././././.V.m.d.d.g.4.K H J J H J 5.a.d.f.g.g.x.x.x.x.x.x.x.b.b.g.a.4.,.>.,.,.4.4.1.,.a.b.B.B.B.m.B.B.m.B.N.a.,.,.8.c.",
"K ,.6.x.b.b.v.b.b.v.v.g.g.x.g.0.;.H H J J J J ,.4.d.g.g.g.g.g.g.d.f.g.m./.g.,.,.6.a.a.6.1.;.5.a.4.3.1.,.,.,.,.,.1.1.1.4.a.4.K D ",
"K K >.6.a.d.g.f.d.f.d.g.d.f.a.4.K J K K ;.;.J J 1.d.g.g.d.g.g.g.x.c.b.V.).g.K ,.g.v.g.d.1.K 2.d.4.K K J J K J J J K K 1.a.g.z -X",
"-Xc ;.>.4.d.g.g.x.g.g.x.g.0.1.;.H ;.4.6.6.4.,.J 1.g.g.g.x.g.x.B.).)./.B.b.8.J 2.N.V.l.d.d.4.1.,.2.0.0.a.a.8.a.a.8.a.0.1.2.j.-X-X",
"-Xz 4.H ;.a.f.f.d.d.f.f.d.2.K J J ,.d.g.v.g.4.,.3.d.f.f.d.d.g.V.).)./.b.d.4.,.8./.).m.g.x.d.2.K 1.a.d.d.d.d.f.f.f.f.f.4.Y Y -X-X",
"-XB s.G H >.,.1.,.,.,.,.,.;.J K 2.a.d.g.B.B.N.v.a.1.,.,.,.,.1.4.8.8.6.2.,.6.x.B.)._.Z.V.b.d.a.4.4.1.,.1.1.1.,.1.,.1.,.r.! -X-X-X",
"-XV L.U K K K K K K I K K K J ,.d.g.g.v./.`.`._.g.,.K K K J J K K K ;.K ;.f./.`.`.`.`.).m.g.f.d.4.I K K K I K I K J U w.-X-X-X-X",
"-XV I.w.w.w.! w.w.w.w.w.q.Y H ;.d.v.B.V./.`.'.`.B.g.g.g.a.:.H G ;.4.d.g.g.B._.}.@X@X}.).m.d.a.1.7.w.w.w.w.! w.w.w.w.i.y.-X-X-X-X",
"-XV ~.D.D.D.D.D.D.D.D.D.F.p.0.1.a.v./._.`.`.`.`.`.(.`._.b.1.G G ,.g.).`.`.`._.|.&X&X}.).m.d.1.K q.S.D.D.D.D.D.D.D.D.G.D.-X-X-X-X",
"-XV OXU..XR..X.XR..XR.Y.D.B -Xr.e.a.m./._.`.`.`.`.`.}.`.M.5.G L U b.`.`.`.}.@X#X*X&X[.m.a.2.P K q.S.P.U..X~.R.R..X.XR.U.W -X-X-X",
"-XV %X%X=X%X*X*X&X=X%X.X~ -X-X-X0.,.a.b./._.'.`.`.`.`.`.m.1.G G >.b.`.`.`.@X&X*X=X$XQ.f.1.K J K q.D.U.%X*X*X%X*X&X&X&X%X~ -X-X-X",
"-XV %X&X=X=X=X=X=X*XoXU.D.-X-X-X-Xt.0.a.b./.`.`.`._.`.).b.1.H H ;.g./._.`.|.#X#X@X^.l.4.h.r.s.r.p.D.U.oX%X=X=X=X=X=X=X&X~ -X-X-X",
"-XV %X=X=X=X=X=X*X.XY.U.W -X-X-X-X! s.K d.b.Q.`.`.`./.m.a.>.J H K 8.b.B._.}.}.`.Z.l.,.9.H.S.H.C.u.^ P.P.R.&X=X=X=X=X=X%X~ -X-X-X",
"-XV OXR.W.W.W.W.T.Y.C -X-X-X-X-X-Xp.a.;.2.d.b.B.V.B.b.a.4.,.K ;.,.2.a.b.B.B.B.b.a.5.K 5.!.-X-X-X-X-X~ Y.G.T.W.W.W.W.E.OX~ -X-X-X",
"-XV G.] ( ( ( ( ] #.-X-X-X-X-X-XN s.a.6.,.;.,.4.4.2.,.K ,.4.0.6.4.1.:.,.4.4.4.5.,.K H K d.-X-X-X-X-X-Xu.F.` ( ( ( ( ) $.~ -X-X-X",
"-XZ @.j g f h p s o.-X-X-X-X-X-XU ,.d.g.1.K H H J K K ,.3.g.b.b.g.2.K K K J H J K K ;.K ;.b -X-X-X-X-X-Xo.k p h h h s ' A -X-X-X",
"-X9 ' { }  .{ l k / ] -X-X-X-X9.8.a.m.M.g.2.I K K 4.d.v.N.V.V./.B.g.8.4.8.1.K K 4.4.4.2.2.x -X-X-X-X-X-X/ k l _  . .{ ' d -X-X-X",
"-X8 } =.-.-.+. ._ f j o.W ! L ,.d.m.`.`.m.d.,.K 1.g.B._.`.`.'.'._.B.g.g.g.4.K ,.a.x.x.d.1.I -X-X-X-X-X-Xh _  .+.*.-.&.{ 9 -X-X-X",
"-X8 } +.*.*.&.+.[ k s Q L.z.8.d.m.(.@X+Xn.d.,.K 0.B./.`.`.`.`.`.`.).m.b.g.2.K 2.b.V.V.N.a.0.s.-X-X-X-X-Xl { X.&.*.*.=.{ q -X-X-X",
"-X8 _ +.*.&.*.*.X._ s Z U 1.d.m./.}.&X&XQ.d.,.K d.).`.`.`.`.`.`.`.`.).m.g.2.K 4.V._.`./.b.d.4.z -X-X-X-Xk X.&.*.&.&.=. .p -X-X-X",
"-X-X-Xp } { [ [ ..] -X-XS 4.d.m.).}.@X@X(.b.4.K a.B./.`.`.`.'.`.`./.B.b.g.4.K ,.d.b.B.B.g.2.1.n -X-X-X-X] ..[ { _ {  ...-X-X-X-X",
"-X-X-X-X-X-X-X9 / -X-X-X-Xb d.m.).`.}.`.`./.d.K 5.g.N.).`.`.`.`._.N.x.g.g.4.K J K 1.a.f.1.J 1.n -X-X-X-X-X-Xh j a s d ` -X-X-X-X",
"-X-X-X-X-X-X-X-X-X-X-X-X-X-Xx x.B./.V.B.m.b.e.Y <.4.a.v.b.b.b.b.v.a.4.6.4.9.q.R R Y 4.2.K K 5.-X-X-X-X-X-X-X-X-X-X-X-X-X-X-X-X-X",
"-X-X-X-X-X-X-X-X-X-X-X-X-X-X-XJ v.v.b.g.2.1.r.A.w.K K ,.>.,.>.,.>.;.;.K K q.y.A.A.y.5.K G a.-X-X-X-X-X-X-X-X-X-X-X-X-X-X-X-X-X-X",
"-X-X-X-X-X-X-X-X-X-X-X-X-X-X-X-XL d.0.4.5.<.S.P.H.r.<.Y 5.r.z.z.j.9.Y U Y y.Y.Y.P.u.<.G H 0.-X-X-X-X-X-X-X-X-X-X-X-X-X-X-X-X-X-X",
"-X-X-X-X-X-X-X-X-X-X-X-X-X-X-X-X-X,.;.,.w.C.~.%X$XXXI.p.D.^.K.K.K.J.p.p.p.I.%XoXP.u.I ;.G S -X-X-X-X-X-X-X-X-X-X-X-X-X-X-X-X-X-X",
"-X-X-X-X-X-X-X-X-X-X-X-X-X-X-X-X-X-X,.Y u.P.oX=X=X=X%XP..XD.-X-X-XD.P.S.S.P.XXXXP.S.t.I -X-X-X-X-X-X-X-X-X-X-X-X-X-X-X-X-X-X-X-X",
"-X-X-X-X-X-X-X-X-X-X-X-X-X-X-X-X-X-XH.u.S.G.oX*X=X=XoXP.U.U.-X-X-XA.P.y.9.q.r.j.D.D.p.-X-X-X-X-X-X-X-X-X-X-X-X-X-X-X-X-X-X-X-X-X",
"-X-X-X-X-X-X-X-X-X-X-X-X-X-X-X-X-X-X-XD.S.D..X&X&X&X.XP.~.A.-X-X-XA.J.t.K G H Y u.I.~ -X-X-X-X-X-X-X-X-X-X-X-X-X-X-X-X-X-X-X-X-X",
"-X-X-X-X-X-X-X-X-X-X-X-X-X-X-X-X-X-X-Xt.9.! i.j.k.z.p.D.J.r.N D F A.D.w.K G G K Y t.! -X-X-X-X-X-X-X-X-X-X-X-X-X-X-X-X-X-X-X-X-X",
"-X-X-X-X-X-X-X-X-X-X-X-X-X-X-X6.2.,.H K J K J K K K ! p.u.<.6.6.0.y.S.w.I K K K K J ,.J G ,.3.K -X-X-X-X-X-X-X-X-X-X-X-X-X-X-X-X",
"-X-X-X-X-X-X-X-X-X-X-X-X-X-X* ;.1.6.d.g.g.d.d.d.l.k.H.k.r.K n G J t.k.j.g.f.f.f.d.d.d.g.d.1.;.;.D -X-X-X-X-X-X-X-X-X-X-X-X-X-X-X",
"-X-X-X-X-X-X-X-X-X-X-X-X-Xn n 1.a.x.Z.)./.)./.`.{.&X{.l.4.,.G H >.4.g.N./.)._.).)./.)./.b.d.,.;.1.x -X-X-X-X-X-X-X-X-X-X-X-X-X-X",
"-X-X-X-X-X-X-X-X-X-X-X-Xc 1.2.6.d.x.B.V././._.}.|.#X[.b.6.;.H ;.;.4.g.V.`.'.].`./.V.V.V.b.d.6.2.:.b -X-X-X-X-X-X-X-X-X-X-X-X-X-X",
"-X-X-X-X-X-X-X-X-X-X-X-Xb 3.a.f.g.x.g.x.g.b.B.`.'.}./.b.4.2.G G J 0.v.V.`.].`./.b.x.x.x.g.g.g.a.4.-X-X-X-X-X-X-X-X-X-X-X-X-X-X-X",
"-X-X-X-X-X-X-X-X-X-X-X-Xb 6.a.a.a.a.a.a.a.d.x.m.B.m.b.d.d.F -X-X-Xe.a.x.N.B.V.v.d.a.6.a.a.a.a.a.4.-X-X-X-X-X-X-X-X-X-X-X-X-X-X-X"
};
