/* XPM */
static char *result[] = {
/* columns rows colors chars-per-pixel */
"64 64 186 2 ",
"   c #723E1B",
".  c #74421E",
"X  c #79441F",
"o  c #764421",
"O  c #794623",
"+  c #7B4926",
"@  c #7E4C29",
"#  c #704B32",
"$  c #6D523E",
"%  c #755A48",
"&  c #814E2B",
"*  c #844D27",
"=  c #83512E",
"-  c #865431",
";  c #895733",
":  c #8B5936",
">  c #8D5C39",
",  c #84593C",
"<  c #925F3B",
"1  c #905B36",
"2  c #93613E",
"3  c #966441",
"4  c #996643",
"5  c #9A6845",
"6  c #9C6C4B",
"7  c #95684A",
"8  c #816554",
"9  c #986D54",
"0  c #9A7158",
"q  c #8A654C",
"w  c #A26F4B",
"e  c #A4714E",
"r  c #A67552",
"t  c #A97753",
"y  c #AC7956",
"u  c #A97858",
"i  c #B17F5C",
"p  c #997160",
"a  c #806E79",
"s  c #8E767D",
"d  c #9E7F7C",
"f  c #957976",
"g  c #A37C66",
"h  c #A07E77",
"j  c #B3815D",
"k  c #B8855F",
"l  c #9D817F",
"z  c #AB836F",
"x  c #B78561",
"c  c #B98663",
"v  c #BC8966",
"b  c #BB8B6A",
"n  c #BD987F",
"m  c #C1865E",
"M  c #C28E6B",
"N  c #C18B66",
"B  c #C3916E",
"V  c #C69471",
"C  c #C99673",
"Z  c #CC9A75",
"A  c #CF9C7A",
"S  c #D19F7B",
"D  c #D3A17E",
"F  c #666684",
"G  c #6C6C8A",
"H  c #6E6E94",
"J  c #727295",
"K  c #747499",
"L  c #7A799D",
"P  c #75758D",
"I  c #7B7BA2",
"U  c #7F7FA9",
"Y  c #957D83",
"T  c #9E8589",
"R  c #9E8487",
"E  c #9A8899",
"W  c #A38886",
"Q  c #BD9A81",
"!  c #B59687",
"~  c #A48D96",
"^  c #AC9697",
"/  c #BDA799",
"(  c #8383AD",
")  c #8D83A5",
"_  c #8484B2",
"`  c #8987B2",
"'  c #8B89B3",
"]  c #8686B9",
"[  c #8C8BBC",
"{  c #8887B8",
"}  c #948FB6",
"|  c #9292BC",
" . c #9A9ABE",
".. c #9A97B8",
"X. c #988BA0",
"o. c #A49BB5",
"O. c #A5A5BF",
"+. c #A9A5B8",
"@. c #B2A7B8",
"#. c #BEBABE",
"$. c #C09C83",
"%. c #C4A48D",
"&. c #D7A582",
"*. c #D9A683",
"=. c #DBA986",
"-. c #DEAC89",
";. c #CDAD94",
":. c #C1A895",
">. c #E1AE8C",
",. c #E2AC87",
"<. c #E3B18E",
"1. c #EBB58E",
"2. c #E6B591",
"3. c #E9B694",
"4. c #EBB996",
"5. c #EEBC99",
"6. c #F1BE9A",
"7. c #F3BD97",
"8. c #C7BCB4",
"9. c #C9BDB4",
"0. c #C6BDB8",
"q. c #F2C19E",
"w. c #CBC1BA",
"e. c #C5C0BF",
"r. c #F6C4A1",
"t. c #F9C7A4",
"y. c #FBC9A6",
"u. c #FECCA9",
"i. c #F6C8A5",
"p. c #FFD0AD",
"a. c #FFD2B0",
"s. c #8E8EC2",
"d. c #8F92C0",
"f. c #9393C4",
"g. c #9696C9",
"h. c #9A9ACC",
"j. c #9899C6",
"k. c #9E9ED1",
"l. c #A69EC1",
"z. c #A09ED2",
"x. c #9FA1D4",
"c. c #A5A2C3",
"v. c #ACACC2",
"b. c #A4A1CB",
"n. c #AAA6C9",
"m. c #AFB1C6",
"M. c #B1B1C4",
"N. c #BCBCC6",
"B. c #BFBEC9",
"V. c #A2A2D5",
"C. c #A6A6D9",
"Z. c #AAAADC",
"A. c #A8A7D9",
"S. c #B4B5D5",
"D. c #ACADE1",
"F. c #B4B4E6",
"G. c #B7B6E9",
"H. c #BABAEB",
"J. c #BFBFF1",
"K. c #C0BFF2",
"L. c #C4C4CA",
"P. c #CDCCCD",
"I. c #C8C7CA",
"U. c #D0CFCE",
"Y. c #CCCDD5",
"T. c #CCCED9",
"R. c #D0D0D2",
"E. c #DBD9D6",
"W. c #C5C6EC",
"Q. c #CFD0E8",
"!. c #C3C3F5",
"~. c #CECFF2",
"^. c #C6C6F8",
"/. c #CCCCFD",
"(. c #D0CFFF",
"). c #CFD0FF",
"_. c #D1D1FF",
"`. c #E5E5E4",
"'. c #E9E7E6",
"]. c #E9E8E7",
"[. c #E7E9E8",
"{. c #F4ECE7",
"}. c #F4EDE8",
"|. c #F7F7F7",
" X c #FEFEFE",
".X c None",
/* pixels */
".X.X.X.X.X.X.X.X.X.X.X.X.X.X.X.X.X.X.X.X.X* @ - - - > 2 2 : - - - - = + O + - = + .X.X.X.X.X.X.X.X.X.X.X.X.X.X.X.X.X.X.X.X.X.X.X",
".X.X.X.X.X.X.X.X.X.X.X.X.X.X.X.X.X.X.X.X.XO : 3 3 3 4 4 3 3 > @ @ : > = + - 2 - + @ .X.X.X.X.X.X.X.X.X.X.X.X.X.X.X.X.X.X.X.X.X.X",
".X.X.X.X.X.X.X.X.X.X.X.X.X.X.X.X.X.X.XX . + : 4 5 4 4 4 4 5 2 - = : : - = - : - - * + .X.X.X.X.X.X.X.X.X.X.X.X.X.X.X.X.X.X.X.X.X",
".X.X.X.X.X.X.X.X.X.X.X.X.X.X.X.X.X.X.X  O O : 4 4 4 3 4 4 3 3 3 > @ + : 2 ; + @ > > @ .X.X.X.X.X.X.X.X.X.X.X.X.X.X.X.X.X.X.X.X.X",
".X.X.X.X.X.X.X.X.X.X.X.X.X.X.X.X.X.X, . @ & - > 2 3 2 > < 2 2 < - + O @ > - @ - : - * .X.X.X.X.X.X.X.X.X.X.X.X.X.X.X.X.X.X.X.X.X",
".X.X.X.X.X.X.X.X.X.X.X.X.X.X.X.X.X, + O : < = @ > 3 : + = 3 2 = + O O O + - < : @ O X = .X.X.X.X.X.X.X.X.X.X.X.X.X.X.X.X.X.X.X.X",
".X.X.X.X.X.X.X.X.X.X.X.X.X.X.X.X.XO O @ : > @ o = > = O @ : : + o + @ + @ - < - O O + + .X.X.X.X.X.X.X.X.X.X.X.X.X.X.X.X.X.X.X.X",
".X.X.X.X.X.X.X.X.X.X.X.X.X.X.X.X.X+ ; ; - @ O o + @ O O O + + O O - < < > - @ + O @ : : * .X.X.X.X.X.X.X.X.X.X.X.X.X.X.X.X.X.X.X",
".X.X.X.X.X.X.X.X.X.X.X.X.X.X.X.X.X2 w 4 & . o O o o o o o   o o O - 3 3 2 - + O O + > : = .X.X.X.X.X.X.X.X.X.X.X.X.X.X.X.X.X.X.X",
".X.X.X.X.X.X.X.X.X.X.X.X.X.X.X.X$ B M j -     . . o o o o o o o O @ @ @ = - : = o o = @ @ .X.X.X.X.X.X.X.X.X.X.X.X.X.X.X.X.X.X.X",
".X.X.X.X.X.X.X.X.X.X.X.X.X.X.X.X8 1.<.Z 3 @ & @ O o o o o o o o o o O o O = > , @ O O X .X.X.X.X.X.X.X.X.X.X.X.X.X.X.X.X.X.X.X.X",
".X.X.X.X.X.X.X.X.X.X.X.X.X.X.X.X8 7.5.<.b y y r : o   o o o . o o o o o O + = > 5 2 + X + .X.X.X.X.X.X.X.X.X.X.X.X.X.X.X.X.X.X.X",
".X.X.X.X.X.X.X.X.X.X.X.X.X.X.X.X8 7.q.7.=.D &.A r @ O O O O + O O o o o O o O : y e = X o .X.X.X.X.X.X.X.X.X.X.X.X.X.X.X.X.X.X.X",
".X.X.X.X.X.X.X.X.X.X.X.X.X.X.X.X8 ,.V c j x &.2.Z i 2 O & 5 r w 6 @ O @ - - - > 3 3 : @ O .X.X.X.X.X.X.X.X.X.X.X.X.X.X.X.X.X.X.X",
".X.X.X.X.X.X.X.X.X.X.X.X.X.X.X.X8 Z 2 @ + > A t.i.4.x = < B &.S b 2 O ; 2 3 3 : @ = > 2 = .X.X.X.X.X.X.X.X.X.X.X.X.X.X.X.X.X.X.X",
".X.X.X.X.X.X.X.X.X.X.X.X.X.X.X.X% B e 6 6 u -.u.a.y.&.u x -.2.>.A 3 o @ : > : : : > 2 e 0 .X.X.X.X.X.X.X.X.X.X.X.X.X.X.X.X.X.X.X",
".X.X.X.X.X.X.X.X.X.X.X.X.X.X.X.X.XN -.5.3.5.r.u.u.u.r.5.5.r.6.2.C 2   o O O O : t t w .X.X.X.X.X.X.X.X.X.X.X.X.X.X.X.X.X.X.X.X.X",
".X.X.X.X.X.X.X.X.X.X.X.X.X.X.X.X.Xc 3.u.t.y.t.u.u.u.u.p.p.u.t.5.&.u : @ o @ : 3 t v g .X.X.X.X.X.X.X.X.X.X.X.X.X.X.X.X.X.X.X.X.X",
".X.X.X.X.X.X.X.X.X.X.X.X.X.X.X.X.Xm &.4.2.4.r.u.u.u.u.u.u.u.y.t.4.&.b 2 O 6 M x 2 0 .X.X.X.X.X.X.X.X.X.X.X.X.X.X.X.X.X.X.X.X.X.X",
".X.X.X.X.X.X.X.X.X.X.X.X.X.X.X.X.Xq C Z Z D 3.t.y.u.u.u.u.u.u.u.y.q.=.e O e C i : .X.X.X.X.X.X.X.X.X.X.X.X.X.X.X.X.X.X.X.X.X.X.X",
".X.X.X.X.X.X.X.X.X.X.X.X.X.X.X.X.X.X.X2 e i A 4.r.u.u.u.u.u.u.u.u.u.3.r O - < < 3 .X.X.X.X.X.X.X.X.X.X.X.X.X.X.X.X.X.X.X.X.X.X.X",
".X.X.X.X.X.X.X.X.X.X.X.X.X.X.X.X.X.X.X# 3 r b &.4.t.t.t.y.y.t.y.i.y.4.u O O O - 7 f .X.X.X.X.X.X.X.X.X.X.X.X.X.X.X.X.X.X.X.X.X.X",
".X.X.X.X.X.X.X.X.X.X.X.X.X.X.X.X.X.X.Xa ~ ~ z x S 3.5.4.4.4.3.4.3.-.S t - = - 9 W @....X.X.X.X.X.X.X.X.X.X.X.X.X.X.X.X.X.X.X.X.X",
".X.X.X.X.X.X.X.X.X.X.X.X.X.X.X.X.X.X.X} z.b.d 0 b &.*.*.&.&.*.*.&.V x r 7 7 7 d l.V.' K U .X.X.X.X.X.X.X.X.X.X.X.X.X.X.X.X.X.X.X",
".X.X.X.X.X.X.X.X.X.X.X.X.X.X.X.X.X.X.XC.Z.V.X.f g c v c c c k c x t r h W Y s E b.V.f.] s.[ .X.X.X.X.X.X.X.X.X.X.X.X.X.X.X.X.X.X",
".X.X.X.X.X.X.X.X.X.X.X.X.X.X.X.X.XF ` D.Z.V.f.) f 0 6 6 w w 6 6 6 4 0 ~ b.f.` f.V.V.f.] ] [ f.J .X.X.X.X.X.X.X.X.X.X.X.X.X.X.X.X",
".X.X.X.X.X.X.X.X.X.X.X.X.X.X.X.X.XD.x.h.k.h.h.j.E l d h h Y h Y d h T o.Z.V.g.g.k.k.V.V.V.x.f.g.P .X.X.X.X.X.X.X.X.X.X.X.X.X.X.X",
".X.X.X.X.X.X.X.X.X.X.X.X.X.X.X.X` V.f.[ [ [ h.V.A.b.z.l.c.b.b.l.l.b.l.A.Z.A.A.h.[ h.G.!.^.H.h.] f..X.X.X.X.X.X.X.X.X.X.X.X.X.X.X",
".X.X.X.X.X.X.X.X.X.X.X.X.X.X( C.V.k.h.h.h.h.k.x.V.V.C.D.D.D.D.D.D.D.D.Z.A.C.V.f.[ g.J./._.^.C.f.] K .X.X.X.X.X.X.X.X.X.X.X.X.X.X",
".X.X.X.X.X.X.X.X.X.X.X.X.X.XL s.s.k.F.J.J.G.k.| [ f.h.A.Z.D.Z.D.C.Z.Z.D.Z.k.s.[ [ h.J.(._.!.F.x.f.G .X.X.X.X.X.X.X.X.X.X.X.X.X.X",
".X.X.X.X.X.X.X.X.X.X.X.X.X.XI [ [ x.!._._.^.V.{ ] { f.z.C.V.V.V.V.V.V.V.z.f.[ { { g.F.!./.^.H.F.h..X.X.X.X.X.X.X.X.X.X.X.X.X.X.X",
".X.X.X.X.X.X.X.X.X.X.X.X.X.XL f.k.D.!././.!.k.[ ] ] [ s.s.s.s.f.s.s.f.s.s.s.] ] [ [ g.V.J./.^.!.V..X.X.X.X.X.X.X.X.X.X.X.X.X.X.X",
".X.X.X.X.X.X.X.X.X.X.X.X.X.XL h.C.G.^./.).!.x.] [ [ | [ } [ [ | | [ [ | | [ | [ { { ' j.H.)./.^.C..X.X.X.X.X.X.X.X.X.X.X.X.X.X.X",
".X.X.X.X.X.X.X.X.X.X.X.X.X.XI g.C.G.^././.!.x.'  .m.M.m.m.m.M.M.v.M.M.v.v.M.M.c.[ | O.S.W./.J.G.x..X.X.X.X.X.X.X.X.X.X.X.X.X.X.X",
".X.X.X.X.X.X.X.X.X.X.X.X.X.XI g.C.F.^.).).!.k.| @.I.U.P.P.U.P.P.R.P.U.U.R.U.P.M.|  .N.T.~.^.G.Z.h..X.X.X.X.X.X.X.X.X.X.X.X.X.X.X",
".X.X.X.X.X.X.X.X.X.X.X.X.X.XL g.C.F.^././.!.k.[ v.P.E.`.'.'.].`.].'.].].`.E.P.M.|  .N.T.~.^.H.Z.j..X.X.X.X.X.X.X.X.X.X.X.X.X.X.X",
".X.X.X.X.X.X.X.X.X.X.X.X.X.XI g.C.F.^.).).!.k.| v.P.`.|. X X X X X X X X|.`.R.m.|  .N.Y.~./.G.Z.j.F .X.X.X.X.X.X.X.X.X.X.X.X.X.X",
".X.X.X.X.X.X.X.X.X.X.X.X.X.XI g.C.G.^./.).!.k.[ O.P.`.|. X X X X X X X X X[.P.M.|  .N.Y.~.^.G.Z.h.F .X.X.X.X.X.X.X.X.X.X.X.X.X.X",
".X.X.X.X.X.X.X.X.X.X.X.X.X.XI g.Z.F.^./.).!.k.[ O.P.`.|. X X X X X X X X X`.U.M.|  .N.Y.~.^.G.Z.g.F .X.X.X.X.X.X.X.X.X.X.X.X.X.X",
".X.X.X.X.X.X.X.X.X.X.X.X.X.XL g.V.G.!.).).!.k.[ v.I.`.|. X X X X X X X X X[.U.M.|  .N.Y.~.^.G.Z.h.F .X.X.X.X.X.X.X.X.X.X.X.X.X.X",
".X.X.X.X.X.X.X.X.X.X.X.X.X.XI g.C.F.^./.).!.V.[ v.P.`.|. X X X X X X X X X`.P.M.|  .N.Y.~.^.G.Z.h.F .X.X.X.X.X.X.X.X.X.X.X.X.X.X",
".X.X.X.X.X.X.X.X.X.X.X.X.X.XI g.C.G.^././.!.h.| c.I.`.|. X X X X X X X X X[.U.m.|  .N.Y.~./.G.Z.g.F .X.X.X.X.X.X.X.X.X.X.X.X.X.X",
".X.X.X.X.X.X.X.X.X.X.X.X.X.XK h.Z.G.^._._.!.x.[ v.Y.`. X X X X X X X X X X[.Y.m.| j.N.Y.~.^.H.Z.h.K .X.X.X.X.X.X.X.X.X.X.X.X.X.X",
".X.X.X.X.X.X.X.X.X.X.X.X.X.X.X( A.Z.!.^./.!.h.| +.0.E.'.}.{.}.}.{.{.{.}.{.E.w.@.} ..N.Y.~.^.F.V.g.I .X.X.X.X.X.X.X.X.X.X.X.X.X.X",
".X.X.X.X.X.X.X.X.X.X.X.X.X.X.X.X` Z.Z.H.^.!.V.[ ~ Q :.;.;.;.;.;.;.;.;.;.;.%.$.! l / 0.Y.~.^.C.d.s._ .X.X.X.X.X.X.X.X.X.X.X.X.X.X",
".X.X.X.X.X.X.X.X.X.X.X.X.X.X.X.X.X[ A.F.!.!.V.' T c v v b v v v v v v v v b N c c Z 8.T.~.!.x.[ ( G .X.X.X.X.X.X.X.X.X.X.X.X.X.X",
".X.X.X.X.X.X.X.X.X.X.X.X.X.X.X.X.X.Xf.V.K.!.x.` T b A =.>.>.-.<.>.>.>.>.>.>.>.D b Q w.T.~.^.x.[ .X.X.X.X.X.X.X.X.X.X.X.X.X.X.X.X",
".X.X.X.X.X.X.X.X.X.X.X.X.X.X.X.X.X.X.Xf.!.!.V.' R b D r.y.t.y.y.u.t.t.t.y.y.y.>.b Q 8.T.~.^.V.` .X.X.X.X.X.X.X.X.X.X.X.X.X.X.X.X",
".X.X.X.X.X.X.X.X.X.X.X.X.X.X.X.X.X.X.X.XS.Z.g.` T b &.i.t.<.3.y.y.3.<.q.u.q.>.S b n 8.T.~.^.C.U .X.X.X.X.X.X.X.X.X.X.X.X.X.X.X.X",
".X.X.X.X.X.X.X.X.X.X.X.X.X.X.X.X.X.X.X.X.Xg.s.' T b *.r.4.C Z 5.q.D B <.t.>.B v c Q 8.T.~.^.C.I .X.X.X.X.X.X.X.X.X.X.X.X.X.X.X.X",
".X.X.X.X.X.X.X.X.X.X.X.X.X.X.X.X.X.X.X.X.X[ | o.! b A >.D N M =.>.B c D >.S v j x $.0.T.~.^.C.K .X.X.X.X.X.X.X.X.X.X.X.X.X.X.X.X",
".X.X.X.X.X.X.X.X.X.X.X.X.X.X.X.X.X.X.X.X.Xf.m.#./ b v M b v c B B v v M B b c x c Q 0.T.~.^.V.H .X.X.X.X.X.X.X.X.X.X.X.X.X.X.X.X",
".X.X.X.X.X.X.X.X.X.X.X.X.X.X.X.X.X.X.X.X.X| c.N./ ! n n n $.n n n Q Q Q n Z ! Q Q :.w.Y.Q.W.z..X.X.X.X.X.X.X.X.X.X.X.X.X.X.X.X.X",
".X.X.X.X.X.X.X.X.X.X.X.X.X.X.X.X.X.X.X.X.X.X.X .@.0.9.9.9.9.9.w.9.9.9.9.8.8.0.8.0.9.P.P.Y.T.O..X.X.X.X.X.X.X.X.X.X.X.X.X.X.X.X.X",
".X.X.X.X.X.X.X.X.X.X.X.X.X.X.X.X.X.X.X.X.X.X.XL m.P.P.P.I.L.B.L.L.I.P.P.P.P.P.P.P.I.L.B.B.N. ..X.X.X.X.X.X.X.X.X.X.X.X.X.X.X.X.X",
".X.X.X.X.X.X.X.X.X.X.X.X.X.X.X.X.X.X.X.X.X.X.X` v.P.Y.P.B.O.j. .O.B.U.P.P.U.P.U.P.L.O. .O. .[ .X.X.X.X.X.X.X.X.X.X.X.X.X.X.X.X.X",
".X.X.X.X.X.X.X.X.X.X.X.X.X.X.X.X.X.X.X.X.X.X.X[ v.L.I.I.v.[ _ ] | m.I.I.I.L.L.I.L.M.| ] ] ] s.F .X.X.X.X.X.X.X.X.X.X.X.X.X.X.X.X",
".X.X.X.X.X.X.X.X.X.X.X.X.X.X.X.X.X.X.X.X.X.X.X_  .c.c.c. .[ ] ] [  .c.c.O.c.O.O.O. .[ { ] { s._ .X.X.X.X.X.X.X.X.X.X.X.X.X.X.X.X",
".X.X.X.X.X.X.X.X.X.X.X.X.X.X.X.X.X.X.X.X.X.X.X_ [ [ [ [ [ [ [ [ ] ] ] ] ] ] ] [ [ [ [ [ s.[ { s.( .X.X.X.X.X.X.X.X.X.X.X.X.X.X.X",
".X.X.X.X.X.X.X.X.X.X.X.X.X.X.X.X.X.X.X.X.X.X.X( h.C.C.C.Z.C.Z.Z.V.f.{ ] ] s.f.h.V.A.Z.Z.Z.C.k.h.f..X.X.X.X.X.X.X.X.X.X.X.X.X.X.X",
".X.X.X.X.X.X.X.X.X.X.X.X.X.X.X.X.X.X.XU U U I ] C.!.^.!.!.!.^.^.J.h.] ] [ j.V.F.!.^.^.!.^.!.F.C.g.J .X.X.X.X.X.X.X.X.X.X.X.X.X.X",
".X.X.X.X.X.X.X.X.X.X.X.X.X.X.X.X.X.X.X[ f.g.j.h.Z.J.J.J.J.!.!.!.G.h.] ] [ h.Z.F.H.!.!.K.K.J.F.Z.h.[ .X.X.X.X.X.X.X.X.X.X.X.X.X.X",
".X.X.X.X.X.X.X.X.X.X.X.X.X.X.X.X.X.X.Xs.k.C.C.C.D.D.D.D.Z.Z.F.D.C.g.] ] ] h.V.D.Z.D.D.D.D.D.D.Z.g.g..X.X.X.X.X.X.X.X.X.X.X.X.X.X",
".X.X.X.X.X.X.X.X.X.X.X.X.X.X.X.X.X.X.Xd.x.V.V.V.V.x.x.x.V.x.V.x.x.f.] s.s.h.V.V.V.V.V.V.V.V.V.V.g.f..X.X.X.X.X.X.X.X.X.X.X.X.X.X"
};
