/* XPM */
static char *result[] = {
/* columns rows colors chars-per-pixel */
"72 72 219 2 ",
"   c #353535",
".  c #3D3D3D",
"X  c gray18",
"o  c #75421D",
"O  c #79441D",
"+  c #4A433E",
"@  c #59473A",
"#  c #6B462B",
"$  c #6E482D",
"%  c #754523",
"&  c #794624",
"*  c #7B4926",
"=  c #7D4C2A",
"-  c #764829",
";  c #674C38",
":  c #754D33",
">  c #7B533A",
",  c #444444",
"<  c #4D4641",
"1  c #4C4C4C",
"2  c #4C4846",
"3  c #554C47",
"4  c #5C534C",
"5  c #54514F",
"6  c #4D4D51",
"7  c #4D4D59",
"8  c #535353",
"9  c #5C5652",
"0  c #53535C",
"q  c #5B5B5B",
"w  c #665448",
"e  c #7D5843",
"r  c #6B5C52",
"t  c #625D5B",
"y  c #655B55",
"u  c #6A615A",
"i  c #5B5B63",
"p  c #5E5E6A",
"a  c #565663",
"s  c #5D5D70",
"d  c #605F60",
"f  c #646464",
"g  c #63636D",
"h  c #6A6A6A",
"j  c #6A6662",
"k  c #756C67",
"l  c #7C726D",
"z  c #646372",
"x  c #6B6B74",
"c  c #6D6C7B",
"v  c #66667C",
"b  c #747474",
"n  c #76747A",
"m  c #80471E",
"M  c #814F2C",
"N  c #83512E",
"B  c #865431",
"V  c #895634",
"C  c #8B5936",
"Z  c #8E5C39",
"A  c #85583C",
"S  c #915F3C",
"D  c #92613E",
"F  c #875E47",
"G  c #976340",
"H  c #856757",
"J  c #886B64",
"K  c #877369",
"L  c #967A69",
"P  c #8B6E71",
"I  c #8A7074",
"U  c #867979",
"Y  c #977F7C",
"T  c #A07D68",
"R  c #96847D",
"E  c #B98A69",
"W  c #BE9272",
"Q  c #B2917A",
"!  c #BC8F71",
"~  c #C5936E",
"^  c #C99672",
"/  c #C79875",
"(  c #CA9671",
")  c #D8A27C",
"_  c #6C6C86",
"`  c #72728D",
"'  c #767585",
"]  c #75759C",
"[  c #79799D",
"{  c #787794",
"}  c #7B7BA2",
"|  c #7B7CA5",
" . c #8D7D85",
".. c #85798A",
"X. c #867E92",
"o. c #89898C",
"O. c #888797",
"+. c #948694",
"@. c #B69985",
"#. c #B4A097",
"$. c #8282AD",
"%. c #8282A4",
"&. c #8485B6",
"*. c #8687B9",
"=. c #8788B9",
"-. c #8B8BBC",
";. c #8B8AB6",
":. c #918FBB",
">. c #9292BC",
",. c #9A97B9",
"<. c #9492AD",
"1. c #A19BA6",
"2. c #A6A6AA",
"3. c #A7A7B7",
"4. c #B4B3B8",
"5. c #BBAFAA",
"6. c #C59F83",
"7. c #C2A189",
"8. c #D8A886",
"9. c #DCB497",
"0. c #C6AB9A",
"q. c #E3AC85",
"w. c #E8B693",
"e. c #EDBA96",
"r. c #EEBC99",
"t. c #E6B491",
"y. c #F1BE9B",
"u. c #E2B08E",
"i. c #D0BCAF",
"p. c #E6BEA1",
"a. c #F7C29C",
"s. c #DEC9B9",
"d. c #D7C8BE",
"f. c #CEC5BF",
"g. c #FFCDAA",
"h. c #F9C7A4",
"j. c #FFD0AD",
"k. c #EFC2A2",
"l. c #8E8EC1",
"z. c #918FC1",
"x. c #8F90C5",
"c. c #9292C4",
"v. c #9C9BC3",
"b. c #9696C9",
"n. c #9897C9",
"m. c #9B9ACC",
"M. c #9898C8",
"N. c #9E9ED1",
"B. c #A39DC5",
"V. c #A09ECC",
"C. c #A09FD1",
"Z. c #9EA0D3",
"A. c #9FA0C8",
"S. c #A4A3C2",
"D. c #ADADC3",
"F. c #A3A3CD",
"G. c #ACABCE",
"H. c #B0AFC3",
"J. c #B3B3C4",
"K. c #BCBBC5",
"L. c #B4B4CC",
"P. c #BDBCCC",
"I. c #A2A2D4",
"U. c #ABABD3",
"Y. c #A6A6D9",
"T. c #A8A7D9",
"R. c #A7A8D9",
"E. c #AAAADC",
"W. c #B7B6D7",
"Q. c #ADAEE1",
"!. c #A7A8E0",
"~. c #B3B3E4",
"^. c #B6B6E9",
"/. c #B8B7E9",
"(. c #BBBAEC",
"). c #B9BAE6",
"_. c #BEBEF1",
"`. c #B0B0E2",
"'. c #C0BFF2",
"]. c #C3C3CA",
"[. c #CACACC",
"{. c #C5C4C5",
"}. c #D7CBC3",
"|. c #D3D1CD",
" X c #C5C5DC",
".X c #CAC9D5",
"XX c #D4D4D4",
"oX c #DBDBDC",
"OX c #D7D7DA",
"+X c #D0CFD5",
"@X c #E2DEDB",
"#X c #E0E0DE",
"$X c #CACAE6",
"%X c #CCCCED",
"&X c #C3C2E8",
"*X c #DDDDE1",
"=X c #D7D7EA",
"-X c #C3C2F4",
";X c #C7C6F9",
":X c #CCCCFD",
">X c #CACAF7",
",X c #D4D5F4",
"<X c #D4D4FE",
"1X c #DCDCFE",
"2X c #DBDBF3",
"3X c #D0CFFF",
"4X c #E2E2E2",
"5X c #EBEBEC",
"6X c #E6E6E8",
"7X c #F1EFED",
"8X c #E4E4FC",
"9X c #ECECFC",
"0X c #E6E6F6",
"qX c #F5F5F5",
"wX c #FAF7F4",
"eX c #F3F3FC",
"rX c #FDFDFE",
"tX c #FAF8F7",
"yX c #F0F1F4",
/* pixels */
"1 8 8 q 8 8 8 8 8 q d f q q 8 8 8 , 2 , . , 8 4 = % - = V V > B B V B B V V > * % = > N & @ 1 d q 5 5 8 8 8 8 8 8 8 f f d f q 8 8 q f f q q 1 8 ",
", , 1 q q 8 1 1 q f j f q 6 , , 2 1 1 , , 2 9 e C & - C Z V * = Z G V - = Z D = O N S Z = # @ t q 1 8 8 q q 1 1 8 d f f d d q 8 1 8 q q 8 1 8 1 ",
"1 1 1 8 8 8 6 6 8 d f q 1 , , 1 6 6 2 , 2 $ > Z C = = C C V = N C Z B = N Z Z N = V C C N * O : 8 1 8 8 8 8 1 8 q h h h f f f q 8 8 8 8 1 1 1 1 ",
"8 q d 1 1 q f q 1 1 1 1 , . 2 q d 1 , , , # O * N Z Z N * V Z C = = B Z C = = V S V = = C C V $ 8 8 q 8 1 1 8 d h f h h h h h f q q 8 8 q q 8 1 ",
"8 q q 2 , 0 f q 1 , , . . , 1 q q 8 1 , , # O & N D Z N & B D C = O N D C = * C D V = = C D V : 8 8 q 8 , 1 q f f q f f f f f f q 8 1 , q q 8 1 ",
"2 1 1 , , 1 6 , , , . , 1 q q 8 8 q 8 6 1 # M C V N N V V B N N V V V N N V V V B B V V B N N V r 5 8 8 8 q 8 8 8 8 1 1 1 1 8 1 8 1 . , 1 8 8 8 ",
", , , , , , , , , . . 1 8 d q 8 1 q 4 w @ $ V D C & * V D V & = Z D N O = Z Z N O B D D = O N D D ; 2 8 q q 8 , , , , , , , . , 1 , , . . 1 8 6 ",
"1 1 2 . , 1 6 2 , 2 2 8 q 8 8 8 5 8 4 * = B V C V N N V V V N N V C B N N C V V = B V C B N V C N = @ 8 8 8 1 , , . 1 8 1 1 , , 1 1 1 . , , 1 , ",
"8 q q , , 8 q q 1 1 q q 8 1 1 8 q q 3 = C S N = M S S M * V S S = * V Z C = = C D C = = C D V = & % + 1 1 1 1 , , . 1 d q 1 , 8 q q 1 , . , 1 . ",
"q q 8 8 8 q q q 1 , 8 q 8 8 6 q q q < = C S N = B S C M M M C S N * V D C = = C Z B = = C S V * & $ + , , , , 1 1 1 8 q q 1 1 q h q 8 1 2 6 6 . ",
"8 1 1 8 f f q q , , 1 6 8 q q 8 8 8 4 - = M V C V M M V V V M M V C V = N C C B M N V C V = B C B - + , . , . 1 8 q 8 1 1 8 q f f f q q 8 q 8 , ",
"8 8 6 q h h f q 1 1 . , 8 q q 1 1 8 y - % * V D C * M V S V * * Z D N * = S S = O M Z D N O M D Z = + , , , , 1 8 f q 1 1 q h f f f h f h f q , ",
"8 8 q f f h f q q 1 , , 1 8 8 8 8 i y - M V V V V B B B V B B B V V V N B V V V B B B B B N B C = = 5 1 1 1 1 q q 8 8 8 8 f h h f h h h h f q , ",
"8 q f f f f f h f q 1 , , 1 8 q d f r = Z S M * M S S M * M S C = & V D C * * V D C = * C D C O * * 9 8 1 1 q q q 1 8 q d f h h f h h h h f 8 , ",
"8 q d f f f f h h f 8 , , 1 8 f h h t = C C M M B Z C M M B C V = = V Z C = = V Z V M M C Z B = = O ; 8 1 1 8 q 8 1 8 q q f h h f f f f h f 8 , ",
"8 1 8 q h f f f h f 8 1 1 8 q h j h u : * M V C V M M V Z V M M C Z V = N C Z V = N Z C N * B Z C O ; 1 , 1 1 1 8 q 8 8 8 q f h h f f h h f q , ",
"8 1 1 8 f f f h h u 8 1 6 q h f f h f 9 $ * C D V * * C G B & M Z D N * M S D N * N S S M & B G S > + , , , , 1 6 f 8 , 8 q h h f f f f f u 8 1 ",
"8 8 8 8 8 d f h h f 1 . 6 h h h f f d q ; $ = B B B B B B B B B V B B B B B B B V V N N N N > > 4 q 5 1 , , 1 8 8 8 8 8 q f h f f f f i q 6 . , ",
"d q 8 8 8 8 q h h q 6 2 8 f h f f f d q 4 ; o * N S S M & B S S M O B D C M & V D V = = C D B 3 1 q f 8 1 1 q q 8 1 8 q f f f h h f f q q 1 . , ",
"8 q 8 q 8 8 8 f f d 6 , 1 8 d h f d q 1 , 2 ; - M C C N M B C V N M B C V M M V Z V M N C D r 5 8 q q 8 , 1 q q 8 6 8 8 q q f h f f t q 1 , , , ",
", 1 z z h p i p x x i 0 0 a 8 f h q 6 , , , 3 ; o M M C S B M M C Z N = M C Z N M N S C M S k d 8 1 1 , , , 1 i g h p i g x c c c g p a . , 1 1 ",
". 0 Z.-.-.>.x.x.x.>.x.x.l.M.p 8 q 8 , , 1 1 2 + O o * V S B & M S S N & M S D N & M S S * V Y j q h 7 , , , 1 $.x.x.x.x.>.x.x.>.l.l.l.v.x , 6 5 ",
"1 a Q.m.Z.R.`.`.Q.`.`.Q.Z.Z.M.c 1 , , 2 8 q 1 @ M N V B N B V V N N V V B N N V V V N M O -  .1.<.v.;.f 1 , 1 >.Q.`.`.`.`.`.Q.R.m.n.m.Y.S.6 8 8 ",
"` >.E.R.E.(.>X>X:X;X:X;X(.Q.R.>._ v v 8 q q 1 @ N S Z M & B S S = & V D C = = V D V = o % * J x.Z.R.R.c._ _ %.Q._.;X:X>X;X:X;X).R.Y.E.Y.N.0 8 6 ",
"Z.E.Q.~.(.-X:X:X:X:X1X1X,X%X&XE.Z.Z.Z.v 8 0 6 4 H S B * % M B B N N B C B N N V V M & - F J ..X.c.Z.Q.Z.Z.E.^.(.-X:X:X:X:X1X1X,X%X&XW.Y.I.$.0 1 ",
"Z.R.~._.;X;X:X:X:X<X9XeXeXeX0X>X_.~.R.R.z 1 q O. .> o o o o & M C S B = M Z S N O o o F  .c.c.;.c.Z.Q.^._.-X;X;X:X:X:X:X<X9XeXeXeX2X).Y.I.Q.Y.7 ",
"R.Q.(.;X3X:X:X:X:X<X8XeXrXrXeX1X:X(.E.Z.c.&.b.R.<.H > > F - - * C Z M o = C S A F A > H <.T.C.x.c.M.R.(.:X3X:X:X:X:X:X:X<X9XeXrXrXyX&XQ.E.I.C.} ",
"Q._.;X>X:X:X:X:X;X:X1X1X9XrXeX1X;X(.E.Z.-.x.Z.E.:...U +.X.J = o = M O O O M A J X.X.U X.c.E.T.C.M.b.b.~.:X3X:X:X:X:X:X;X:X1X1X9XrX9X<X_.T.M.c.] ",
"~.>X:X:X:X:X:X:X:X:X:X3X8XeX9X,X;X).E.m.-.-.m.R.n.-.-.N.I. .> - : = : - - = e +.T.N.-.-.m.Y.Y.Y.Z.>.l.E.-X:X:X:X:X:X:X:X:X:X:X8XrX9X<X_.I.-.=.] ",
"Z.).-X;X:X:X3X:X3X:X:X:X,X,X,X&X(.R.m.x.-.-.x.b.n.n.N.Y.E.<.U P P I I I I P  .,.R.Y.N.b.m.m.m.m.m.M.M.Z.E.).;X:X:X:X:X:X:X:X:X1X8X2X&XE.I.M.c.] ",
"M.E.).;X3X:X:X3X:X:X:X:X_.~.`.`.!.N.-.-.=.-.-.-.b.C.T.R.E.U.F.B.B.B.V.B.B.B.V.T.U.R.Y.I.c.-.-.-.c.Z.Y.M.x.Z._.:X:X:X:X:X:X:X:X:X<X&XZ.c.m.I.Z.] ",
">.N.R.(.-X-X-X-X-X-X;X_.^.E.R.E.R.b.=.=.=.=.&.=.x.m.Y.Y.E.E.E.Q.Q.Q.Q.Q.Q.Q.E.`.~.E.I.m.b.x.>.x.c.m.Z.b.>.Z.`.(.(.(.(.(.(.(.(.(.(.E.m.x.M.Y.Q.[ ",
"-.l.m.Q.^.~.~.~.~.~.~.~.Q.E.E.E.Y.m.-.*.*.&.-.&.-.-.b.I.E.E.E.E.E.E.E.E.T.T.Q.(.-XE.m.c.m.I.Z.I.m.c.c.M.C.N.m.m.m.b.M.M.n.n.m.m.m.m.Z.Z.b.c.%.1 ",
"*.l.l.N.Y.Y.E.E.E.E.R.R.E.E.E.R.I.b.-.*.-.-.-.-.-.-.-.m.E.E.E.E.E.E.E.E.Q.E.`.'.;XQ.l.-.I.E.Q.E.I.c.-.m.Y.C.l.*.-.*.-.*.=.=.=.-.=.l.Z.R.Z.7 , , ",
"i | l.l.m.I.E.E.E.E.E.E.E.E.I.V.M.c.-.-.c.m.m.m.c.-.l.N.E.E.E.E.E.E.`.(._._.(.(.(.I.-.c.E.(.~.E.I.m.M.M.M.n.b.m.m.m.m.m.m.n.n.m.M.m.b.Z.W.8 2 2 ",
", a b.-.-.m.R.E.Q.E.Q.E.E.E.I.x.=.*.&.c.Z.R.R.I.m.-.-.N.E.E.E.E.E.Q.(.:X:X:X-X(.R.m.-.b.~.:X(.E.R.E.Y.b.-.c.I.E.T.R.R.R.R.E.R.E.E.Z.l.M.O.1 1 1 ",
", i F.-.*.b.m.N.Z.N.Z.Z.Z.Z.M.l.*.-.c.m.R.E.^.^.E.N.m.m.I.I.N.I.N.I.E./././.~.T.C.m.m.I.(.:X-X^.~.Q.R.N.c.b.m.I.I.I.I.I.I.N.Z.I.Z.m.A.O.1 8 8 1 ",
"8 x W.>.&.-.l.l.l.l.l.-.l.l.l.=.-.b.I.I.I.E.(.-X-X_.^.m.-.-.-.-.l.l.c.c.b.c.c.l.l.N.^.-X-X:X:X-X(.~.E.I.I.m.c.-.-.l.l.-.l.l.l.l.l.v.P.h 8 8 8 8 ",
"q b +Xv.>.>.>.>.>.>.>.:.>.>.>.=.=.m.R.E.E.~.-X:X:X:X-XT.c.c.c.l.-.*.*.*.-.:.l.l.c.T.-X:X<X<X<X:X-X~.Y.Y.Y.m.v.:.>.>.>.>.>.>.>.-.-.D.1.1 8 q 8 1 ",
"q x OXK.D.D.D.H.D.H.H.H.D.J.S.>.*.m.R.~.(.-X;X:X:X<X-X(.E.~.~.I.c.*.*.*.c.T.~.~.`.(.:X3X8X8X1X<X-X^.E.N.b.v.D.D.H.H.D.J.D.D.D.D.D.].o.8 9 8 8 1 ",
"1 h oX[.[.[.[.[.[.[.[.[.[.[.].U.b.M.Y.^.-X:X:X:X:X:X:X:X:X:X:X^.m.*.*.*.m.(.:X:X:X:X:X1X9XeX9X:X-X~.I.b.=.,.K.[.[.[.[.[.[.[.[.[.[.oXo.q 8 6 8 1 ",
"6 k 4XoX4X4X4X*X4X4X4X*XXXXXo.q ' U.N.I.^.-X-X:X:X:X:X:X:X:X:X(.m.&.*.*.m._.<X:X:X<X1X8XeXrX8X-X~.I.m.l.=.S.K.XXOX#X4X*X*X4X*X4X#X#X[.d 8 8 8 8 ",
"q b 5X5XtXtXqXqXqXqXtXqX6XK.5 q f 3.b.c.I.~.-X:X:X:X:X:X:X:X:X(.m.*.*.;.m._.3X:X3X1XeXtXrXrX2X).Z.b.=.=.=.v.K.XX6XwXtXwXwXtXtXqXqX5X5Xf 8 q f 8 ",
"q b 5XqXrXrXrXrXrXrXtX7X4X[.h 9 q f X.A.I.Y.~.-X:X:X:X:X:X:X:X^.M.=.*.&.m./.;X:X:X1X9XeXeX0X$XR.m.Z.F.F.G.L.].XX4XqXtXrXrXrXrXrXrXyX5Xh q d h q ",
"d n 5XwXrXrXrXrXrXrX6X@XoXK.f 8 5 q h <.U.c.Y.~._.:X:X3X:X-X(.R.c.*.&.&.b.E.(.-X:X<X1X1X%X&XU.n.F.P.J.J.4.4.J.XXOXoX5XrXrXrXrXrXrXyX5Xh d f h q ",
"f n 5X7XtXtXtXtXwX7X@X4.2.o.q 1 2 q d 2.U.-.m.Y.~.-X;X;X-X(.E.m.c.-.-.-.c.C.E.(.-X:X;X-X~.I.m.=.U.K.h b h u d 2.OX[.oX7XtXtXtXtXqX7X5Xh f f f q ",
"d b #Xd.s.s.s.s.s.d.d.8 2 8 q 8 8 q o.&XV.b.b.m.I.E.E.~.E.I.m.b.b.b.b.m.M.M.m.T.E.`.E.R.C.b.l.*.v.3.h d 8 8 8 8 5.XXf.d.s.s.s.s.s.d.#Xh d f f q ",
"q b }.7.W W W ~ / @.5.1 , , 6 q f f %.m.I.I.c.-.-.-.c.-.c.-.-.c.m.T.I.R.m.c.-.-.l.l.c.-.-.-.-.*.-.$.z 8 1 8 q d q 4.i.@.W W W ~ W / |.d q d f q ",
"6 h k./ ~ ~ ~ ~ E W 0.b , . 1 q f X.=.b.E.`.m.c.=.=.&.=.-.c.b.Z.E.^.^.^.R.M.-.>.>.=.=.=.-.-.>.x.-.l._ 1 , 1 8 q 6 U 9.W ~ W ~ ( ~ / s.q 1 q d 8 ",
"1 r 9.9.e.a.e.u.8./ W @.5 , 2 1 8 >.Z.E.(._.Q.Z.M.=.-.M.I.E.^.(._.-X-X-X^.Y.N.Z.N.M.-.-.M.N.Z.Z.m.b.v , , , 1 2 + l 7.) ) t.k.a.k.8.) 4 1 1 1 , ",
"2 w ) k.j.j.j.a.w.8.~ E @.o.O.O.[ >.E.(.:X>X(.E.m.-.-.Z.`.(.:X:X:X:X:X3X-X~.E.`.E.m.-.x.I.Q.Q.Q.I.x.-.n , . , 2 , H ) ) w.a.h.j.j.a.) 4 , , . , ",
"1 r ) e.g.g.g.a.a.u.^ E #..X&XR.m.E.(.>X8X8X&XE.m.-.x.E._.-X:X:X:X:X:X:X;X'./.~.E.m.-.c.E._._.(.~.I.I.U., 2 6 6 6 H ) t.a.h.j.h.h.k.) @ , , , , ",
"q u ) a.j.h.h.g.g.r.) ! +.,.M.F.E./.;X1XeXqX$XE.m.-.c.^.:X:X:X:X:X:X:X:X:X:X-X/.R.N.-.c.~.:X:X:X-X`.I.N.z 6 q q 8 H ) e.j.j.g.h.g.k.) 5 , , , , ",
"8 9 f L a.a.a.a.e.r.9.U U { x.Z.Q._.:X<X9X9X>X^.I.>.c.E.-X-X:X:X:X:X:X3X;X-X(.~.R.m.-.x.R.^.(._.^.R.m.b.$.0 q q 8 u k.a.w.w.w.w.u.k./ 8 , , 1 1 ",
", 1 8 q u 9 4 y T / b h h h %.N.`.(.:X3X<X<X3X;XQ.x.-.I.~._.:X:X:X:X3X3X;X/.Q.Q.E.N.-.=.l.b.Z.`.E.M.-.c.} 8 8 1 8 d l L ~ ( ^ ^ ( k.b q 1 , 1 8 ",
"+ , 1 q q 1 2 8 d h f f d d u _ E./.-X;X;X-X-X'.Q.M.>.m.Y.W._._.-X-X-X-X/.R.Z.Y.I.m.,.>.>.>.v.Z.m.l.-.m.{ 8 2 , 1 f q 3 u R Q K u j h q 1 1 1 1 ",
", , 1 1 8 8 8 8 6 1 1 1 1 6 8 1 ` Q.^.^.^.~.R.I.F.H.D.A.c.m.Z.Z.Z.Z.I.Z.N.M.c.c.b.A.D.H.H.H.S.b.c.=.m.c 8 1 , . , 8 q 8 8 q h h f q q 8 1 , , 1 ",
". 2 , . 1 d h 8 1 2 , 1 , 1 1 , 1 ` Q.!.!.Y.b.-.S.].P.S.-.=.>.:.-.>.-.>.-.-.-.-.-.3.P.[.[.].D.-.=.=.Z.6 , , , , , , 8 q f f f f f q 6 , , , . , ",
", , , . , 8 q 8 , . , , 1 1 1 , . 2 %.R.N.m.v.S.P.oXoX XW.G.S.S.L.$X$X$XW.S.S.S.D.P.oX#XXX[.D.-.&.l.Z.n 8 1 , , , , 8 f h h f f f f q 8 , , , . ",
"1 2 , , , , 2 1 2 . . , 5 q q 1 . 1 p c.l.>.D.K.XXyXqX9X5XoX].+X=X4.3.2.P.[.].P.{.OXyX7X#X[.D.=.=.] p q f q , , , , 8 d f h f f f f f q 1 1 , X ",
"1 1 6 8 1 1 , , 2 , 1 1 q d q 6 1 8 h x v.v.J.[.4XtXrXrXrX5X|.4X|.q q 6 h 5X[.{.].+X6X2XOX[.J.F.` 1 8 8 d q 8 , , , 8 d f f f f h f f q 8 8 , . ",
"1 8 q q 8 1 . . . , 8 q q 8 8 8 q d h h ].K.{.[.#XtXrXrXrX5X+XoX6X1 8 q f 6X].4.A.S.G.L.].[.[.3.7 q q q 1 8 q 8 1 , 8 f h h f h f q 8 1 q q 8 , ",
"8 q h h q 1 , , , , q q 8 1 1 q h f h h o.[.].[.OXyXrXrXqX4X+X*X|.1 8 d h 4XP.S.-.=.&.>.J.[.*Xh 1 q d 8 1 8 d q 8 1 1 q f h h h h q 8 , 8 f q 6 ",
"f f h h f 1 1 6 8 8 8 8 8 8 q f h h g h n H.D.D.L. X X X$X[.[.[.K.g x b O.XX].S.=.&.=.>.v.D.L.' 1 1 q 8 8 q 8 1 , 1 , 8 q f f h h q 8 8 8 8 1 , ",
"h f f h f 6 1 1 d q 1 1 1 f h f ` %.[ [ } ;.=.:.=.-.-.-.c.D.].K.S.I.I.N.U.].].S.-.&.*.*.*.-.=.c._ s _ { _ q 5 , . 1 , 1 8 q f h h f f d 1 1 +   ",
"h f f h f 1 , 1 q q 8 1 1 q d f | x.>.c.b.m.M.m.b.b.b.v.S.L.P.K.>.&.&.&.,.L.P.G.m.m.m.M.b.b.M.M.C.N.l.-.x.' 1 1 1 1 , 6 1 8 8 f h f q q 8 1 2 . ",
"f f f h f 1 , 1 , 8 q q 1 1 q d | M.Z.R.~.(.(.(.(.(.&X,X*X$XW.U.c.&.*.*.b.U.W.^.(.(.(.(.(.(.(.(.^.E.N.x.-.C.g 0 8 , 1 q 8 6 1 q f q q 1 6 q q 1 ",
"q f h h f 1 . , , , q q q 0 $.&.x.m.R.^.-X:X:X;X:X:X<X9XeX2X`.N.c.*.=.=.c.Z.Q._.:X:X:X:X:X;X:X;X'.~.I.n.-.;.c.0 1 , 6 q q 1 , 8 q q 1 1 q q 8 1 ",
"f f h h f 1 , , , , 1 6 8 s b.m.Z.Z.E.`.^.(.(.(._.:X3X1X1X%X`.Z.c.=.=.l.c.Z.`.-X:X3X:X:X-X(.(.(.^.Q.R.C.N.n.[ 1 2 , , 6 6 q 8 q 8 8 6 8 8 8 1 , ",
"8 f h h q 8 1 , , , , 1 8 g x.Z.R.U.R.E.E.E.E.E.^.;X:X:X:X-XQ.V.m.$.| ] >.I.Q._.:X:X:X-X^.R.E.E.E.E.!.R.Y.I.v , , , , , 6 q u 8 1 6 8 q 1 1 2   ",
"1 q f f q q 8 1 , , , , 1 p c.m.Z.Z.Z.Z.Z.Z.Z.Z.R.`.^.^.~.E.Z.I.c 0 6 1 p >.R.Q.~.^.^.~.Y.C.N.N.C.I.N.N.C.N.p 2 , , , , 2 8 i 1 , 2 q 8 1 , 1 . ",
"1 q f f 8 8 1 1 , . . , , 7 [ ] } ] [ [ [ [ ] ] [ [ } } } } [ { 1 . .   . a | } } } } } [ [ } [ ] } ] } | | 6   .       . 1 6 .   . 1 , , .   X "
};
