/* XPM */
static char *result[] = {
/* columns rows colors chars-per-pixel */
"69 69 227 2 ",
"   c #3F3F3F",
".  c #6F3B18",
"X  c #73411D",
"o  c #49413B",
"O  c #564539",
"+  c #5C422F",
"@  c #764422",
"#  c #794623",
"$  c #7B4926",
"%  c #7D4C29",
"&  c #75482A",
"*  c #634B3A",
"=  c #7E5437",
"-  c #704A30",
";  c #444444",
":  c #4C4C4C",
">  c #484748",
",  c #564D47",
"<  c #58534F",
"1  c #4E4E52",
"2  c #4E4E5A",
"3  c #545354",
"4  c #55555A",
"5  c #5B5B5B",
"6  c #5A5755",
"7  c #665142",
"8  c #6C584A",
"9  c #755B4B",
"0  c #625D5A",
"q  c #6A5C54",
"w  c #715F51",
"e  c #776458",
"r  c #67615D",
"t  c #5C5C62",
"y  c #5C5C6B",
"u  c #585765",
"i  c #5C5C70",
"p  c #5F606F",
"a  c #646464",
"s  c #65656A",
"d  c #696969",
"f  c #6A6766",
"g  c #746C67",
"h  c #646475",
"j  c #696977",
"k  c #78767A",
"l  c #7C736D",
"z  c #814F2B",
"x  c #824B25",
"c  c #84512E",
"v  c #855432",
"b  c #885633",
"n  c #8B5936",
"m  c #8E5C3A",
"M  c #85593B",
"N  c #915E3C",
"B  c #93613E",
"V  c #8B6348",
"C  c #956442",
"Z  c #996644",
"A  c #9B6946",
"S  c #9C6B49",
"D  c #946F5A",
"F  c #97705C",
"G  c #9A735C",
"H  c #A16D45",
"J  c #A26F4B",
"K  c #A3724E",
"L  c #AA744C",
"P  c #A87651",
"I  c #AB7956",
"U  c #A77958",
"Y  c #B17F5B",
"T  c #8A7566",
"R  c #9A7967",
"E  c #927772",
"W  c #A27C65",
"Q  c #B4825D",
"!  c #97837D",
"~  c #988171",
"^  c #A7856B",
"/  c #B58461",
"(  c #B88764",
")  c #BB8966",
"_  c #BD8C6A",
"`  c #B78967",
"'  c #A68977",
"]  c #BD9070",
"[  c #C4926E",
"{  c #CC956C",
"}  c #C69471",
"|  c #C99672",
" . c #CB9976",
".. c #CD9C79",
"X. c #C2997C",
"o. c #D29D78",
"O. c #C18F6B",
"+. c #D4A27E",
"@. c #DAA37D",
"#. c #6D6C87",
"$. c #73738C",
"%. c #787783",
"&. c #757593",
"*. c #7A7A9B",
"=. c #797997",
"-. c #7C7CA3",
";. c #817F87",
":. c #7E81B1",
">. c #88878A",
",. c #878697",
"<. c #998E92",
"1. c #A69392",
"2. c #B6A494",
"3. c #8786A8",
"4. c #9A97A6",
"5. c #8484B6",
"6. c #8686B9",
"7. c #8B8BBD",
"8. c #8988B7",
"9. c #9392BD",
"0. c #9D9DBD",
"q. c #9C99B9",
"w. c #8F90BD",
"e. c #A190A4",
"r. c #A092AC",
"t. c #A49ABA",
"y. c #A7A7AB",
"u. c #A8A8BE",
"i. c #B4B3B3",
"p. c #BBBCBD",
"a. c #B2AEAC",
"s. c #C3A28A",
"d. c #D6A482",
"f. c #DBA986",
"g. c #DDAC89",
"h. c #D8A785",
"j. c #D9B499",
"k. c #CBAC96",
"l. c #E3B18E",
"z. c #EBB48D",
"x. c #E6B491",
"c. c #E9B693",
"v. c #EBB995",
"b. c #EEBC99",
"n. c #E3B798",
"m. c #F3BD97",
"M. c #D4B9A5",
"N. c #C5B4A8",
"B. c #C59E81",
"V. c #F4C19E",
"C. c #CBC1BA",
"Z. c #F5C4A1",
"A. c #FAC9A6",
"S. c #FECDAA",
"D. c #F9C7A4",
"F. c #FFD1AE",
"G. c #FFD4B1",
"H. c #E6C4AD",
"J. c #8E8EC1",
"K. c #9393C5",
"L. c #9B9BC3",
"P. c #9696C9",
"I. c #9B9BCC",
"U. c #9897C9",
"Y. c #9E9ED1",
"T. c #9090C1",
"R. c #A09ECE",
"E. c #9FA0D2",
"W. c #A3A4C2",
"Q. c #AAABC3",
"!. c #A5A4CD",
"~. c #A9A7C8",
"^. c #B4B3C5",
"/. c #BCBCC6",
"(. c #BDBDCA",
"). c #B5B5CA",
"_. c #A3A3D4",
"`. c #ABAAD4",
"'. c #A6A6D9",
"]. c #AAAADC",
"[. c #A8A7D7",
"{. c #B7B7D7",
"}. c #ADADE1",
"|. c #A4A4E0",
" X c #B3B3E4",
".X c #B6B6E9",
"XX c #BABAEC",
"oX c #B8B8E8",
"OX c #BEBEF1",
"+X c #B0AFE2",
"@X c #C0BFC7",
"#X c #C0BFE4",
"$X c #BFC0D2",
"%X c #C3C3CA",
"&X c #CDCDCD",
"*X c #C5C3C6",
"=X c #D4CDC8",
"-X c #C9CAD6",
";X c #D3D3D3",
":X c #DBDCDB",
">X c #D7D7D9",
",X c #CFD0D4",
"<X c #E8E2DD",
"1X c #C4C3EA",
"2X c #D7D7E8",
"3X c #C2C2F4",
"4X c #C6C6F8",
"5X c #CCCCFD",
"6X c #C8C7F9",
"7X c #D2D2FE",
"8X c #DCDCFE",
"9X c #D8D7F4",
"0X c #D0CFFE",
"qX c #DFE0F4",
"wX c #E3E3E1",
"eX c #EAEAEB",
"rX c #F4ECE5",
"tX c #F5F0EC",
"yX c #E4E4FD",
"uX c #EDEDFC",
"iX c #E7E7F5",
"pX c #F3F4F3",
"aX c #FDFDFE",
"sX c #F6F7FB",
"dX c #EFF0FF",
"fX c #E2D0C3",
"gX c None",
/* pixels */
"gXgXgXgXgXgXgXgXgXgXgXgXgXgXgXgXgXgXgXgXgXgXgXgXgXgXgXgXgXgXgXgXgXgXgXgXgXgXgXgXgXgXgXgXgXgXgXgXgXgXgXgXgXgXgXgXgXgXgXgXgXgXgXgXgXgXgXgXgX",
"gXgXgXgXgXgXgXgXgXgXgXgXgXgXgXgXgXgXgXgXgXgXgXgXgXgXgXgXgXgXgXgXgXgXgXgXgXgXgXgXgXgXgXgXgXgXgXgXgXgXgXgXgXgXgXgXgXgXgXgXgXgXgXgXgXgXgXgXgX",
"gXgX: : 3 4 6 3 6 6 4 5 a t 5 3 3 : > ; ;   : 4 O b n = M N C m M v M M = = & & = % & & w 0 5 1 1 3 6 1 : 6 5 a f a 5 6 : 5 a a 5 3 3 gXgX",
"gXgX: : : 4 5 3 : 3 5 a a t 6 : : : : > o ; 1 3 O n m N m C C B m c % c b b $ @ b m % $ M e 6 1 1 6 6 3 : : 5 a a a 5 4 : 3 5 a 6 3 3 gXgX",
"gXgX> > : 3 5 3 : 3 4 a a 6 > o ; : : : > > o * n B A A C A Z Z Z b % z N n z % b m b # X M , 1 4 5 5 : : 5 d d a a a 5 3 : 5 6 : : : gXgX",
"gXgX1 3 6 3 : 6 5 4 : 3 3 ;   ; 6 5 : ; ; O & X c B A A C A Z A Z B m b z c n n c z b b $ b , 4 3 : : 3 5 a d d d d a a t 5 3 : 5 : 3 gXgX",
"gXgX3 6 t : ; 6 a 3 > ;     ; : 5 t : ; ; o @ $ % N B Z B B B B Z C C b $ $ N N z $ b N c b q 4 6 : > 3 a a a a a a a a t 4 : : 5 5 6 gXgX",
"gXgX: : : > ; : : > ; ;   : 3 4 3 3 5 3 , o % b b c n B B n b N Z N z $ @ # z v b b b c $ % V , 3 3 6 4 3 3 : : : : : 3 3 : ; o : 3 4 gXgX",
"gXgX; ; ; ; ; > ; o   ; ; 3 5 5 1 1 6 < O + v N n $ % m N c $ b B b % # @ @ @ $ m B v @ @ # # - , 5 5 : ; ; ; : : ; ; ; ; ; ;     : : gXgX",
"gXgX: 3 : ;   : 3 : ; : 3 3 3 3 3 6 6 O c b b b z @ @ % c c v c v N S C $ X @ @ % b $ @ x b @ x e 5 3 : ;   ; : 3 : ; ; : 3 :     > : gXgX",
"gXgX5 5 5 : : 3 5 3 : 1 5 3 : : 6 5 4 + b B b $ @ @ # # z n N v % J  ./ v . @ @ # @ @ @ c B c c 9 : ; : ; ; ; 3 a 3 > 3 5 5 : ; ; > : gXgX",
"gXgX3 6 3 3 5 5 a 3 ; : 3 5 3 3 6 4 6 O c b c @ $ b N C C m n N A ) h. .P m $ @ % % $ @ z b x c 7 o ; ; > : 3 3 3 3 : 5 d a 5 3 : 3 6 gXgX",
"gXgX3 3 : 6 a d 5 3 ; ; : 3 5 5 1 1 6 * # # @ @ v K Y B._ N x K | d.h.h.+.Q b @ b m c @ @ # . z 8 ; ;   ; 3 a 3 ; 3 5 a a a a a a t 5 gXgX",
"gXgX3 3 3 5 d d a 5 3 : ; ; 3 5 1 < 0 7 # @ $ v J Y d.g.d.I Z O.x.v.l.x.l. .P B m m b b % @ . $ q > ; : 3 5 5 3 3 3 d d a d d d d a t gXgX",
"gXgX3 6 a a d a d a 5 3 >   : 3 4 t s 7 @ @ b K Y | d.f.f.o.| g.Z.D.D.b.l.d...( N z C K C & . $ e 3 : 3 5 6 3 3 5 a d d a d a d d a 6 gXgX",
"gXgX3 5 5 a a a a d d 5 : ; ; 3 r a s 7 @ x C O.d.g.f.o.} }  .l.A.F.S.v...} } ) S N P ) K c . x e 6 : 3 5 3 : 3 5 5 a d d a a d d 5 5 gXgX",
"gXgX3 : 3 5 a a a d f 5 : : 1 5 a f d * % m I  .l.b.f.I m n S B.A.G.S.d.K n m A Q _ X. ./ B @ % 8 3 ; : 1 3 4 3 1 5 a a a a a d s a 5 gXgX",
"gXgX3 : : 5 a a a f d 5 > : 5 d f a a 9 C A Q ..z.D.l.I c x N } D.G.A.d.A % % B ) f.g.+.` S N 8 : o   ; : 3 5 1 : 3 a d a a a a a 6 6 gXgX",
"gXgX5 5 5 3 4 t s h d 4 : 2 s d s a d 1.' V K ] f.Z.b.d.} [ | l.A.F.S.v...) Q ( ..f.+.} I H ^ 0 3 ; ; 1 4 4 3 4 5 a s s a a s a 6 : > gXgX",
"gXgX5 t j :.#.$.&.*.*.&.#.&.=.$.a a a 0 6 O S Q B.v.S.S.S.A.S.S.S.S.S.S.A.m.l.h.f.d.[ Q Q ] e t 5 : > 5 j &.#.&.&.$.&.&.$.:.&.5 3 ; ; gXgX",
"gXgX: 4 3.|.P._.}.}.}.}.].'._._.j a t 1 : o 9 K ) g.V.S.F.F.F.S.S.S.S.S.F.D.c.g.g.d.) / T < : 4 3 > > 4 :.`.}.}.}.}.}.'.I.I.E.3.t ; ; gXgX",
"gXgXp $.Y.}.}.XX6X6X6X6X6XOX X_.3.#.h y 1 : * C Y B.z.Z.S.S.S.S.S.S.S.S.S.V.l.h.g.+.Q ^ e s 5 t u y y #.L.OX6X6X6X6X4XOX].'.'. X7.1 : gXgX",
"gXgXE.'. X#X2X8XyX8X0X5X7X5XOX X]._.Y.T.&.h q B L [ d.c.V.D.S.S.S.S.S.A.V.n.l.h.+.} P U q f 4.`.P.E.'. XOX4X5X7X0X0X0X3X X].].'._.3.&.gXgX",
"gXgXE.'.oX9XdXsXsXyX5X5X5X5X6X6X4X3X.X'.K.:.k S K Y } d.x.V.S.S.S.S.S.V.x.g.g.d.| ` P U r d (.3X}.3X6X5X4X6X5X5X5X5X5X3X}.'.].].].].].gXgX",
"gXgXR.}.1XuXaXaXdX8X0X5X5X5X5X7X0X5XXX].Y.J.,.E W I Y O.| f.c.b.V.Z.V.c.+. .} [ Q I W E 1.t.$X XoX6X7X5X5X5X5X5X5X5X5X3XXX XoX X'.Y.U.gXgX",
"gXgXR..X7XuXaXyX7X7X0X5X5X5X5X5X5X6XXX].K.7.T.L.1.W H H I ) | h.l.l.l.d.} ( P J J K <.t.!.~._.'. X6X5X5X5X5X5X5X5X5X5X5X4X4X4XOX_.J.7.gXgX",
"gXgXL.}.3XiXdX8X5X5X5X5X5X0X5X6XOXoX]._.U.J.Y.|.t.E D F G U Y O.|  .| _ Y U R R F R 4.'.Y.7.J.Y.]. XOX4X5X5X5X5X5X5X5X5X5X6X3X XI.J.7.gXgX",
"gXgXK.U._.3X8X7X0X5X5X0X5X0X7X3X].U.T.K.U.E.'.].R.8.;.r.e.W H H L P L K J R 1.4.,.3.U.'.U.6.6.J.K.P._.OX5X7X0X5X7X5X7X5X0X3X'.I.Y._.'.gXgX",
"gXgXw.T.K.].OX3X3XOX3X3XOX3X3X XI.7.8.T.U._.'.'.R.T.K.|.~.;.G F F F G F F E W.'.P.T.I.E.P.7.8.7.7.7.P.}.OXOXOXOXOXOXOXOX3X XU.J.Y.L.3.gXgX",
"gXgX9.U.I.E.Y.Y.I.Y.E.E.Y.I.Y.Y.I.Y.E.Y.U.K.K.J.P.R._.].`.t.e.e.e.e.e.e.e.t.`.]._.Y.I.T.w.7.J.I.E.E.I.E.I.E.E.E.E.E.E.E.E.E.E.I.E.i : gXgX",
"gXgXU.!._.K.7.7.7.7.7.7.7.7.7.T.R.'.'._.U.J.7.J.K._.[.].+X].[.[.[.].].[.].].].].'._.K.7.:.7.K._.].'.E.P.7.7.7.7.7.7.7.7.7.K.E.'.|.h : gXgX",
"gXgXj :._.P.I.I.I.I.I.I.U.I.I.P.U.U.U.U.U.U.U.U.P.P._. XOX X].].].|.].}.].].].[.Y.P.J.6.6.8.w.P.P.P.U.U.I.I.U.I.I.I.P.I.I.U.U.'.4.a 1 gXgX",
"gXgX; 3 8._.'.'.'.'.'.'.'.'.'._.K.7.6.7.I.'.].].E.7.U.oX4X X].].].].].].].].].[.P.6.6.7.7.8.7.8.7.7.J.E.'.].'.'.'.'.'.'.'.E.K.=.3 > > gXgX",
"gXgX; : 3.].P.I.I.I.I.I.E.I.I.L.P.P.K.P._.]. X.X'.J.T.+XOXOXoXXXXX X].].].].]._.T.6.J.K.P.K.K.U.K.K.U.U.I.I.I.I.I.I.I.I.I.E.L.1 o > > gXgX",
"gXgX> 5 4.`.6.7.J.J.7.7.7.7.7.T.I._.'.].'.].XX4X.XK.T.E.+XOX6X5X6XOX}.'.].].]._.J.7.U.'.'.'.'.].'.'.E.K.7.7.7.7.7.7.7.7.8.L.i.1 > : : gXgX",
"gXgX> 5 y.$Xq.0.0.0.0.0.0.0.0.L.I._.'.].}..XOX4XOX'.I.U.E.]. X.X X].R.R.I.R.I.R.I.E.}..X X].].].]._._.L.t.0.0.0.L.0.0.0.0.u./.5 : 3 3 gXgX",
"gXgX6 a y.>X@X@X@X@X@X@X*X@X*X^.0.J.I.].XX4X6X5X6X4X XI.7.J.T.T.K.T.J.7.7.7.7.K.+XOX4X3XXX].].]._.J.K.^.@X*X@X@X*X*X*X*X/.*X%X5 3 3 3 gXgX",
"gXgX5 d a.eX:X:X>X:X:X:X:X>X,X@X0.7.I.].XX5X7X8X7X7XOX[.U.U.P.J.6.5.6.7.U.I.P._.XX5X0X5X3X.X}.].E.J.9.).&X&X&X&X&X;X:X:X:X>X&Xa 3 4 3 gXgX",
"gXgX6 a i.pXeXpXpXpXpXpXpXeX:X/.9.7.I.}.OX5X8XdXyX7X4XOXXXXX XY.7.5.7.U. XXXXXOX6X5X5X5X4X3XXX XY.J.7.).&X&X&X&X,XwXpXsXsXeX;Xs 6 3 3 gXgX",
"gXgX3 5 i.aXaXaXaXaXaXaXsXeX;X%X{.[._._.+X4XyXsXsX8X7X5X5X5X4X'.7.5.7.E.3X0X5X5X5X5X5X5X6X4X.X'.E._.).%X;X&X&X*XC.&X<XrXrX<X*Xa 3 : 3 gXgX",
"gXgX5 s i.aXaXaXaXaXaXpXwX>X>Xi.>.%.3.T.E..X9XsXaXdXyX7X0X0X4X'.7.;.J.|.3X7X5X5X5X5X5X5X3XoX_.P.y.>.:.y.p.&XC.M.2.s.j.k.j.M.1.3 : 5 5 gXgX",
"gXgX5 d i.pXtXtXtXrXtX<X,X;X>Xg 6 a k 3.E.'.1XuXaXsXdX8X5X5X3X_.7.5.J.Y.XX5X5X5X5X5X5X6XXX'.Y.K.:.d r d k y.&X2._ Q ) Q ) s.l : 5 a d gXgX",
"gXgXt d a.=XM.M.M.H.j.C.&Xp.;.6 3 6 d 4.Q.9.`.1X9XyX8X7X6X3X XY.J.5.5.P. XOX5X5X7X5X3XoX'.U.!.>.r a a 5 : d C.k.) Q Q Q Q X.! 5 5 f d gXgX",
"gXgXa g 2.j._ [ [ _ [ 2.=X>.5 5 : : 5 s s j U.`. X3X5X4X3X X'.U.J.6.J.K._. XOX4X6X3X.X'.K.K.u.j d a 5 3 : : <.k.] ) _ _ _ ] N.:.s f d gXgX",
"gXgXr f 1.x.+.+.+.o.[ X.M.T : 4 3 6 t a d u J.P.Y.'.].].'.I.P.K.J.P.P.P.P.I._.].].'.E.U.K.Y.W.j a 5 3 3 3 3 l k. . .@.@.@.+.k.<.f a d gXgX",
"gXgX3 0 ^ V.Z.A.V.c.f. ...e > : 5 t s h #.&.7.7.7.7.J.J.7.7.J.I.'.|.'.Y.J.7.7.7.7.J.7.7.P.].I.*.a : : 5 a 3 w +.@.n.D.D.A.V. .T 5 r f gXgX",
"gXgX: 6 ^ m.F.G.F.D.V.+.} e   > 3 5 t *.Y.U.P.K.J.8.8.J.K.J.U.'..XXX.X X_.Y.K.J.6.6.7.P.'. XE.P.0.: ; 3 6 o 7 @.V.V.F.G.F.V.} e : 5 t gXgX",
"gXgX> , U m.S.F.S.S.D.@.+.e ; ; > 2 i -.P._.'._.I.7.J.Y._.'.'.oX4X4X4X4X3XXX].Y.J.7.P.'..X3X}.J.K.a ; ; ; o w V.D.A.A.F.F.V. .^ : : : gXgX",
"gXgX: 6 2.A.z.x.c.c.c.n.j.e 3 3 2 #.7.T._. XoX.X'.T.J.E.}. XoX3X5X0X0X0X0X6XXX}.K.7.I.}.4X9X1XL.w.:.2 ; : ; 0 n.V.V.x.V.l.l.j.' : o   gXgX",
"gXgX3 5 d T [ @. .{  .H.1.a t a t -.E.'..X3X6X4X+XK.w.R.}.XX4X6X5X5X5X5X5X5X5XXXI.w.P.].2XuX9X].P.P.#.5 5 : o l ^ { | O. .n.~ 5   ; > gXgX",
"gXgX6 5 5 3 e ~ ~ R T ! g a d d 5 =.}. XOX5X0X0X.XK.J.Y.+X3X0X0X5X5X5X5X5X5X5XXXI.w.I. X9XuX9X].L.q.:.5 5 5 3 : 0 ~ ~ ~ ~ ! 3 : ; ; : gXgX",
"gXgX: : 3 6 6 6 6 0 0 f d d d t p 3.OX3X4X5X0X5X.XK.J.I. X3X0X0X5X0X5X0X7X6XXX].K.J.'.OX7X8X#XI.:.:.:.5 3 3 5 3 < 0 6 0 d d a 3 > : : gXgX",
"gXgX;   : 6 5 : : 3 5 a d a 5 :.W._.XX6X6X4X3X3X+XL.K.I.].oX3X3X3XOXOX3X3XoX].Y.K.L.].OX4X4X XK.:.K.:.;   : 5 5 : 3 a d a a a 5 : : : gXgX",
"gXgX  ; > : 3 6 3 3 3 3 : : : y.].P.'.oXXXoX+X_.!.~.Q.L.P.I.E.E.E._._.E.E.Y.K.P.W.Q.~._.'..X}.E.K.P.#.: ; o 3 5 3 5 a d a a 5 : : ; > gXgX",
"gXgX; ; >   ; 5 a 3 :     ; o : u *.].].'.'.I.w.W.%X%XW.w.w.w.I.`.!.E.L.w.w.K.L.$X%XQ.w.U.'.'.'.I._.:.3 ;   ; 3 a a a a a a 3 ; ; ; ; gXgX",
"gXgX; > ;     3 5 : ;     : 3 1 > ,._.T.K.K.L.W.$X:X:X%XQ.Q.Q.4.%.u j u.`.^.$X,XwXwX%Xu.L.P.K.P.`.9X>.o ; ; ; 3 a d a a a a 5 : > ; ; gXgX",
"gXgX: : ; : : ; ; ; o ; ; 3 5 5 > > y :.8.w.W./.:XpXeX>X%X%Xy.a 5 4 o ;.;X>XeXsXaXpX:X%XQ.w.8.T.p.:.5 3 ; ; ; 3 a a d a a a a 5 : : > gXgX",
"gXgX: : 3 3 3 ; ;   ; : 3 3 5 5 3 3 5 u.).u.^.&X,X,X1X)./.&X>.4 4 3 3 >.:X:XsXaXaXsXeX&X).Q.Q.,.k 3 5 3 3 ; : 3 a d a a d a 5 3 6 4 : gXgX",
"gXgX3 6 a a 5 :       1 5 5 : : 5 a s <.y.y.%X&X/.L.K.J.0.-X>.4 : 3 a <.>X:XpXaXaXsXwX&X*X;X:Xd 5 : : 5 5 3 : 3 a a d d a a 3 : 5 t 5 gXgX",
"gXgX5 5 d d a : > : : 3 5 3 1 3 t d d d a >.^.(.u.7.:.:.7.$X>.5 : 5 a k ;X;X>X2X2X>X-X).^.$X2X5 5 : 3 5 3 ; ; 3 3 a a d a a 3 : 6 5 6 gXgX",
"gXgXd a a d a 3 : 3 5 5 : : 5 a t t t 4 a &.9.K.7.8.5.6.T.^.a.t 5 a s y.:X(.W.L.L.L.w.w.w.L.0.p : 5 5 3 ; ; ; ; : 3 5 d d a a 5 3 : > gXgX",
"gXgXd a a d a : : 3 5 3 : : 5 a 5 $.9.7.8.7.U.K.U.U.U.K.I.).,X,.5 a %.qX,X).~.I.P.K.K.P.K.K.K.:.:.:.0.k : ; ; : : 3 5 5 d a a 5 3 : : gXgX",
"gXgXa a a d a :   ; : 3 5 3 : 1 p *.I._.+XXXXXXXXXXXXXXXoX{.{.!.j u 3.{.{.$X2X2X3XoXXXXXXXoX X'.E.:.L.:.3 3 : : 5 3 : 3 5 a 3 : 1 6 6 gXgX",
"gXgXa a a d a 3     ; : 5 3 > $.w.w.E.].XX4X5X6X6X5X5X5X6X.X'.U.w.8.J.J.E.#XqXdX8X5X4X4X4X4XXX X_.w.w.:.5 : ; : 5 3 : 3 5 5 : 3 5 5 5 gXgX",
"gXgXa a a d a : ;   ; > : 3 1 :.E._._.]. X.XoXXXOX5X0X7X6XoX'.U.J.6.J.J._.XX7XyX7X5X3XoX.X.X X].]._.U.I.h > ; > : 6 5 3 3 1 1 6 3 1 : gXgX",
"gXgX4 5 f a 5 4 : > > ; : : 1 ,.'._.'.'.'.'.'.'.+XXX4X3XOX X'.w.=.=.:.0._.}.XX4X4X3X X'._.]._.'.'.'.E.E.#.> >   > 3 6 5 : : 3 6 : > : gXgX",
"gXgX3 6 a f 5 5 3 : > > ; : : :.E.R.R.R.!.I.I.I._. X XoX X[._.=.h j %.3.!._.]..XoX X[.I.I.I.I.I.R.E.U.I.j : > ; > : 5 4 > : 5 6 : : : gXgX",
"gXgXgXgXgXgXgXgXgXgXgXgXgXgXgXgXgXgXgXgXgXgXgXgXgXgXgXgXgXgXgXgXgXgXgXgXgXgXgXgXgXgXgXgXgXgXgXgXgXgXgXgXgXgXgXgXgXgXgXgXgXgXgXgXgXgXgXgXgX",
"gXgXgXgXgXgXgXgXgXgXgXgXgXgXgXgXgXgXgXgXgXgXgXgXgXgXgXgXgXgXgXgXgXgXgXgXgXgXgXgXgXgXgXgXgXgXgXgXgXgXgXgXgXgXgXgXgXgXgXgXgXgXgXgXgXgXgXgXgX"
};
