/* XPM */
static char *result[] = {
/* columns rows colors chars-per-pixel */
"64 64 218 2 ",
"   c #3F3F3F",
".  c #6F3E1D",
"X  c #78441D",
"o  c #47423F",
"O  c #5A4433",
"+  c #584537",
"@  c #6A4329",
"#  c #754522",
"$  c #794623",
"%  c #7B4926",
"&  c #764929",
"*  c #7D4C2A",
"=  c #7E502F",
"-  c #6A4A34",
";  c #624C3C",
":  c #714C31",
">  c #7C4E30",
",  c #6B513E",
"<  c #7B5338",
"1  c #444444",
"2  c #4A4643",
"3  c #4D4945",
"4  c #46464A",
"5  c #474848",
"6  c #4B4B4B",
"7  c #564B43",
"8  c #5B4D44",
"9  c #514E4C",
"0  c #58514D",
"q  c #4D4D52",
"w  c #4F4F5B",
"e  c #545454",
"r  c #5A5654",
"t  c #5B5957",
"y  c #54555A",
"u  c #58565A",
"i  c #5B5B5B",
"p  c #67584B",
"a  c #795A46",
"s  c #665852",
"d  c #625E5C",
"f  c #775F53",
"g  c #66615C",
"h  c #796758",
"j  c #5D5D62",
"k  c #595968",
"l  c #605F73",
"z  c #646464",
"x  c #696665",
"c  c #63636A",
"v  c #69696A",
"b  c #776A63",
"n  c #72716B",
"m  c #676776",
"M  c #747374",
"N  c #757579",
"B  c #7C7C7D",
"V  c #854C25",
"C  c #814E2C",
"Z  c #83512E",
"A  c #89542D",
"S  c #865431",
"D  c #895633",
"F  c #8B5936",
"G  c #8D5B39",
"H  c #935B34",
"J  c #915E3B",
"K  c #92613E",
"L  c #845D4A",
"P  c #886858",
"I  c #8F725A",
"U  c #866D6B",
"Y  c #88756A",
"T  c #937B6C",
"R  c #846E73",
"E  c #8D737B",
"W  c #B18D69",
"Q  c #BA9379",
"!  c #C28F6B",
"~  c #C6926D",
"^  c #CA9874",
"/  c #C69C7E",
"(  c #D19F7F",
")  c #D6A37E",
"_  c #676785",
"`  c #6C6C84",
"'  c #706E80",
"]  c #757587",
"[  c #767793",
"{  c #7A7B9C",
"}  c #7E7EA2",
"|  c #7F7EB3",
" . c #887B8A",
".. c #8B7E91",
"X. c #7F80B6",
"o. c #898789",
"O. c #978B86",
"+. c #858497",
"@. c #949499",
"#. c #AF9785",
"$. c #BAA395",
"%. c #8282A5",
"&. c #8B87A3",
"*. c #8484AA",
"=. c #8D8CAC",
"-. c #948BA5",
";. c #9998A6",
":. c #8484B5",
">. c #8B8AB4",
",. c #8686B9",
"<. c #8887B9",
"1. c #8B8BBD",
"2. c #908FBD",
"3. c #8F90B8",
"4. c #9A97B3",
"5. c #9393BC",
"6. c #9D9CBE",
"7. c #A09DBD",
"8. c #A9A3A4",
"9. c #B9B3AF",
"0. c #A6A6B6",
"q. c #B2A6B5",
"w. c #B7B6B8",
"e. c #C7A084",
"r. c #D7A988",
"t. c #CBAA91",
"y. c #D7B197",
"u. c #E1AD88",
"i. c #E9B692",
"p. c #EEBC99",
"a. c #F0BE99",
"s. c #D2B8A5",
"d. c #F3C19C",
"f. c #D1C1B6",
"g. c #F6C4A1",
"h. c #FBC6A1",
"j. c #FECBA5",
"k. c #FECFAC",
"l. c #FFD1AD",
"z. c #8E8EC1",
"x. c #908FC3",
"c. c #8F90C1",
"v. c #9393C4",
"b. c #9798C6",
"n. c #9B9AC4",
"m. c #9696C9",
"M. c #9897CA",
"N. c #9798CA",
"B. c #9B9BCD",
"V. c #9D9ED1",
"C. c #9F9FD8",
"Z. c #A09FCD",
"A. c #A19FD2",
"S. c #9FA0D5",
"D. c #A3A2C1",
"F. c #A7A8C3",
"G. c #ACABC4",
"H. c #A4A2CD",
"J. c #ADACCA",
"K. c #B5B4C5",
"L. c #BCBCC5",
"P. c #B7B7CA",
"I. c #BABACB",
"U. c #A3A3D5",
"Y. c #AAAAD4",
"T. c #A6A6D9",
"R. c #A8A7D9",
"E. c #A7A8DA",
"W. c #ABABDD",
"Q. c #B0AFD0",
"!. c #B4B4D3",
"~. c #BCBBD3",
"^. c #B6B6DB",
"/. c #ADADE1",
"(. c #B0AFE2",
"). c #AFB0E2",
"_. c #B3B2E4",
"`. c #B9B9E7",
"'. c #B6B6E9",
"]. c #BBBBED",
"[. c #BEBEF1",
"{. c #C0BFF2",
"}. c #BFC0F3",
"|. c #C3C2C5",
" X c #C2C2C9",
".X c #CBCACD",
"XX c #D0CFCD",
"oX c #D6D3CF",
"OX c #C2C3D3",
"+X c #C8C8D4",
"@X c #D5D5D5",
"#X c #D7D6D8",
"$X c #DDDDDC",
"%X c #EADDD1",
"&X c #EBE1D9",
"*X c #CACAEC",
"=X c #D4D4E9",
"-X c #C3C3F5",
";X c #C9C9F7",
":X c #C6C6F8",
">X c #CCCBFD",
",X c #CFD0F0",
"<X c #D3D3F6",
"1X c #D2D2FF",
"2X c #DBDBFE",
"3X c #DFE0F5",
"4X c #E4E4E4",
"5X c #E8E7E8",
"6X c #EBEBEA",
"7X c #E2E3FD",
"8X c #E8E8F8",
"9X c #EBEBFC",
"0X c #EFF0F0",
"qX c #F5F5F5",
"wX c #FAF8F7",
"eX c #F3F3FB",
"rX c #F7F8FC",
"tX c #FCFCFC",
/* pixels */
"tXtXtXtXtXtXtXtXtXtXtXtXtXtXtXtXtXtXtXtXtXtXtXtXtXtXtXtXtXtXtXtXtXtXtXtXtXtXtXtXtXtXtXtXtXtXtXtXtXtXtXtXtXtXtXtXtXtXtXtXtXtXtXtX",
"tXtXtXtXtXwXtXtXtXtXwXtXtXtXtXtXwXtXtXtXtXtXwXrXtXwXtXtXtXtXtXtXtXtXwXwXtXwXtXtXwXwXtXtXtXtXqXtXtXtXtXtXtXwXtXtXtXtXrXtXtXtXtXtX",
"tXtXe 6 y i i t r i i z z i r r e 5 5 1 1 9 ; % . # * S * * = = * * Z & . X % * @ o i d r e u t r e r i z z z d r t z z j r t tX",
"tXqX1 5 6 t y 9 6 u j x j e 6 6 5 5 1 1 3 0 a * # = F D * D G D C Z G S # * F F & + t t q 9 t u q 6 e j z z z i q q t d t e 5 rX",
"tXtX6 5 q t t q 6 e j j u 5   5 9 6 5 1 ; < G Z Z D F S * D G D Z Z G D C S G F C % , 0 e y t y 9 e i v v z z d e e y t q 9 e rX",
"tXtXr u i 6 6 i d e 6 9 5   1 i d 5 1 1 - $ * D G Z * D G S % D G D * Z G F * * D H @ 7 e e 6 6 e j v z v v v z z i e 6 t e e wX",
"tXtXe r u 5 5 t i 5 5     5 9 u i e 5 3 O $ * D G D * Z G S % = G D * Z F F Z Z F K : 7 t e 6 6 t d j i i i i i i t 5 5 e t t tX",
"tXtX5 5 5 1 1 5 5 1     5 t i e e i 0 o O Z G D * D F D * Z G D * Z G F * Z G F = = G a 7 e t i y 6 5 6 6 5 6 5 6 5 1   5 6 y qX",
"tXqX6 5 1 1 1 5 5   1 5 e i t e q u ; : > D G Z Z Z G D * Z G D * Z G F C Z F F C Z F K - 3 t i 6 1 1 1 6 6 5 1 5 5 5     1 e wX",
"tXqXi i e 5 5 e t 6 6 t t 6 6 y i r ; A G D * D G Z C Z G D * Z G D C Z F F C Z F F A X @ 3 5 6 6 1 1 1 e i 6 1 e i e 5   1 6 qX",
"tXtXi e t e e z i 6 5 y i 6 6 t i e - A G D * D G Z * D J D * Z G D * Z F D * Z G F C X @ 3 1 1 1 1 6 6 e i e 6 j g i 6 6 6 e tX",
"tXtXe e 9 e z z i 6 1 5 6 i t e 9 t O % * D G Z C D F D C Z G D C Z G D C Z F F Z Z F G - o   o   6 e i e 6 e i z z d j i i i wX",
"tXtXr q e z v v i e 6 1 6 e i e 9 i , & * D G D * D J Z * Z G D % Z G F * C F F * Z F F : 3 5 2 5 e t i e 6 j v z v v v v z z qX",
"tXtXt t z z z z z z e 5   6 e e i g , Z F Z Z Z F Z Z A F D * D G D C Z F D C Z F F = V : r 6 6 e i i 6 e i z v v z z v n z i rX",
"tXqXe u i z z z v v d 9 1 5 e j z v , F J Z % D J D * Z G D % Z K F * Z G F * C G F * X & 8 6 6 e i e 6 e z z z v z z z v i i tX",
"tXtXt q e z z z z v j e 6 6 i z z v p & Z F G Z Z Z F D * D G D C Z F D A Z F F C Z F A V 8 6 5 6 9 e e e e i z v z z v z z z qX",
"tXtXe 6 q i z z x v z 5 5 i v z z v g ; $ S J S % D G S & Z K D V D L F C C G G * * G L ; 2 1 1 1 6 e i 6 6 j z v z j z z i i qX",
"tXtXi r e e r i v v i 5 5 g v x z z g r : # Z D D D Z D D D C S S D V C F D C C D F < r i e 1 1 e e e e e i z z z z z z j 6 5 qX",
"tXtXi i t q q u z v i 5 6 u z z z z u 6 + : $ S G D % S J D % Z J D V C L H C C K a + 9 i j q 5 i i e 5 e z g g z z z z e 5 5 wX",
"tXtX6 e i c j i j c c y q y u z z i 9 5 1 7 < & Z D D S Z D D S Z Z D D Z S D S K a e e e e 4 4 q i j i i j z v v v c y 5 1 5 wX",
"tXrX1 4 { :.{ X.} %.%.%.} } l y i q 4 1 5 1 + # $ D J S $ A L D % Z L H % C J D A P n i k 4 1 4 1 ` X.X.X.X.X.X.+.X.X.[ y 5 q tX",
"tXrX4 y N.T.Z.Y.W._././.E.E.>.m e 1 1 e u 6 + Z S D S S D D D S S S Z A S D S % $ P o.{ >.] w 4 5 >.).).Q.K.).W.U.N.n.).&.6 e wX",
"tXtX` %.E.)._.}.>X>X>X>X-X`._.n.[ m k e i 9 + G H C $ D J D % Z J S C C J D % # & b -.Y./.T.| _ X.D.}.;X;X;X>X>X}.Y.Y.W.v.k 6 tX",
"tXtXS./.).`.-X;X>X>X1X7X8X7X,X`././.n.k 6 q x I C V . $ C D S S D D S D C % # S R ....z.U./.^._.}.}.*X>X>X1X7X8X3X=X}.W.U.%.` tX",
"tXtXU.W._.-X>X>X>X>X1X9XrXtXeX2X[.'./.:.m ] =. .> % & & # Z J S $ C J G S & & U 4.V.z.c.B._.[.>X>X>X>X>X:X2X7XrXtXeX,XW.Y./.V.rX",
"tXtXY.].-X>X>X>X>X>X1X2X9XtXrX7X:X'.E.N.c.B.T.&.R R E L X $ C V . X V L U E U  .B./.S.m.v.U.-X1X>X>X>X>X>X>X2X7XrXtX3X].E.B.v.tX",
"tXtXY.-X>X>X>X>X>X>X>X>X2X9XeX2X:X_.U.x.<.V.T.v.<.m.n.E > % > > * & * U 4.B.>.2.U.E.E.V.1.m.'.>X>X>X>X>X>X>X>X2X9XeX7X:XU.x.:.tX",
"tXtXB._.-X>X>X>X1X>X>X>X,X,X,X;X'.U.m.z.<.v.m.N.V.T.Y.4. .E E E E E E -.U.E.C.M.n.m.m.m.n.V.U._.-X>X>X1X>X>X>X>X7X7X*XW.U.M.z.rX",
"tXtXz.U._.-X>X>X>X>X>X>X:X'./.W.T.m.<.<.<.<.<.B.U.Y.E.R.U.Z.H.H.H.U.Z.Y.W.W.R.A.c.<.1.v.U.C.v.M.`.>X>X:X>X:X>X>X>X;XY.v.M.T.C.rX",
"tXtX:.v.U.'.[.[.].].].[.'./.E.W.T.v.,.<.<.,.<.v.V.U.E./.W.(././././.W._.`.(.A.M.m.m.m.N.m.M.m.n.T.W.W.W.W./.W.W.W.E.C.v.m.U.n.tX",
"tXtX<.z.v.U./.W.W./.W.W.W.W.Y.W.U.v.<.<.,.<.<.,.z.n.E.E.W.W.W.W.R.E.W.'.-X'.v.x.U.Y.E.C.1.v.U.U.v.z.1.z.z.<.z.z.z.z.B.W.v.m q rX",
"tXtXl [ z.m.V.T.W.E.W.W.W.W.E.U.M.z.<.z.m.m.v.1.,.m.E./.W.W.W.(.'.].].].{.W.1.v.W.'./.U.n.v.B.B.M.v.v.v.v.v.v.v.v.v.m.W.5.q 5 tX",
"tXwX5 k :.c.v.S.W.W.W.W.W.E.U.m.<.,.,.n.E.Y.U.m.<.m.Y.W.W.W.W.'.:X>X:X{._.V.z.B.].-X).T.E.S.z.v.B.T.T.T.T.T.E.T.E.U.m.B.] 6 q tX",
"tXwX5 i =.v.,.m.V.V.B.V.V.V.N.c.<.z.N.U./._.'./.U.V.V.B.B.V.B.Y.(.'._.R.B.n.V./.-X:X]._.W.T.B.v.B.V.V.V.V.V.V.V.V.V.U.+.r 9 e rX",
"tXtXi v 0.Z.X.1.1.1.1.1.1.z.,.>.z.B.T.E.W.].-X:X[.T.v.<.1.1.1.1.x.x.v.1.1.B.'.:X>X>X:X}._.W.T.U.v.>.1.1.z.z.1.1.z.v.K.v 9 e e wX",
"tXrXj m w.~.6.n.0.6.7.6.6.6.6.1.1.V./._.'.-X>X1X>X'.U.S.V.v.<.:.:.1.B.Z.A./.:X1X2X2X1X-X_.Y.U.B.n.Z.n.0.0.6.6.6.5.J.;.r e e t tX",
"tXtXt v P.@XI. XI. X X X|.|.P.D.c.n.W.].:X>X>X>X>X>X-X-X{.T.1.:.<.B.'.-X-X-X:X2X9X9X2X:X'.S.c.5.K.|. X X X X X X|.@X@.y e e e wX",
"tXtXr v s.4X$X$X$X$X$X4X$X@X8.] X.D.U._.-X>X>X>X>X>X1X1X>X/.1.:.1.U.:X1X1X1X2X9XrXeX<X'.T.m.1.5.K.XX#X$X$X$X$X$X$X4X|.x q e y wX",
"tXtXu M .XtXqXtXqXwXwXqX0X@XM y v 4.M.Z.(.{.>X>X1X>X>X>X>XW.z.:.<.A.:X1X>X2X9XrXtX8X}.T.v.z.1.5.L.@X6XqXrXwXqXwXqXqX4XB e i z wX",
"tXrXi M .XtXtXtXtXtXtXrXqX4Xn y i N +.H.U.(.-X>X>X>X>X>X-XE.<.:.<.A.].:X>X2X9XeX8X=XY.B.H.J.J.G. X#X4XqXtXtXtXtXtXtX0XB e j v tX",
"tXtXz B .XtXtXtXtXtXwX$X.X9.v e q i n J.N.V.).}.>X>X>X-X_.B.<.,.<.n./.].:X1X1X<X{.Y.m.Y.q.;.;.@.@.w.%X$X0XtXtXtXtXtX6XX.0 x n wX",
"tXtXz M f.5X%X%X%X%X&X9.M i y 9 q i ] ^.v.m.U.W.'.].'.W.V.n.v.z.x.v.V.R.'.].'.(.U.v.<.Y.+.v x g e m w.#XoX%X%X%X%X&X%XB t g v wX",
"tXtXi M 9.s./ e.e.e.s.O.5 1 q t g N =.E.Z.b.2.c.m.m.v.z.1.m.V.U.U.M.x.z.v.m.M.v.x.<.<.M.{ j e q t i n w.s.e.e.e.e.t.f.M e z v wX",
"tXtXi x $.r.~ ^ ^ W / #.t   5 e j +.v.T.).S.c.,.,.<.z.v.n.T.).'._.T.v.1.z.1.<.<.z.x.2.v.:.c 1 1 e i r O.t.~ ! ^ ^ ( y.x 6 i z wX",
"tXwX5 p Q d.a.a.i.) ( / T r u i m 3.T.'.[._.Z.c.,.z.V./.].}.:X:X-X'.A.A.U.M.1.z.B.U.U.B.,.] 1 1 5 5 9 T ) ) u.d.d.d.r.f 5 6 e wX",
"tXtX6 p Q d.k.l.d.p.) ~ Q 8.0.=.*.Z.'.;X1X}.Y.v.z.n.).-X>X>X>X1X>X-X'./.W.V.x.v.T._._.T.m.6.y 1 5 5 o I u.i.h.l.k.j.u.p 1   5 qX",
"tXtXt g ^ j.l.l.k.j.i.^ Q q.!.U.E.'.;X7XeX*XE.v.z.T.}.>X>X>X>X>X>X>X:X]./.B.2.n.'.>X-X].E./.] 4 e t 9 I i.d.l.l.k.g.u.p     5 tX",
"tXtXt d b e.d.j.j.d.d.e.Y [ c.V.).}.1X9XeX,X/.m.z.U.:X>X>X>X>X>X1X:X{.[./.B.1.M._.-X:X[.W.S.1.y i i e I j.d.d.d.d.d.r.g 1 5 6 qX",
"tXtX6 6 e s h h h W #.Y v v ] V._.}.>X2X2X1X].U.z.n._.{.>X1X>X>X>X:X'.).W.V.z.1.m.U.).W.B.c.v.c r q r i W Q / / ( y.#.i 5 5 e qX",
"tXtX1 1 6 i q 5 6 j g z z g i l U.}.:X:X:X-X].Y.b.b.U._.}.}.}.}.].'.E.U.U.Z.v.3.5.b.Z.B.z.v.%.j 5 1 q g r g I W h g g j e 5 e qX",
"tXqX1 1 5 9 e i r e 6 6 6 6 6 5 _ ).'.'.).E.U.H.w.Z.v.m.B.V.B.B.B.m.v.c.c.n.G.K.K.F.n.1.z.*.j q 1   5 e e e g n g z i e 6 5 5 qX",
"tXwX1 1 1   6 g i 5 1 1 1 5 5 1 1 m E./.V.v.6.P.+XP.n.5.5.5.H.W.Y.Z.5.5.5.F..X@XXXL.v.:.N.%.e 5 1 1 1 5 i z z z z g e 6 1   5 wX",
"tXtX5 1 1 o 1 q e 5   1 5 e e 1   6 X.B.v.D.K.@X5X4X#XOXK.~.+XOXOXOXK.K.K.+X4X6X@XK.v.:.:.] j t 5 1 1 5 t x z z z z j e 6 1 5 wX",
"tXtX6 5 6 6 5 1 1 1 1 1 e i i e 5 e d *.n.K..X5XrXtXtX4X#X4Xo.t 9 o.@X.X X@X6X5X@XL.H.{ w 5 i j 9 1 5 5 u z v z z z z d e 6 6 tX",
"tXtXe q i i q 1     5 e i t r e t z v +.~.|.@X6XtXtXtX5X$X6Xz e y n #X XF.G.!.~..X+X0.j e i e r u e 5 5 t z v z z z i e e i e tX",
"tXtXi t z x i 5 1 1 5 i u q 6 i x v v M |.|..X$XeXeXqX=X@X4Xz 6 i N @XI.2.,.<.6.I.@Xo.6 i i 6 q i i e 5 e j x v v z t 6 e j j wX",
"tXtXz z v v i 6 5 r u e 6 y i d j c i m 4.0.D.J.!.^.~. X.X+X+.' ] ;..XP.5.X.X.>.n.G.+.y q e w r e 6 5 5 6 e j z v z i e e e e qX",
"tXtXz z z v i 6 6 i i 6 6 i z i ` >.%.*.1.v.z.z.2.z.b.Q. XG.m.m.N.J. XP.n.1.c.2.1.c.v.%.[ { %.m 6 5 1 5 1 6 i d v v z z e 6 6 qX",
"tXtXv z z v i 5 5 9 e t e 6 e i { C.A.R.W././.W.W.^.OXOX~.D.z.,.,.b.!.^.).W.W././.W./.).T.B.v.<.j e e 1 6 e 9 e d z z e e e i qX",
"tXtXz d z v i 5   1 6 u i 4 ` } <.V.W.].:X:X-X:X>X7X9X=X).m.<.,.1.v.U.`.:X>X:X:X:X-X:X}./.V.z.v.X.y 6 1 e d e 6 e i e 6 e i i tX",
"tXtXz z v v i 6     5 6 e q X.N.V.T.W.'.].].[.:X1X7X7X;XW.B.c.<.z.m.E.'.>X1X1X>X}.].].'.).E.S.B.X.6 5 1 6 e y e e e e e e e e wX",
"tXtX9 i z z t 6 5 1 1 5 6 q >.S.T.T.R.W.W.W.W.'.-X;X-X'.W.B.{ ` ` *.E._.}.;X:X].).E.W.E.E.E.E.E.m o 1 1 1 5 e i 6 2 e e 6 6 1 qX",
"tXtXy i v z j e e 5 5 4 9 5 X.b.B.V.B.V.B.N.V.T.)._._.T.V.*.m i e ` m.E.).'._./.S.N.N.B.m.B.B.S.l 5 6 6 5 5 t j e 6 y i e 5 6 tX",
"tXtXwXtXtXwXtXwXwXtXtXwXtXwXtXwXtXtXrXtXrXtXtXtXtXtXtXtXtXtXrXrXwXtXrXtXtXtXtXtXtXtXtXtXtXtXtXtXtXwXwXqXtXqXtXqXtXwXwXrXwXtXtXtX"
};
