/* XPM */
static char *result[] = {
/* columns rows colors chars-per-pixel */
"69 69 208 2 ",
"   c #3E3E3E",
".  c #703F1C",
"X  c #463E39",
"o  c #573F2F",
"O  c #74411E",
"+  c #78431F",
"@  c #4B433E",
"#  c #56483A",
"$  c #5C402C",
"%  c #764421",
"&  c #784623",
"*  c #7B4926",
"=  c #764A2C",
"-  c #7D4D2A",
";  c #644939",
":  c #744D33",
">  c #73492C",
",  c #3F4042",
"<  c #444444",
"1  c #47474A",
"2  c #4B4B4C",
"3  c #4C4846",
"4  c #564E47",
"5  c #55514E",
"6  c #5B534E",
"7  c #4D4D52",
"8  c #545454",
"9  c #53545A",
"0  c #5B5B5B",
"q  c #5C5754",
"w  c #655346",
"e  c #785C4A",
"r  c #625B58",
"t  c #7A645B",
"y  c #7D604E",
"u  c #5C5C64",
"i  c #5B5B6B",
"p  c #565662",
"a  c #5D5C72",
"s  c #646464",
"d  c #696969",
"f  c #61616C",
"g  c #656574",
"h  c #64647C",
"j  c #6B6A7B",
"k  c #717078",
"l  c #814E2C",
"z  c #83512E",
"x  c #855432",
"c  c #895633",
"v  c #8B5936",
"b  c #8E5C39",
"n  c #86593A",
"m  c #915E3B",
"M  c #93613E",
"N  c #8B6347",
"B  c #966441",
"V  c #996744",
"C  c #996847",
"Z  c #996F5B",
"A  c #996E56",
"S  c #9B7059",
"D  c #8D6A53",
"F  c #A16E4A",
"G  c #A5714C",
"H  c #A9744E",
"J  c #A57451",
"K  c #A97550",
"L  c #AB7956",
"P  c #AD7C58",
"I  c #B17D59",
"U  c #997465",
"Y  c #9F7E75",
"T  c #8F7768",
"R  c #A37B6A",
"E  c #B7825D",
"W  c #9F816D",
"Q  c #B48463",
"!  c #B98663",
"~  c #BC8A65",
"^  c #BC8D6D",
"/  c #B5886B",
"(  c #B98C70",
")  c #BD9273",
"_  c #B1917B",
"`  c #A9856B",
"'  c #C28F6A",
"]  c #C28D66",
"[  c #C4926E",
"{  c #C59472",
"}  c #C99672",
"|  c #CB9874",
" . c #CD9C78",
".. c #D19E7B",
"X. c #D3A17E",
"o. c #6B6B85",
"O. c #6D6D89",
"+. c #686782",
"@. c #717189",
"#. c #7A7998",
"$. c #7D7DA4",
"%. c #937D88",
"&. c #8B849B",
"*. c #A28684",
"=. c #BF9E86",
"-. c #B69888",
";. c #A08C98",
":. c #AE9C9A",
">. c #BDA08E",
",. c #8282AC",
"<. c #8D89AD",
"1. c #8785A6",
"2. c #8585B6",
"3. c #8C8AB3",
"4. c #8686B9",
"5. c #8B8BBC",
"6. c #8788B9",
"7. c #918EB8",
"8. c #9192BD",
"9. c #9C9CBD",
"0. c #9794B7",
"q. c #948FB1",
"w. c #A291A4",
"e. c #A799AA",
"r. c #A197B7",
"t. c #A28FA2",
"y. c #B3ACB5",
"u. c #C09F86",
"i. c #D6A480",
"p. c #D8A582",
"a. c #DCA986",
"s. c #DEAD89",
"d. c #C3AA99",
"f. c #C0A592",
"g. c #C1A38E",
"h. c #E1AE8C",
"j. c #E3B18E",
"k. c #E6B492",
"l. c #E9B693",
"z. c #EEBD99",
"x. c #EBB996",
"c. c #F1BF9C",
"v. c #C8BEB8",
"b. c #C7B4A9",
"n. c #F3C19E",
"m. c #C8C0B8",
"M. c #DECBBD",
"N. c #F5C4A1",
"B. c #F9C6A4",
"V. c #FBC9A6",
"C. c #FECCA9",
"Z. c #E1CEBF",
"A. c #FFD4B0",
"S. c #8D8EC1",
"D. c #9393C5",
"F. c #9595C9",
"G. c #9B9BCD",
"H. c #9999C7",
"J. c #9D9DD1",
"K. c #9FA0D5",
"L. c #A5A5C3",
"P. c #ACACC1",
"I. c #A4A3CB",
"U. c #A8A1C9",
"Y. c #ADB1C9",
"T. c #B5B5C6",
"R. c #BEBEC7",
"E. c #B6B7C9",
"W. c #A3A3D5",
"Q. c #A6A6DA",
"!. c #A9A9DC",
"~. c #A8A8D9",
"^. c #B0AFCE",
"/. c #ACADE1",
"(. c #B4B4E6",
"). c #B6B6E9",
"_. c #BABAEC",
"`. c #B8B7EA",
"'. c #BEBEF0",
"]. c #C0BFC7",
"[. c #BFC0F3",
"{. c #CAC6C5",
"}. c #C2C3CB",
"|. c #CCCCCD",
" X c #C4C3C5",
".X c #D0D1CE",
"XX c #CECFD2",
"oX c #CDCED9",
"OX c #C5C5D9",
"+X c #DBDCDA",
"@X c #D4D4D6",
"#X c #CFD0D3",
"$X c #E2CEC0",
"%X c #E3D0C1",
"&X c #E1E0DE",
"*X c #C3C3F5",
"=X c #CECEF3",
"-X c #C6C6F9",
";X c #CDCDFE",
":X c #D1D1FF",
">X c #C9C9E8",
",X c #E6E5E4",
"<X c #E7E8E9",
"1X c #F4F4F3",
"2X c #FEFEFD",
"3X c #F9F8F7",
"4X c #F0F0EF",
"5X c None",
/* pixels */
"5X5X5X5X5X5X5X5X5X5X5X5X5X5X5X5X5X5X5X5X5X5X5X5X5X5X5X5X5X5X5X5X5X5X5X5X5X5X5X5X5X5X5X5X5X5X5X5X5X5X5X5X5X5X5X5X5X5X5X5X5X5X5X5X5X5X5X5X5X",
"5X5X5X5X5X5X5X5X5X5X5X5X5X5X5X5X5X5X5X5X5X5X5X5X5X5X5X5X5X5X5X5X5X5X5X5X5X5X5X5X5X5X5X5X5X5X5X5X5X5X5X5X5X5X5X5X5X5X5X5X5X5X5X5X5X5X5X5X5X",
"5X5X2 2 8 8 8 8 8 0 8 0 s 0 0 8 8 8 < 1 < , 2 8 2 o c x - = = n n - n : n N B n : n - - : r 0 5 8 8 8 8 8 8 8 s s s 0 q 7 0 s s 0 8 8 5X5X",
"5X5X2 2 2 0 0 8 2 8 0 s d s 8 2 2 2 3 2 , < 2 q 5 $ c v z & - v v l - c b B B M b m M x : r q 2 2 0 8 8 2 8 0 s s s 0 8 2 8 0 s 8 8 8 5X5X",
"5X5X1 1 2 8 0 8 2 8 0 s s 0 1 @ 1 2 2 3 < 2 2 ; : : c M c - z b v - - m V V V V V V V v - - 3 5 8 0 0 2 8 8 s d s s s 8 8 2 0 0 8 2 2 5X5X",
"5X5X7 8 0 8 2 0 0 8 2 8 2 1   , 8 0 2 < < < @ : z v z z c v c z z c m M V V V V V C V v & + ; 8 8 2 2 8 0 d d d d d d d 0 0 8 2 8 8 8 5X5X",
"5X5X8 q 0 2 < 8 s 8 1 < ,   , 2 0 0 8 < < < @ > v M z * z M c & * m B V V M M V V B M c - O - 8 0 2 2 8 s d 0 s s 0 s s 0 8 2 2 0 0 8 5X5X",
"5X5X2 2 2 3 < 2 2 2 @ , , 2 8 0 8 8 0 8 2 < @ $ z z z c c z * + + l v M M v z b V b x c v z = ; 5 8 8 8 8 8 2 8 2 8 2 8 8 2 < < 2 8 8 5X5X",
"5X5X< < < < < < < , < , < 8 0 0 8 7 0 0 4 $ $ > % & c m c & & & % + - v b - * c M v - * b b - - # 8 0 2 < < 1 , 2 1 @ , 2 < , ,   2 2 5X5X",
"5X5X2 8 2 < < 2 8 2 < 2 8 8 8 8 8 8 8 8 # = z x * & l x c x x x z % % z z - & - z - + * z c z - # 8 8 2 < < , 2 8 2 < 1 2 8 3 , < < 2 5X5X",
"5X5X8 0 0 2 2 8 0 8 2 2 0 8 2 2 0 0 8 2 # = b b l % % * x m V B v - O % & % % & & & % O O - b n ; 2 < 2 < < @ 8 0 8 2 2 0 0 8 < < 2 2 5X5X",
"5X5X0 8 8 8 0 0 s 8 < 2 8 0 8 8 8 8 0 2 # = x x * + * l x v v b z & O O O % + % O O O O O z J E e < < < 2 2 8 0 8 8 8 0 d s 8 8 2 8 8 5X5X",
"5X5X8 8 8 8 s d s 8 < < 2 8 0 0 2 7 q 0 4 > & & % % c b c * & & & % O % % % % % % % % O O n ~ X.W @ , , 2 8 0 8 2 2 0 s s s s s s s 0 5X5X",
"5X5X8 8 8 0 d d s 0 8 2 @ 1 8 0 8 8 0 s w % + % z c b b l + . + O O O % % % % O + - M M M K i.l._ 5 2 2 8 0 0 8 8 0 d d s d d d d s 0 5X5X",
"5X5X8 8 0 d d s s s 0 8 < < 2 8 q 0 s s 4 % + - C G m * & % . % + O O O + % % O + M Q { [ X.n.B._ 8 2 8 s 8 2 8 0 0 d d d d s d d s 0 5X5X",
"5X5X8 0 0 s s s s d d 0 2 , < 8 s s d s 4 % & c C J m - * - & % * z v b c * % - M E a.s. . .i.l.W 5 2 8 0 8 2 8 0 s s d s s s d d 0 0 5X5X",
"5X5X8 8 8 0 d s s d d 0 2 2 8 0 s d d s # > c v x x v v b b z & x P ' ^ P c - C  .l.c.i.J b m P ` e 2 2 2 8 8 8 8 8 0 d d s s d s s 0 5X5X",
"5X5X8 2 2 8 s s d d d 0 1 2 0 d s s d d 8 # C M c - v B B B c % b { j.k. .G M ' N.A.V.i.C l - m ! _ q , 2 8 0 8 2 0 s s s s s s s 0 8 5X5X",
"5X5X0 0 8 8 5 0 s d d 8 , 2 d d d s s 0 8 < 6 H G V v z - x * . c { k.z.l.i.| l.C.A.C.x...{ { ' ! ` r 2 8 8 8 8 8 s d d d s s s 0 2 1 5X5X",
"5X5X0 0 8 8 8 8 0 d s 8 2 2 0 d s s s 0 8 2 @ @ N E B - & % % & B { k.N.V.V.V.C.C.C.C.C.B.C.C.x.! D 6 0 0 8 2 8 0 s s s s s s 0 8 < @ 5X5X",
"5X5X2 7 8 0 8 8 8 s s 0 2 < 2 0 s d 0 8 < < < < @ G H J M * c C ~ s.N.B.C.C.A.C.C.C.C.C.N.N.B.k.E N q 8 0 8 8 8 8 0 d d d 0 0 8 1 < < 5X5X",
"5X5X< , 7 0 0 8 2 8 0 0 2   < 2 0 s 8 2 < < < <   ; E | J - B | k.N.C.C.C.C.C.C.C.C.V.n.h.a.s...E y 3 2 2 8 0 8 2 8 s d s 0 8 @ , < 2 5X5X",
"5X5X@ , 2 8 8 2 @ 2 8 8 8 2 < < 2 8 < < 2 8 2 < < ; G P M * G s.B.C.C.C.C.C.C.C.C.B.n.s.{ E I Q W 2 < < @ 2 8 2 < 2 8 8 8 8 2   , 3 8 5X5X",
"5X5X8 2 2 2 2 ,   < 2 8 0 8 2 2 < < < < 8 0 8 2 4 e v - % % J l.C.C.C.C.C.C.C.C.V.n.h.{ P M x e 0 2 < 3 , < 2 , < < , , , 2 ,   < 2 2 5X5X",
"5X5X8 2 < 2 8 1 @ 1 2 8 0 8 8 2 8 2 2 2 8 8 8 8 8 t N - + z H a.c.N.N.n.n.n.n.N.c.s.} / Y U D 9 8 2 < < 2 < < , 2 8 2 2 < < 2 2 2 1 2 5X5X",
"5X5X2 < < 0 0 8 , 8 0 0 7 8 0 0 s s 0 0 7 7 7 9 f &.W B v m G ' ..s.j.j.j.j.j.l.h.} P Y w.9.1.7 2 < < < < < < 8 0 s s 8 < 2 0 0 2 2 3 5X5X",
"5X5X< 2 8 8 0 8 8 8 8 8 7 8 s s s s d d g 2.,.,.D.I.;.U Z U R P ! ' | | } } } | { Q T *.U./.J.+.2 < <   < 2 2 0 s s d 0 8 2 8 0 8 2 2 5X5X",
"5X5X2 8 0 8 2 0 0 8 2 2 8 s s d s s s d @.S.6.D.Q.Q.D.%.<.r.*.A F G H H K K K H J U %.3.W././.J.@.2   , 2 8 0 s d d s s s 0 2 8 8 8 8 5X5X",
"5X5X8 8 s 8 2 8 0 8 2 8 0 d d s s s g 2.5.D.D.H.J.J.F.S.G.Q.e.U A Z Z Z Z Z Z Z Z *.2.F.K.K.~.K.9.j 2 , 2 0 s d d d s d 0 0 2 2 8 0 0 5X5X",
"5X5X8 8 8 8 0 8 2 8 8 s d d s s s u o.K./.(.(./.J.F.G.K.Q.!.I.e.t.w.w.w.w.w.w.w.w.9.K.G.D.D.8.D.K.G.g 8 2 8 d d s d s 0 8 8 8 0 8 8 2 5X5X",
"5X5X2 2 2 8 0 8 2 2 0 s s d 0 0 g @.,.K.*X:X:X[.G.5.H.Q.!.~.!.!.~.!.!.~.!.~.~.~.W.~.~.J.D.8.5.D.J./.3.g 2 8 0 s s 0 0 0 2 2 0 0 8 < 1 5X5X",
"5X5X2 2 < 2 8 8 8 8 8 0 s d s 0 #.K.K.!.-X:X:X[.J.5.5.H.K.!.!././././././././.W.G.G.H.K.~././.~.J.D.D.8.2 2 8 0 d 0 8 8 0 0 8 8 3 < < 5X5X",
"5X5X< < < < 2 8 0 8 2 8 0 d s 0 @.H.~.(.-X;X-X[.J.4.4.S.H.W.~.Q.!.!.~.~.!.!.Q.H.5.6.6.J.'.;X;X_.W.5.6.3.7 < 2 8 0 0 2 8 0 0 8 < < < 1 5X5X",
"5X5X< , < < < 7 8 2 , < 8 8 8 7 O.W._.*X;X-X(.W.D.6.4.6.S.F.G.G.G.F.G.G.G.G.F.5.2.2.6.J.[.:X:X-X~.D.D.O.< , 1 2 8 2 1 3 8 5 2 , < 1 3 5X5X",
"5X5X3 2 2 < , 1 2 , < < < 1 1 < +.!.*X;X;X_.K.5.6.6.6.6.6.S.5.5.S.6.5.5.5.5.5.6.5.6.6.J.'.:X;X*X(.Q.J.a 1 , < < 2 <   , 2 < , < 1 3 2 5X5X",
"5X5X< < 2 2 @ , @ , , , @ , , , +.W.[.-X;X[.I.0.5.5.0.9.H.9.9.9.9.9.H.9.9.9.9.H.9.8.5.J.'.:X;X-X)./.J.i 2 2 , @ < ,   < 2 2 , < 2 8 8 5X5X",
"5X5X8 0 8 2 <   , < < < < < , 1 O.G./.'.-X=XOXT.9.5.L.}.}.R.R.R.].].].].].].].}.R.9.0.J.*X;X;X-X).Q.J.a 0 5 1 < , , @ 8 0 0 2 < 8 8 8 5X5X",
"5X5X0 0 0 8 2 2 2 2 2 2 < < 2 2 O.G.Q.(.-X=XoX X9.8.P.|.@X+X+X+X+X+X+X+X+X+X+X@X|.T.8.J._.:X;X-X).Q.G.j 0 8 2 1 1 1 2 8 0 0 8 2 8 8 8 5X5X",
"5X5X8 8 8 8 0 0 0 s 0 8 1 2 8 8 o.G./.).-X=XoX X9.8.P.|.&X4X1X1X1X1X1X1X1X1X4X&X|.P.5.J._.:X;X-X).~.H.g 8 q 0 7 2 2 8 0 2 8 8 8 8 8 8 5X5X",
"5X5X8 2 8 0 d d s s s 8 2 7 8 8 o.G.Q.).-X=XoX].9.5.P.XX,X2X2X2X2X2X2X2X2X2X2X&X|.P.8.J.'.:X:X-X).~.8.p 2 8 0 8 2 2 0 0 2 2 0 0 8 7 8 5X5X",
"5X5X8 8 0 d d d s 0 8 8 0 8 2 2 O.F./.(.'.=XoXR.9.8.y.|.<X3X2X2X2X2X2X2X2X2X2X,X|.P.8.G.*X;X;X-X[.~.5.u 8 0 2 2 < < 2 8 0 0 8 2 8 q 0 5X5X",
"5X5X8 0 d d d d d 8 2 2 0 0 2 1 O.G./.).-X-XoXR.9.5.L.XX,X2X2X2X2X2X2X2X2X2X3X,X|.P.5.J._.:X:X-X(.~.D.f 0 8 2 < @ < , 8 0 0 8 2 8 s d 5X5X",
"5X5X0 s d d d d s 0 0 8 8 8 8 8 O.F./.).-X=XoX].9.8.L.|.,X2X2X2X2X2X2X2X2X2X3X,X|.P.8.J.[.;X;X-X(.~.8.i 8 8 8 8 2 2 8 8 2 8 8 0 0 d d 5X5X",
"5X5Xs s d d s s s d s 8 1 2 0 8 +.G./.(.-X=XoX].9.8.P.|.<X3X2X2X2X2X2X2X2X2X3X,X|.P.5.J.[.;X;X-X).~.8.0 2 8 0 8 2 8 0 8 2 2 8 s s d d 5X5X",
"5X5X0 s s d s 0 0 8 0 2 < < 2 7 o.J.!.`.-X=XoX].9.8.Y.oX<X2X2X2X2X2X2X2X2X2X2X,X|.P.8.J.'.;X:X-X[.~.8.u 8 8 0 2 < 2 8 0 8 8 8 0 s s d 5X5X",
"5X5X8 0 0 d s 8 3 1 < 1 1 < < 1 O.G.~.`.-X=XoX].9.0.y.|.,X3X2X3X2X2X2X2X2X2X3X&X|.P.8.J.'.;X;X*X(.!.8.u s 8 2   <   < 8 0 0 2 2 8 s d 5X5X",
"5X5X8 2 8 0 8 1 < 1 8 2 1 X   , +.D.J./.-X=XoX Xe.;.-.y.v.Z.$X$XZ.M.Z.%XZ.$XM.v.b.e.7.J.'.-X-X).K./.8.u 8 2 < < < < < 2 8 8 2 , 2 0 0 5X5X",
"5X5X< 1 1 1 , @ 1 8 q 8 1 , , , +.S.5.W.*X=XoXm.>.( / ( ^ [ { ) ) { ) ) { ) ) ) ) *.3.K.'.-X)./.8.i 2 , 2 < < < 3 < < , < < < , 2 2 2 5X5X",
"5X5X2 2 2 , , 2 8 8 0 8 8 8 2 2 &.~.8.G.[.=XoXm.>.~ [ | | | | | } } | | | | | ] / *.3.K.[.[./.G.j , 1 2 2 2 < 2 8 2 < < 2 2 < < < < , 5X5X",
"5X5X8 8 0 8 2 0 s 0 8 8 0 0 0 0 k j #.K.-X=XoXm.=.^ X.n.c.z.n.c.n.n.n.n.n.n.x.X.^ W <.K.[.[.!.<.9 , 2 8 8 8 , 2 8 8 , 2 8 8 2 < , , < 5X5X",
"5X5X0 8 0 8 8 0 0 8 8 0 s d d s d s a Q.*X=XoXm.=.] X.n.B.C.V.n.n.V.C.n.n.V.n.h.^ *.<.G.(.[./.k 2 2 8 0 0 0 2 8 0 0 2 2 s s 8 2 @ < 2 5X5X",
"5X5X2 2 5 8 0 8 2 8 0 d d d d d d s h !.[.=XoXm.=.~ ] X.x.C.z.i.s.n.V.X.X.n.V.h./ *.3.5.H.9.k 8 2 8 0 8 8 8 0 8 8 8 0 s s s s 8 1 2 2 5X5X",
"5X5X, , 2 0 0 2 2 8 0 s s s s 0 s 0 h Q.[.=XoXm.u.! E ! p.z.s.^ } k.l.} [ a.x.X.^ *.q.8.3.9 , , 2 8 8 2 < 2 s 8 2 8 s d s s s 0 2 2 2 5X5X",
"5X5X, @ 2 2 8 8 8 8 8 8 8 2 2 8 8 7 h ~.-X=XoXm.=.! E Q { ..} ! E X.| ~ ~ } ..[ ! -.y.L.#., , 1 2 7 8 < < < 8 8 8 0 s d s 0 0 8 3 1 1 5X5X",
"5X5X< < <   < 0 s 8 < , , @ 2 < < 1 g ~.[.=XoXm.g.) ~ ^ ^ ^ ^ ^ ^ [ ^ ^ ^ ^ ) ~ ) g. X^.1.2 < , < < 2 < < < @ 0 s s s s s 0 8 , < < < 5X5X",
"5X5X< 1 <   , 8 0 2 1     2 7 8 1 , a W.>XoX.X{.b.d.d.d.d.d.d.d.d.d.d.d.d.d.d.d.d.y.P.I.#.2 < , < 8 8 < <   , 8 d d s s s s 0 8 1 < < 5X5X",
"5X5X2 < 2 2 < < < 1 , , 2 8 0 0 2 , h L.}.XX|.|.{.{.{.{.{.{.{.{.{.{. X X{.}.{.{. Xy.H.#., , , , 2 0 0 8 < < , 8 s s d s s s s 0 7 2 < 5X5X",
"5X5X2 8 8 8 8 2 <   @ 2 8 8 0 0 8 8 o.H.L.Y.P.T.}.|..X.X#X#X.X.X|.E.Y.Y.E.}..X.X|.T.D.u 7 , 2 8 0 0 0 8 2 2 2 8 s d s s d s 0 8 0 8 2 5X5X",
"5X5X8 8 0 d 0 2   <   2 0 0 2 2 0 s O.S.7.5.5.H.E..X.X|.|.|.|.|.R.9.5.5.9.T.|..X}.Y.3.u 9 2 8 0 0 2 2 0 0 8 2 8 0 s d d d 0 8 2 0 0 0 5X5X",
"5X5X0 0 d d s 2 < 2 2 8 8 8 8 8 u g O.S.2.4.4.5.L.T.T.T.T.T.T.E.L.5.2.2.6.9.T.R.T.L.3.9 8 , 2 0 8 8 8 8 8 2 2 2 0 s s d d s 8 2 0 0 q 5X5X",
"5X5Xd s s d s 2 2 8 0 0 2 2 0 0 p h %.S.4.4.4.6.7.7.8.8.8.8.8.8.8.6.2.4.6.5.8.8.8.8.5.p 2 , , 2 8 0 0 8 1 < 1 @ 2 8 0 d d s s 0 8 2 1 5X5X",
"5X5Xd d s d 0 8 1 8 0 8 2 8 8 0 #.J.F.S.F.G.H.H.F.D.D.5.4.4.6.6.6.F.H.G.H.G.F.H.D.8.D.#.2 , 2 , 8 0 0 8 2 , 1 1 2 8 0 s d s s 0 8 2 2 5X5X",
"5X5Xs s s d s 7 , 2 8 8 0 8 2 2 @.F.W.!.`._._._.`.).!.J.D.6.6.4.F./.'._._._._._.[.K.8.D.j 0 8 8 8 8 2 8 0 8 2 2 0 8 2 8 0 s 8 2 8 0 q 5X5X",
"5X5X0 s d d s 2     , 2 0 8 2 , o.J.!.(.*X-X-X-X-X*X`.!.G.6.4.6.G._.-X-X-X-X-X-X[./.F.5.6.,.j 0 8 2 8 0 0 2 @ 2 0 8 2 2 0 0 2 8 9 0 q 5X5X",
"5X5Xs s d d s 2 < < < 1 2 8 8 7 o.G.!./.(._.`.`.(.(.(.~.G.5.4.6.F.!._._._.).`.`.).!.W.G.K.J.,.u 8 q 0 8 2 < < 1 2 q 0 0 8 2 8 8 8 8 2 5X5X",
"5X5X8 0 d s 0 8 2 < < < 1 5 8 8 O.J.W.!.~.~.~.~.~.~.~.~.H.5.6.6.D.W.!.~.Q.Q.~.~.Q.Q.W.~.~.G.D.#.9 0 q 7 < 1 < < 1 7 0 8 2 2 8 8 2 2 2 5X5X",
"5X5X8 8 s d 0 0 8 2 1 1 1 2 5 7 o.F.K.G.J.J.G.J.G.J.J.G.D.5.6.6.5.H.G.G.G.G.G.G.I.G.J.W.W.F.5.1.s 9 q 2 1 2 1 < 1 5 0 8 2 2 8 0 2 2 2 5X5X",
"5X5X5X5X5X5X5X5X5X5X5X5X5X5X5X5X5X5X5X5X5X5X5X5X5X5X5X5X5X5X5X5X5X5X5X5X5X5X5X5X5X5X5X5X5X5X5X5X5X5X5X5X5X5X5X5X5X5X5X5X5X5X5X5X5X5X5X5X5X",
"5X5X5X5X5X5X5X5X5X5X5X5X5X5X5X5X5X5X5X5X5X5X5X5X5X5X5X5X5X5X5X5X5X5X5X5X5X5X5X5X5X5X5X5X5X5X5X5X5X5X5X5X5X5X5X5X5X5X5X5X5X5X5X5X5X5X5X5X5X"
};
