/* XPM */
static char *result[] = {
/* columns rows colors chars-per-pixel */
"69 69 208 2 ",
"   c #3E3E3E",
".  c #723F1B",
"X  c #473E37",
"o  c #593F2E",
"O  c #73411E",
"+  c #4A423D",
"@  c #5C4839",
"#  c #764421",
"$  c #794623",
"%  c #7B4925",
"&  c #7E4D2A",
"*  c #73492C",
"=  c #694A36",
"-  c #7C5133",
";  c #754D34",
":  c #3F3F41",
">  c #444444",
",  c #464649",
"<  c #4B4B4C",
"1  c #4A4744",
"2  c #544B47",
"3  c #4C4C53",
"4  c #4D4D59",
"5  c #545454",
"6  c #54535B",
"7  c #5B5B5B",
"8  c #5E5854",
"9  c #54514E",
"0  c #685547",
"q  c #665E59",
"w  c #705543",
"e  c #746154",
"r  c #535361",
"t  c #5B5B64",
"y  c #5C5C6C",
"u  c #605E71",
"i  c #646464",
"p  c #696969",
"a  c #666466",
"s  c #666575",
"d  c #67677C",
"f  c #814F2B",
"g  c #814B26",
"h  c #83512E",
"j  c #845432",
"k  c #885633",
"l  c #8B5935",
"z  c #8E5D3A",
"x  c #865839",
"c  c #905E3B",
"v  c #93613E",
"b  c #856148",
"n  c #956441",
"m  c #996643",
"M  c #9B6945",
"N  c #9B6A4A",
"B  c #876A5A",
"V  c #976D57",
"C  c #9A715B",
"Z  c #A06D48",
"A  c #A7744E",
"S  c #A57451",
"D  c #A87551",
"F  c #A97A5A",
"G  c #B37F5A",
"H  c #9C7867",
"J  c #957775",
"K  c #A27860",
"L  c #B5825D",
"P  c #A6836E",
"I  c #B68461",
"U  c #B98663",
"Y  c #BD8A65",
"T  c #BC8D6D",
"R  c #B2876B",
"E  c #AA8674",
"W  c #BC8F70",
"Q  c #B28C79",
"!  c #BE9374",
"~  c #BB9478",
"^  c #BE906F",
"/  c #C18D6A",
"(  c #C18C65",
")  c #C5926E",
"_  c #C9936D",
"`  c #C79571",
"'  c #CA9673",
"]  c #CC9976",
"[  c #CD9C79",
"{  c #D09D79",
"}  c #D4A17D",
"|  c #D8A37E",
" . c #6C6B83",
".. c #696987",
"X. c #727289",
"o. c #767695",
"O. c #7B7B9D",
"+. c #7A7A97",
"@. c #7D7DA1",
"#. c #827981",
"$. c #94869E",
"%. c #98838F",
"&. c #A28E99",
"*. c #AD928C",
"=. c #BBA79F",
"-. c #8484AC",
";. c #8C85A4",
":. c #9388A6",
">. c #8485B5",
",. c #8A89B3",
"<. c #8686B9",
"1. c #8B8BBC",
"2. c #8887B2",
"3. c #8F90BC",
"4. c #9292BC",
"5. c #9B9BBD",
"6. c #9594B1",
"7. c #9E93AD",
"8. c #A291A3",
"9. c #A396AE",
"0. c #A398B5",
"q. c #B8A7A5",
"w. c #A2A2BF",
"e. c #B5ACB7",
"r. c #DBA986",
"t. c #DDAB88",
"y. c #D7A582",
"u. c #C3AB9A",
"i. c #E1AD89",
"p. c #E3B18D",
"a. c #E6B491",
"s. c #ECB996",
"d. c #EEBD9A",
"f. c #E9B794",
"g. c #F1BE9C",
"h. c #C7B7AB",
"j. c #CABEB3",
"k. c #F3C19E",
"l. c #F9C39D",
"z. c #D8C6B9",
"x. c #F6C4A1",
"c. c #F8C6A4",
"v. c #FBC9A6",
"b. c #FECCA9",
"n. c #FFD0AE",
"m. c #E1CEBF",
"M. c #FFD2B0",
"N. c #8D8EC1",
"B. c #8F90C3",
"V. c #9292C4",
"C. c #9D9DC3",
"Z. c #9696C9",
"A. c #9B9BCD",
"S. c #9798CC",
"D. c #9E9ED2",
"F. c #9798D0",
"G. c #908FC1",
"H. c #A19ECC",
"J. c #9FA0D3",
"K. c #ABABC2",
"L. c #A6A3C5",
"P. c #B4B4C5",
"I. c #BBBBC6",
"U. c #BCBDC9",
"Y. c #B6B6C7",
"T. c #A2A2D4",
"R. c #A5A6D9",
"E. c #AAAADC",
"W. c #A7A8DB",
"Q. c #B7B8D8",
"!. c #AFB1C8",
"~. c #ADADE1",
"^. c #B2B2E4",
"/. c #B6B6E9",
"(. c #BABAED",
"). c #B8B8E9",
"_. c #BEBEF0",
"`. c #AFB1E8",
"'. c #C0BFC7",
"]. c #C0BFC8",
"[. c #BFC1CA",
"{. c #CAC7C5",
"}. c #C3C3CA",
"|. c #CBCACB",
" X c #C7C6CA",
".X c #D1CFCD",
"XX c #D1D1CF",
"oX c #CECDD0",
"OX c #D5D5D4",
"+X c #DCDBDA",
"@X c #D7D8D7",
"#X c #E1CEC0",
"$X c #E2D0C0",
"%X c #CECFE5",
"&X c #C7C9E3",
"*X c #CFD0E5",
"=X c #CED1E8",
"-X c #C2C2F4",
";X c #C6C6F8",
":X c #CCCCFC",
">X c #CBCAF8",
",X c #D1D2F4",
"<X c #EDEEED",
"1X c #E9E9E7",
"2X c #F0F0EF",
"3X c #F3F3F3",
"4X c #FEFEFE",
"5X c None",
/* pixels */
"5X5X5X5X5X5X5X5X5X5X5X5X5X5X5X5X5X5X5X5X5X5X5X5X5X5X5X5X5X5X5X5X5X5X5X5X5X5X5X5X5X5X5X5X5X5X5X5X5X5X5X5X5X5X5X5X5X5X5X5X5X5X5X5X5X5X5X5X5X",
"5X5X5X5X5X5X5X5X5X5X5X5X5X5X5X5X5X5X5X5X5X5X5X5X5X5X5X5X5X5X5X5X5X5X5X5X5X5X5X5X5X5X5X5X5X5X5X5X5X5X5X5X5X5X5X5X5X5X5X5X5X5X5X5X5X5X5X5X5X",
"5X5X< < 5 5 5 5 5 5 7 7 i 7 7 5 5 9 , , >   3 + h - x x x b n z x x - x x & * * - j $ o < 7 7 3 5 5 5 5 5 5 5 i i i 7 7 5 5 i i 7 5 5 5X5X",
"5X5X< < < 7 7 5 9 5 7 t i i 5 < < < < , + > < 2 h l c z z n n v l j & h z h $ $ h l f @ 2 q 7 9 9 7 5 5 < 5 7 i i i 7 5 9 5 i 7 5 5 5 5X5X",
"5X5X, , < 5 7 5 < 5 7 i i 7 > > , 9 3 > > @ = ; - v M M M n n M n k & h c l f h l v h g - 2 5 5 5 7 7 9 < 6 i p i i i 7 5 5 5 7 5 < 3 5X5X",
"5X5X< 5 7 5 9 5 7 5 < 5 5 >   > 5 7 < > > @ . O h v M M n M M M m v l k h h l l h h h l j X 5 5 5 < < 5 7 i p p p p i i 7 5 9 5 5 5 5 5X5X",
"5X5X5 7 7 < > 5 i 5 , 1 >   > < 7 7 9 < 1 = O % h v v v n v v v m v v j $ & z z g % l c l + 9 7 5 < < 5 i i i i i i t i 7 7 , < 7 7 5 5X5X",
"5X5X< < 9 , > < 9 , > :   < 5 5 5 5 7 9 w $ % k k h l v v l k v n c j % # # h h k k k h g * 1 5 5 5 5 7 5 5 9 3 3 9 < 5 5 < > : 9 5 5 5X5X",
"5X5X> > >   > , > : : : 1 5 7 7 5 5 7 0 % O h v l $ & v c & $ l v k % O $ $ # f l v h # O g 0 > < 7 7 < > > > > 1 > : > , , >   : < 5 5X5X",
"5X5X< 5 9 > > < 5 < 1 , 5 5 5 5 5 5 5 @ % h k l h # % h h $ # & h f $ $ h k j j l h $ # & h - + < 9 5 < >   > < 5 3 > > < 9 , > : > , 5X5X",
"5X5X7 7 7 < < 5 7 5 , 5 7 5 < < 5 7 5 @ z v h % # $ # $ # # # # % % O h c n v z & # # % j c x X , < > < < > > 5 7 5 < 9 7 7 < > > , 9 5X5X",
"5X5X5 5 5 5 5 i i 5 , < 5 7 5 5 5 8 9 w L L v O . O O # # # # # O O O & j z l l j f % O h x - X >   > > , < 5 5 5 5 5 7 p i 7 5 9 5 5 5X5X",
"5X5X5 5 9 5 i p i 5 , > < 9 7 7 9 < 8 H i.] S * . # O # # # # # O # # # $ $ $ h l v f O $ % - X >   >   < 5 7 7 < < 7 i i i 7 i i 7 7 5X5X",
"5X5X9 5 5 7 p p i 7 9 < > , 5 7 5 5 q E l.a./ m c n l $ O # # O # O O # # # O % j l l j f O & + < < < < 9 7 7 5 9 5 p p p p p p p i 7 5X5X",
"5X5X5 7 i i i i i i 7 5 >   < 5 7 7 q E v.x.t.] ` ` F h O O # # O O O O # O # # % h M S c $ % + 7 < < 5 7 7 < 7 7 i p p i p p p p i 7 5X5X",
"5X5X9 7 7 i i i i p p 7 < > , 5 q p p P s.t.y.' { p.] A l $ $ f l l l h % # $ & % h M S v f O = 5 < < 5 7 5 < 5 7 7 i p p i i p i i 7 5X5X",
"5X5X3 5 < 7 i i i p p 7 < < 9 7 i i q P _ v v v I a.d.t.T l $ N U / U N & $ l c c z l k l c h = < > < < < 5 7 5 5 5 i i i i i p i t 7 5X5X",
"5X5X5 9 < 7 i i p p p 7 , < 7 p p i q P L h & k I f.M.M.p.S v U t.p.y.L & $ z v v c j & l v N w > >   > < 5 7 5 < 5 i p i i i i i 8 5 5X5X",
"5X5X7 7 5 5 5 7 i p p 5 > < i p p i 7 V _ ) ' ` r.x.M.b.x.y.] t.d.s.t.F & # h h & h n N v S q 9 9 > > < 5 5 < 5 7 i i i i i i i 7 < , 5X5X",
"5X5X7 7 7 5 5 5 7 p i 5 < < 7 p i i 7 e | c.v.v.c.b.b.b.b.b.b.b.c.k.t.I j # # # $ h Z I U w < i i < < 7 7 5 < 5 7 i i i p i i 7 5 > > 5X5X",
"5X5X< < 5 7 5 5 7 7 i 7 < > < 7 i i 7 b } l.v.k.c.b.b.b.b.n.b.b.v.c.s.} L n % & N D Z F B < 5 5 9 > < 5 5 5 5 5 5 7 i p i i 7 < > > > 5X5X",
"5X5X  : < 7 7 5 < 5 7 7 < > > < 7 i 5 @ Y | t.t.f.c.b.b.b.b.b.b.v.b.c.k.t.I j k T ` Z b i i 5 < > > > < < 5 7 5 < 5 i p i 7 5 >   , < 5X5X",
"5X5X> > , 5 5 1 > < 9 7 < < > > 9 9 > + 0 L L Y [ f.x.b.b.b.b.b.b.b.b.v.k.` k h A F M w i p 7 5 < , > > > < 5 < > < 9 5 5 5 <     < 5 5X5X",
"5X5X5 5 , < < >   > < < 7 7 < , > < > > 5 8 k Z I y.f.c.b.b.b.b.b.b.b.b.v.[ l O % h v b i p i i 7 < , , > > < > > > > > > > > > > < < 5X5X",
"5X5X5 < > < 5 , + < < 5 7 7 5 < 9 5 < < 5 5 B H E T } a.x.k.g.k.k.x.k.k.f.` v % $ - V *.J i i 7 5 > > < < > > , < 5 5 < > > < < < > < 5X5X",
"5X5X, > > 5 7 5 > < 7 7 < 3 7 7 i 7 7 7 3 y :.w.&.F L } a.a.p.p.p.p.p.t.] L M l k N %.w.L.d r 3 < > > > > > > 3 7 i i 5 > < 7 7 < < < 5X5X",
"5X5X, < 5 7 7 5 5 5 7 < < 5 i p p i p i 7 +.R.E.0.H F W ] ' ' ' ` ' ' Y L F H H V J 6.W.F.-.-.-.6 ,   : , < < 7 i i p 7 5 5 5 7 5 < < 5X5X",
"5X5X9 5 7 5 < 5 7 5 < < 5 i i p i i i i s -.`.W.C.:.#.C D D S D D A S A Z H &.7.$.;.C.W.F.1.<.N.@.y >   < 5 7 i i p i i i 7 < < 5 5 5 5X5X",
"5X5X5 7 7 5 < 7 7 7 < < i i p p i 7 i  .3.A.W.T.D.V.:.J C C S C C C C C C %.L.R.V.B.A.J.A.Z.B.Z.S.3.y , < 5 p p p p p i 7 7 < < 8 7 5 5X5X",
"5X5X5 5 5 7 7 5 < < 7 7 i p i i p i p ,.E.V.B.B.Z.D.C.9.8.8.8.8.8.8.8.8.8.0.L.E.R.A.S.S.T.^.).).J.V.3.y < 5 p p i i i 7 5 5 5 5 5 5 5 5X5X",
"5X5X5 < , 5 7 5 < < 7 i p i i 7 t X.-.J.F.3.3.B.Z.R.R.R.R.W.W.W.E.R.R.E.E.R.E.E.W.J.B.B.E.;X:X:X`.Z.3.o.< < i i i i i 5 < 5 7 7 9 , , 5X5X",
"5X5X, > 1 < 5 5 5 5 7 7 i p i 7 t Z.J.A.J.~.~.E.R.A.Z.Z.D.R.~.~.~.~.~.~.~.~.E.R.A.Z.1.3.~.:X,X:X_.J.B.O.4 < < 7 i 7 5 5 5 7 5 5 , > > 5X5X",
"5X5X> > > > < 5 7 7 < < 7 i i 7 t 2.<.V.~.:X:X:X^.V.<.<.3.D.E.E.E.E.E.R.R.E.E.J.V.<.<.B.E.;X:X:X-X^.T..., : < 5 7 6 9 5 7 7 5 + > > , 5X5X",
"5X5X> > < > > < 5 < > 1 5 5 7 5 6 2.V.A.).:X,X:X^.V.>.>.1.V.A.A.F.F.A.A.A.A.A.V.1.<.<.N.A.E._.;X;X_.^.d : : , 5 5 < , , 5 5 < : > > , 5X5X",
"5X5X> < < > > > > > > > > , , > 3 2.D.E.(.:X:X:X^.V.<.<.<.1.,.1.1.1.1.1.1.1.1.1.<.<.<.<.1.B.E.;X:X:X_. .> : > < < >     , >   > , < < 5X5X",
"5X5X> < < > > : : : : > > : : : 3 >.J.~.-X:X:X:X^.V.1.5.C.5.5.5.5.5.5.5.5.5.5.5.w.C.3.,.3.5.Q.;X:X;X/. .9 > : : > :   > 9 <   > < 5 5 5X5X",
"5X5X5 5 5 < > > > > > > > > > > 6 ,.J.~._.:X:X:X^.G.4.P.}.}.}.'.'.'.'.].].}.].].}.I.5.3.w.[.&X>X-X/.~...5 3 > : > > , < 7 7 < > 5 5 5 5X5X",
"5X5X7 7 7 5 < < < < 9 , > > < 5 6 <.J.~._.:X:X:X^.V.5.'.XX@X@X+X+X+X+X+X+X+X+X+XOX[.w.3.w.|.=X:X-X~.R.X.5 5 9 , > < < 5 7 7 5 < 7 5 5 5X5X",
"5X5X5 5 9 5 7 7 7 i 7 9 > , 5 9 4 ,.J.E.-X>X:X:X^.V.4.'.@X1X3X3X3X3X3X3X3X3X3X1X+X[.C.3.e.oX*X>X-X~.T.o.3 3 5 5 < < 7 7 < 3 5 5 5 5 5 5X5X",
"5X5X3 9 5 7 p p i i i 5 3 5 5 5 4 <.J.~.-X:X:X:X^.V.6.I.@X2X4X4X4X4X4X4X4X4X4X3X+X[.5.3.K. X=X>X-X^.R.o.3 3 7 5 < < 7 7 < < 7 7 < 5 5 5X5X",
"5X5X5 5 7 i p p i 7 5 9 5 5 5 , 5 ,.J.~._.:X:X:X^.B.4.I.OX2X4X4X4X4X4X4X4X4X4X3X+X[.5.4.K. X=X>X-X`.R.o.5 5 < < > > < 9 7 7 5 < 5 8 7 5X5X",
"5X5X5 7 p p p p i 7 < 5 7 7 5 , 6 ,.J.~._.:X:X:X^.V.5.I.OX2X4X4X4X4X4X4X4X4X4X3X+X}.5.3.K.|.=X>X-X`.T.+.6 3 < > > > < < 7 5 5 < 7 i p 5X5X",
"5X5X7 i p p p p i 7 7 5 5 5 7 5 6 ,.J.~.-X:X:X:X^.B.4.I.@X2X4X4X4X4X4X4X4X4X4X3X+X[.0.4.K.|.*X:X-X^.R.o.3 3 5 5 > < 7 5 < 5 5 7 7 p p 5X5X",
"5X5Xi i i p i i i i i 5 , < 7 5 4 ,.J.~.-X:X:X:X^.4.5.Y.@X2X4X4X4X4X4X4X4X4X4X3X+X}.C.3.w. X*X>X-X~.J.o.3 < 7 5 < 9 7 5 < < 5 i i i p 5X5X",
"5X5X7 i i p i 7 7 8 5 3 > > 5 3 r B.T.~.-X:X:X:X^.N.5.U.@X2X4X4X4X4X4X4X4X4X4X3X+X[.C.3.K. X*X:X-X^.T.O.4 4 5 < > < 5 5 7 5 5 7 7 i p 5X5X",
"5X5X5 6 i i i 5 > , , , , > > , r #.D.~.(.:X:X:X^.V.4.I.@X<X4X4X4X4X3X4X4X4X4X3X@X[.5.3.K. X*X,X-X~.J.2.y 3 < > : > , 5 7 5 < < 5 i p 5X5X",
"5X5X9 9 5 7 5 < > < 9 < ,   X , 5 t  .E.^._.:X:X^.V.6.q.h.z.m.m.m.m.m.m.m.m.m.z.h.=.&.&.e.|.=X>X_.J.Z.,.y 3 > > > > > < 9 5 < > < 7 7 5X5X",
"5X5X> < > > > > > 5 7 5 , > > , 1 , , O.W.~._.;X^.V.;.Q W ! ) ! ! ! ! ! W ! ` ! W T R ~ =.|.=X:X/.Z.1.-.r > > , , > > > > > > > < < < 5X5X",
"5X5X< < < > : , 5 7 7 7 5 9 < 5 < < , < @.W./.;X/.V.;.E L _ ] ' ' ' ' ' ' ' ' ' ] ' ( ^ u. X=X>X`.V.O.y < , , < < < > > , , > > > >   5X5X",
"5X5X5 7 7 3 < 7 i 5 5 5 7 7 7 i i 7 < > 6 -.`.:X/.V.$.E ) i.k.k.k.g.g.g.k.g.g.k.k.s.] W u.|.=X,X/.Z. .7 7 < > < 7 5 > < 7 5 < > > > , 5X5X",
"5X5X5 7 7 5 5 7 7 5 5 7 i p p p p i 5 , > 6 5.-XW.V.$.E ' s.n.x.k.c.b.v.k.k.v.b.x.f.] T u.{.=X:X/.V.s 7 7 7 < < 7 7 < < i i 5 < > > < 5X5X",
"5X5X, < 5 7 5 9 < 5 7 i p p p i p i 5 +   < t -.F.<.$.E ' s.v.p.} a.v.s.} i.c.c.t.] / W =.{.=X:X(.V.t 5 < 7 7 7 5 7 7 7 i i i 5 > < < 5X5X",
"5X5X: > < 5 7 9 < 5 i i i i i 7 i 7 5 :   < 3 s V.B.&.E ` p.s.{ T y.g.r./ ' s.a.` I L W u.{.*X>X(.B.6 < > 3 7 7 < 5 i p i i i 7 < < < 5X5X",
"5X5X> > > 5 5 5 7 5 < < < 5 < 5 < 5 , > : , < ..C.K.=.^ Y ] { / U / { _ L / [ ] Y L L T u.|.=X:X(.>.r >   , 9 7 5 7 i p i 7 7 9 < > , 5X5X",
"5X5X> > >   > 7 i < > > + > , , > 1 , : < < < +.H.U.e.=.^ T T W T W T T W ^ W W W T T ~ u.|.=X>X/.o.4 > > > > 5 i i i i i 7 5 > > + > 5X5X",
"5X5X> > >   > 5 7 < >   > > 5 5 , : < 7 5 5 3 t X.6.e.=.u.u.u.u.u.u.u.u.u.u.=.u.u.u.u.u.j.|.OX*X[...4 , > : > 5 i p i i i i 7 9 , > > 5X5X",
"5X5X< < , < < > > < , > > 9 7 7 < : 9 p i i 5 < > r 6.I.{.{.{.{.{.{.{.{.{.{.{.{.{.{.{.{. X|.|.oX[.s 7 <   > , 5 i i p i i p i 7 5 , , 5X5X",
"5X5X< < 5 5 9 , >   > < 9 5 7 7 5 5 7 p i i 7 7 3 3 6.[.XXXX|.[.!.!.!.U.|..XoXXX.X.XXX|.[.!.P.K.C.s 7 5 < < , 5 i p i i i i 7 5 7 5 < 5X5X",
"5X5X5 5 7 p 7 <       < 7 7 < < 7 i p p p i i i 5 r C.U..XXX}.w.4.1.1.L. X.X|.|..X|.|. XK.4.1.1.V.X.< 7 7 5 , 5 i i p p i 7 5 < 7 7 7 5X5X",
"5X5X7 7 p p i < , < < 5 7 5 5 5 i i p p i p p i 6 r 5.K.Y.I.P.4.<.>.<.C.K.I.Y.Y.Y.Y.Y.P.5.<.<.<.N.>.3 7 5 < < < 5 i i p p i 5 < 5 7 7 5X5X",
"5X5Xp p i p i 5 < 5 7 5 < < 7 i i i p i p i i p 5 4 1.3.V.4.4.3.,.<.,.1.4.4.4.4.3.4.4.3.3.<.<.,.<.B.o.6 > > , , < 5 7 p p i i 7 5 < < 5X5X",
"5X5Xp i i p i < < 5 7 7 < < 7 i i i i i p p i i 8 4 1.V.V.V.S.Z.S.S.S.B.<.<.<.<.1.3.V.Z.Z.S.S.Z.Z.B.Z.s < , < > < 9 7 i p p i 7 5 < < 5X5X",
"5X5Xi i i p i < > > < 5 7 5 < < i p i p i a y i t u B.^.(.(.(.(.(.(.).R.1.>.<.N.Z.T.~.).(.(.(.(.^.W.J.o.6 < < < 7 5 < 5 7 i 5 < 5 5 7 5X5X",
"5X5X7 i i p i < >   > < 7 5 < < 5 t i p p +.2.2.-.>.A.).;X;X;X;X;X;X;X~.B.<.<.V.T.~.(.;X;X;X;X;X_.`.J.1.y < , < 7 5 < 3 7 7 < 9 5 7 7 5X5X",
"5X5Xi i i p i 5 > : > < 3 5 7 5 9 5 7 i p @.Z.D.T.T.R.^.).).).).).).).R.1.>.<.V.T.E.^.).).).).).).E.T.A...3 : , < 7 5 5 5 5 5 5 5 3 < 5X5X",
"5X5X5 7 i i 7 5 9 > > > > 9 5 7 5 5 7 7 i @.S.R.W.R.R.E.R.R.R.R.E.E.R.A.1.1.1.V.T.R.E.R.R.E.W.R.R.E.D.D...4 > > > 5 7 7 < < 5 7 9 , < 5X5X",
"5X5X5 7 i i 7 7 5 < > > > 9 5 5 5 5 5 7 i o.V.D.D.A.T.A.A.A.A.A.A.A.A.V.1.>.<.1.Z.T.D.A.A.D.A.A.A.D.S.V...4 , > , 9 7 5 , < 5 8 < < < 5X5X",
"5X5X5X5X5X5X5X5X5X5X5X5X5X5X5X5X5X5X5X5X5X5X5X5X5X5X5X5X5X5X5X5X5X5X5X5X5X5X5X5X5X5X5X5X5X5X5X5X5X5X5X5X5X5X5X5X5X5X5X5X5X5X5X5X5X5X5X5X5X",
"5X5X5X5X5X5X5X5X5X5X5X5X5X5X5X5X5X5X5X5X5X5X5X5X5X5X5X5X5X5X5X5X5X5X5X5X5X5X5X5X5X5X5X5X5X5X5X5X5X5X5X5X5X5X5X5X5X5X5X5X5X5X5X5X5X5X5X5X5X"
};
