/* XPM */
static char *result[] = {
/* columns rows colors chars-per-pixel */
"64 64 218 2 ",
"   c #3E3E3E",
".  c #76421E",
"X  c #7C451D",
"o  c #4C433D",
"O  c #5E4532",
"+  c #6B452C",
"@  c #764523",
"#  c #794623",
"$  c #7B4926",
"%  c #71472A",
"&  c #744A2C",
"*  c #7D4C2A",
"=  c #684B38",
"-  c #764D31",
";  c #6B513E",
":  c #444444",
">  c #494746",
",  c #4B4B4B",
"<  c #524A44",
"1  c #514D4B",
"2  c #53514E",
"3  c #5B524C",
"4  c #4F4F52",
"5  c #535353",
"6  c #5A5654",
"7  c #54545A",
"8  c #58585A",
"9  c #5B5B5B",
"0  c #63554C",
"q  c #685648",
"w  c #7A5A48",
"e  c #645B56",
"r  c #62605E",
"t  c #69635F",
"y  c #746359",
"u  c #565662",
"i  c #5B5A64",
"p  c #5C5C69",
"a  c #605F62",
"s  c #5E6061",
"d  c #646464",
"f  c #696766",
"g  c #64646C",
"h  c #696969",
"j  c #766C69",
"k  c #7C736F",
"l  c #656572",
"z  c #6B6B73",
"x  c #67677B",
"c  c #6D6D7B",
"v  c #716F7C",
"b  c #757376",
"n  c #777578",
"m  c #7B7B7B",
"M  c #804C25",
"N  c #814E2B",
"B  c #83512E",
"V  c #88532D",
"C  c #865431",
"Z  c #895634",
"A  c #8B5936",
"S  c #8E5C39",
"D  c #915F3C",
"F  c #92603E",
"G  c #835D48",
"H  c #896147",
"J  c #876556",
"K  c #90705A",
"L  c #856966",
"P  c #876B6A",
"I  c #937966",
"U  c #876D71",
"Y  c #8A7375",
"T  c #877F7A",
"R  c #9E816E",
"E  c #B98B6B",
"W  c #A68D7A",
"Q  c #B58D72",
"!  c #BF9374",
"~  c #C18E6A",
"^  c #C2916D",
"/  c #C69877",
"(  c #D4A27E",
")  c #6B6B84",
"_  c #6B6B85",
"`  c #706F89",
"'  c #75748A",
"]  c #757595",
"[  c #7C7C94",
"{  c #7B7B9B",
"}  c #7D7DA4",
"|  c #7D7DAC",
" . c #8C7B86",
".. c #827E99",
"X. c #807FA2",
"o. c #858587",
"O. c #968A8E",
"+. c #8A8697",
"@. c #969699",
"#. c #9C9B9D",
"$. c #A39388",
"%. c #BC9B84",
"&. c #A0939B",
"*. c #8382A4",
"=. c #8483AC",
"-. c #8989AC",
";. c #9592A6",
":. c #8585B5",
">. c #8A8AB5",
",. c #8686B9",
"<. c #8B8BBC",
"1. c #908EBC",
"2. c #9896B4",
"3. c #9493BD",
"4. c #9B9BBE",
"5. c #A09FB4",
"6. c #A5A4A6",
"7. c #B7A7A3",
"8. c #AAAABA",
"9. c #B4B4BF",
"0. c #BCBCBC",
"q. c #C69D80",
"w. c #C7A68D",
"e. c #C9A58A",
"r. c #D7A683",
"t. c #DBAB89",
"y. c #C9AC97",
"u. c #DCB396",
"i. c #E1AF8B",
"p. c #E7B28C",
"a. c #E3B493",
"s. c #E9B692",
"d. c #E9B896",
"f. c #F1BD9B",
"g. c #C4B2A7",
"h. c #F4C29F",
"j. c #D6C4B7",
"k. c #F6C4A1",
"l. c #FCCAA7",
"z. c #FECDAA",
"x. c #FED0AD",
"c. c #8E8EC1",
"v. c #908FC3",
"b. c #8F90C1",
"n. c #9393C5",
"m. c #9C9CC2",
"M. c #9696C9",
"N. c #9897C8",
"B. c #9897CA",
"V. c #9B9BCC",
"C. c #9E9ED1",
"Z. c #9B9BD5",
"A. c #A29CC3",
"S. c #A09FD2",
"D. c #9FA0D2",
"F. c #A4A3C1",
"G. c #A8A7C3",
"H. c #AAAAC2",
"J. c #A3A3CC",
"K. c #ACABCC",
"L. c #B3B3C4",
"P. c #BABAC5",
"I. c #B3B3CA",
"U. c #BCBCCA",
"Y. c #A3A3D4",
"T. c #ABABD4",
"R. c #A6A6D9",
"E. c #A8A8DB",
"W. c #ABABDC",
"Q. c #B5B5D3",
"!. c #BBBAD6",
"~. c #B4B3DA",
"^. c #BABADF",
"/. c #A7A7E0",
"(. c #ADAEE1",
"). c #B0AFE2",
"_. c #AFB0E1",
"`. c #B3B2E4",
"'. c #B6B6E9",
"]. c #B8B7EA",
"[. c #BABAE8",
"{. c #BABAEC",
"}. c #BEBEF1",
"|. c #C0BFEE",
" X c #C1C2C4",
".X c #C3C3CA",
"XX c #C9C9CC",
"oX c #D2D0CF",
"OX c #C5C5D2",
"+X c #CAC9D7",
"@X c #D3D3D3",
"#X c #D6D5D9",
"$X c #DCDCDD",
"%X c #E0D5CD",
"&X c #E4E0DD",
"*X c #F0E5DB",
"=X c #C3C3E5",
"-X c #C2C2EA",
";X c #D7D7E8",
":X c #C2C2F4",
">X c #C9C9F6",
",X c #C6C6F9",
"<X c #CCCCFD",
"1X c #D3D3F3",
"2X c #D9D9F1",
"3X c #D0D0FE",
"4X c #D2D2FE",
"5X c #DDDDFD",
"6X c #E2E2E2",
"7X c #E6E5EA",
"8X c #ECEBEB",
"9X c #E5E5F7",
"0X c #E5E4FC",
"qX c #EAEAFC",
"wX c #F3F4F4",
"eX c #F5F5FC",
"rX c #F7F8FB",
"tX c #FCFCFC",
/* pixels */
", 4 5 8 6 5 8 5 8 s d s 5 5 5 > > :   > 5 ; * @ & C Z C C Z C Z Z Z C * @ & C N + < 5 r 5 2 5 5 5 5 5 5 9 d d d 9 4 5 9 d s 8 5 ",
"> > , 9 5 , , 6 d f r 8 > : > , , : : < 0 G N # C D A @ N D G M & Z D B $ N D A $ + 3 9 2 , 5 8 5 2 , 8 f d s s 9 2 2 8 s 8 , 2 ",
", , 5 5 5 5 4 5 8 s 5 >   > 5 4 > : > % B A C B C Z Z N C Z Z B N Z A C C C Z Z B * * 3 4 5 8 5 5 5 8 d h h d d d 9 5 5 5 5 2 , ",
"5 d 9 , 4 s s 5 > , :     5 d 5 >   : + @ # Z D C $ C D A * * S D B # C F Z $ N S S * < 8 8 2 > , 9 f f f h h h h d 9 5 , 8 9 2 ",
", 8 4 : > 8 5 , : : : : 4 5 9 5 2 , > % $ N C S C * B S Z N * Z S B B Z S C * B A Z B q 8 5 5 4 5 8 s 8 8 8 8 8 9 9 5 , : , 9 5 ",
": > : : : > :       : 5 s 9 , 9 6 1 , + Z D C $ C S Z $ * S S N * Z S B $ C F S * * A H q 1 5 9 8 4 > > , , , > : , , :     , 5 ",
"> > : : : , : : : : 2 8 9 5 5 5 e & - * A S V * C S Z * N S S N * Z D B $ B S A * B S S * < 5 6 8 >   : : , > : : : , :     : , ",
"5 9 5 : , 8 8 , , 9 9 5 , 4 9 8 1 & Z D N * C D C * C S A * N Z S B * Z S Z * B A S B # # o > , , > >   : 9 8 , : 5 9 5 : : : , ",
"9 9 5 , 5 9 r , : 5 9 5 , 5 9 9 1 & A D N $ Z D C $ B D D $ $ S F B * C F C $ N S S N # @ o : : > : > > 2 s 9 2 , 9 f 9 , : , 2 ",
"5 4 4 6 d r 9 , : , 2 8 8 8 2 5 6 % N N Z A C N C A Z N N A A N B V S B N B A Z B B A Z & o : :   : , 9 9 , , 4 9 d d s 9 8 9 5 ",
"4 2 5 s h h 9 4 : : : 5 9 8 , 5 e % @ M A D C $ C D Z $ N S D N $ A F B $ B D S * * A D B < : : : > 4 r 9 > , 9 h h d h d h d 9 ",
"5 5 s d h h s s 5 : : , 5 8 5 9 t & N Z C C C Z Z B C Z C B C C C Z B B Z C B B Z C C B $ 2 4 > , 5 s 5 5 5 9 d h h d h h h h 9 ",
"5 r d d d d f h s 4 : : , 9 s d e * H D N # Z D C $ B D S $ $ S F B $ C F Z $ N D S * % X 0 5 , 5 s 9 , 2 s s d h h d h h h h 5 ",
"5 5 s d d r h h d 5 : : 5 9 d h f - V A C C Z Z C N C A C C C C A B B Z Z Z C B C C Z * M = 4 > , 5 5 5 4 5 9 9 d h f d h d d 9 ",
"5 , , r d d f h d 5 , 5 9 d d d f 0 % N A D N $ C D A $ * D D N $ A F C $ B F S $ $ S S M = : : : > 5 9 5 2 4 9 f h d s f h s s ",
"5 4 5 5 s s h h d , : 5 h h d h g e = . C A C N C A C N B Z S N B C A B B C A Z N B Z w q 1 : : : , 5 5 5 , 9 s h d d s d s 5 > ",
"s 9 7 4 5 9 f h s , > 8 h h d d s 9 3 + @ $ A D C $ N D S $ $ S D B $ C D Z $ B S A ; 1 8 d 5 : 5 9 5 5 4 9 9 d d h f d d 9 4 : ",
"5 5 5 5 5 5 s f 9 4 : , 9 d f d 9 5 , < ; X B S C * C D A N * Z S B * Z D Z N M D H 3 , 5 s 5 : , 9 9 , 4 7 9 s d h d s 9 4 : : ",
": 4 l g g s s l x p 4 7 7 8 d r 5 : o : 3 + # * C D Z $ N A S N $ Z S C * B D A V J d 6 4 , : : , 7 s g p s p l b c l g s : : : ",
"  s D.b.b.n.n.n.n.n.n.M.>.i 8 5 : : , , > O X # Z D Z $ N D D N $ A D B $ C D C X K m d l 7 : : : p b.M.M.n.M.M.n.b.b.b.V.[ , 5 ",
"5 x (.D.D.`.'.'.'.'._.R.Y.>.i , > , 8 9 , O M A Z N B S S N N Z S B N C D C N $ . G &.4.D.m.l , , x D.'.'.'.'.`.`.E.V.D.D.W.i 5 ",
"*.V.(.W.'.,X<X<X<X3X<X-X~.Y.:.{ } 8 9 8 , ; S D C # N D S * $ S D B $ Z D Z @ @ * w ..B.Y.W.C.} *.V.{.,X<X<X<X3X<X{.(.W.W.E.) 4 ",
"D._.`.{.:X,X<X<X<X5XqX9X2X-X'.E.R.=.8 , 7 j J B # . @ N B Z Z C C Z Z C N $ . w Y +.=.<.C.W._.`.{.}.:X,X<X<X3X0XqX9X2X=XW.E.V.[ ",
"D.(.'.,X<X<X<X<X4XqXrXtXrXqX<X}.(./.} ) X.2.Y * @ $ @ @ N D D N $ Z D Z * @ $ J 2.Y.n.<.V.W.{.,X<X<X<X<X<X<X4XqXrXrXrX2X_.D.W.(.",
"W.{.:X<X3X<X<X<X<X5XqXeXtXqX4X:X_.Y.n.c.R.Y.+.L P Y J % . N V @ . $ Z J Y U L  .V.W.D.V.M.V.].<X3X<X<X<X<X<X4X5XqXrXtX9X{.W.V.V.",
"`.>X<X<X<X<X<X<X<X<X4XqXeXqX<X}._.D.<.<.D.Y.n.:.n.J. .- @ @ # @ $ @ *  .A.B.-.<.Y.W.E.Y.n.<.W.,X<X<X<X<X<X<X<X<X4XqXtX9X<X_.n.c.",
"E.}.,X<X<X3X<X<X<X<X<X1X2X1X|._.D.n.<.<.M.B.B.B.Y.E.2.Y L L P P L L P ;.R.R.B.B.V.V.C.V.M.M.Y._.}.<X<X<X<X<X<X<X3X5XqX1X`.R.M.n.",
"N.W.{.,X<X<X<X<X<X<X<X-X~.`._.D.b.<.<.,.<.c.V.Y.E.E.T.J.A.A.A.A.A.A.A.Y.T.R.R.Z.c.<.<.c.V.R.V.n.W.,X<X<X<X<X<X<X<X4X4X`.N.B.Y.C.",
"1.D.W.}.:X:X:X:X:X:X|.'.E.E.W.C.c.,.,.,.,.<.n.D.R.E.W.(.(.(.(.(.(.(.(.`.`.W.Y.V.n.b.b.n.V.C.M.c.D.`.{.].'.].].{.'.'.'.Y.n.n.Y.W.",
"<.1.D.(.`._.`._.`.`._.W.E.W.E.D.<.,.,.,.,.,.<.1.V.R.W.W.W.W.W.W.E.R.W.{.:X(.n.v.C.Y.Y.D.n.<.V.Y.V.B.B.n.n.n.n.n.M.M.M.V.Y.V.c.[ ",
"} ,.b.D.D.E.E.E.E.E.E.W.W.E.Y.V.c.,.<.c.1.<.,.<.N.R.W.W.W.W.W.W.).).`.{.:XW.1.v.E._.W.R.M.<.V.Y.V.<.<.<.<.<.<.<.<.<.c.M.Y.(.p : ",
"4 ] b.b.D.D._.(.E.(.(.E.E.D.N.1.,.<.B.D.D.C.b.<.N.R.W.W.W.W.(.{.:X,X:X{.'.C.<.B.'.}.~.R.R.C.N.n.B.D.D.D.Y.D.C.D.D.C.C.N.N.K.a , ",
": p Z.,.c.Y.R.R.R.R.R.R.Y.B.<.,.,.n.R.W._.W.V.n.M.R.R.R.R.R.W.{.,X,X:X`.R.V.v.Y.:X,X'.E.(.E.V.<.B.Y.R.R.Y.R.R.R.R.R.Y.V.3.m 4 4 ",
", z Q.,.,.1.M.n.M.n.n.n.M.c.,.c.V.Y.R.W.{.{.].`.Y.M.n.n.n.n.N.V.S.S.C.N.n.C.(.{.,X,X:X{.`.E.Y.D.B.n.n.M.M.M.M.M.M.n.N.K.;.5 5 5 ",
"8 m +Xv.<.<.<.<.<.<.<.1.<.<.,.v.Y.W.W.).:X,X<X,XW.n.<.c.<.<.,.<.<.<.c.<.<.R.:X<X<X<X<X,X].W.R.Y.V.1.<.1.1.1.<.1.<.<.n.H.n 5 8 2 ",
"5 m #XH.H.H.H.H.8.H.8.G.G.4.<.v.R._.{.|.,X<X<X<X{.W.W.W.Y.<.:.,.c.V.W.W.(.{.,X4X0X0X4X,X].R.D.B.J.H.H.H.H.H.8.H.G.8.I.8.d 5 5 5 ",
", b 6XXXXXXXXXXXXXXXXXXX XU.Y.N.Y.`.:X,X<X<X<X<X<X,X<X<X`.M.,.:.1.(.,X<X,X<X<X5XeXeX4X:X`.R.N.<.5..XXXXXXXXXXXXXXXXX@X0.h 5 5 5 ",
"5 m 8X$X6X6X&X6X6X6X&X#X0.b d 2.D.Y.`.:X,X<X<X<X<X3X<X<X[.M.:.,.n.`.<X<X3X4X5XqXrXeX1X'.R.B.b.,.F..X@X$X6X6X&X&X6X&X6X$Xo.5 5 5 ",
"5 m wX8XtXrXrXrXrXtXwX6X6., 9 +.3.n.Y.`.:X<X<X<X<X<X<X<X{.M.:.,.1.`.<X<X<X5XeXtXtXqX-XR.M.<.<.<.G.XX$XwXrXrXrXrXrXrXwXwX#.5 s d ",
"8 o.rXrXtXtXtXtXtXwX8X6X6.r 9 9 b 4.J.Y.`.:X<X<X4X<X,X,X_.n.,.:.c.W.:X,X<X5XeXqX9X;X~.D.J.K.K.K.U.XX$X7XwXtXtXtXtXtXtXrX#.8 s f ",
"r o.wXtXtXtXtXtXtX6X@XXX@.5 , 8 8 @.T.<.Y.`.:X<X<X<X:X].Y.b.,.,.<.S.`.|.<X<X4X>X-XW.M.J.!.6.2.#.@.6.@X#X&XwXtXtXtXtXtXrX6.s d f ",
"d m 8X&X*X*X*X*X6X#XT b h 5 , 5 h L.T.b.V.Y._.{.}.{._.Y.V.n.c.b.n.B.Y.).{.}.{.`.Y.V.<.N.L.h t r 5 s #.@XoX&X*X*X*X*X&X8X#.r d d ",
"8 m %Xw.e.e.e.e.y.g.: : , 5 8 9 ' T.Y.V.n.c.M.V.V.B.n.c.n.V.D.D.V.n.v.n.V.B.V.N.n.<.,.<.>.h 8 , 8 9 s 6.j.y.e.e.w.e.e.j.@.8 d f ",
"5 k j./ ~ ~ ~ E / y.a   : , 9 n *.M.R.W.N.<.,.,.,.<.<.b.V.R.`.`.W.V.<.<.<.,.,.,.<.<.1.<.<.` , : 4 9 5 b g.! E E ^ ^ ^ u.O.1 8 d ",
"1 y d.a.s.s.i.( / q.W >   > , [ V.Y.].{.R.V.<.<.1.V.Y._.].}.:X:X}.W.S.V.C.n.<.<.B.V.C.B.B.) :   > , : r / ( ( t.s.s.a.u.R > 2 5 ",
": q p.h.z.z.h.s.r.^ Q $.+.o.[ :.R.`.<X,X'.R.n.<.B.E.{.<X<X<X<X<X,X].W.W.W.V.<.n.R.(.W.R.M.<.c   o > : 0 ! ( i.h.x.x.l.p.K   : : ",
"4 y p.h.z.z.l.h.a./ Q 7.+X^.C.R.`.>X0X9X[.R.n.<.D.{.:X<X<X<X<X3X<X,X{.`.W.V.<.B.`.}.}.'.Y.J.T.  > 4 , r ! i.h.l.z.z.l.p.K o   : ",
"5 y r.h.z.l.z.z.f.r.Q O.1.N.R.'.:X5XrXwX-XR.M.<.R.,X<X<X<X<X<X<X<X,X,X].W.V.<.B.{.<X<X:X`.R.V.l 5 9 8 q / h.l.z.l.l.k.p.I : : : ",
"5 5 9 R p.t.t.t.h.w.k b [ M.E.[.,X4XqX0X>X`.Z.<.Y.{.:X,X<X<X<X<X<X,X{.'.W.V.<.b.R._.{.].E.B.n.} 5 9 8 5 %.u.p.p.i.i.p.u.j : : , ",
": , 5 6 2 > > j W t h f z X.D.[.,X<X<X<X<X:XD.<.B.E.{.,X<X<X<X<X,X'.W.E.W.V.<.<.1.N.Y.R.N.<.M.] 2 , > 9 t t R E ! E W $.t 5 > , ",
"  : 4 6 5 , 4 7 5 9 9 8 7 8 [ (.}.}.}.{.[.`.J.8.m.V.R._.'.`.`.`._.D.V.D.V.J.F.4.m.4.V.N.<.c.-.g ,   : 5 9 , 6 j R h 9 s s 4 , , ",
": > > > 5 d 9 , > : : > , : , { (._._.W.V.n.K.P.H.<.<.n.v.n.v.b.b.c.<.<.<.F.P. X.XP.N.<.:.D.8 : , : : , 5 9 9 s s d s 8 > , : : ",
": :     > s 9 >   :   , , ,   : X./.D.C.m.F.OX@XOXK.m.2.m.J.^.!.~.J.4.4.4.I.@X$XoXU.4.:.,.E.z , ,   : : , s h d d d d 8 2 : : : ",
"> : : : : : , > :   : 5 9 4 : : i n.c.b.H.U.$XwXqX7X;XU.XX;XP.9.P.XXU.P.U.#XwX8X@XP.3.c.| _ s s 5 :   : 2 s d h d d d d s , > : ",
", , 4 4 > : : : : : 2 9 s 8 > 4 s z b.4.P.oX7XtXtXtXwXoX6X X8 9 5 0.@X.X.X@X7X7X@XU.J.*.7 5 8 s 5 , o : , 9 h h d d h d s 5 5 : ",
", 8 9 s 5 :     : 8 9 8 2 5 9 s h d OXP..XoX8XtXtXtX8X@X$X@X: 5 8 0.@XL.F.F.T.Q.XXXXP.g 5 s 5 4 8 9 4 , , s d h f d d 9 2 5 s 8 ",
"9 s h h 8 : o : : 9 s 2 , 5 f f h h o.XXXXXX7XeXeXeX6XoX6XP.: 8 s 0.@XF.<.,.,.3.P.#X@., 8 s 4 , 5 9 5 , , 8 d h h f s 5 , 2 s 9 ",
"d s h h 9 , , 8 8 5 4 5 8 9 h z h l v H.F.G.I.Q.Q.!..XXXXX8.v ' +.P.XXH.<.:.,.<.4.G.2.s 4 9 8 8 9 5 , > : , 8 s h h f 9 8 5 5 , ",
"f d h h 9 : , s s 2 : 5 d d c =.=.=.=.<.<.<.<.<.<.1.G..XP.m.Z.Z.J.I..XH.1.<.<.<.<.<.n.:.] { } { 9 ,   : > > , 9 s h h d s 5 , : ",
"h s d d 8 , : 5 5 5 5 2 5 9 ) 3.N.C.R.R.R.R.Y.R._.!.!.!.K.<.| :.<.F.!.~.E.E.T.E.R.E.E.W.D.D.c.c.[ , 5 , : 5 5 5 5 s d d 8 2 5 5 ",
"d r f f 8 : : : > 9 s 4 u ] } b.Y.(.}.,X,X,X,X,X5XwX2X~.C.c.,.,.1.C.W.{.,X,X,X,X,X,X,X}.`.D.n.c.n.' 5 : , 9 9 , , 8 9 5 , 4 9 9 ",
"s d h h 9 :     : 4 4 7 ) M.M.D.E.).{.:X}.:X,X<X5XqX1X`.C.c.,.c.c.N.(.}.<X3X<X<X,X}.}.{.`.E.D.V.3.' , : : , 5 5 2 5 8 2 2 5 5 5 ",
"s d h d 9 4 : : : , , 7 ` D.D.E.W.W.W.(.(.`.}.<X3X3X:X`.D.B.:.} :.D.W.}.<X<X<X,X'.W._.`._.W._.D.n.i : : : : , 9 9 5 , 2 8 5 , , ",
", 9 f s 8 5 , , : : , 4 _ D.D.D.Y.Y.Y.Y.Y.R._.].{.{._.R.D.c 8 4 7 *.E._.{.{.{._./.D.D.D.D.D.D.D.M.7 : : : : , 8 9 , : 5 9 5 : , "
};
