/* XPM */
static char *result[] = {
/* columns rows colors chars-per-pixel */
"64 64 208 2 ",
"   c #3E3E3E",
".  c #713F1C",
"X  c #6E3C19",
"o  c #4F3F34",
"O  c #74421F",
"+  c #78431E",
"@  c #47403C",
"#  c #594839",
"$  c #754421",
"%  c #794724",
"&  c #7B4926",
"*  c #7E4D2A",
"=  c #72482B",
"-  c #624C3A",
";  c #774D31",
":  c #714B32",
">  c #3F3F40",
",  c #403F40",
"<  c #444444",
"1  c #474749",
"2  c #4B4B4C",
"3  c #4D4946",
"4  c #554B45",
"5  c #58524E",
"6  c #4F4F52",
"7  c #545454",
"8  c #5A5551",
"9  c #595856",
"0  c #5B5B5B",
"q  c #53525A",
"w  c #4F5053",
"e  c #624F41",
"r  c #675449",
"t  c #735845",
"y  c #655B56",
"u  c #796356",
"i  c #61605F",
"p  c #565562",
"a  c #5B5B65",
"s  c #5D5D6A",
"d  c #5D5C72",
"f  c #646464",
"g  c #63636D",
"h  c #696969",
"j  c #696267",
"k  c #65647C",
"l  c #666676",
"z  c #727178",
"x  c #814E2C",
"c  c #814E26",
"v  c #83512D",
"b  c #865432",
"n  c #895633",
"m  c #8B5936",
"M  c #8D5C39",
"N  c #86593A",
"B  c #915F3B",
"V  c #92613D",
"C  c #885D44",
"Z  c #956442",
"A  c #996744",
"S  c #9B6946",
"D  c #9C6C4B",
"F  c #94684D",
"G  c #9C6D51",
"H  c #926C52",
"J  c #936A4D",
"K  c #A46E49",
"L  c #A6734D",
"P  c #A37454",
"I  c #A97652",
"U  c #AD7B58",
"Y  c #B17E58",
"T  c #9A7567",
"R  c #877366",
"E  c #B5825E",
"W  c #B8835D",
"Q  c #AC8265",
"!  c #BC8965",
"~  c #B78768",
"^  c #B38C74",
"/  c #B78C71",
"(  c #BC9274",
")  c #BB957B",
"_  c #A4847C",
"`  c #C28E6A",
"'  c #C4926E",
"]  c #C8936D",
"[  c #C69571",
"{  c #CA9772",
"}  c #CB9975",
"|  c #CE9C7A",
" . c #C29B7F",
".. c #D09F7B",
"X. c #D4A17E",
"o. c #6A6A83",
"O. c #6A6A85",
"+. c #6F7089",
"@. c #72728C",
"#. c #797988",
"$. c #7A799B",
"%. c #7E7DA1",
"&. c #917C88",
"*. c #8A7680",
"=. c #9E858C",
"-. c #94808F",
";. c #828298",
":. c #978495",
">. c #9C8997",
",. c #B99783",
"<. c #A18E9C",
"1. c #A28380",
"2. c #B8A49F",
"3. c #8585AB",
"4. c #8383B6",
"5. c #8686B8",
"6. c #8B8ABC",
"7. c #8A8AB5",
"8. c #9393BC",
"9. c #9C9DBD",
"0. c #9A96B8",
"q. c #9793B0",
"w. c #A296AD",
"e. c #A5A3BC",
"r. c #BAB3B7",
"t. c #BCAFAA",
"y. c #C49E82",
"u. c #D6A481",
"i. c #D8A683",
"p. c #DCAA87",
"a. c #E1AF8C",
"s. c #E3B18D",
"d. c #E6B491",
"f. c #E9B693",
"g. c #EBBA96",
"h. c #EEBC99",
"j. c #F2BE9A",
"k. c #C5B3A5",
"l. c #C5B5AB",
"z. c #F3C29F",
"x. c #D1C5BE",
"c. c #CCC4BD",
"v. c #F6C4A1",
"b. c #F9C6A3",
"n. c #FBCAA6",
"m. c #FECCA9",
"M. c #FFD2AE",
"N. c #8E8EC1",
"B. c #9292C4",
"V. c #9C9CC3",
"C. c #9595C9",
"Z. c #9A9ACE",
"A. c #9798C8",
"S. c #9D9DD1",
"D. c #9FA0D4",
"F. c #9FA0C1",
"G. c #A3A3C2",
"H. c #A4A3CC",
"J. c #AAA9C8",
"K. c #B3B3C4",
"L. c #BDBEC9",
"P. c #BBBBC7",
"I. c #A3A3D5",
"U. c #A8A4D1",
"Y. c #A6A6D9",
"T. c #A7A8DC",
"R. c #AAAADD",
"E. c #AAA9D7",
"W. c #ADADE2",
"Q. c #AFAFE8",
"!. c #B2B3E5",
"~. c #B6B6E9",
"^. c #BABAEC",
"/. c #BAB9E9",
"(. c #BEBEF1",
"). c #BFC0C9",
"_. c #C0C0C7",
"`. c #C3C4CA",
"'. c #CCCBCB",
"]. c #C8C7CB",
"[. c #D1D1CF",
"{. c #CCCBD1",
"}. c #C8C8D9",
"|. c #CFD0D0",
" X c #D2D2D1",
".X c #DDDDDC",
"XX c #D2D2DA",
"oX c #CFD0CE",
"OX c #E4D7CF",
"+X c #EBDED5",
"@X c #E1E1DF",
"#X c #ECE0D6",
"$X c #CECFED",
"%X c #D0D0EE",
"&X c #DDDFE1",
"*X c #C4C4F6",
"=X c #C6C6F8",
"-X c #CBCBFC",
";X c #C7C8FA",
":X c #D0CFFF",
">X c #D1D1FF",
",X c #CFD0F0",
"<X c #DEE1E1",
"1X c #F6F6F6",
"2X c #FFFFFF",
"3X c #F8F8F8",
"4X c #F0EFEF",
"5X c None",
/* pixels */
"5X5X5X5X5X5X5X5X5X5X5X5X5X5X5X5X5X5X5X5X5X5X5X5X5X5X5X5X5X5X5X5X5X5X5X5X5X5X5X5X5X5X5X5X5X5X5X5X5X5X5X5X5X5X5X5X5X5X5X5X5X5X5X5X",
"5X5X5X5X5X5X5X5X5X5X5X5X5X5X5X5X5X5X5X5X5X5X5X5X5X5X5X5X5X5X5X5X5X5X5X5X5X5X5X5X5X5X5X5X5X5X5X5X5X5X5X5X5X5X5X5X5X5X5X5X5X5X5X5X",
"5X5X7 7 9 0 0 9 0 0 i h h 0 9 9 6 2 2 < 1 7 9 4 : m b * * N M b b M M Z Z M N M b ; t i 7 7 9 0 9 7 9 a h h f i 9 9 f h f 9 9 5X",
"5X5X2 1 2 0 9 6 6 9 i f i 7 2 2 2 3 1 @ 1 5 5 # = M b & & m M x x n V Z Z Z B M m * t 8 7 7 7 9 7 2 7 i f f i 0 7 6 9 i 9 7 9 5X",
"5X5X2 2 6 7 9 6 2 7 i i 9 1 > 1 6 2 < < 2 4 : * b M m v v m M x x V S S Z S D S V v * # 6 7 9 9 6 7 0 h h f f i 9 6 7 9 w 6 7 5X",
"5X5X7 9 0 6 6 0 i w 2 2 < > < 0 0 2 < < 1 @ b M n x v m m x x n V Z Z A S Z Z S V v + = 5 7 2 3 7 i h h h h h h f 0 7 2 9 q 7 5X",
"5X5X7 7 9 1 < 9 0 2 < > > 1 6 9 0 7 3 < < @ * m n x x M n % $ n V Z Z B B Z Z V m v * * - 7 6 2 7 i i 0 9 0 0 0 0 9 2 1 7 0 9 5X",
"5X5X2 1 1 < < 3 < > >   2 0 0 6 7 0 7 3 # o = & v M M x & + + & v V V v v B V n v n m v ; 4 9 0 7 2 1 2 2 1 2 1 2 2 < > < 6 9 5X",
"5X5X2 2 < > < 1 1 < < 1 7 9 9 7 7 9 9 # = = & $ * M m x * x & $ & b m & % b M x % v M v c - 5 9 2 < > < 1 2 1 < < 2 1 >   1 2 5X",
"5X5X0 7 7 1 2 7 9 2 2 9 9 6 2 7 0 7 2 # * m b & $ & v M B B m & O & & % % & & % O & x m n - 3 2 2 1 @ < 7 0 2 1 w 0 7 < > 1 6 5X",
"5X5X0 9 9 w 7 i 0 2 1 7 9 w w 9 0 7 2 # * M n % $ & x M B Z n & O $ O $ $ O O O O . % V L t < < < 1 2 6 9 9 6 6 i f 9 6 2 6 7 5X",
"5X5X9 w w 9 f f 0 2 < 2 w 9 0 w 6 9 7 - = & & O * n n x * * & % $ + $ $ $ $ $ O O X & I ] T 3 < > 1 7 0 7 2 7 0 f f i 0 0 0 i 5X",
"5X5X0 w 7 i h h i 7 2 < 3 7 0 w 6 0 i e $ $ & x b B b % O $ + O O O $ $ $ $ $ x b b Z ( s.) 8 1 1 2 0 0 7 2 0 h h f h h h f f 5X",
"5X5X0 9 i f h h f i 7 3 > 2 7 9 0 f f - . $ b S S b & O . + + . . O O $ O . & D ! ! [ d.b.y.9 2 7 i 0 2 9 0 f h h h f h h f f 5X",
"5X5X9 9 i f f f f h i w < < w i f h f - $ % M P K x & & % $ & x b m v & $ v A ' p.u.| i.j.^ 8 2 7 i 7 2 9 i i h f f f h h i i 5X",
"5X5X7 w 7 i h f f h i w 2 2 0 f f h f 4 * n m m n m B B b & x P ! ! P v * U i.g.g.! Z V I Q u 2 2 w 7 7 6 7 0 f h f f f h f f 5X",
"5X5X7 6 6 0 f f h h i 2 2 9 h f f h f 2 - D V * x B Z Z n % b ' a.a.} A S X.M.M.z.E n * m E / y @ 2 7 0 w 2 0 f f f i f f 0 0 5X",
"5X5X0 9 7 7 7 i h h 0 2 2 0 h h f f i 7 @ t E L Z b x x & . b ' d.z.f.u.X.h.M.M.z.p.} { [ ! Q y w 7 7 w w 0 f h h f f f i 2 2 5X",
"5X5Xf 0 9 w 6 9 f f 0 2 2 0 f f f f 0 w 2   # H I n & $ % & B [ f.b.m.m.m.m.m.m.n.n.m.M.z.' J 8 7 i 7 2 7 f f f f f f i 7 2 < 5X",
"5X5Xw 2 w 0 9 7 0 f i 2 < 1 7 f f 0 2 < <   < - I U K x x L ' a.v.n.m.m.M.m.m.m.m.v.z.z.f.W J 8 w 9 7 7 7 9 0 f h f 9 w < < 2 5X",
"5X5X  < w 9 9 2 2 9 0 w <   2 9 i 7 < < < < < @ C ] ~ v B [ g.b.m.m.m.m.m.m.m.n.v.s.X.X...~ u 3 1 2 w 0 6 2 9 f f i 7 1   < w 5X",
"5X5X2 2 2 7 2 > < 2 7 7 w 1 < 2 2 < < w 9 2 < # C K B % Z p.n.n.m.m.m.m.m.m.n.v.s.[ E L P R 5 1 < > 2 7 < < 2 w 6 6 2 >   2 7 5X",
"5X5X7 2 2 2 2 @ < 2 6 0 0 w 2 2 2 < @ 9 0 7 2 9 C b $ O S p.n.n.n.n.n.n.n.n.v.a.| ~ F N t 0 2 < 3 < < < < @ 2 < @ < < < @ 2 7 5X",
"5X5X6 2 < 7 7 1 @ w 7 7 7 7 7 7 0 7 w 6 2 6 w f R Z c x S { s.f.h.h.h.h.g.h.s.[ ~ 1.>.R 9 6 < < < 1 < < 7 7 9 7 1 < w 7 2 1 w 5X",
"5X5X2 1 2 0 0 2 2 0 9 6 w 0 f f f f i a o.k +.3.w.T Z J P Y [ ..u.i.i.u.i.i...E T >.U.Z.k 1 < < > < 2 2 0 f f f 7 2 9 0 w 2 6 5X",
"5X5X6 w 0 7 w 9 0 w 2 w 7 f h f f f h +.B.5.B.D.e.-.&.=.1.P L Y E E E E E E Q T &.9.W.W.8.l 2   > 3 w 7 i f h f i 9 w 7 7 7 7 5X",
"5X5X9 9 i 2 2 i 0 2 2 9 i h h f f l $.3.B.B.Z.D.Z.6.8.H.w.T D D G G G G G S T &.7.D.Y.T.R.8.s 1 < 2 7 f h h f f f i 2 2 7 9 0 5X",
"5X5X9 7 0 0 7 7 7 w 9 i h h i f i k D.D.R.R.D.Z.A.Z.D.T.H.<.=.=.=.=.=.=.=.=.>.0.Z.A.A.B.A.D.8.s 2 2 i h h f f f 0 7 7 7 0 9 9 5X",
"5X5X7 2 2 0 0 2 2 7 i h h i 0 l o.%.T.*X;X;X!.B.B.D.E.T.T.U.U.U.U.U.U.U.U.U.U.Y.D.A.8.6.B.Z.T.4.f 1 7 h f f f i 7 w 7 0 7 1 2 5X",
"5X5X2 < 3 w 7 7 w 7 0 f h f 0 @.Z.A.W.;X>X>X!.B.6.C.D.E.R.W.W.W.W.W.W.W.R.I.S.Z.S.E.Y.T.D.D.A.C.3.2 2 7 0 f 0 7 7 7 9 7 2 1 1 5X",
"5X5X1 < < < w 0 0 7 2 0 f f 0 #.Z.T.~.;X>X;X!.B.4.6.B.D.T.T.T.E.R.R.R.R.I.C.6.5.B.R.*X>X*XD.N.5.7.2 < 2 9 i 9 w 7 i 9 3 < < 2 5X",
"5X5X1 3 < < 2 w 7 @ < 6 7 9 w k D.^.*X;X*XW.D.8.5.5.6.C.Z.Z.Z.Z.Z.Z.Z.Z.C.6.4.4.B.!.-X>X-XR.B.C.+.< > 2 6 w 2 1 w 7 w < < < 6 5X",
"5X5X2 < 2 < < 1 < < < 1 2 < < k T.=X:X-X~.A.6.6.5.5.6.6.6.6.6.6.6.6.6.6.6.7.4.5.B.!.;X:X;X~.E.D.d < < < 1 2 >   < 1 < > < 3 7 5X",
"5X5X2 2 2 < > @ > > < > >   > k I.(.;X-X/.G.8.7.8.V.e.F.9.9.F.9.9.9.9.9.9.F.9.8.N.!.-X:X-X^.R.I.s 6 1 > < <     2 6 < > 2 w 9 5X",
"5X5X0 7 w 2 > > < < < < > < < O.Z.W.^.-X$X).e.8.9.K.].`.`.`.`.`.`.`.`.`.`.`.P.9.B.W.-X:X;X/.R.D.g 0 6 1 @ < < 3 9 i w 3 7 7 7 5X",
"5X5Xi 0 7 7 w w w 7 2 < < 2 2 o.Z.T.^.;X,X|.K.8.V.). X.X@X.X@X<X@X@X@X@X.X X`.9.8.W.-X:X-X^.E.Z.k 0 7 6 1 < 1 7 7 9 w 6 7 9 9 5X",
"5X5X9 w 7 0 i i f i 7 2 2 7 w o.Z.R.^.;X$X{.K.8.9.L..X4X1X1X3X1X3X1X3X1X4X.X_.9.B.W.:X:X-X^.R.A.g 7 7 9 6 2 7 0 7 2 7 9 7 w 7 5X",
"5X5X7 w 7 i h h f i 7 7 w 7 2 o.Z.T.^.;X$X{.K.8.9.P..X1X2X2X2X2X2X2X2X2X3X@X_.9.B.W.-X:X-X^.R.B.p 2 9 9 6 1 6 0 7 6 9 0 7 7 0 5X",
"5X5X9 0 f f h h i w w 9 0 2 2 o.Z.R.~.-X$X{.K.8.9.P..X1X2X2X2X2X2X2X2X2X1X.X_.9.B.W.-X:X-X^.R.8.s 0 7 2 1 < < 2 9 0 7 2 7 0 h 5X",
"5X5Xi i h h h f i 7 w 9 0 2 2 o.Z.R.^.;X$X}.r.8.9.P..X1X2X2X2X2X2X2X2X2X1X.X_.9.B.W.-X:X-X/.R.B.s 9 7 6 < < 1 2 7 7 7 w 9 i z 5X",
"5X5Xf f h h h f f f 0 6 6 9 w o.Z.T.~.-X,X'.K.8.9.P..X1X2X2X2X2X2X2X2X2X1X.X).9.B.!.-X:X-X/.R.B.a 2 7 0 6 2 7 0 w 2 9 0 i f h 5X",
"5X5Xf f f h f i i i 7 < < 7 w o.Z.W.^.-X$X}.K.8.V.).&X1X2X2X2X2X2X2X2X2X1X@X_.F.B.R.-X>X-X^.R.B.a w 7 0 6 2 6 9 9 w 7 0 i f h 5X",
"5X5Xi i f h 0 7 2 2 2 1 < < 1 o.Z.W.~.;X$X{.K.8.9.P.&X3X2X2X2X2X2X2X2X2X1X@X).V.C.W.-X:X-X^.W.C.0 i 9 2 @ < < 6 9 9 7 w 0 f z 5X",
"5X5X7 7 0 i 7 < < 1 2 1 <   @ o.B.S.!.-X,X{.r.w.w.t.x.OX+X+X+X+X+X+X+X#XOX'.r.0.B.W.=X-X(.R.~.V.s 0 2 <   < < 1 w 7 2 < 2 0 h 5X",
"5X5X2 1 2 2 < < 2 9 7 2 >     k 6.B.Y.=X,X{.l.,.^ / ) y.y.y.y.y. .y.y.y.y.) ,.>.B.!.=X(.!.S.+.p 2 2 < < < 3 < < < < 1 < 1 w w 5X",
"5X5X2 2 2 > > 2 7 0 0 6 2 2 1 ;.Y.B.I.=X,X{.k.( ! ] [ ] ] [ ] [ ] ] [ ] ] ! Q :.B.!.=X~.I.$.1 < 1 1 1 < 2 2 < < 2 2 < < < @ 1 5X",
"5X5X7 9 9 2 w 0 0 9 7 9 0 0 0 z #.$.T.;X%X{.t.) { s.h.h.h.h.h.g.h.h.h.h.s.{ ^ :.B.~.*XQ.8.s < 1 7 9 2 < w 9 2 < 2 7 6 @ > < 1 5X",
"5X5X0 0 0 7 9 0 0 7 7 0 h h f h i d W.;X%X'.k.( { d.v.m.n.v.v.n.m.v.v.m.z.X.~ :.8.R.^.~.;.w 2 7 0 0 9 6 w i 7 2 0 f 0 2 < < 6 5X",
"5X5X6 2 7 0 9 2 7 9 i h h h h h f o.W.*X,X{.k.[ ! { p.n.j.i.i.v.v.p.X.z.z.X.~ :.5.C.Z.#.7 1 w 9 7 w 7 0 7 7 0 0 f f f 0 1 < 7 5X",
"5X5X< < w 0 9 1 2 0 f f f i i f q o.W.*X$X{.l.( ~ E } g.s.` ' d.d.[ ] a.g.} ^ >.8.8.k > @ 2 9 9 2 < w i 7 2 0 f h f f 0 w 2 7 5X",
"5X5X< < 1 2 7 9 9 7 2 2 2 6 w 2 6 o.W.=X,X{.k.( E E ! } { ! ! { } ! ! { } ! ( 2.K.8.p > < 2 2 6 <   2 w 7 0 i h f i 0 7 2 < 2 5X",
"5X5X< < <   2 i 0 1 < > @ 1 1 < < k R.$X$X'.l.,.( ( ( ( ( ( ( ( ( ( ( ( ( (  .k.L.9.a < < < 1 2 < < < < 0 f f f f f 0 1 < > 2 5X",
"5X5X2 < <   < 6 w 2 > > 2 w 7 3 < k E.}.XX{.c.l.k.k.k.k.k.k.k.k.k.k.k.k.t.k.t.e.Z.3.q > > < 7 7 2     < 0 h f f f f i 7 2 3 1 5X",
"5X5X2 1 2 2 2 < < < < < w 0 i 2 2 o.H.P.].`.].].'.'.'.'.].].'.`.`.`.`.'.oXoXc.G.3.p > < 1 w 0 i 7 @ < 2 9 f h f f h f i 7 2 2 5X",
"5X5X7 7 0 0 6 <   > 1 7 0 9 7 7 9 O.A.G.G.G.K.].[.[.{.[.[.oX].J.H.F.K.).|.|.].G.@.w < 1 9 0 7 7 0 7 2 2 9 f h f f f 0 7 9 0 0 5X",
"5X5X0 0 f h 9 1 < < 2 0 9 2 2 i j @.N.5.5.5.V.P.].`.].`.].].K.0.4.4.8.K.).].).F.+.7 1 2 0 0 w 2 0 0 2 2 7 i h h h f 7 2 7 i f 5X",
"5X5Xf f h h 0 2 2 7 9 7 6 7 9 0 g $.5.4.4.4.8.9.G.G.e.G.G.e.9.6.4.4.5.9.G.G.F.V.+.2 1 < 6 7 9 9 0 2 < 2 2 9 i h h f 0 7 7 7 7 5X",
"5X5Xh f f f 0 2 2 0 0 6 2 7 0 z 3.6.6.6.B.N.N.6.6.6.6.7.6.6.6.6.6.N.8.N.N.N.6.N.%.q > < 1 w 0 0 7 < < 1 < 2 7 i h h f i 7 2 2 5X",
"5X5Xh f f h 0 2 < w 7 9 w 6 6 @.Z.S.I.R.W.W.R.R.Y.Z.C.6.5.4.N.Y.!.W.W.W.R.W.Y.C.8.+.q 2 2 7 9 7 6 7 2 1 2 7 7 6 0 f i 7 w 7 0 5X",
"5X5Xh f f h 0 1 > < 2 9 9 2 < O.Z.T.~.*X=X=X=X=X^.R.Z.6.5.5.C.~.;X=X*X*X=X;X^.D.N.7.$.k 0 0 2 6 9 9 6 1 7 0 6 2 7 i 7 w 9 0 i 5X",
"5X5Xh f h h 9 1 >   < 6 7 w 2 k Z.R.!.^.^.^.^.^.~.W.I.6.4.4.C.W.(.^.^.^.^.^.~.E.Z.A.S.4.g 7 7 9 9 6 < @ 2 7 9 7 9 7 6 7 7 7 7 5X",
"5X5X0 0 h h 0 6 2 < 3 1 6 7 6 +.S.T.T.T.R.R.R.R.R.E.S.N.6.6.B.I.R.W.R.T.R.T.E.Y.Y.E.I.C.%.0 0 0 2 1 < 1 < 2 7 0 6 2 7 9 w 2 6 5X",
"5X5X0 0 h h i 0 2 2 2 2 w 7 w +.S.Y.E.Y.Y.Y.Y.Y.Y.Y.D.B.N.6.C.D.Y.Y.Y.Y.Y.Y.Y.Y.R.R.Y.A.7.l 0 0 w 2 2 2 1 2 9 i w 2 9 0 7 2 7 5X",
"5X5X5X5X5X5X5X5X5X5X5X5X5X5X5X5X5X5X5X5X5X5X5X5X5X5X5X5X5X5X5X5X5X5X5X5X5X5X5X5X5X5X5X5X5X5X5X5X5X5X5X5X5X5X5X5X5X5X5X5X5X5X5X5X"
};
