/* XPM */
static char *result[] = {
/* columns rows colors chars-per-pixel */
"32 32 75 1 ",
"  c #848484",
". c gray52",
"X c #868686",
"o c gray53",
"O c #888888",
"+ c #898989",
"@ c gray54",
"# c #8B8B8B",
"$ c gray55",
"% c #8D8D8D",
"& c #8E8E8E",
"* c gray56",
"= c #909090",
"- c gray57",
"; c #929292",
": c #939393",
"> c gray58",
", c #959595",
"< c gray59",
"1 c #979797",
"2 c #989898",
"3 c gray60",
"4 c #9A9A9A",
"5 c #9B9B9B",
"6 c gray61",
"7 c #9D9D9D",
"8 c gray62",
"9 c #9F9F9F",
"0 c #A0A0A0",
"q c gray63",
"w c #A2A2A2",
"e c gray64",
"r c #A4A4A4",
"t c #A5A5A5",
"y c gray65",
"u c #A7A7A7",
"i c gray66",
"p c #A9A9A9",
"a c #AAAAAA",
"s c gray67",
"d c #ACACAC",
"f c gray68",
"g c #AEAEAE",
"h c #AFAFAF",
"j c gray69",
"k c #B1B1B1",
"l c #B2B2B2",
"z c gray70",
"x c #B4B4B4",
"c c gray71",
"v c #B6B6B6",
"b c #B7B7B7",
"n c gray72",
"m c #B9B9B9",
"M c gray73",
"N c #BBBBBB",
"B c #BCBCBC",
"V c gray74",
"C c gray",
"Z c gray75",
"A c #C0C0C0",
"S c #C1C1C1",
"D c gray76",
"F c #C3C3C3",
"G c gray77",
"H c #C5C5C5",
"J c #C6C6C6",
"K c gray78",
"L c #C8C8C8",
"P c gray79",
"I c #CACACA",
"U c #CDCDCD",
"Y c #CECECE",
"T c gray81",
"R c #D0D0D0",
/* pixels */
"+o+oo.w-,8+e:8oO4t+=ssaq%.OoOpaS",
"i;8$4,0ssaifzceZ3;e:aipapat=oadg",
"$9=u,5VFJGJHKc0GHFGHBsaffaae>Gmg",
"$X X.@+OX+ @+OoOoOo.O,asdss**KTU",
"+$8qe-o7wwwqweq0q90ip$:--->$@265",
"#6sfgn4wsssapzLLJKJKn;<%r:5-qyee",
"#edssD6%===*&&-;,=>>*$39;5,0fass",
"&%VJFr+9iiii7@+<6+%wtyuawiruupii",
"+.uai:oqddduy1&wdu*4223333333331",
"9555647udddds0,sNK$%66677777779*",
"ugddsasfdddaa42knb#2spaapaaaaap6",
"@20qewwwyw0e3O7Nwo&wgpgxvxcxxxvx",
"@O;;>>>;;+++=@===@-%76svccvxxxx1",
"61ysdddfp2$,355<4,06-q*oO-<111<2",
"gaadaaadbzOr0q0ywptM3Br@<upaaaia",
"GAASZSDSn2+8ACZAACM66Vw$>tpfNAZZ",
"tqwqyrwe<X%@rqwqrt6O2mrX ;>1qree",
"o%+&==#.&=-,@=$#O-;&:vpOO*-&OO%;",
"$6>9tp5%,dgA*7330da0>f8+;taa9+8d",
"@<4<0dq%4BBD:269ffs0<xu&adpsJ*0u",
"@3O769#X>lgr#,-6234>>f4#1jVVl&qv",
"$22@-63s9O@6r=56wt*>*<&Oo0ir$.-w",
"+ep#9dgJv*8kN,ssZZ:t870858&<866f",
"+ep#7hzFc<shM,asNS-wdiaaft*slkxJ",
"$rp@6GTUv:pzV,ppmD#:ffghd1+ZRUTY",
"qsi#&11>=1sjM,aiVF$+&=&%&#X,<<2<",
"gst$4x3763alN#;tJZ:5,r1%o#8>.qyd",
"$&@$7F7w6<fjb-4%&-#,ugMm&7dV:wip",
"*7:rpD5q7wJm%10o2w;6<hu%+0fG;#$&",
"o+rfpF6w8X#+o=9oXOXo.X#XXqpF>.5s",
"@01siF7tsq0w0rq,rwqqqqdx#9BI,0is",
"+-6uBU6#4sgdfi9+6bLPPPYJ*8Dw$ifV"
};
