/* XPM */
static char *result[] = {
/* columns rows colors chars-per-pixel */
"69 69 94 2 ",
"   c gray47",
".  c #7C7C7C",
"X  c gray49",
"o  c #7E7E7E",
"O  c gray50",
"+  c #808080",
"@  c #818181",
"#  c gray51",
"$  c #838383",
"%  c #848484",
"&  c gray52",
"*  c #868686",
"=  c gray53",
"-  c #888888",
";  c #898989",
":  c gray54",
">  c #8B8B8B",
",  c gray55",
"<  c #8D8D8D",
"1  c #8E8E8E",
"2  c gray56",
"3  c #909090",
"4  c gray57",
"5  c #929292",
"6  c #939393",
"7  c gray58",
"8  c #959595",
"9  c gray59",
"0  c #979797",
"q  c #989898",
"w  c gray60",
"e  c #9A9A9A",
"r  c #9B9B9B",
"t  c gray61",
"y  c #9D9D9D",
"u  c gray62",
"i  c #9F9F9F",
"p  c #A0A0A0",
"a  c gray63",
"s  c #A2A2A2",
"d  c gray64",
"f  c #A4A4A4",
"g  c #A5A5A5",
"h  c gray65",
"j  c #A7A7A7",
"k  c gray66",
"l  c #A9A9A9",
"z  c #AAAAAA",
"x  c gray67",
"c  c #ACACAC",
"v  c gray68",
"b  c #AEAEAE",
"n  c #AFAFAF",
"m  c gray69",
"M  c #B1B1B1",
"N  c #B2B2B2",
"B  c gray70",
"V  c #B4B4B4",
"C  c gray71",
"Z  c #B6B6B6",
"A  c #B7B7B7",
"S  c gray72",
"D  c #B9B9B9",
"F  c gray73",
"G  c #BBBBBB",
"H  c #BCBCBC",
"J  c gray74",
"K  c gray",
"L  c gray75",
"P  c #C0C0C0",
"I  c #C1C1C1",
"U  c gray76",
"Y  c #C3C3C3",
"T  c gray77",
"R  c #C5C5C5",
"E  c #C6C6C6",
"W  c gray78",
"Q  c #C8C8C8",
"!  c gray79",
"~  c #CACACA",
"^  c #CBCBCB",
"/  c gray80",
"(  c #CDCDCD",
")  c #CECECE",
"_  c gray81",
"`  c #D0D0D0",
"'  c gray82",
"]  c #D2D2D2",
"[  c LightGray",
"{  c gray83",
"}  c gray84",
"|  c #D7D7D7",
" . c gray85",
".. c gainsboro",
/* pixels */
"= * = ; : = = - - * & # : a h 4 : > w h w + * i l 4 : y h 8 = , = ; 4 i l h 8 & % , p v k k x g m k t 4 ; * * - O & # = % 3 v z l f Z ) D ",
"- , : $ % > , * # * - $ - a k 7 1 3 r f w = , i l 0 4 a f : . : % ; 6 a k s 3 @ : 4 g m x z v k z f w 2 = $ $ $ 5 4 * = = 8 m z m v G ~ Z ",
"n j 8 ; 8 f w + * w h 8 % 8 l f a d l c h y a x n k l H J t 7 N S v i 8 6 0 e y ; 2 d b k l c k b c k g f f g h u 0 & # @ 3 x g z k b V p ",
"v f 8 2 q a 0 & 1 e f q ; 0 n B h z x l h h l x l z m U L w 7 K ( G i ; $ < p b > 2 p l d f l g j j l z c v n n f p 2 ; $ 4 m n N x c v q ",
"> 5 u s 0 2 e v k 8 2 e z I ) Q Q ^ ~ E E ~ ^ ! W ! ^ { Q y 9 K / ~ R P J P E ~ U I W T V b n z k l l l k h f s c b d r 3 y U Q Z x k z 8 ",
"- 1 y h w : 0 N n 6 > t b L E I ( ( ( ^ ^ ( ( ( / / / ) I u q C W ~ ) ` ` ) ^ ~ [ ( / T m z v z b n m m m b c x l c a e 4 a ! ' F b x v q ",
"1 - = > : $ $ : 5 % & < > < 8 9 5 4 5 7 6 3 3 6 7 6 6 0 5 @ O 3 r q 7 4 3 4 5 5 9 5 9 8 , 6 s h g j l x c c c c k s 3 : ; p Q ( / W E T m ",
"1 < ; % # & = = > # & , - - : % % @ $ ; = + + * ; = = > , * * 2 % $ % * ; : = $ & @ * - & 5 j b v c c x z k j h N s = $ : h ( ( _ ` ' ^ Z ",
"% : > & * , > $ = , < , ; & * : > > > > > > > > 1 < > : ; : : > = ; > : - - : , = + - > $ 1 a d h k z x c b v x x t : & 4 z Y ] ! ~ ^ Q R ",
"; ; ; < q f j f c c p 2 = % , y g g g g g g g g d g k z z l j g j j k j h g g h b n J Z 9 > 5 2 8 3 > : ; ; < 4 3 1 > * % = 1 7 6 6 6 5 4 ",
"3 ; - 6 s z v b k b g r 8 ; : u b b b b b b b b j k z x c c c c c x z l l l k j b C ~ L 4 o - = - % & > > % $ = < , , < 1 < ; * - - - ; : ",
"1 : 3 i l k k c l n n S G p 2 p x x x x x x x x c z l x N J ! ` ^ ~ ! ! ~ ^ ~ Q R E ' U 9 : r p & = 8 j l r 3 2 j q , 5 d b x s h g f j z ",
"* , y n B c x N V n v I ~ h ; 7 g g g g g g g g k h g j n G W _ Q Q Q ! ~ ^ ^ ^ ~ Y Y V 0 6 f k , 1 q f h t 8 8 k t 5 q k B m k b c c b M ",
"% 1 i c b l k x k d k I ~ f # * 3 3 3 3 3 3 3 3 1 1 < < 1 3 5 6 2 5 7 6 4 3 5 8 9 5 4 < & * 1 2 d u 9 3 2 6 w y , 7 p k c z k h z l l z x ",
": 2 9 y j m m c N M A Y P d 1 4 , , , , , , , , , > ; = & $ # @ & > 1 : $ O # - - , < 1 3 2 < 2 n b s 4 2 t g g : q l M n x x b c v v c x ",
"1 1 < 9 b Q ) W ~ R F z 0 - ; 7 h h h h h h h h k d e 5 , : : > 4 0 r 8 ; $ = 1 r g g g z j d z g n v p i x c s g j l l k l c n z x c l h ",
"2 1 + & k U T R E E H d ; @ < y c c c c c c c c k M f < - ; - , 3 j z r 5 > - < s s d g j k l l g g g g g g g g g g g g g g g g i l z a u ",
": , % > x I T T Y U S d < & 1 e c c c c c c c c d c h w 7 1 ; 1 0 g f y t 7 , 2 l l k j j k l l k k k k k k k k k k k k k k k k h l k d s ",
"* = O O 1 0 6 3 3 4 3 - @ # < q c c c c c c c c f z j d i 4 , 0 d x m F I n 7 > > > > : ; - - ; : : : : : : : : : : : : : : : : < > ; - ; ",
"7 5 1 > 1 2 , : < 1 1 < < 4 q u c c c c c c c c x x k k d 3 1 a b m Z ^  .P w = @ & : < < , > > < < < < < < < < < < < < < < < < 4 1 ; * ; ",
"l g f g d f h h k j g d s s d f c c c c c c c c c c x b j 3 , a z l x P ] K q * > 7 p k z k j h k k k k k k k k k k k k k k k k c k r < 3 ",
"V c b M x k x l j j j j j k l z c c c c c c c c h x v n k 4 > u p j m U ] K q % = 6 s x c z l l z z z z z z z z z z z z z z z z v k 0 $ % ",
"z a l V m b m v v v v v c c b n c c c c c c c c h x l d t 1 4 h n D G H P N 8 * 3 e h c x k k z l l l l l l l l l l l l l l l l k l d q 0 ",
"4 ; 0 l l k z g c c c z k k z c c c c c c c c c v b a 6 , : w V _ ) C e 8 6 1 1 y g c b z j k c l l l l l l l l l l l l l l l l g b A G S ",
"= , 6 r p f j k h h h h h h h h h v j s j f p l s p e 4 = ; w x H L Z t * @ - < l d b M v z h n k M m m S V c N n n n n n n n n B D S N N ",
", , > > > : = & < < < < < < < < = 3 < ; 3 < & = 5 3 1 : $ $ < w 9 3 < , - $ % > ; < a z z l k V ~ ` ^ Q _ ) ~ ' ) ) ) ) ) ) ) ) ) W n 8 8 ",
", - & = , 2 1 , 2 2 2 2 2 2 2 2 2 7 2 - < 2 - & % 1 3 = & , 2 : > , < , : : < 4 = 2 u d d p p c G K F A H G D K F F F F F F F F K F g : : ",
", - = 1 e g l k h h h h h h h h p i 7 - = > > : - r u 1 2 p i , 4 g j 4 & 5 i p , < ; = , > = < 1 3 4 5 7 6 3 4 < < < < < < < < ; 2 1 % % ",
"r 8 4 8 i k x z b b b b b b b b v k s q , - : , 9 t y q e a p q < u s 5 : 9 s d r 9 & & e u 4 > = & & * = : 2 2 3 3 3 3 3 3 3 3 2 4 5 5 5 ",
"c j s a h l z l x x x x x x x x C B H H d 1 2 9 s 5 4 i p 6 7 d r 6 6 y d y q w D B w r G P v u 4 ; = = = 5 i s k k k k k k k k z j k x x ",
"M b c x c b n n z z z z z z z z v c P ! h % - r j q q g d 8 9 j m y w z N g e y Y J w 7 C L B l , & : 2 1 e k k x x x x x x x x f g j z z ",
"b v c z k k l z z z z z z z z z b z I / f o : k k x c k g g j k b h d l x k k v E P 7 ; x J P Y ; = 8 s s z M x k k k k k k k k z v c z z ",
"F D A V V Z S A A S S D D D S S F J F c q , 2 q i M J D M m N N Z G F V N A S V C g , e N J P b 2 > 6 e w p k g v x c m C S Z V A Z A S S ",
"] _ / ^ / ( ( ( Q Q ! ~ ^ / ( ( E J x 9 - $ % & t V ! ( ^ ( ) / E / ( ! Q ~ Q Y w 5 & e V H F h 3 = ; , , e z c h k b D Y ~ / ^ ! ! ! ! ! ",
"D V M N V B N M J H F D S A Z Z S c 0 * & < , $ 4 k F G S F F Z B S F D D D C n , : $ e M A A g 3 & % % # 2 p d e t s z N A S A A S S Z Z ",
"9 4 2 5 6 3 2 3 6 5 4 3 3 2 2 2 5 3 - @ - 5 1 + $ 2 8 2 : , 1 , < 1 2 3 5 4 1 ; , : + 7 v S Y D 1 * - - # = 1 > , < < 2 4 4 4 4 1 4 4 1 1 ",
"- $ % : ; % % ; + # % & = = = = O * ; & & - * O * % % % % % * ; & @ + # * = * & > - X 3 z F ^ E 1 = : > % * : % ; - = & & * ; > # - ; % % ",
"- * > 5 2 = : 8 0 q w q 7 2 ; & - 2 0 0 6 5 w p a 4 > 0 r 5 < 6 6 < : 3 9 q q w 0 6 % 6 h n D n 1 * = ; & < q 9 9 8 5 < ; = - : 1 0 r 9 9 ",
"3 4 e d t 4 q k j l l j p 8 > % 1 5 u l k g M Y P y < u g 8 1 q r 7 7 u j j h h z a , 7 d j x y < & = > > 0 h j g g d t 5 ; % $ 0 f l g g ",
"* ; 8 i 9 : 6 j i f l x k p 0 3 : > w v n h v P _ y % q d 7 6 h y 9 w h m n x x n s ; 4 s x V l , * , 5 6 u x x z v n z i 7 , - e l m c c ",
"< - > 6 e g y & - w k c c x a 8 < < y v z g M I I s > % > a j 8 1 y l x x v c h k y = 4 g V T L 0 > 4 s k c n z k c l D / M > ; 0 C g v P ",
"> * 3 e 0 0 e 9 8 p l c l s 0 1 * : d G F C K W ^ d 2 8 q r t q t h v c c b b z b d < 9 k N J B : & 6 j c c x d v c j D ` A , $ 8 m a l F ",
"3 > w g 0 , e x j k x b k r 2 : 1 8 V ' ] ( ` ] Q y 3 d h 9 8 p k c v l l c v x x a > 7 f k c y 4 1 r z z x b l x x j A ! B 2 * e M f v G ",
"1 - 9 a 2 # 4 h a y u s t < & * $ = i C V m N m j : & w t , > r u y w 0 q e r e r 8 & 6 g z v y < - < 7 7 a V F F L H G S p , 3 9 v v G E ",
"; @ : 6 - O = < > ; , 5 1 $ # - ; & ; 1 > - > , : = % = ; & = 2 2 > - > 1 < ; * 1 , # 7 j b V j ; $ * ; , f U ) ^ ` ! A a ; $ 2 e n F ) { ",
"2 - 2 e 0 7 2 & * , 8 w 9 6 q a M j 9 ; = * : 4 9 k d 1 > 7 q q w 9 q a g u 5 ; 7 6 * 2 0 9 r 3 , - > : ; e n B b n l e : o + : 5 t s M B ",
"5 1 w l x k t - > r z z g k N G W J i ; > , 1 t c Q L r 6 s z z x l M P T C u 3 p i 1 1 , & : # : - > * O = 1 = : > , > ; ; : , & & & 1 < ",
"= & 9 z b l e & - i m c h c S P _ Q g , 6 8 9 h c ~ L 0 1 i z n c x Z Q / A w = f g q q 0 6 u e w 0 r 0 4 w y 6 , < 6 w r t q 4 e w u z k ",
", > e z c k e % > a v c x k m Y ! ` d + r v f j M T Q u < f z l z c V W ` C 0 4 g j z z l l c n b l h k c x g i = 8 a f g k l h k f M  .B ",
": ; w z c k e % ; t h h k h v K R ( h ; d N h j c L T r , g x x z c N R ` A 0 2 a h c v z k k z v z l c m b j p = w z v x x c x v x V [ m ",
"- = q z v l e $ , p b A L L L ~ L R p & u n k z c L T r > d l l z x n Y ` D 0 : 4 t k v z h h j z l z c c j t 5 $ y Z J D S D F K L U { Z ",
"; - q z v l e $ & t m Y [ [ / ` ( ~ s & 0 k j v M Y W t > s j j k z b I ` G 0 * = 8 j m M b v n m n n n x p 5 = % g E ] ` ) _ ` / ` / ] F ",
"3 1 t x v k e % > u b L ` ' ! / _ ^ k 1 t l k x M Y Q u < g x x j x m I _ H 0 & = 6 f v n v c v b n n b l i 5 ; * h E ] ` ( / / ) { / ( G ",
"t q s v c j e % < q r a v v k v s f 7 , i c z x c L R y 1 j b b f v B U _ J w & % : 5 0 0 9 8 8 9 0 w w 0 6 < - O 7 j c l j g s z m k k y ",
"l s j n c j e & + ; ; ; 2 > % - % ; & - y x x x v P T e : s j j s n S T _ J e = ; = * = ; > > : & * * = = = = = % > < - = > < : * > & ; # ",
"M k x m c h e * > w u a g r 1 2 w e 4 2 u l l k V R E w & w t e a m G E _ H e - w 7 2 2 7 w r r , > : ; - : , 1 r 0 < % * 4 0 0 y a y g p ",
"C N b c v j q : = t x H P i ; e x k 9 2 p v x z N P I p $ : 6 * 4 P [ _ ] L t 1 c r < 3 a x j y O ; & @ ; - - 5 c 0 0 $   0 l h b g N M h ",
"r 8 4 8 q 8 < * = r c P R s : e v j 6 > y z k h l U Q g * 3 w ; > h h r s r > < 8 w a j z x x x Z S d , : 3 9 p v h N t % w z c c f b c d ",
"; % & > : $ & 1 > y v Y ! f : w m j 3 - r z k h v L P p ; e d 3 * 2 = # , ; $ 1 = 6 s z x c m C _ ( N 5 , 0 d x c B ^ B , 7 d l m x m c h ",
"< < 8 r 3 # > p q d b T ~ f ; w b h 5 2 l K I I J N s 2 < d z 9 % : < q f w > 3 r 0 9 y l C G J c c i < > w j v l C ] S : : 7 q 6 6 7 2 < ",
"4 6 y g r 1 0 c h z b I Q s = w x h 8 8 N ^ ' { J y = = 7 h j 9 & : 6 h M d 4 4 x u 5 8 g C G G ; ; - * ; 9 g c x V ) C - * > ; @ ; - $ * ",
"> - 1 e i y s c n c c P Q a * w c j 7 > t z x v f , # : 0 d s 5 = & = 5 w 6 , 1 9 5 < < 5 w p f ; % & = = 7 h c n C / V > ; ; $ 6 d a i g ",
"- # # , t h z x b l l P ^ d = e b l 6 @ & - $ $ : = - - < a g 5 - % # % * * = - # & = & # # = , < - : - & 8 k l c B ) A < : ; $ 9 v c v Z ",
"< - % : w z M m z g j U ) h - e x z 9 & - > = ; O > < o @ a c 8 - ; > , ; ; = $ - - = * & & = - $ % : = % q z f f m _ S > * = # 3 x c b D ",
"< * 0 k e > w v B k f K ~ s ; a n x g i t y i a k i u i p k h 7 < t f p y a f a s d f d a s g k n Z z : < 6 h M J Q ` V > < s a k l x x J ",
"> - r x p 9 s N h x M W _ j ; q M M n v x l j j j d l c x n k 7 6 i z c c x l j g j k j g g l c ( ( A < : 3 g N ( _ ( N 4 6 l v c l z c H ",
"5 : 5 y w w g x l F I W W g ; 4 6 q p j x c z k n c M M z z d 4 - < e k B S J Y U Y T Y I U R Q _ _ S 2 < 8 c G ^ H l 8 = 3 f c v x N H ! ",
": X @ 1 0 d z g h E [ ] ~ f + X : 4 t j b M m n v z c k a g h w = % : y b F Q | ` ' ] ' _ ` [ } ) _ G 5 < 2 p x _ m 3 $ > t c B v b L ' ..",
"r 7 a A T _ [ ^ E [ E N l 0 1 u q t a h l z k j d a h h d x n f p 9 5 9 0 7 q p y i p i y y a f u h i * 7 j T } _ m 3 $ > t c B v b L ' .."
};
